<?xml version="1.0" encoding="utf-8"?>
<!-- Generator: Adobe Illustrator 18.0.0, SVG Export Plug-In . SVG Version: 6.00 Build 0)  -->
<!DOCTYPE svg PUBLIC "-//W3C//DTD SVG 1.1//EN" "http://www.w3.org/Graphics/SVG/1.1/DTD/svg11.dtd">
<svg version="1.1" id="Layer_1" xmlns="http://www.w3.org/2000/svg" xmlns:xlink="http://www.w3.org/1999/xlink" x="0px" y="0px"
	 viewBox="0 464.8 612 106.6" enable-background="new 0 464.8 612 106.6" xml:space="preserve">
<g id="Layer_2">
</g>
<polygon fill="#866839" points="0,524.7 0,464.8 0.2,464.8 42.7,504 42.7,504 0.2,524.8 "/>
<polygon fill="#866839" points="0,464.8 42.7,504 0,524.7 "/>
<polygon fill="#7C5829" points="42.6,504 44.6,473.9 44.8,473.8 64.7,486.8 64.7,487 42.7,504 "/>
<polygon fill="#7C5829" points="42.7,504 64.5,486.8 44.6,473.9 "/>
<polygon fill="#7C5829" points="0,465 0,464.8 44.6,464.8 44.8,464.8 44.8,473.9 42.7,504 42.6,504 "/>
<polygon fill="#7C5829" points="42.7,504 44.6,473.9 44.6,464.8 0,464.8 "/>
<polygon fill="#462C19" points="64.5,487 44.6,473.9 44.6,473.8 83.4,473.8 83.6,473.9 70.7,487 70.7,487 "/>
<polygon fill="#462C19" points="64.5,486.8 70.7,486.8 83.4,473.9 44.6,473.9 "/>
<polygon fill="#603C1E" points="44.6,473.9 44.6,473.8 96.6,464.8 96.8,465 83.6,473.9 83.4,473.9 "/>
<polygon fill="#603C1E" points="83.4,473.9 96.8,464.8 44.6,473.9 "/>
<polygon fill="#714A26" points="44.6,473.9 44.6,464.8 44.6,464.8 96.8,464.8 96.8,465 44.8,473.9 "/>
<polygon fill="#714A26" points="44.6,473.9 96.8,464.8 44.6,464.8 "/>
<polygon fill="#603D1B" points="70.7,487 70.7,486.8 83.4,473.8 83.4,473.8 126.7,494.8 126.7,494.9 "/>
<polygon fill="#603D1B" points="70.7,486.8 126.7,494.8 83.4,473.9 "/>
<polygon fill="#5F3719" points="83.4,473.9 83.4,473.8 96.6,464.8 96.8,464.8 126.7,494.8 126.7,494.9 "/>
<polygon fill="#5F3719" points="126.7,494.8 96.8,464.8 83.4,473.9 "/>
<polygon fill="#5F3C1B" points="96.6,465 96.8,464.8 138.2,464.8 138.2,465 126.7,494.9 126.7,494.9 "/>
<polygon fill="#5F3C1B" points="126.7,494.8 138.2,464.8 96.8,464.8 "/>
<polygon fill="#553219" points="126.7,494.8 138.2,464.8 138.2,464.8 180.5,464.8 180.7,465 126.7,494.9 "/>
<polygon fill="#553219" points="126.7,494.8 180.5,464.8 138.2,464.8 "/>
<polygon fill="#744E24" points="101.4,491.3 101.4,491.2 126.7,494.8 126.7,494.9 117.4,502.2 117.4,502.2 "/>
<polygon fill="#744E24" points="126.7,494.8 117.4,501.9 101.4,491.3 "/>
<polygon fill="#7B5226" points="92.2,499 92.2,498.8 101.4,491.2 101.4,491.2 117.4,501.9 117.4,502.2 "/>
<polygon fill="#7B5226" points="117.4,501.9 92.3,498.8 101.4,491.3 "/>
<polygon fill="#775125" points="73.5,496.7 73.5,496.4 101.4,491.2 101.4,491.3 92.3,499 92.2,499 "/>
<polygon fill="#775125" points="92.3,498.8 73.5,496.7 101.4,491.3 "/>
<polygon fill="#76502C" points="64.5,487 64.5,486.8 70.7,486.8 70.7,486.8 73.6,496.7 73.5,496.7 "/>
<polygon fill="#76502C" points="73.5,496.7 64.5,486.8 70.7,486.8 "/>
<polygon fill="#896230" points="73.5,496.7 70.7,487 70.7,486.8 101.4,491.2 101.4,491.3 "/>
<polygon fill="#896230" points="73.5,496.7 101.4,491.3 70.7,486.8 "/>
<polygon fill="#5F3719" points="42.6,504 64.5,486.8 64.7,486.8 73.6,496.7 73.5,496.7 42.7,504 "/>
<polygon fill="#5F3719" points="73.5,496.7 42.7,504 64.5,486.8 "/>
<polygon fill="#987C54" points="0,524.8 0,524.7 42.6,504 42.7,504 17.7,542.9 17.7,542.9 "/>
<polygon fill="#987C54" points="42.7,504 17.7,542.9 0,524.7 "/>
<polygon fill="#97794A" points="0,557.3 0,524.7 0.2,524.7 17.7,542.8 17.7,542.9 0.2,557.5 "/>
<polygon fill="#97794A" points="17.7,542.9 0,557.3 0,524.7 "/>
<polygon fill="#87683C" points="0,557.3 17.7,542.8 17.7,542.9 13.9,554.4 0.2,557.5 "/>
<polygon fill="#87683C" points="17.7,542.9 13.9,554.3 0,557.3 "/>
<polygon fill="#462C17" points="0,557.3 0,557.3 13.9,554.3 13.9,554.4 7,570 6.9,570 "/>
<polygon fill="#462C17" points="13.9,554.3 7,570 0,557.3 "/>
<polygon fill="#674728" points="28.3,565.4 28.3,535.7 28.5,535.7 39.1,542.8 39.1,542.9 28.5,565.4 "/>
<polygon fill="#674728" points="28.3,565.4 39.1,542.9 28.3,535.7 "/>
<polygon fill="#674728" points="13.7,554.4 13.7,554.3 28.3,535.7 28.5,535.7 28.5,565.4 28.3,565.4 "/>
<polygon fill="#674728" points="28.3,535.7 13.9,554.3 28.3,565.4 "/>
<polygon fill="#856B3F" points="6.9,570 13.7,554.3 13.9,554.3 28.5,565.4 28.3,565.7 7,570 "/>
<polygon fill="#856B3F" points="13.9,554.3 7,570 28.3,565.4 "/>
<polygon fill="#5C381D" points="13.7,554.3 17.7,542.8 42.6,504 42.7,504 28.5,535.7 13.9,554.4 "/>
<polygon fill="#5C381D" points="13.9,554.3 17.7,542.9 42.7,504 28.3,535.7 "/>
<polygon fill="#856638" points="28.3,535.8 28.3,535.7 42.6,504 42.7,504 39.1,542.9 39.1,542.9 "/>
<polygon fill="#856638" points="39.1,542.9 42.7,504 28.3,535.7 "/>
<polygon fill="#755629" points="39,542.9 42.6,504 42.6,504 73.5,496.4 73.6,496.7 39.1,542.9 "/>
<polygon fill="#755629" points="39.1,542.9 73.5,496.7 42.7,504 "/>
<polygon fill="#3A2514" points="39,542.8 73.5,496.7 73.5,496.4 117.4,501.9 117.4,502.2 39.1,542.9 "/>
<polygon fill="#3A2514" points="39.1,542.9 117.4,501.9 73.5,496.7 "/>
<polygon fill="#51341C" points="145,516.5 117.4,502.2 117.4,501.9 159.3,511 159.3,511.3 "/>
<polygon fill="#51341C" points="117.4,501.9 145,516.5 159.3,511.3 "/>
<polygon fill="#57361B" points="159.1,511.3 117.4,502.2 117.4,501.9 178,509.2 178,509.3 159.3,511.3 "/>
<polygon fill="#57361B" points="159.3,511.3 178,509.2 117.4,501.9 "/>
<polygon fill="#795A33" points="117.4,502.2 117.4,501.9 163.7,496.4 178,509.2 178,509.3 "/>
<polygon fill="#795A33" points="178,509.2 163.7,496.7 117.4,501.9 "/>
<polygon fill="#664220" points="117.4,501.9 126.7,494.8 163.7,496.4 163.7,496.7 117.4,502.2 "/>
<polygon fill="#664220" points="163.7,496.7 126.7,494.8 117.4,501.9 "/>
<polygon fill="#512E1B" points="126.7,494.9 126.7,494.8 180.5,464.8 180.7,464.8 196,495.4 195.8,495.7 163.7,496.7 "/>
<polygon fill="#512E1B" points="163.7,496.7 195.8,495.4 180.5,464.8 126.7,494.8 "/>
<polygon fill="#785B34" points="195.8,495.7 195.8,495.4 234.6,491.2 234.6,491.3 212.8,502.9 212.6,502.9 "/>
<polygon fill="#785B34" points="195.8,495.4 212.6,502.9 234.6,491.3 "/>
<polygon fill="#684328" points="195.8,495.4 180.5,465 180.5,464.8 234.6,491.2 234.6,491.3 195.8,495.7 "/>
<polygon fill="#684328" points="234.6,491.3 180.5,464.8 195.8,495.4 "/>
<polygon fill="#513318" points="180.5,465 180.5,464.8 253,464.8 253.1,465 234.8,491.3 234.6,491.3 "/>
<polygon fill="#513318" points="234.6,491.3 253,464.8 180.5,464.8 "/>
<polygon fill="#866B43" points="212.6,502.9 212.6,502.8 234.6,491.2 260.7,502.8 260.7,502.9 "/>
<polygon fill="#866B43" points="234.6,491.3 260.7,502.9 212.6,502.9 "/>
<polygon fill="#785B34" points="177.8,509.2 195.8,495.4 196,495.4 212.8,502.8 212.8,502.9 178,509.3 "/>
<polygon fill="#785B34" points="212.6,502.9 178,509.2 195.8,495.4 "/>
<polygon fill="#73522F" points="177.8,509.3 163.7,496.7 163.7,496.4 195.8,495.4 196,495.7 178,509.3 "/>
<polygon fill="#73522F" points="178,509.2 163.7,496.7 195.8,495.4 "/>
<polygon fill="#3A1F11" points="39.1,542.9 39.1,542.8 117.4,501.9 117.6,501.9 66.2,554.4 66.2,554.4 "/>
<polygon fill="#3A1F11" points="39.1,542.9 66.2,554.3 117.4,501.9 "/>
<polygon fill="#3C241A" points="66.2,554.4 66.2,554.3 117.4,501.9 117.6,501.9 92.3,554.4 92.3,554.4 "/>
<polygon fill="#3C241A" points="66.2,554.3 92.3,554.3 117.4,501.9 "/>
<polygon fill="#442A16" points="92.3,554.4 92.2,554.3 109.8,539 109.8,539 107.6,554.4 107.6,554.4 "/>
<polygon fill="#442A16" points="92.3,554.3 107.6,554.3 109.8,539 "/>
<polygon fill="#3D2416" points="92.2,554.3 117.4,501.9 117.6,501.9 109.8,539 92.3,554.4 "/>
<polygon fill="#3D2416" points="109.8,539 117.4,501.9 92.3,554.3 "/>
<polygon fill="#51341C" points="109.8,539 117.4,501.9 117.4,501.9 145,516.3 145,516.5 109.8,539.3 "/>
<polygon fill="#51341C" points="109.8,539 145,516.5 117.4,501.9 "/>
<polygon fill="#442A16" points="83.4,571.4 66.2,554.4 66.2,554.3 107.6,554.3 107.6,554.4 83.6,571.4 "/>
<polygon fill="#442A16" points="107.6,554.3 83.4,571.4 66.2,554.3 "/>
<polygon fill="#38241A" points="28.3,565.7 28.3,565.4 66.2,554.3 66.2,554.3 83.6,571.3 83.4,571.4 "/>
<polygon fill="#38241A" points="83.4,571.4 28.3,565.4 66.2,554.3 "/>
<polygon fill="#341F16" points="28.3,565.4 39,542.8 39.1,542.8 66.2,554.3 66.2,554.4 28.3,565.7 "/>
<polygon fill="#341F16" points="28.3,565.4 39.1,542.9 66.2,554.3 "/>
<polygon fill="#533B1D" points="212.6,502.9 212.6,502.8 260.7,502.8 260.7,502.9 243.9,506.5 243.9,506.5 "/>
<polygon fill="#533B1D" points="260.7,502.9 243.9,506.5 212.6,502.9 "/>
<polygon fill="#7A5E37" points="178,509.2 212.6,502.8 243.9,506.4 243.9,506.5 178,509.3 "/>
<polygon fill="#7A5E37" points="243.9,506.5 178,509.2 212.6,502.9 "/>
<polygon fill="#614022" points="156.5,531.8 145,516.5 145,516.3 159.1,511 178,509.2 178,509.3 156.7,531.8 "/>
<polygon fill="#614022" points="178,509.2 156.7,531.8 145,516.5 159.3,511.3 "/>
<polygon fill="#54361D" points="109.8,539 145,516.3 145,516.5 156.7,531.8 156.7,531.8 109.8,539.3 "/>
<polygon fill="#54361D" points="156.7,531.8 109.8,539 145,516.5 "/>
<polygon fill="#39251A" points="107.4,554.3 109.8,539 109.8,539 156.7,531.8 156.7,531.8 107.6,554.4 "/>
<polygon fill="#39251A" points="156.7,531.8 107.6,554.3 109.8,539 "/>
<polygon fill="#5E4424" points="269.3,516.5 260.5,502.9 260.7,502.8 285.1,498.8 285.2,499 269.4,516.5 "/>
<polygon fill="#5E4424" points="260.7,502.9 269.3,516.5 285.1,498.8 "/>
<polygon fill="#4E3619" points="260.7,502.9 234.6,491.3 234.6,491.2 285.1,498.8 285.1,499 "/>
<polygon fill="#4E3619" points="285.1,498.8 234.6,491.3 260.7,502.9 "/>
<polygon fill="#2C1E15" points="234.6,491.3 234.6,491.2 253,464.8 253.1,464.8 285.2,498.8 285.1,499 "/>
<polygon fill="#2C1E15" points="285.1,498.8 253,464.8 234.6,491.3 "/>
<polygon fill="#5A4021" points="269.3,516.5 269.3,516.5 285.1,498.8 285.2,498.8 280.6,516.5 280.6,516.5 "/>
<polygon fill="#5A4021" points="285.1,498.8 280.6,516.5 269.3,516.5 "/>
<polygon fill="#664B2D" points="288.2,528.3 280.4,516.5 285.1,498.8 285.2,498.8 291.4,524.7 288.3,528.3 "/>
<polygon fill="#664B2D" points="285.1,498.8 291.2,524.7 288.2,528.3 280.6,516.5 "/>
<polygon fill="#6B4A2E" points="291.2,524.7 285.1,498.8 285.2,498.8 306.2,520.4 306,520.7 291.2,524.8 "/>
<polygon fill="#6B4A2E" points="285.1,498.8 306,520.4 291.2,524.7 "/>
<polygon fill="#4E3117" points="277.2,491.3 277.2,491.2 285.1,484.4 293.3,486.8 293.3,487 285.2,499 285.1,499 "/>
<polygon fill="#4E3117" points="285.1,498.8 293.3,486.8 285.1,484.4 277.2,491.3 "/>
<polygon fill="#5E3B1F" points="285.1,499 285.1,498.8 293.3,486.8 293.3,486.8 306.2,520.4 306,520.7 "/>
<polygon fill="#5E3B1F" points="293.3,486.8 306,520.4 285.1,498.8 "/>
<polygon fill="#4B301D" points="306,520.4 293.3,487 293.3,486.8 322.5,502.8 322.5,502.9 306.2,520.7 "/>
<polygon fill="#4B301D" points="306,520.4 322.3,502.9 293.3,486.8 "/>
<polygon fill="#392618" points="306,520.4 322.3,502.8 322.5,502.9 325,513.4 324.9,513.7 306,520.7 "/>
<polygon fill="#392618" points="306,520.4 324.9,513.7 322.3,502.9 "/>
<polygon fill="#4B321E" points="324.9,513.7 324.9,513.7 322.3,502.9 322.3,502.8 345.8,511.8 345.8,511.9 338.8,516.5 338.6,516.5 
	"/>
<polygon fill="#4B321E" points="324.9,513.7 338.6,516.5 345.8,511.8 322.3,502.9 "/>
<polygon fill="#33251C" points="345.8,511.9 322.3,502.9 322.3,502.8 359.5,503.7 359.7,503.8 352.5,511.3 "/>
<polygon fill="#33251C" points="345.8,511.8 352.5,511.3 359.5,503.7 322.3,502.9 "/>
<polygon fill="#352518" points="322.3,502.9 322.3,502.8 383.1,495 383.1,495 375,502.9 359.5,503.8 "/>
<polygon fill="#352518" points="359.5,503.7 374.8,502.9 383.1,495 322.3,502.9 "/>
<polygon fill="#291F16" points="383.1,495 365.2,482 365.2,481.8 399.4,488.9 399.4,489 390.8,491.8 386.7,497.2 386.5,497.2 "/>
<polygon fill="#291F16" points="383.1,495 386.7,497.2 390.6,491.8 399.4,488.9 365.2,481.8 "/>
<polygon fill="#221B14" points="322.3,502.8 365.2,481.8 365.2,481.8 383.1,495 383.1,495 322.3,502.9 "/>
<polygon fill="#221B14" points="365.2,481.8 322.3,502.9 383.1,495 "/>
<polygon fill="#322618" points="322.3,502.9 320.8,478.2 320.8,478.2 365.2,481.8 365.2,482 322.5,502.9 "/>
<polygon fill="#322618" points="365.2,481.8 320.8,478.2 322.3,502.9 "/>
<polygon fill="#442719" points="293.3,487 280.4,473.9 280.6,473.8 320.8,478.2 320.9,478.2 322.5,502.9 322.3,502.9 "/>
<polygon fill="#442719" points="320.8,478.2 280.6,473.9 293.3,486.8 322.3,502.9 "/>
<polygon fill="#533119" points="277.2,491.3 280.4,473.9 280.6,473.8 293.3,486.8 293.3,487 285.1,484.7 277.3,491.3 "/>
<polygon fill="#533119" points="280.6,473.9 277.2,491.3 285.1,484.4 293.3,486.8 "/>
<polygon fill="#311F14" points="253,465 253,464.8 277.2,464.8 277.3,464.8 280.6,473.9 277.3,490.7 277.3,490.8 "/>
<polygon fill="#311F14" points="280.6,473.9 277.2,464.8 253,464.8 277.3,490.7 "/>
<polygon fill="#382419" points="280.4,473.9 277.2,465 277.2,464.8 297.6,464.8 297.6,465 280.6,473.9 "/>
<polygon fill="#382419" points="280.6,473.9 297.6,464.8 277.2,464.8 "/>
<polygon fill="#4E3322" points="280.6,473.9 280.4,473.8 297.6,464.8 320.9,478.2 320.8,478.3 "/>
<polygon fill="#4E3322" points="297.6,464.8 320.8,478.2 280.6,473.9 "/>
<polygon fill="#2A1D15" points="365.2,482 365.2,481.8 410.9,482.5 410.9,482.8 399.4,489 399.4,489 "/>
<polygon fill="#2A1D15" points="399.4,488.9 410.9,482.5 365.2,481.8 "/>
<polygon fill="#342217" points="365.2,482 365.2,481.8 415.8,473.8 416,473.9 410.9,482.5 410.9,482.8 "/>
<polygon fill="#342217" points="410.9,482.5 416,473.9 365.2,481.8 "/>
<polygon fill="#3A261A" points="365.2,481.8 401.4,464.8 416,473.8 416,473.9 365.2,482 "/>
<polygon fill="#3A261A" points="416,473.9 401.4,464.8 365.2,481.8 "/>
<polygon fill="#3C291B" points="365.2,482 346.8,465 346.8,464.8 401.4,464.8 401.4,465 "/>
<polygon fill="#3C291B" points="401.4,464.8 346.8,464.8 365.2,481.8 "/>
<polygon fill="#291A13" points="320.8,478.3 320.8,478.2 346.8,464.8 346.8,464.8 365.2,481.8 365.2,482 "/>
<polygon fill="#291A13" points="365.2,481.8 346.8,464.8 320.8,478.2 "/>
<polygon fill="#492E18" points="320.8,478.2 297.6,465 297.6,464.8 346.8,464.8 346.8,465 320.9,478.2 "/>
<polygon fill="#492E18" points="346.8,464.8 297.6,464.8 320.8,478.2 "/>
<polygon fill="#3E2719" points="399.4,489 399.4,488.9 422,486.8 422.2,486.8 422.2,495.4 422,495.7 "/>
<polygon fill="#3E2719" points="399.4,488.9 422,495.4 422,486.8 "/>
<polygon fill="#39271B" points="399.4,488.9 410.9,482.5 422,486.8 422,487 399.4,489 "/>
<polygon fill="#39271B" points="422,486.8 410.9,482.5 399.4,488.9 "/>
<polygon fill="#482E1D" points="410.9,482.8 410.7,482.5 415.8,473.9 416,473.8 429.7,480.2 429.7,480.3 422.2,487 422,487 "/>
<polygon fill="#482E1D" points="422,486.8 429.7,480.2 416,473.9 410.9,482.5 "/>
<polygon fill="#271A12" points="415.8,473.9 401.4,465 401.4,464.8 450.3,464.8 450.3,465 429.7,480.3 429.7,480.3 "/>
<polygon fill="#271A12" points="429.7,480.2 450.3,464.8 401.4,464.8 416,473.9 "/>
<polygon fill="#482E1B" points="422,495.7 422,495.4 422,486.8 422,486.8 438,496.9 438,497.2 "/>
<polygon fill="#482E1B" points="422,495.4 438,497.2 422,486.8 "/>
<polygon fill="#432C1C" points="422,487 422,486.8 442.6,486.8 442.6,487 438,497.2 438,497.2 "/>
<polygon fill="#432C1C" points="438,497.2 442.6,486.8 422,486.8 "/>
<polygon fill="#482E1D" points="438,497.2 442.4,486.8 442.6,486.8 464.7,491.2 464.7,491.3 "/>
<polygon fill="#482E1D" points="438,497.2 464.7,491.3 442.6,486.8 "/>
<polygon fill="#583F28" points="438,497.2 438,496.9 464.7,491.2 464.9,491.3 461.8,503.7 461.7,503.8 "/>
<polygon fill="#583F28" points="438,497.2 461.7,503.7 464.7,491.3 "/>
<polygon fill="#3C2617" points="461.7,503.7 464.7,491.3 464.7,491.2 476.6,496.9 476.6,497.2 461.7,503.8 "/>
<polygon fill="#3C2617" points="461.7,503.7 476.6,497.2 464.7,491.3 "/>
<polygon fill="#634526" points="461.7,503.8 461.7,503.7 476.6,496.9 476.6,497.2 464.7,504.8 464.7,504.8 "/>
<polygon fill="#634526" points="461.7,503.7 464.7,504.8 476.6,497.2 "/>
<polygon fill="#6D4E2F" points="464.7,515.3 464.7,504.8 476.6,496.9 476.8,497.2 "/>
<polygon fill="#6D4E2F" points="464.7,504.8 464.7,515.3 476.6,497.2 "/>
<polygon fill="#71502F" points="464.7,515.5 464.7,515.3 476.6,496.9 476.8,497.2 469.2,516.5 469.2,516.5 "/>
<polygon fill="#71502F" points="464.7,515.3 469.2,516.5 476.6,497.2 "/>
<polygon fill="#40291B" points="464.7,491.3 464.7,491.2 476.6,484.4 476.8,484.4 476.8,497.2 476.6,497.2 "/>
<polygon fill="#40291B" points="476.6,497.2 476.6,484.4 464.7,491.3 "/>
<polygon fill="#452A18" points="442.6,487 442.6,486.8 476.6,484.4 476.6,484.7 464.7,491.3 464.7,491.3 "/>
<polygon fill="#452A18" points="476.6,484.4 442.6,486.8 464.7,491.3 "/>
<polygon fill="#452E1C" points="422,487 422,486.8 429.6,480.2 476.6,484.4 476.6,484.7 442.6,487 "/>
<polygon fill="#452E1C" points="476.6,484.4 429.7,480.2 422,486.8 442.6,486.8 "/>
<polygon fill="#342214" points="429.7,480.3 429.7,480.2 450.3,464.8 450.3,464.8 476.6,484.4 476.6,484.7 "/>
<polygon fill="#342214" points="476.6,484.4 450.3,464.8 429.7,480.2 "/>
<polygon fill="#492E1E" points="450.3,465 450.3,464.8 493.4,471.4 493.4,471.5 476.6,484.7 476.6,484.7 "/>
<polygon fill="#492E1E" points="476.6,484.4 493.4,471.5 450.3,464.8 "/>
<polygon fill="#412716" points="493.4,471.5 450.3,465 450.3,464.8 519.8,471.4 519.8,471.5 "/>
<polygon fill="#412716" points="493.4,471.5 519.8,471.5 450.3,464.8 "/>
<polygon fill="#341E13" points="450.3,465 450.3,464.8 531.3,464.8 531.3,465 519.8,471.5 519.8,471.5 "/>
<polygon fill="#341E13" points="519.8,471.5 531.3,464.8 450.3,464.8 "/>
<polygon fill="#2C1D16" points="517.6,485.8 517.4,485.8 519.8,471.5 519.8,471.4 534.8,485.7 534.8,485.8 "/>
<polygon fill="#2C1D16" points="519.8,471.5 534.8,485.8 517.6,485.8 "/>
<polygon fill="#311F14" points="493.4,471.5 493.4,471.4 519.8,471.4 519.8,471.5 517.6,485.8 517.4,485.8 "/>
<polygon fill="#311F14" points="517.6,485.8 493.4,471.5 519.8,471.5 "/>
<polygon fill="#322116" points="476.6,484.7 476.6,484.4 493.4,471.4 493.4,471.4 517.6,485.7 517.6,485.8 "/>
<polygon fill="#322116" points="517.6,485.8 476.6,484.4 493.4,471.5 "/>
<polygon fill="#412718" points="476.6,497.2 476.6,484.4 476.6,484.4 517.6,485.7 517.6,485.8 "/>
<polygon fill="#412718" points="517.6,485.8 476.6,497.2 476.6,484.4 "/>
<polygon fill="#2B1C15" points="476.6,496.9 517.4,485.7 537.5,492.3 537.5,492.5 476.6,497.2 "/>
<polygon fill="#2B1C15" points="517.6,485.8 537.3,492.5 476.6,497.2 "/>
<polygon fill="#2C1D16" points="517.4,485.8 517.6,485.7 534.8,485.7 534.8,485.8 537.5,492.3 537.3,492.5 "/>
<polygon fill="#2C1D16" points="537.3,492.5 534.8,485.8 517.6,485.8 "/>
<polygon fill="#342215" points="476.6,497.2 476.6,496.9 537.3,492.3 548.5,499.3 550.6,524.7 550.4,524.8 "/>
<polygon fill="#342215" points="537.3,492.5 548.5,499.3 550.4,524.7 476.6,497.2 "/>
<polygon fill="#352013" points="476.6,497.2 476.6,496.9 550.4,524.7 550.6,524.8 541.3,537.7 541.3,537.7 "/>
<polygon fill="#352013" points="550.4,524.7 541.3,537.4 476.6,497.2 "/>
<polygon fill="#5E3E1D" points="468,529.9 467,524.7 469,516.5 469.2,516.5 483.1,539.8 483.1,539.8 "/>
<polygon fill="#5E3E1D" points="469.2,516.5 467,524.7 468.2,529.9 483.1,539.8 "/>
<polygon fill="#674833" points="493.4,557 490.8,554.8 483.1,539.8 483.1,539.8 502.7,553.9 502.7,554.2 "/>
<polygon fill="#674833" points="483.1,539.8 490.8,554.8 493.4,557 502.7,553.9 "/>
<polygon fill="#56381F" points="483.1,539.8 483.1,539.8 502.7,535.9 502.7,535.9 502.7,553.9 502.5,554.2 "/>
<polygon fill="#56381F" points="502.7,553.9 502.7,535.9 483.1,539.8 "/>
<polygon fill="#593F27" points="502.7,554.2 502.5,553.9 502.5,535.9 502.7,535.9 507.1,553.9 507,554.2 "/>
<polygon fill="#593F27" points="502.7,553.9 507,553.9 502.7,535.9 "/>
<polygon fill="#634735" points="522.9,563.5 507,554.2 502.5,536.2 502.7,535.9 527.6,561.5 527.6,561.7 "/>
<polygon fill="#634735" points="507,553.9 522.9,563.5 527.6,561.7 502.7,535.9 "/>
<polygon fill="#2E1F17" points="502.5,536.2 502.7,535.9 541.3,537.4 541.3,537.7 527.6,555.5 527.6,561.7 527.4,561.7 "/>
<polygon fill="#2E1F17" points="527.6,561.7 527.6,555.5 541.3,537.4 502.7,535.9 "/>
<polygon fill="#593C21" points="502.7,536.2 476.6,497.2 476.6,496.9 541.3,537.4 541.3,537.7 "/>
<polygon fill="#593C21" points="541.3,537.4 476.6,497.2 502.7,535.9 "/>
<polygon fill="#4B2F18" points="469,516.5 469,516.5 476.6,497.2 476.8,496.9 502.7,535.9 502.5,536.2 "/>
<polygon fill="#4B2F18" points="502.7,535.9 469.2,516.5 476.6,497.2 "/>
<polygon fill="#5D4025" points="483.1,539.8 469,516.5 469.2,516.3 502.7,535.9 502.7,536.2 "/>
<polygon fill="#5D4025" points="502.7,535.9 483.1,539.8 469.2,516.5 "/>
<polygon fill="#674B36" points="541.3,570 527.4,555.5 527.6,555.5 562.6,569.9 562.6,570 "/>
<polygon fill="#674B36" points="527.6,555.5 541.3,570 562.6,570 "/>
<polygon fill="#452A18" points="527.4,555.7 527.4,555.5 541.1,537.4 541.3,537.4 562.6,570 562.6,570 "/>
<polygon fill="#452A18" points="562.6,570 541.3,537.4 527.6,555.5 "/>
<polygon fill="#56331E" points="541.1,537.7 541.3,537.4 570.3,549.7 570.3,549.8 562.6,570 562.4,570 "/>
<polygon fill="#56331E" points="562.6,570 570.1,549.8 541.3,537.4 "/>
<polygon fill="#49291C" points="541.3,537.7 541.3,537.4 592.6,537.4 592.6,537.7 570.3,549.8 570.1,549.8 "/>
<polygon fill="#49291C" points="570.1,549.8 592.6,537.4 541.3,537.4 "/>
<polygon fill="#301F16" points="541.3,537.7 541.1,537.4 550.4,524.7 550.4,524.7 592.6,537.4 592.6,537.7 "/>
<polygon fill="#301F16" points="592.6,537.4 550.4,524.7 541.3,537.4 "/>
<polygon fill="#352116" points="548.5,499.5 548.5,499.3 589.2,517.3 592.8,537.4 592.6,537.7 "/>
<polygon fill="#352116" points="592.6,537.4 589,517.4 548.5,499.3 "/>
<polygon fill="#352116" points="550.4,524.8 550.4,524.7 548.5,499.3 548.5,499.3 592.6,537.4 592.6,537.7 "/>
<polygon fill="#352116" points="592.6,537.4 550.4,524.7 548.5,499.3 "/>
<polygon fill="#301D16" points="589,517.4 548.5,499.5 537.3,492.5 537.5,492.3 606,511.8 606,511.9 "/>
<polygon fill="#301D16" points="589,517.4 605.8,511.8 537.3,492.5 548.5,499.3 "/>
<polygon fill="#301D10" points="537.3,492.5 537.3,492.3 574.6,488.4 606,511.8 605.8,511.9 "/>
<polygon fill="#301D10" points="605.8,511.8 574.6,488.4 537.3,492.5 "/>
<polygon fill="#2E1D15" points="574.4,488.5 574.6,488.4 612,485.3 612,485.4 606,511.8 605.8,511.9 "/>
<polygon fill="#2E1D15" points="605.8,511.8 612,485.4 574.6,488.4 "/>
<polygon fill="#311E16" points="537.3,492.5 534.6,485.8 534.8,485.7 612,485.3 612,485.4 537.5,492.5 "/>
<polygon fill="#311E16" points="612,485.4 534.8,485.8 537.3,492.5 "/>
<polygon fill="#301D16" points="534.8,485.7 612,464.8 612,464.8 612,485.4 612,485.4 534.8,485.8 "/>
<polygon fill="#301D16" points="612,485.4 612,464.8 534.8,485.8 "/>
<polygon fill="#291B15" points="519.8,471.4 531.3,464.8 612,464.8 612,465 519.8,471.5 "/>
<polygon fill="#291B15" points="612,464.8 531.3,464.8 519.8,471.5 "/>
<polygon fill="#2D1B11" points="534.8,485.8 519.8,471.5 519.8,471.4 612,464.8 612,465 "/>
<polygon fill="#2D1B11" points="612,464.8 519.8,471.5 534.8,485.8 "/>
<polygon fill="#442A19" points="605.8,511.9 612,485.4 612,485.4 612,524.7 612,524.8 "/>
<polygon fill="#442A19" points="605.8,511.8 612,524.7 612,485.4 "/>
<polygon fill="#4F3220" points="592.6,537.7 589,517.4 589,517.3 605.8,511.8 606,511.8 612,563.5 612,563.5 "/>
<polygon fill="#4F3220" points="592.6,537.4 612,563.5 605.8,511.8 589,517.4 "/>
<polygon fill="#4F3419" points="605.8,511.8 606,511.8 612,524.7 612,563.5 612,563.5 "/>
<polygon fill="#4F3419" points="612,563.5 612,524.7 605.8,511.8 "/>
</svg>
