<?xml version="1.0" encoding="utf-8"?>
<!-- Generator: Adobe Illustrator 18.0.0, SVG Export Plug-In . SVG Version: 6.00 Build 0)  -->
<!DOCTYPE svg PUBLIC "-//W3C//DTD SVG 1.1//EN" "http://www.w3.org/Graphics/SVG/1.1/DTD/svg11.dtd">
<svg version="1.1" id="Layer_1" xmlns="http://www.w3.org/2000/svg" xmlns:xlink="http://www.w3.org/1999/xlink" x="0px" y="0px"
	 viewBox="0 532.3 612 259.6" enable-background="new 0 532.3 612 259.6" xml:space="preserve">
<polygon fill="#553922" points="289.4,613.4 289.4,613 302.7,601.9 347.5,609.8 347.5,610.1 "/>
<polygon fill="#553922" points="289.4,613 302.7,602.3 347.5,609.8 "/>
<polygon fill="#5A3B1F" points="327.1,646.4 289.4,613.4 289.4,613 347.5,609.8 347.9,610.1 327.5,646.4 "/>
<polygon fill="#5A3B1F" points="347.5,609.8 327.1,646.4 289.4,613 "/>
<polygon fill="#53351B" points="347.5,648.9 327.1,646.4 327.1,646 347.5,609.8 347.9,609.8 347.9,648.9 "/>
<polygon fill="#53351B" points="347.5,609.8 347.5,648.9 327.1,646.4 "/>
<polygon fill="#56371F" points="327.5,661.9 327.1,661.5 327.1,646.4 327.1,646 347.5,648.9 347.9,648.9 "/>
<polygon fill="#56371F" points="347.5,648.9 327.1,661.5 327.1,646.4 "/>
<polygon fill="#6B4C30" points="289.4,613.4 229.7,593 229.7,592.6 270.1,595.6 289.4,613 "/>
<polygon fill="#6B4C30" points="229.7,592.6 270.1,595.6 289.4,613 "/>
<polygon fill="#52331E" points="220.8,602.3 220.5,602.3 204.2,571.9 204.5,571.9 230.1,592.6 230.1,593 "/>
<polygon fill="#52331E" points="220.5,602.3 204.2,571.9 229.7,592.6 "/>
<polygon fill="#482C17" points="289.4,613.4 220.5,602.3 220.5,601.9 229.7,592.6 230.1,592.6 289.4,613 "/>
<polygon fill="#482C17" points="229.7,592.6 289.4,613 220.5,602.3 "/>
<polygon fill="#372416" points="289.4,633.8 220.5,602.3 220.5,601.9 289.4,613 289.4,613 289.4,633.4 "/>
<polygon fill="#372416" points="289.4,613 289.4,633.4 220.5,602.3 "/>
<polygon fill="#53361C" points="327.1,661.5 289,633.4 289,613 289.4,613 327.5,661.5 "/>
<polygon fill="#53361C" points="289.4,613 327.1,661.5 289.4,633.4 "/>
<polygon fill="#624124" points="327.1,661.5 289.4,613.4 289.4,613 327.5,646.4 327.5,661.5 "/>
<polygon fill="#624124" points="289.4,613 327.1,646.4 327.1,661.5 "/>
<polygon fill="#452B18" points="321.2,682.8 289.4,633.8 289.4,633.4 327.5,661.5 327.5,661.5 321.6,682.8 "/>
<polygon fill="#452B18" points="289.4,633.4 321.2,682.8 327.1,661.5 "/>
<polygon fill="#3A2719" points="204.2,571.9 143,559.3 143,558.9 172.7,558.9 204.5,571.9 "/>
<polygon fill="#3A2719" points="143,559.3 172.7,559.3 204.2,571.9 "/>
<polygon fill="#322013" points="220.5,602.3 143,559.3 143,558.9 204.5,571.9 220.8,601.9 "/>
<polygon fill="#322013" points="204.2,571.9 143,559.3 220.5,602.3 "/>
<polygon fill="#331F14" points="238.6,646.4 238.6,646.4 220.5,602.3 220.5,601.9 289.4,633.4 289.4,633.8 "/>
<polygon fill="#331F14" points="289.4,633.4 238.6,646.4 220.5,602.3 "/>
<polygon fill="#44291E" points="238.6,646.4 238.6,646 289.4,633.4 289.4,633.4 283.8,658.2 "/>
<polygon fill="#44291E" points="289.4,633.4 283.8,657.8 238.6,646.4 "/>
<polygon fill="#4E3423" points="321.2,682.8 283.8,658.2 283.8,657.8 289,633.4 289.4,633.4 321.2,682.3 "/>
<polygon fill="#4E3423" points="289.4,633.4 321.2,682.8 283.8,657.8 "/>
<polygon fill="#3B2618" points="312.7,703 283.8,658.2 283.8,657.8 321.2,682.3 321.2,682.8 313.1,703 "/>
<polygon fill="#3B2618" points="283.8,657.8 313.1,703 321.2,682.8 "/>
<polygon fill="#51321E" points="292.7,711.2 292.3,711.2 283.8,658.2 283.8,657.8 313.1,702.8 313.1,703 "/>
<polygon fill="#51321E" points="283.8,657.8 292.7,711.2 313.1,703 "/>
<polygon fill="#251B16" points="279.4,715.3 279.4,714.9 283.8,657.8 283.8,657.8 292.7,711.2 292.7,711.2 "/>
<polygon fill="#251B16" points="283.8,657.8 279.4,714.9 292.7,711.2 "/>
<polygon fill="#2E1D15" points="279.4,715.3 259.4,698.6 259.4,698.2 283.8,657.8 284.2,658.2 279.7,714.9 "/>
<polygon fill="#2E1D15" points="283.8,657.8 259.7,698.6 279.4,714.9 "/>
<polygon fill="#1F1919" points="259.7,698.6 259.4,698.6 238.6,646.4 238.6,646 283.8,657.8 283.8,658.2 "/>
<polygon fill="#1F1919" points="283.8,657.8 238.6,646.4 259.7,698.6 "/>
<polygon fill="#281F19" points="238.6,646.4 207.9,639.7 207.9,639.7 220.5,602.3 220.8,602.3 239,646 "/>
<polygon fill="#281F19" points="220.5,602.3 207.9,639.7 238.6,646.4 "/>
<polygon fill="#2D1A16" points="207.9,639.7 207.9,639.7 189.7,585.2 190.1,585.2 220.5,601.9 220.8,602.3 "/>
<polygon fill="#2D1A16" points="220.5,602.3 190.1,585.2 207.9,639.7 "/>
<polygon fill="#231713" points="142.7,559.3 143,558.9 190.1,585.2 207.9,639.7 "/>
<polygon fill="#231713" points="190.1,585.2 143,559.3 207.9,639.7 "/>
<polygon fill="#251A13" points="207.9,698.6 207.9,698.6 207.9,639.7 207.9,639.3 238.6,646 239,646.4 "/>
<polygon fill="#251A13" points="238.6,646.4 207.9,698.6 207.9,639.7 "/>
<polygon fill="#311F16" points="207.9,698.6 207.9,698.2 238.6,646 239,646 259.7,698.6 259.7,698.6 "/>
<polygon fill="#311F16" points="238.6,646.4 259.7,698.6 207.9,698.6 "/>
<polygon fill="#2C2018" points="243.1,729 207.9,698.6 207.9,698.2 259.7,698.2 259.7,698.6 243.4,729 "/>
<polygon fill="#2C2018" points="259.7,698.6 243.1,728.6 207.9,698.6 "/>
<polygon fill="#291C15" points="243.1,729 243.1,728.6 259.4,698.2 259.7,698.2 279.4,714.9 279.4,715.3 "/>
<polygon fill="#291C15" points="259.7,698.6 279.4,714.9 243.1,728.6 "/>
<polygon fill="#1D1614" points="217.1,734.5 216.7,734.2 207.9,698.6 207.9,698.2 243.1,728.6 243.1,729 "/>
<polygon fill="#1D1614" points="207.9,698.6 217.1,734.2 243.1,728.6 "/>
<polygon fill="#1D1718" points="217.1,734.5 183.8,729 183.4,728.6 207.9,698.2 207.9,698.6 217.1,734.2 "/>
<polygon fill="#1D1718" points="207.9,698.6 183.8,728.6 217.1,734.2 "/>
<polygon fill="#221716" points="183.8,729 183.4,729 170.8,698.6 170.8,698.2 207.9,698.2 207.9,698.6 "/>
<polygon fill="#221716" points="207.9,698.6 170.8,698.6 183.8,728.6 "/>
<polygon fill="#2F1E17" points="170.8,698.6 170.8,698.2 207.9,639.3 207.9,639.7 207.9,698.6 207.9,698.6 "/>
<polygon fill="#2F1E17" points="207.9,698.6 207.9,639.7 170.8,698.6 "/>
<polygon fill="#322118" points="171.2,698.6 170.8,698.6 152.7,654.1 152.7,653.8 207.9,639.3 207.9,639.7 "/>
<polygon fill="#322118" points="207.9,639.7 152.7,653.8 170.8,698.6 "/>
<polygon fill="#261B14" points="152.7,654.1 136.7,639.7 136.7,639.3 157.8,617.8 157.8,617.8 153,653.8 "/>
<polygon fill="#261B14" points="157.8,617.8 136.7,639.7 152.7,653.8 "/>
<polygon fill="#261B14" points="153,654.1 152.7,653.8 157.5,617.8 157.8,617.8 207.9,639.3 207.9,639.7 "/>
<polygon fill="#261B14" points="152.7,653.8 207.9,639.7 157.8,617.8 "/>
<polygon fill="#281A13" points="207.9,639.7 157.5,617.8 142.7,559.3 143,559.3 207.9,639.3 "/>
<polygon fill="#281A13" points="207.9,639.7 143,559.3 157.8,617.8 "/>
<polygon fill="#3C291F" points="93.8,559.3 94.1,558.9 143,558.9 143,559.3 157.8,617.8 "/>
<polygon fill="#3C291F" points="143,559.3 94.1,559.3 157.8,617.8 "/>
<polygon fill="#331F15" points="137.1,639.7 136.7,639.7 93.8,559.3 94.1,558.9 157.8,617.8 157.8,617.8 "/>
<polygon fill="#331F15" points="157.8,617.8 94.1,559.3 136.7,639.7 "/>
<polygon fill="#1D1614" points="106.7,680.4 106.4,680.4 136.7,639.3 137.1,639.3 153,653.8 153,654.1 "/>
<polygon fill="#1D1614" points="152.7,653.8 106.7,680.4 136.7,639.7 "/>
<polygon fill="#1A1715" points="183.4,729 106.4,680.4 106.4,680.4 152.7,653.8 153,653.8 183.8,728.6 "/>
<polygon fill="#1A1715" points="152.7,653.8 183.8,728.6 106.7,680.4 "/>
<polygon fill="#221713" points="106.4,680.4 84.9,658.2 85.2,657.8 136.7,639.3 137.1,639.7 106.7,680.4 "/>
<polygon fill="#221713" points="136.7,639.7 85.2,657.8 106.7,680.4 "/>
<polygon fill="#2E1E17" points="85.2,658.2 84.9,658.2 54.1,629.7 54.5,629.3 136.7,639.3 137.1,639.7 "/>
<polygon fill="#2E1E17" points="136.7,639.7 54.5,629.3 85.2,657.8 "/>
<polygon fill="#3E281A" points="136.7,639.7 54.1,629.7 54.1,629.3 51.5,613 51.5,613 137.1,639.3 "/>
<polygon fill="#3E281A" points="136.7,639.7 51.5,613 54.5,629.3 "/>
<polygon fill="#37231A" points="136.7,639.7 51.5,613.4 34.5,588.6 34.5,588.6 137.1,639.3 "/>
<polygon fill="#37231A" points="136.7,639.7 34.5,588.6 51.5,613 "/>
<polygon fill="#4E3321" points="136.7,639.7 34.5,588.6 13.4,576.3 13.7,576 93.8,558.9 94.1,559.3 137.1,639.3 "/>
<polygon fill="#4E3321" points="136.7,639.7 94.1,559.3 13.7,576.3 34.5,588.6 "/>
<polygon fill="#38241A" points="13.7,576.3 13.4,576.3 0.4,569.7 0,569.7 0,543.7 0.4,543.7 94.1,558.9 94.1,559.3 "/>
<polygon fill="#38241A" points="94.1,559.3 0.4,543.7 0.4,569.7 13.7,576.3 "/>
<polygon fill="#412C21" points="93.8,559.3 0.4,544.1 0.4,543.7 34.5,543.7 47.1,532.3 47.1,532.3 94.1,558.9 "/>
<polygon fill="#412C21" points="94.1,559.3 47.1,532.3 34.5,543.7 0.4,543.7 "/>
<polygon fill="#49331E" points="93.8,559.3 47.1,532.3 47.1,532.3 101.5,549.3 101.9,549.3 94.1,559.3 "/>
<polygon fill="#49331E" points="94.1,559.3 101.5,549.3 47.1,532.3 "/>
<polygon fill="#604431" points="94.1,559.3 93.8,559.3 101.5,549.3 170.8,549.3 171.2,549.3 "/>
<polygon fill="#604431" points="94.1,559.3 170.8,549.3 101.5,549.3 "/>
<polygon fill="#2A1D17" points="94.1,559.3 93.8,558.9 170.8,549.3 171.2,549.3 172.7,559.3 172.7,559.3 "/>
<polygon fill="#2A1D17" points="94.1,559.3 172.7,559.3 170.8,549.3 "/>
<polygon fill="#3E2517" points="54.1,629.7 22.3,617.8 22.3,617.8 51.5,613 51.9,613 54.5,629.3 "/>
<polygon fill="#3E2517" points="51.5,613 22.3,617.8 54.5,629.3 "/>
<polygon fill="#4A2E1D" points="22.3,617.8 0.4,569.7 0.4,569.7 13.7,576 34.5,588.6 34.5,588.6 22.6,617.8 "/>
<polygon fill="#4A2E1D" points="34.5,588.6 13.7,576.3 0.4,569.7 22.3,617.8 "/>
<polygon fill="#301F15" points="22.3,617.8 22.3,617.8 34.5,588.6 34.5,588.6 51.5,613 51.5,613.4 "/>
<polygon fill="#301F15" points="34.5,588.6 51.5,613 22.3,617.8 "/>
<polygon fill="#40261B" points="31.5,680.4 31.1,680.4 22.3,617.8 22.6,617.8 51.5,665.6 51.5,666 "/>
<polygon fill="#40261B" points="31.5,680.4 51.5,666 22.3,617.8 "/>
<polygon fill="#23191A" points="31.1,680.4 9.3,672.3 0.4,664.5 0.4,664.1 22.3,617.8 22.6,617.8 31.5,680.4 "/>
<polygon fill="#23191A" points="22.3,617.8 0.4,664.1 9.3,672.3 31.5,680.4 "/>
<polygon fill="#201815" points="0.4,664.1 0,664.1 0,569.7 0.4,569.7 22.6,617.8 "/>
<polygon fill="#201815" points="22.3,617.8 0.4,569.7 0.4,664.1 "/>
<polygon fill="#40261B" points="51.5,666 22.3,617.8 22.6,617.8 54.5,629.3 54.5,629.3 51.9,666 "/>
<polygon fill="#40261B" points="51.5,666 54.5,629.3 22.3,617.8 "/>
<polygon fill="#2F221C" points="91.5,734.2 51.5,666 54.1,629.3 54.5,629.3 91.9,734.2 "/>
<polygon fill="#2F221C" points="54.5,629.3 91.5,734.2 51.5,666 "/>
<polygon fill="#1F1715" points="71.5,747.5 71.5,747.1 51.5,666 51.5,665.6 91.9,734.2 91.5,734.5 "/>
<polygon fill="#1F1715" points="51.5,666 71.5,747.1 91.5,734.2 "/>
<polygon fill="#1C1617" points="71.5,747.1 31.1,680.4 31.1,680.4 51.5,665.6 51.9,666 71.9,747.1 "/>
<polygon fill="#1C1617" points="51.5,666 31.5,680.4 71.5,747.1 "/>
<polygon fill="#151415" points="71.5,747.5 0.4,689.7 0.4,689.3 31.1,680.4 31.5,680.4 71.9,747.1 "/>
<polygon fill="#151415" points="31.5,680.4 0.4,689.3 71.5,747.1 "/>
<polygon fill="#1A1617" points="71.5,747.5 0.4,742.7 0,742.7 0,689.3 0.4,689.3 71.5,747.1 "/>
<polygon fill="#1A1617" points="0.4,689.3 0.4,742.7 71.5,747.1 "/>
<polygon fill="#231A14" points="0.4,689.7 0,689.3 0,664.1 0.4,664.1 9.7,672.3 31.5,680.4 31.5,680.4 "/>
<polygon fill="#231A14" points="31.5,680.4 9.3,672.3 0.4,664.1 0.4,689.3 "/>
<polygon fill="#482C1B" points="91.9,734.5 91.5,734.2 54.1,629.3 54.5,629.3 114.5,706.4 114.5,706.7 "/>
<polygon fill="#482C1B" points="54.5,629.3 114.1,706.4 91.5,734.2 "/>
<polygon fill="#251A13" points="114.1,706.7 54.1,629.3 54.5,629.3 85.2,657.8 106.7,680.4 114.5,706.4 "/>
<polygon fill="#251A13" points="54.5,629.3 85.2,657.8 106.7,680.4 114.1,706.4 "/>
<polygon fill="#362216" points="126,760.8 125.6,760.8 114.1,706.7 106.4,680.4 106.7,680.4 183.8,728.6 183.8,729 "/>
<polygon fill="#362216" points="106.7,680.4 183.8,728.6 126,760.8 114.1,706.4 "/>
<polygon fill="#1F1617" points="71.5,747.5 71.5,747.1 91.5,734.2 91.5,734.2 126,760.8 "/>
<polygon fill="#1F1617" points="91.5,734.2 71.5,747.1 126,760.8 "/>
<polygon fill="#1B1814" points="125.6,760.8 91.5,734.5 91.5,734.2 114.1,706.4 114.5,706.4 126,760.8 "/>
<polygon fill="#1B1814" points="114.1,706.4 91.5,734.2 126,760.8 "/>
<polygon fill="#1E1916" points="108.6,777.9 71.5,747.1 71.5,747.1 126,760.5 126,760.8 108.9,777.9 "/>
<polygon fill="#1E1916" points="71.5,747.1 108.6,777.9 126,760.8 "/>
<polygon fill="#121212" points="77.5,777.9 77.5,777.9 71.5,747.1 71.5,747.1 108.9,777.5 108.6,777.9 "/>
<polygon fill="#121212" points="71.5,747.1 77.5,777.9 108.6,777.9 "/>
<polygon fill="#241619" points="136.7,791.9 77.5,777.9 77.5,777.5 108.9,777.5 137.1,791.9 "/>
<polygon fill="#241619" points="77.5,777.9 136.7,791.9 108.6,777.9 "/>
<polygon fill="#121212" points="136.7,791.9 108.6,777.9 108.6,777.5 125.6,760.8 126,760.8 137.1,791.9 "/>
<polygon fill="#121212" points="108.6,777.9 126,760.8 136.7,791.9 "/>
<polygon fill="#1A1716" points="137.1,791.9 136.7,791.9 125.6,760.8 125.6,760.8 183.4,728.6 183.8,729 "/>
<polygon fill="#1A1716" points="126,760.8 183.8,728.6 136.7,791.9 "/>
<polygon fill="#221713" points="136.7,791.9 136.7,791.9 147.1,777.5 147.5,777.5 154.9,791.9 154.9,791.9 "/>
<polygon fill="#221713" points="147.5,777.9 154.9,791.9 136.7,791.9 "/>
<polygon fill="#181615" points="154.9,791.9 154.5,791.9 147.1,777.9 147.5,777.5 177.5,791.9 177.5,791.9 "/>
<polygon fill="#181615" points="147.5,777.9 177.5,791.9 154.9,791.9 "/>
<polygon fill="#2C1C14" points="147.5,777.9 147.5,777.5 175.3,776 175.6,776.4 177.5,791.9 "/>
<polygon fill="#2C1C14" points="147.5,777.9 175.3,776.4 177.5,791.9 "/>
<polygon fill="#171516" points="147.5,777.9 147.1,777.5 183.4,728.6 183.8,728.6 175.6,776.4 175.3,776.4 "/>
<polygon fill="#171516" points="147.5,777.9 183.8,728.6 175.3,776.4 "/>
<polygon fill="#1F1716" points="175.6,776.4 175.3,776.4 183.4,728.6 183.8,728.6 217.1,734.2 217.1,734.5 "/>
<polygon fill="#1F1716" points="183.8,728.6 217.1,734.2 175.3,776.4 "/>
<polygon fill="#1D1614" points="177.5,791.9 177.5,791.9 175.3,776.4 175.3,776 207.9,780.8 207.9,781.2 "/>
<polygon fill="#1D1614" points="177.5,791.9 207.9,781.2 175.3,776.4 "/>
<polygon fill="#1D1818" points="175.3,776.4 175.3,776 238.6,765.3 238.6,765.6 207.9,781.2 "/>
<polygon fill="#1D1818" points="175.3,776.4 238.6,765.3 207.9,781.2 "/>
<polygon fill="#161616" points="175.6,776.4 175.3,776.4 217.1,734.2 217.1,734.2 237.1,747.1 237.1,747.5 "/>
<polygon fill="#161616" points="236.8,747.1 217.1,734.2 175.3,776.4 "/>
<polygon fill="#251D19" points="175.3,776.4 175.3,776.4 236.8,747.1 237.1,747.1 239,765.3 238.6,765.6 "/>
<polygon fill="#251D19" points="238.6,765.3 236.8,747.1 175.3,776.4 "/>
<polygon fill="#231B19" points="236.8,747.5 217.1,734.5 217.1,734.2 243.1,728.6 243.4,729 237.1,747.1 "/>
<polygon fill="#231B19" points="217.1,734.2 243.1,728.6 236.8,747.1 "/>
<polygon fill="#2C1C14" points="237.1,747.5 236.8,747.1 243.1,728.6 243.1,728.6 259.7,740.8 259.7,741.2 "/>
<polygon fill="#2C1C14" points="243.1,728.6 259.7,740.8 236.8,747.1 "/>
<polygon fill="#392519" points="239,765.3 238.6,765.3 236.8,747.1 236.8,747.1 259.7,740.8 259.7,741.2 "/>
<polygon fill="#392519" points="236.8,747.1 259.7,740.8 238.6,765.3 "/>
<polygon fill="#583320" points="259.4,741.2 243.1,729 243.1,728.6 279.4,714.9 292.7,710.8 292.7,711.2 259.7,741.2 "/>
<polygon fill="#583320" points="243.1,728.6 279.4,714.9 292.7,711.2 259.7,740.8 "/>
<polygon fill="#191815" points="77.5,791.9 77.5,791.9 77.5,777.9 77.5,777.5 136.7,791.9 136.7,791.9 "/>
<polygon fill="#191815" points="77.5,777.9 77.5,791.9 136.7,791.9 "/>
<polygon fill="#201617" points="77.5,791.9 47.1,779.4 47.1,779.4 68.6,770.5 77.8,777.9 77.8,791.9 "/>
<polygon fill="#201617" points="77.5,777.9 68.6,770.8 47.1,779.4 77.5,791.9 "/>
<polygon fill="#251819" points="31.5,791.9 31.1,791.9 31.1,777.9 31.5,777.5 47.1,779.4 77.5,791.9 77.5,791.9 "/>
<polygon fill="#251819" points="77.5,791.9 31.5,791.9 31.5,777.9 47.1,779.4 "/>
<polygon fill="#141414" points="0.4,791.9 0,791.9 0,742.7 0.4,742.7 31.5,777.9 31.5,791.9 31.5,791.9 "/>
<polygon fill="#141414" points="31.5,777.9 0.4,742.7 0.4,791.9 31.5,791.9 "/>
<polygon fill="#141414" points="31.5,777.9 31.1,777.9 0.4,742.7 0.4,742.3 71.5,747.1 71.5,747.5 "/>
<polygon fill="#141414" points="0.4,742.7 71.5,747.1 31.5,777.9 "/>
<polygon fill="#151616" points="47.1,779.7 31.1,777.9 31.1,777.5 71.5,747.1 71.9,747.1 68.6,770.8 68.6,770.8 47.1,779.4 "/>
<polygon fill="#151616" points="71.5,747.1 68.6,770.8 47.1,779.4 31.5,777.9 "/>
<polygon fill="#121212" points="77.5,777.9 68.2,770.8 71.5,747.1 71.9,747.1 77.8,777.9 "/>
<polygon fill="#121212" points="68.6,770.8 77.5,777.9 71.5,747.1 "/>
<polygon fill="#5C3C25" points="313.1,703 312.7,702.8 327.1,661.5 327.5,661.5 329.4,698.6 329.4,698.6 "/>
<polygon fill="#5C3C25" points="313.1,703 329.4,698.6 327.1,661.5 "/>
<polygon fill="#382116" points="305.3,718.6 292.7,711.2 292.7,710.8 313.1,702.8 329.4,698.3 329.4,698.6 305.7,718.2 "/>
<polygon fill="#382116" points="313.1,703 292.7,711.2 305.3,718.2 329.4,698.6 "/>
<polygon fill="#563D26" points="497.9,624.1 488.3,617.8 488.3,617.8 527.2,558.9 535.3,558.9 546.8,555.3 547.2,555.3 498.3,624.1 
	"/>
<polygon fill="#563D26" points="498.3,624.1 488.3,617.8 527.2,558.9 535.3,558.9 546.8,555.3 "/>
<polygon fill="#553E26" points="452.7,581.9 452.7,581.5 471.6,571.9 488.3,568.6 502.4,568.6 527.2,558.9 527.2,558.9 488.3,617.8 
	"/>
<polygon fill="#553E26" points="488.3,617.8 452.7,581.5 471.6,571.9 488.3,568.9 502.4,568.9 527.2,558.9 "/>
<polygon fill="#5A4534" points="418.3,602.3 417.9,601.9 427.5,587.1 432,566.3 432.4,566.3 452.7,581.5 452.7,581.9 "/>
<polygon fill="#5A4534" points="418.3,602.3 427.5,587.1 432,566.3 452.7,581.5 "/>
<polygon fill="#34271C" points="397.9,628.3 397.9,628.3 397.9,621.3 397.9,621.3 405.7,617.8 407.5,613 405.7,603 405.7,602.6 
	418.3,601.9 418.3,602.3 "/>
<polygon fill="#34271C" points="397.9,628.3 397.9,621.3 405.7,617.8 407.9,613 405.7,603 418.3,602.3 "/>
<polygon fill="#2B2117" points="397.9,628.3 397.9,627.8 405.7,617.8 405.7,617.8 426.8,624.1 426.8,624.5 "/>
<polygon fill="#2B2117" points="405.7,617.8 426.8,624.1 397.9,628.3 "/>
<polygon fill="#34271C" points="426.8,624.5 405.7,617.8 405.7,617.8 417.9,601.9 418.3,602.3 426.8,624.1 "/>
<polygon fill="#34271C" points="405.7,617.8 418.3,602.3 426.8,624.1 "/>
<polygon fill="#291F16" points="426.8,624.1 426.8,624.1 417.9,602.3 417.9,601.9 452.7,581.5 453.1,581.9 "/>
<polygon fill="#291F16" points="418.3,602.3 452.7,581.5 426.8,624.1 "/>
<polygon fill="#553B25" points="426.8,624.5 426.8,624.1 452.7,581.5 452.7,581.5 488.3,617.8 488.3,617.8 "/>
<polygon fill="#553B25" points="452.7,581.5 488.3,617.8 426.8,624.1 "/>
<polygon fill="#583A21" points="429,639.8 428.7,639.8 420.5,633.8 420.5,633.4 426.8,624.1 488.3,617.8 488.3,617.8 "/>
<polygon fill="#583A21" points="488.3,617.8 429,639.8 420.5,633.4 426.8,624.1 "/>
<polygon fill="#4A2D19" points="429,639.8 428.7,639.3 488.3,617.8 488.3,617.8 466.1,641.5 "/>
<polygon fill="#4A2D19" points="488.3,617.8 466.1,641.5 429,639.8 "/>
<polygon fill="#49311A" points="466.1,641.5 465.7,641.5 488.3,617.8 488.3,617.8 490.1,637.5 490.1,637.5 "/>
<polygon fill="#49311A" points="488.3,617.8 489.8,637.5 466.1,641.5 "/>
<polygon fill="#4D351F" points="490.1,637.5 489.8,637.5 488.3,617.8 488.3,617.8 498.3,624.1 498.3,624.1 "/>
<polygon fill="#4D351F" points="488.3,617.8 498.3,624.1 489.8,637.5 "/>
<polygon fill="#5D401F" points="498.3,646 497.9,646 489.8,637.5 490.1,637.1 517.6,641.3 517.6,641.5 "/>
<polygon fill="#5D401F" points="517.6,641.5 498.3,645.6 489.8,637.5 "/>
<polygon fill="#342115" points="489.8,637.5 489.8,637.5 497.9,624.1 498.3,624.1 517.6,641.5 "/>
<polygon fill="#342115" points="517.6,641.5 498.3,624.1 489.8,637.5 "/>
<polygon fill="#2A1E16" points="517.6,641.5 497.9,624.1 497.9,624.1 546.8,555.3 547.2,555.3 517.9,641.5 "/>
<polygon fill="#2A1E16" points="498.3,624.1 546.8,555.3 517.6,641.5 "/>
<polygon fill="#2E2118" points="517.6,641.5 517.6,641.5 546.8,555.3 547.2,555.3 550.9,623 550.5,623 "/>
<polygon fill="#2E2118" points="546.8,555.3 550.5,623 517.6,641.5 "/>
<polygon fill="#492F1B" points="528.7,646.4 517.6,641.5 517.6,641.5 550.5,622.6 550.9,623 529,646.4 "/>
<polygon fill="#492F1B" points="550.5,623 528.7,646.4 517.6,641.5 "/>
<polygon fill="#533B25" points="528.7,646.4 528.7,646 550.5,622.6 550.9,623 560.9,637.5 560.9,637.5 "/>
<polygon fill="#533B25" points="550.5,623 560.9,637.5 528.7,646.4 "/>
<polygon fill="#2C1D16" points="560.9,637.5 560.9,637.5 550.5,623 550.5,622.6 595.7,622.6 595.7,623 "/>
<polygon fill="#2C1D16" points="550.5,623 595.7,623 560.9,637.5 "/>
<polygon fill="#3B2619" points="550.5,623 550.5,622.6 597.2,589.8 597.6,589.8 595.7,623 595.7,623 "/>
<polygon fill="#3B2619" points="550.5,623 597.2,589.8 595.7,623 "/>
<polygon fill="#322012" points="550.5,623 550.5,623 546.8,555.3 546.8,555.3 597.2,589.8 597.2,589.8 "/>
<polygon fill="#322012" points="597.2,589.8 546.8,555.3 550.5,623 "/>
<polygon fill="#462F1A" points="597.6,641.5 597.2,641.5 595.4,623 595.7,622.6 609.1,624.1 609.4,624.1 "/>
<polygon fill="#462F1A" points="609.1,624.1 597.2,641.5 595.7,623 "/>
<polygon fill="#68502D" points="609.1,624.5 595.7,623 595.4,623 597.2,589.8 597.6,589.8 609.4,624.1 "/>
<polygon fill="#68502D" points="595.7,623 597.2,589.8 609.1,624.1 609.1,624.1 "/>
<polygon fill="#32241B" points="528.7,646.4 528.7,646 560.9,637.1 597.2,641.3 597.2,641.5 "/>
<polygon fill="#32241B" points="560.9,637.5 528.7,646.4 597.2,641.5 "/>
<polygon fill="#2F1E12" points="597.2,641.5 560.9,637.5 560.9,637.1 595.7,622.6 595.7,623 597.6,641.5 "/>
<polygon fill="#2F1E12" points="560.9,637.5 595.7,623 597.2,641.5 "/>
<polygon fill="#AE9DA7" points="427.5,587.1 412.4,571.9 412.4,571.9 432,566.3 432.4,566.3 427.9,587.1 "/>
<polygon fill="#AE9DA7" points="427.5,587.1 412.4,571.9 432,566.3 "/>
<polygon fill="#ADADAF" points="427.5,587.1 397.9,584.5 397.9,584.1 405.7,571.9 412.4,571.9 427.9,587.1 "/>
<polygon fill="#ADADAF" points="427.5,587.1 397.9,584.1 405.7,571.9 412.4,571.9 "/>
<polygon fill="#A4A5B7" points="405.7,603 405.7,603 397.9,584.5 397.9,584.1 427.5,586.8 427.5,587.1 "/>
<polygon fill="#A4A5B7" points="427.5,587.1 405.7,603 397.9,584.1 "/>
<polygon fill="#A3A0A7" points="405.7,603 405.7,603 427.5,586.8 427.9,587.1 418.3,602.3 "/>
<polygon fill="#A3A0A7" points="418.3,602.3 427.5,587.1 405.7,603 "/>
<polygon fill="#928F92" points="397.9,621.5 397.9,621.3 397.9,584.1 397.9,584.1 406.1,617.8 405.7,617.8 "/>
<polygon fill="#928F92" points="405.7,617.8 397.9,621.3 397.9,584.1 397.9,584.1 "/>
<polygon fill="#B3B1BB" points="406.1,617.8 405.7,617.8 397.9,584.1 397.9,584.1 406.1,603 407.9,613.4 "/>
<polygon fill="#B3B1BB" points="397.9,584.1 405.7,603 407.9,613 405.7,617.8 "/>
<polygon fill="#706E64" points="388.3,617.8 397.9,584.1 397.9,584.1 397.9,628.3 "/>
<polygon fill="#706E64" points="397.9,584.1 388.3,617.8 397.9,628.3 "/>
<polygon fill="#82797E" points="388.3,617.8 381.2,603 381.2,603 397.9,584.1 397.9,584.5 388.6,617.8 "/>
<polygon fill="#82797E" points="397.9,584.1 381.2,603 388.3,617.8 "/>
<polygon fill="#4E331D" points="373.5,623 373.5,623 347.5,610.1 347.5,609.8 381.2,602.6 381.6,603 388.6,617.8 388.3,617.8 "/>
<polygon fill="#4E331D" points="381.2,603 347.5,609.8 373.5,623 388.3,617.8 "/>
<polygon fill="#3F2814" points="597.2,589.8 546.8,555.3 546.8,555.3 579.8,555.3 579.8,555.3 597.6,589.8 "/>
<polygon fill="#3F2814" points="546.8,555.3 579.8,555.3 597.2,589.8 "/>
<polygon fill="#735538" points="609.1,624.1 597.2,589.8 597.2,589.8 612.4,594.9 612.4,594.9 609.4,624.1 "/>
<polygon fill="#735538" points="597.2,589.8 612.4,594.9 609.1,624.1 "/>
<polygon fill="#3A2416" points="597.2,589.8 579.4,555.3 579.8,555.3 602.4,579.3 602.4,579.8 597.6,589.8 "/>
<polygon fill="#3A2416" points="579.8,555.3 602.4,579.3 597.2,589.8 "/>
<polygon fill="#80623D" points="604.6,592.6 597.2,589.8 597.2,589.8 602.4,579.3 602.8,579.3 605,592.3 "/>
<polygon fill="#80623D" points="597.2,589.8 605,592.3 602.4,579.3 "/>
</svg>
