<svg xmlns="http://www.w3.org/2000/svg" width="1920" height="1080"><path d="M172,1323L-204,1326L280,1327Z" fill="#7b8ab4" stroke="#7b8ab4" stroke-width="1.51"/><path d="M280,1327L-204,1326L833,1341Z" fill="#7284b1" stroke="#7284b1" stroke-width="1.51"/><path d="M599,-250L992,-223L1198,-229Z" fill="#b4d3ea" stroke="#b4d3ea" stroke-width="1.51"/><path d="M1018,1316L833,1341L1355,1343Z" fill="#386aa0" stroke="#386aa0" stroke-width="1.51"/><path d="M1198,-229L1518,-243L1614,-265Z" fill="#9bb9dd" stroke="#9bb9dd" stroke-width="1.51"/><path d="M599,-250L1198,-229L1614,-265Z" fill="#a9c9e6" stroke="#a9c9e6" stroke-width="1.51"/><path d="M445,-262L599,-250L1614,-265Z" fill="#b9d7ec" stroke="#b9d7ec" stroke-width="1.51"/><path d="M1832,1253L1603,1334L1929,1251Z" fill="#0d4b90" stroke="#0d4b90" stroke-width="1.51"/><path d="M1614,-265L1918,-222L2048,-258Z" fill="#8fa0cd" stroke="#8fa0cd" stroke-width="1.51"/><path d="M1929,1251L1603,1334L2079,1274Z" fill="#09468b" stroke="#09468b" stroke-width="1.51"/><path d="M1933,272L1987,392L2086,218Z" fill="#6383b3" stroke="#6383b3" stroke-width="1.51"/><path d="M2069,646L1920,792L2105,854Z" fill="#2965a2" stroke="#2965a2" stroke-width="1.51"/><path d="M2048,979L1971,993L2113,1191Z" fill="#114e93" stroke="#114e93" stroke-width="1.51"/><path d="M1971,993L1894,1164L2113,1191Z" fill="#0c4d93" stroke="#0c4d93" stroke-width="1.51"/><path d="M2105,854L2048,979L2113,1191Z" fill="#134f92" stroke="#134f92" stroke-width="1.51"/><path d="M1898,125L2086,218L2123,86Z" fill="#7187b6" stroke="#7187b6" stroke-width="1.51"/><path d="M2048,-258L2048,-51L2123,86Z" fill="#7d8cb7" stroke="#7d8cb7" stroke-width="1.51"/><path d="M2086,218L1987,392L2126,374Z" fill="#5d7ead" stroke="#5d7ead" stroke-width="1.51"/><path d="M1987,392L2054,589L2126,374Z" fill="#4e77ab" stroke="#4e77ab" stroke-width="1.51"/><path d="M2054,589L2069,646L2126,374Z" fill="#4170a6" stroke="#4170a6" stroke-width="1.51"/><path d="M2069,646L2105,854L2126,374Z" fill="#376aa1" stroke="#376aa1" stroke-width="1.51"/><path d="M2123,86L2086,218L2126,374Z" fill="#667fac" stroke="#667fac" stroke-width="1.51"/><path d="M2105,854L2113,1191L2126,374Z" fill="#245d99" stroke="#245d99" stroke-width="1.51"/><path d="M2048,-51L1898,125L2123,86Z" fill="#778bb9" stroke="#778bb9" stroke-width="1.51"/><path d="M1918,-222L2048,-51L2048,-258Z" fill="#8694bf" stroke="#8694bf" stroke-width="1.51"/><path d="M1985,634L1920,792L2069,646Z" fill="#326ca8" stroke="#326ca8" stroke-width="1.51"/><path d="M1929,1251L2079,1274L2113,1191Z" fill="#094083" stroke="#094083" stroke-width="1.51"/><path d="M1894,1164L1929,1251L2113,1191Z" fill="#09478c" stroke="#09478c" stroke-width="1.51"/><path d="M1920,792L2048,979L2105,854Z" fill="#1f5d9e" stroke="#1f5d9e" stroke-width="1.51"/><path d="M1920,792L1971,993L2048,979Z" fill="#1a5ca0" stroke="#1a5ca0" stroke-width="1.51"/><path d="M1926,-60L1898,125L2048,-51Z" fill="#7c91bf" stroke="#7c91bf" stroke-width="1.51"/><path d="M1918,-222L1926,-60L2048,-51Z" fill="#8394c1" stroke="#8394c1" stroke-width="1.51"/><path d="M1987,392L1907,566L2054,589Z" fill="#4778af" stroke="#4778af" stroke-width="1.51"/><path d="M1898,125L1933,272L2086,218Z" fill="#6c89b9" stroke="#6c89b9" stroke-width="1.51"/><path d="M2054,589L1985,634L2069,646Z" fill="#396ea7" stroke="#396ea7" stroke-width="1.51"/><path d="M1907,566L1985,634L2054,589Z" fill="#3d73ad" stroke="#3d73ad" stroke-width="1.51"/><path d="M1614,-265L1799,-186L1918,-222Z" fill="#90a4d0" stroke="#90a4d0" stroke-width="1.51"/><path d="M1757,824L1798,1035L1920,792Z" fill="#2068ad" stroke="#2068ad" stroke-width="1.51"/><path d="M1907,566L1766,743L1920,792Z" fill="#3274b2" stroke="#3274b2" stroke-width="1.51"/><path d="M1920,792L1798,1035L1971,993Z" fill="#1960a6" stroke="#1960a6" stroke-width="1.51"/><path d="M1798,1035L1894,1164L1971,993Z" fill="#10579f" stroke="#10579f" stroke-width="1.51"/><path d="M1907,566L1920,792L1985,634Z" fill="#3671ad" stroke="#3671ad" stroke-width="1.51"/><path d="M1789,488L1907,566L1987,392Z" fill="#4d7fb7" stroke="#4d7fb7" stroke-width="1.51"/><path d="M1798,345L1789,488L1987,392Z" fill="#5986bc" stroke="#5986bc" stroke-width="1.51"/><path d="M1933,272L1798,345L1987,392Z" fill="#6088ba" stroke="#6088ba" stroke-width="1.51"/><path d="M1783,92L1898,125L1926,-60Z" fill="#7c95c6" stroke="#7c95c6" stroke-width="1.51"/><path d="M1742,-91L1783,92L1926,-60Z" fill="#829aca" stroke="#829aca" stroke-width="1.51"/><path d="M1918,-222L1799,-186L1926,-60Z" fill="#889bc9" stroke="#889bc9" stroke-width="1.51"/><path d="M1799,-186L1742,-91L1926,-60Z" fill="#889ecb" stroke="#889ecb" stroke-width="1.51"/><path d="M1894,1164L1832,1253L1929,1251Z" fill="#094a92" stroke="#094a92" stroke-width="1.51"/><path d="M1898,125L1741,281L1933,272Z" fill="#6e8fc2" stroke="#6e8fc2" stroke-width="1.51"/><path d="M1741,281L1798,345L1933,272Z" fill="#678ec1" stroke="#678ec1" stroke-width="1.51"/><path d="M1798,1035L1764,1103L1894,1164Z" fill="#0f57a1" stroke="#0f57a1" stroke-width="1.51"/><path d="M1783,92L1741,281L1898,125Z" fill="#7595c6" stroke="#7595c6" stroke-width="1.51"/><path d="M1766,743L1757,824L1920,792Z" fill="#2a70b1" stroke="#2a70b1" stroke-width="1.51"/><path d="M1789,488L1766,743L1907,566Z" fill="#3f7cb8" stroke="#3f7cb8" stroke-width="1.51"/><path d="M1643,650L1766,743L1789,488Z" fill="#3e7fbb" stroke="#3e7fbb" stroke-width="1.51"/><path d="M1764,1103L1832,1253L1894,1164Z" fill="#0a519b" stroke="#0a519b" stroke-width="1.51"/><path d="M1689,250L1741,281L1783,92Z" fill="#7397c8" stroke="#7397c8" stroke-width="1.51"/><path d="M1632,561L1643,650L1789,488Z" fill="#4686bf" stroke="#4686bf" stroke-width="1.51"/><path d="M1757,824L1684,1037L1798,1035Z" fill="#1a66ac" stroke="#1a66ac" stroke-width="1.51"/><path d="M1764,1103L1598,1189L1832,1253Z" fill="#0f569e" stroke="#0f569e" stroke-width="1.51"/><path d="M1598,1189L1603,1334L1832,1253Z" fill="#125297" stroke="#125297" stroke-width="1.51"/><path d="M1678,-110L1632,127L1742,-91Z" fill="#86a3d0" stroke="#86a3d0" stroke-width="1.51"/><path d="M1632,127L1689,250L1783,92Z" fill="#799bcb" stroke="#799bcb" stroke-width="1.51"/><path d="M1742,-91L1632,127L1783,92Z" fill="#819ecd" stroke="#819ecd" stroke-width="1.51"/><path d="M1684,1037L1764,1103L1798,1035Z" fill="#165ea6" stroke="#165ea6" stroke-width="1.51"/><path d="M1624,401L1789,488L1798,345Z" fill="#5b8dc1" stroke="#5b8dc1" stroke-width="1.51"/><path d="M1741,281L1624,401L1798,345Z" fill="#6493c5" stroke="#6493c5" stroke-width="1.51"/><path d="M1678,-110L1742,-91L1799,-186Z" fill="#8ba3cf" stroke="#8ba3cf" stroke-width="1.51"/><path d="M1614,-265L1678,-110L1799,-186Z" fill="#90a7d3" stroke="#90a7d3" stroke-width="1.51"/><path d="M1623,797L1684,1037L1757,824Z" fill="#256fb2" stroke="#256fb2" stroke-width="1.51"/><path d="M1624,401L1632,561L1789,488Z" fill="#528cc2" stroke="#528cc2" stroke-width="1.51"/><path d="M1684,1037L1598,1189L1764,1103Z" fill="#155ea6" stroke="#155ea6" stroke-width="1.51"/><path d="M1623,797L1757,824L1766,743Z" fill="#2c75b5" stroke="#2c75b5" stroke-width="1.51"/><path d="M1643,650L1623,797L1766,743Z" fill="#337cb9" stroke="#337cb9" stroke-width="1.51"/><path d="M1689,250L1624,401L1741,281Z" fill="#6996c7" stroke="#6996c7" stroke-width="1.51"/><path d="M1506,56L1632,127L1678,-110Z" fill="#85a5d2" stroke="#85a5d2" stroke-width="1.51"/><path d="M1480,1304L1355,1343L1603,1334Z" fill="#1c5796" stroke="#1c5796" stroke-width="1.51"/><path d="M1614,-265L1518,-243L1678,-110Z" fill="#93aed7" stroke="#93aed7" stroke-width="1.51"/><path d="M1457,-14L1506,56L1678,-110Z" fill="#8aaad6" stroke="#8aaad6" stroke-width="1.51"/><path d="M1540,1170L1598,1189L1684,1037Z" fill="#1760a8" stroke="#1760a8" stroke-width="1.51"/><path d="M1623,797L1457,966L1684,1037Z" fill="#2271b5" stroke="#2271b5" stroke-width="1.51"/><path d="M1632,127L1524,294L1689,250Z" fill="#749dcc" stroke="#749dcc" stroke-width="1.51"/><path d="M1524,294L1624,401L1689,250Z" fill="#6a9aca" stroke="#6a9aca" stroke-width="1.51"/><path d="M1130,1301L1018,1316L1355,1343Z" fill="#31679f" stroke="#31679f" stroke-width="1.51"/><path d="M1535,698L1623,797L1643,650Z" fill="#3781bd" stroke="#3781bd" stroke-width="1.51"/><path d="M1457,966L1540,1170L1684,1037Z" fill="#1c68ae" stroke="#1c68ae" stroke-width="1.51"/><path d="M1518,-243L1457,-14L1678,-110Z" fill="#8faed8" stroke="#8faed8" stroke-width="1.51"/><path d="M1453,816L1457,966L1623,797Z" fill="#2d7bbb" stroke="#2d7bbb" stroke-width="1.51"/><path d="M1501,392L1495,548L1624,401Z" fill="#5a96c9" stroke="#5a96c9" stroke-width="1.51"/><path d="M1624,401L1495,548L1632,561Z" fill="#5190c6" stroke="#5190c6" stroke-width="1.51"/><path d="M1495,548L1535,698L1632,561Z" fill="#458bc3" stroke="#458bc3" stroke-width="1.51"/><path d="M1632,561L1535,698L1643,650Z" fill="#4086c0" stroke="#4086c0" stroke-width="1.51"/><path d="M1598,1189L1480,1304L1603,1334Z" fill="#17579a" stroke="#17579a" stroke-width="1.51"/><path d="M1524,294L1501,392L1624,401Z" fill="#669bcb" stroke="#669bcb" stroke-width="1.51"/><path d="M1506,56L1524,294L1632,127Z" fill="#7ca3d1" stroke="#7ca3d1" stroke-width="1.51"/><path d="M1540,1170L1480,1304L1598,1189Z" fill="#195da1" stroke="#195da1" stroke-width="1.51"/><path d="M1535,698L1453,816L1623,797Z" fill="#3380bd" stroke="#3380bd" stroke-width="1.51"/><path d="M1365,-99L1457,-14L1518,-243Z" fill="#93b4da" stroke="#93b4da" stroke-width="1.51"/><path d="M1375,519L1495,548L1501,392Z" fill="#5898ca" stroke="#5898ca" stroke-width="1.51"/><path d="M1357,44L1302,218L1506,56Z" fill="#87afd8" stroke="#87afd8" stroke-width="1.51"/><path d="M1198,-229L1322,-157L1518,-243Z" fill="#9dbddf" stroke="#9dbddf" stroke-width="1.51"/><path d="M1506,56L1302,218L1524,294Z" fill="#7da9d4" stroke="#7da9d4" stroke-width="1.51"/><path d="M1495,548L1349,725L1535,698Z" fill="#438dc4" stroke="#438dc4" stroke-width="1.51"/><path d="M1280,1108L1480,1304L1540,1170Z" fill="#2164a7" stroke="#2164a7" stroke-width="1.51"/><path d="M1457,966L1280,1108L1540,1170Z" fill="#256eb1" stroke="#256eb1" stroke-width="1.51"/><path d="M1349,725L1453,816L1535,698Z" fill="#3987c1" stroke="#3987c1" stroke-width="1.51"/><path d="M1375,519L1349,725L1495,548Z" fill="#4c94c8" stroke="#4c94c8" stroke-width="1.51"/><path d="M1322,-157L1365,-99L1518,-243Z" fill="#98b8dc" stroke="#98b8dc" stroke-width="1.51"/><path d="M1340,343L1501,392L1524,294Z" fill="#6ca1ce" stroke="#6ca1ce" stroke-width="1.51"/><path d="M1302,218L1340,343L1524,294Z" fill="#75a8d2" stroke="#75a8d2" stroke-width="1.51"/><path d="M1280,1108L1355,1343L1480,1304Z" fill="#2463a3" stroke="#2463a3" stroke-width="1.51"/><path d="M415,1301L280,1327L833,1341Z" fill="#6680ad" stroke="#6680ad" stroke-width="1.51"/><path d="M1453,816L1353,863L1457,966Z" fill="#307ebc" stroke="#307ebc" stroke-width="1.51"/><path d="M1457,-14L1357,44L1506,56Z" fill="#8aafd8" stroke="#8aafd8" stroke-width="1.51"/><path d="M1340,343L1375,519L1501,392Z" fill="#649fce" stroke="#649fce" stroke-width="1.51"/><path d="M-166,-209L-41,-199L445,-262Z" fill="#e6f0f9" stroke="#e6f0f9" stroke-width="1.51"/><path d="M1322,948L1280,1108L1457,966Z" fill="#2c78b7" stroke="#2c78b7" stroke-width="1.51"/><path d="M1353,863L1322,948L1457,966Z" fill="#2f7dbb" stroke="#2f7dbb" stroke-width="1.51"/><path d="M1365,-99L1357,44L1457,-14Z" fill="#8fb4da" stroke="#8fb4da" stroke-width="1.51"/><path d="M1349,725L1353,863L1453,816Z" fill="#3986c0" stroke="#3986c0" stroke-width="1.51"/><path d="M1349,725L1197,788L1353,863Z" fill="#3d8cc3" stroke="#3d8cc3" stroke-width="1.51"/><path d="M1280,1108L1170,1183L1355,1343Z" fill="#2b6baa" stroke="#2b6baa" stroke-width="1.51"/><path d="M1189,128L1302,218L1357,44Z" fill="#8ab4da" stroke="#8ab4da" stroke-width="1.51"/><path d="M1145,-102L1357,44L1365,-99Z" fill="#94bbdd" stroke="#94bbdd" stroke-width="1.51"/><path d="M1184,530L1226,640L1375,519Z" fill="#569ecd" stroke="#569ecd" stroke-width="1.51"/><path d="M1340,343L1207,368L1375,519Z" fill="#69a6d0" stroke="#69a6d0" stroke-width="1.51"/><path d="M1207,368L1184,530L1375,519Z" fill="#62a4d0" stroke="#62a4d0" stroke-width="1.51"/><path d="M1226,640L1349,725L1375,519Z" fill="#4d97c9" stroke="#4d97c9" stroke-width="1.51"/><path d="M1170,1183L1130,1301L1355,1343Z" fill="#2e68a3" stroke="#2e68a3" stroke-width="1.51"/><path d="M1322,-157L1145,-102L1365,-99Z" fill="#99bedf" stroke="#99bedf" stroke-width="1.51"/><path d="M1145,-102L1189,128L1357,44Z" fill="#93bbde" stroke="#93bbde" stroke-width="1.51"/><path d="M1176,1000L1280,1108L1322,948Z" fill="#317cb9" stroke="#317cb9" stroke-width="1.51"/><path d="M1197,788L1322,948L1353,863Z" fill="#3887c0" stroke="#3887c0" stroke-width="1.51"/><path d="M1302,218L1207,368L1340,343Z" fill="#76add4" stroke="#76add4" stroke-width="1.51"/><path d="M1226,640L1197,788L1349,725Z" fill="#4594c7" stroke="#4594c7" stroke-width="1.51"/><path d="M1161,247L1207,368L1302,218Z" fill="#7db1d7" stroke="#7db1d7" stroke-width="1.51"/><path d="M1197,788L1176,1000L1322,948Z" fill="#3986c0" stroke="#3986c0" stroke-width="1.51"/><path d="M1198,-229L1145,-102L1322,-157Z" fill="#9fc2e1" stroke="#9fc2e1" stroke-width="1.51"/><path d="M1189,128L1161,247L1302,218Z" fill="#86b5d9" stroke="#86b5d9" stroke-width="1.51"/><path d="M1176,1000L1170,1183L1280,1108Z" fill="#3378b6" stroke="#3378b6" stroke-width="1.51"/><path d="M1070,1168L1170,1183L1176,1000Z" fill="#3979b6" stroke="#3979b6" stroke-width="1.51"/><path d="M1145,-102L1029,132L1189,128Z" fill="#97bfe0" stroke="#97bfe0" stroke-width="1.51"/><path d="M984,839L1176,1000L1197,788Z" fill="#458ec4" stroke="#458ec4" stroke-width="1.51"/><path d="M1012,439L1184,530L1207,368Z" fill="#6dacd4" stroke="#6dacd4" stroke-width="1.51"/><path d="M1070,740L1197,788L1226,640Z" fill="#4c98ca" stroke="#4c98ca" stroke-width="1.51"/><path d="M1184,530L1070,740L1226,640Z" fill="#559ecd" stroke="#559ecd" stroke-width="1.51"/><path d="M984,839L979,980L1176,1000Z" fill="#468cc4" stroke="#468cc4" stroke-width="1.51"/><path d="M1015,490L1070,740L1184,530Z" fill="#5ea5d1" stroke="#5ea5d1" stroke-width="1.51"/><path d="M1012,439L1015,490L1184,530Z" fill="#6bacd5" stroke="#6bacd5" stroke-width="1.51"/><path d="M1070,740L984,839L1197,788Z" fill="#4c96c8" stroke="#4c96c8" stroke-width="1.51"/><path d="M1161,247L1017,277L1207,368Z" fill="#80b5d8" stroke="#80b5d8" stroke-width="1.51"/><path d="M1017,277L1012,439L1207,368Z" fill="#7cb4d8" stroke="#7cb4d8" stroke-width="1.51"/><path d="M1009,-114L1029,132L1145,-102Z" fill="#9fc5e3" stroke="#9fc5e3" stroke-width="1.51"/><path d="M1029,132L1161,247L1189,128Z" fill="#8ebbdd" stroke="#8ebbdd" stroke-width="1.51"/><path d="M992,-223L1145,-102L1198,-229Z" fill="#a6c9e5" stroke="#a6c9e5" stroke-width="1.51"/><path d="M1070,1168L1130,1301L1170,1183Z" fill="#3772ad" stroke="#3772ad" stroke-width="1.51"/><path d="M979,980L1070,1168L1176,1000Z" fill="#4082bc" stroke="#4082bc" stroke-width="1.51"/><path d="M992,-223L1009,-114L1145,-102Z" fill="#a7cae6" stroke="#a7cae6" stroke-width="1.51"/><path d="M1015,490L922,577L1070,740Z" fill="#63a7d2" stroke="#63a7d2" stroke-width="1.51"/><path d="M1029,132L1017,277L1161,247Z" fill="#8cbbdd" stroke="#8cbbdd" stroke-width="1.51"/><path d="M1070,1168L1018,1316L1130,1301Z" fill="#3a70a9" stroke="#3a70a9" stroke-width="1.51"/><path d="M1009,-114L936,111L1029,132Z" fill="#9ec6e3" stroke="#9ec6e3" stroke-width="1.51"/><path d="M579,1274L415,1301L833,1341Z" fill="#607fad" stroke="#607fad" stroke-width="1.51"/><path d="M599,-250L774,-160L992,-223Z" fill="#bdd9ec" stroke="#bdd9ec" stroke-width="1.51"/><path d="M838,-19L936,111L1009,-114Z" fill="#a6cbe6" stroke="#a6cbe6" stroke-width="1.51"/><path d="M920,211L1017,277L1029,132Z" fill="#91bfdf" stroke="#91bfdf" stroke-width="1.51"/><path d="M864,1183L1018,1316L1070,1168Z" fill="#4178b1" stroke="#4178b1" stroke-width="1.51"/><path d="M979,980L864,1183L1070,1168Z" fill="#4681bb" stroke="#4681bb" stroke-width="1.51"/><path d="M922,743L984,839L1070,740Z" fill="#549ccc" stroke="#549ccc" stroke-width="1.51"/><path d="M922,577L922,743L1070,740Z" fill="#5da3d0" stroke="#5da3d0" stroke-width="1.51"/><path d="M847,1000L864,1183L979,980Z" fill="#4f89c0" stroke="#4f89c0" stroke-width="1.51"/><path d="M992,-223L940,-172L1009,-114Z" fill="#accee8" stroke="#accee8" stroke-width="1.51"/><path d="M842,336L1012,439L1017,277Z" fill="#84bbdb" stroke="#84bbdb" stroke-width="1.51"/><path d="M936,111L920,211L1029,132Z" fill="#98c3e2" stroke="#98c3e2" stroke-width="1.51"/><path d="M913,826L979,980L984,839Z" fill="#5095c9" stroke="#5095c9" stroke-width="1.51"/><path d="M774,-160L940,-172L992,-223Z" fill="#b3d3ea" stroke="#b3d3ea" stroke-width="1.51"/><path d="M920,211L842,336L1017,277Z" fill="#8fc0de" stroke="#8fc0de" stroke-width="1.51"/><path d="M864,1183L833,1341L1018,1316Z" fill="#4775ab" stroke="#4775ab" stroke-width="1.51"/><path d="M940,-172L838,-19L1009,-114Z" fill="#accfe8" stroke="#accfe8" stroke-width="1.51"/><path d="M1012,439L922,577L1015,490Z" fill="#6fafd7" stroke="#6fafd7" stroke-width="1.51"/><path d="M922,743L913,826L984,839Z" fill="#579ccc" stroke="#579ccc" stroke-width="1.51"/><path d="M774,417L922,577L1012,439Z" fill="#79b4d9" stroke="#79b4d9" stroke-width="1.51"/><path d="M842,336L774,417L1012,439Z" fill="#85bbdc" stroke="#85bbdc" stroke-width="1.51"/><path d="M913,826L847,1000L979,980Z" fill="#5292c7" stroke="#5292c7" stroke-width="1.51"/><path d="M847,1000L764,1110L864,1183Z" fill="#5588bf" stroke="#5588bf" stroke-width="1.51"/><path d="M763,860L847,1000L913,826Z" fill="#5b99ca" stroke="#5b99ca" stroke-width="1.51"/><path d="M685,704L922,743L922,577Z" fill="#6aaad3" stroke="#6aaad3" stroke-width="1.51"/><path d="M699,138L920,211L936,111Z" fill="#a1c8e4" stroke="#a1c8e4" stroke-width="1.51"/><path d="M774,-160L838,-19L940,-172Z" fill="#b3d3e9" stroke="#b3d3e9" stroke-width="1.51"/><path d="M785,275L842,336L920,211Z" fill="#95c3e0" stroke="#95c3e0" stroke-width="1.51"/><path d="M838,-19L699,138L936,111Z" fill="#a9cde6" stroke="#a9cde6" stroke-width="1.51"/><path d="M771,1271L833,1341L864,1183Z" fill="#4f7bae" stroke="#4f7bae" stroke-width="1.51"/><path d="M699,138L785,275L920,211Z" fill="#a0c8e3" stroke="#a0c8e3" stroke-width="1.51"/><path d="M763,860L913,826L922,743Z" fill="#5e9fcd" stroke="#5e9fcd" stroke-width="1.51"/><path d="M685,704L763,860L922,743Z" fill="#67a6d0" stroke="#67a6d0" stroke-width="1.51"/><path d="M774,417L701,517L922,577Z" fill="#7eb8da" stroke="#7eb8da" stroke-width="1.51"/><path d="M701,517L685,704L922,577Z" fill="#77b3d7" stroke="#77b3d7" stroke-width="1.51"/><path d="M774,-160L744,-113L838,-19Z" fill="#b6d5ea" stroke="#b6d5ea" stroke-width="1.51"/><path d="M764,1110L771,1271L864,1183Z" fill="#5482b8" stroke="#5482b8" stroke-width="1.51"/><path d="M771,1271L579,1274L833,1341Z" fill="#577cac" stroke="#577cac" stroke-width="1.51"/><path d="M685,974L764,1110L847,1000Z" fill="#5d91c5" stroke="#5d91c5" stroke-width="1.51"/><path d="M763,860L685,974L847,1000Z" fill="#6098ca" stroke="#6098ca" stroke-width="1.51"/><path d="M785,275L774,417L842,336Z" fill="#92c3df" stroke="#92c3df" stroke-width="1.51"/><path d="M744,-113L699,138L838,-19Z" fill="#b2d3e8" stroke="#b2d3e8" stroke-width="1.51"/><path d="M597,76L699,138L744,-113Z" fill="#b6d5e9" stroke="#b6d5e9" stroke-width="1.51"/><path d="M-41,-199L145,-182L445,-262Z" fill="#e1ecf8" stroke="#e1ecf8" stroke-width="1.51"/><path d="M593,-115L597,76L744,-113Z" fill="#bedaec" stroke="#bedaec" stroke-width="1.51"/><path d="M764,1110L617,1182L771,1271Z" fill="#5c86ba" stroke="#5c86ba" stroke-width="1.51"/><path d="M609,265L573,422L774,417Z" fill="#9bc7e0" stroke="#9bc7e0" stroke-width="1.51"/><path d="M609,265L774,417L785,275Z" fill="#9bc7e1" stroke="#9bc7e1" stroke-width="1.51"/><path d="M699,138L609,265L785,275Z" fill="#a6cce4" stroke="#a6cce4" stroke-width="1.51"/><path d="M573,422L701,517L774,417Z" fill="#8ec1de" stroke="#8ec1de" stroke-width="1.51"/><path d="M599,-250L744,-113L774,-160Z" fill="#c1dced" stroke="#c1dced" stroke-width="1.51"/><path d="M617,1182L579,1274L771,1271Z" fill="#6083b4" stroke="#6083b4" stroke-width="1.51"/><path d="M577,593L685,704L701,517Z" fill="#81b7d9" stroke="#81b7d9" stroke-width="1.51"/><path d="M599,-250L593,-115L744,-113Z" fill="#c5deee" stroke="#c5deee" stroke-width="1.51"/><path d="M685,704L602,710L763,860Z" fill="#71acd3" stroke="#71acd3" stroke-width="1.51"/><path d="M602,710L533,894L763,860Z" fill="#73a8d1" stroke="#73a8d1" stroke-width="1.51"/><path d="M685,974L617,1182L764,1110Z" fill="#628fc2" stroke="#628fc2" stroke-width="1.51"/><path d="M533,894L685,974L763,860Z" fill="#6ca0cd" stroke="#6ca0cd" stroke-width="1.51"/><path d="M533,894L581,970L685,974Z" fill="#6e9ecd" stroke="#6e9ecd" stroke-width="1.51"/><path d="M581,970L617,1182L685,974Z" fill="#6896c7" stroke="#6896c7" stroke-width="1.51"/><path d="M577,593L602,710L685,704Z" fill="#7eb4d8" stroke="#7eb4d8" stroke-width="1.51"/><path d="M597,76L609,265L699,138Z" fill="#b1d1e7" stroke="#b1d1e7" stroke-width="1.51"/><path d="M573,422L577,593L701,517Z" fill="#8cbfde" stroke="#8cbfde" stroke-width="1.51"/><path d="M573,422L440,494L577,593Z" fill="#94c2e0" stroke="#94c2e0" stroke-width="1.51"/><path d="M593,-115L410,-7L597,76Z" fill="#c3dbee" stroke="#c3dbee" stroke-width="1.51"/><path d="M445,-262L593,-115L599,-250Z" fill="#cee2f1" stroke="#cee2f1" stroke-width="1.51"/><path d="M474,723L533,894L602,710Z" fill="#7caed6" stroke="#7caed6" stroke-width="1.51"/><path d="M397,398L573,422L609,265Z" fill="#a4cce3" stroke="#a4cce3" stroke-width="1.51"/><path d="M391,250L397,398L609,265Z" fill="#aed0e6" stroke="#aed0e6" stroke-width="1.51"/><path d="M597,76L426,75L609,265Z" fill="#b9d6ea" stroke="#b9d6ea" stroke-width="1.51"/><path d="M426,75L391,250L609,265Z" fill="#b8d4ea" stroke="#b8d4ea" stroke-width="1.51"/><path d="M581,970L405,1136L617,1182Z" fill="#6e94c5" stroke="#6e94c5" stroke-width="1.51"/><path d="M405,1136L579,1274L617,1182Z" fill="#6a8bbd" stroke="#6a8bbd" stroke-width="1.51"/><path d="M410,-7L426,75L597,76Z" fill="#c3daed" stroke="#c3daed" stroke-width="1.51"/><path d="M577,593L474,723L602,710Z" fill="#82b6d9" stroke="#82b6d9" stroke-width="1.51"/><path d="M405,1136L415,1301L579,1274Z" fill="#6d89b9" stroke="#6d89b9" stroke-width="1.51"/><path d="M382,937L405,1136L581,970Z" fill="#769ccc" stroke="#769ccc" stroke-width="1.51"/><path d="M445,-262L410,-7L593,-115Z" fill="#cde1f1" stroke="#cde1f1" stroke-width="1.51"/><path d="M533,894L382,937L581,970Z" fill="#77a2d0" stroke="#77a2d0" stroke-width="1.51"/><path d="M440,494L474,723L577,593Z" fill="#8cbcdd" stroke="#8cbcdd" stroke-width="1.51"/><path d="M397,398L440,494L573,422Z" fill="#9fc8e2" stroke="#9fc8e2" stroke-width="1.51"/><path d="M145,-182L309,-185L445,-262Z" fill="#dde9f7" stroke="#dde9f7" stroke-width="1.51"/><path d="M309,-185L410,-7L445,-262Z" fill="#d5e5f4" stroke="#d5e5f4" stroke-width="1.51"/><path d="M397,896L382,937L533,894Z" fill="#7ca6d2" stroke="#7ca6d2" stroke-width="1.51"/><path d="M474,723L397,896L533,894Z" fill="#7eabd4" stroke="#7eabd4" stroke-width="1.51"/><path d="M281,500L284,699L440,494Z" fill="#9ac3e2" stroke="#9ac3e2" stroke-width="1.51"/><path d="M267,836L397,896L474,723Z" fill="#85afd7" stroke="#85afd7" stroke-width="1.51"/><path d="M284,699L267,836L474,723Z" fill="#8ab6da" stroke="#8ab6da" stroke-width="1.51"/><path d="M440,494L284,699L474,723Z" fill="#90bcde" stroke="#90bcde" stroke-width="1.51"/><path d="M382,937L329,936L405,1136Z" fill="#7c9fcf" stroke="#7c9fcf" stroke-width="1.51"/><path d="M405,1136L280,1327L415,1301Z" fill="#738ab9" stroke="#738ab9" stroke-width="1.51"/><path d="M264,201L391,250L426,75Z" fill="#c2d9ed" stroke="#c2d9ed" stroke-width="1.51"/><path d="M295,56L264,201L426,75Z" fill="#c9dcf0" stroke="#c9dcf0" stroke-width="1.51"/><path d="M329,936L244,1134L405,1136Z" fill="#7d9bcb" stroke="#7d9bcb" stroke-width="1.51"/><path d="M397,398L281,500L440,494Z" fill="#a3c9e4" stroke="#a3c9e4" stroke-width="1.51"/><path d="M391,250L239,373L397,398Z" fill="#b2d2e8" stroke="#b2d2e8" stroke-width="1.51"/><path d="M244,1134L280,1327L405,1136Z" fill="#7890c1" stroke="#7890c1" stroke-width="1.51"/><path d="M309,-185L233,-36L410,-7Z" fill="#d4e4f4" stroke="#d4e4f4" stroke-width="1.51"/><path d="M410,-7L295,56L426,75Z" fill="#cadef0" stroke="#cadef0" stroke-width="1.51"/><path d="M233,-36L295,56L410,-7Z" fill="#cfe1f2" stroke="#cfe1f2" stroke-width="1.51"/><path d="M264,201L239,373L391,250Z" fill="#bbd6eb" stroke="#bbd6eb" stroke-width="1.51"/><path d="M329,936L382,937L397,896Z" fill="#80a6d3" stroke="#80a6d3" stroke-width="1.51"/><path d="M267,836L329,936L397,896Z" fill="#84aad5" stroke="#84aad5" stroke-width="1.51"/><path d="M239,373L281,500L397,398Z" fill="#aacee6" stroke="#aacee6" stroke-width="1.51"/><path d="M-10,1273L-204,1326L172,1323Z" fill="#808eb7" stroke="#808eb7" stroke-width="1.51"/><path d="M244,1134L172,1323L280,1327Z" fill="#788cba" stroke="#788cba" stroke-width="1.51"/><path d="M281,500L150,594L284,699Z" fill="#9bc3e2" stroke="#9bc3e2" stroke-width="1.51"/><path d="M267,836L99,1031L329,936Z" fill="#86a9d5" stroke="#86a9d5" stroke-width="1.51"/><path d="M99,1031L244,1134L329,936Z" fill="#82a0cf" stroke="#82a0cf" stroke-width="1.51"/><path d="M128,1184L172,1323L244,1134Z" fill="#7d92c1" stroke="#7d92c1" stroke-width="1.51"/><path d="M130,245L239,373L264,201Z" fill="#bed9ec" stroke="#bed9ec" stroke-width="1.51"/><path d="M150,594L160,685L284,699Z" fill="#98c0e0" stroke="#98c0e0" stroke-width="1.51"/><path d="M145,-182L233,-36L309,-185Z" fill="#dbe8f6" stroke="#dbe8f6" stroke-width="1.51"/><path d="M116,812L99,1031L267,836Z" fill="#8baed7" stroke="#8baed7" stroke-width="1.51"/><path d="M239,373L157,423L281,500Z" fill="#adcfe7" stroke="#adcfe7" stroke-width="1.51"/><path d="M160,685L267,836L284,699Z" fill="#90badc" stroke="#90badc" stroke-width="1.51"/><path d="M82,82L264,201L295,56Z" fill="#cddff2" stroke="#cddff2" stroke-width="1.51"/><path d="M233,-36L82,82L295,56Z" fill="#d2e2f3" stroke="#d2e2f3" stroke-width="1.51"/><path d="M160,685L116,812L267,836Z" fill="#90b8dc" stroke="#90b8dc" stroke-width="1.51"/><path d="M157,423L150,594L281,500Z" fill="#a6cbe6" stroke="#a6cbe6" stroke-width="1.51"/><path d="M145,-182L107,-90L233,-36Z" fill="#dce9f6" stroke="#dce9f6" stroke-width="1.51"/><path d="M82,82L130,245L264,201Z" fill="#cadef0" stroke="#cadef0" stroke-width="1.51"/><path d="M130,245L157,423L239,373Z" fill="#b8d6ea" stroke="#b8d6ea" stroke-width="1.51"/><path d="M99,1031L128,1184L244,1134Z" fill="#829bca" stroke="#829bca" stroke-width="1.51"/><path d="M107,-90L82,82L233,-36Z" fill="#d8e6f5" stroke="#d8e6f5" stroke-width="1.51"/><path d="M18,877L99,1031L116,812Z" fill="#8eafd8" stroke="#8eafd8" stroke-width="1.51"/><path d="M130,245L-33,347L157,423Z" fill="#bdd9eb" stroke="#bdd9eb" stroke-width="1.51"/><path d="M21,510L150,594L157,423Z" fill="#a9cde7" stroke="#a9cde7" stroke-width="1.51"/><path d="M3,698L116,812L160,685Z" fill="#97bedf" stroke="#97bedf" stroke-width="1.51"/><path d="M128,1184L-10,1273L172,1323Z" fill="#7e8fbc" stroke="#7e8fbc" stroke-width="1.51"/><path d="M18,877L21,1019L99,1031Z" fill="#8caad5" stroke="#8caad5" stroke-width="1.51"/><path d="M99,1031L27,1180L128,1184Z" fill="#849cca" stroke="#849cca" stroke-width="1.51"/><path d="M27,1180L-10,1273L128,1184Z" fill="#8395c3" stroke="#8395c3" stroke-width="1.51"/><path d="M82,82L8,220L130,245Z" fill="#cde0f1" stroke="#cde0f1" stroke-width="1.51"/><path d="M150,594L3,698L160,685Z" fill="#9cc3e2" stroke="#9cc3e2" stroke-width="1.51"/><path d="M-33,347L21,510L157,423Z" fill="#b5d4e9" stroke="#b5d4e9" stroke-width="1.51"/><path d="M7,63L82,82L107,-90Z" fill="#d9e7f5" stroke="#d9e7f5" stroke-width="1.51"/><path d="M8,220L-33,347L130,245Z" fill="#c5ddee" stroke="#c5ddee" stroke-width="1.51"/><path d="M21,510L3,698L150,594Z" fill="#a3c8e4" stroke="#a3c8e4" stroke-width="1.51"/><path d="M5,-110L107,-90L145,-182Z" fill="#e0ecf7" stroke="#e0ecf7" stroke-width="1.51"/><path d="M-41,-199L5,-110L145,-182Z" fill="#e4eff9" stroke="#e4eff9" stroke-width="1.51"/><path d="M21,1019L27,1180L99,1031Z" fill="#88a2ce" stroke="#88a2ce" stroke-width="1.51"/><path d="M5,-110L7,63L107,-90Z" fill="#ddeaf7" stroke="#ddeaf7" stroke-width="1.51"/><path d="M3,698L18,877L116,812Z" fill="#95badd" stroke="#95badd" stroke-width="1.51"/><path d="M7,63L8,220L82,82Z" fill="#d4e3f4" stroke="#d4e3f4" stroke-width="1.51"/><path d="M-120,526L-143,713L3,698Z" fill="#a5c9e5" stroke="#a5c9e5" stroke-width="1.51"/><path d="M5,-110L-140,-113L7,63Z" fill="#e1ecf8" stroke="#e1ecf8" stroke-width="1.51"/><path d="M7,63L-185,93L8,220Z" fill="#d7e6f5" stroke="#d7e6f5" stroke-width="1.51"/><path d="M3,698L-143,713L18,877Z" fill="#9bbee0" stroke="#9bbee0" stroke-width="1.51"/><path d="M-143,713L-214,875L18,877Z" fill="#9bbbde" stroke="#9bbbde" stroke-width="1.51"/><path d="M-161,993L-203,1111L21,1019Z" fill="#91a8d3" stroke="#91a8d3" stroke-width="1.51"/><path d="M18,877L-161,993L21,1019Z" fill="#90add7" stroke="#90add7" stroke-width="1.51"/><path d="M-120,526L3,698L21,510Z" fill="#a9cce6" stroke="#a9cce6" stroke-width="1.51"/><path d="M-33,347L-120,526L21,510Z" fill="#b5d5ea" stroke="#b5d5ea" stroke-width="1.51"/><path d="M21,1019L-203,1111L27,1180Z" fill="#8ba1ce" stroke="#8ba1ce" stroke-width="1.51"/><path d="M-203,1111L-10,1273L27,1180Z" fill="#889ac7" stroke="#889ac7" stroke-width="1.51"/><path d="M-167,404L-120,526L-33,347Z" fill="#bbd8ec" stroke="#bbd8ec" stroke-width="1.51"/><path d="M-140,-113L-185,93L7,63Z" fill="#e0ecf7" stroke="#e0ecf7" stroke-width="1.51"/><path d="M-214,875L-161,993L18,877Z" fill="#96b4da" stroke="#96b4da" stroke-width="1.51"/><path d="M-187,260L-33,347L8,220Z" fill="#cae0ef" stroke="#cae0ef" stroke-width="1.51"/><path d="M-185,93L-187,260L8,220Z" fill="#d4e5f4" stroke="#d4e5f4" stroke-width="1.51"/><path d="M-41,-199L-140,-113L5,-110Z" fill="#e7f0f9" stroke="#e7f0f9" stroke-width="1.51"/><path d="M-203,1111L-204,1326L-10,1273Z" fill="#8998c2" stroke="#8998c2" stroke-width="1.51"/><path d="M-187,260L-167,404L-33,347Z" fill="#c6dfee" stroke="#c6dfee" stroke-width="1.51"/><path d="M-166,-209L-140,-113L-41,-199Z" fill="#ecf3fc" stroke="#ecf3fc" stroke-width="1.51"/><path d="M-167,404L-143,713L-120,526Z" fill="#b0d1e9" stroke="#b0d1e9" stroke-width="1.51"/><path d="M-167,404L-214,875L-143,713Z" fill="#a8c9e5" stroke="#a8c9e5" stroke-width="1.51"/><path d="M-166,-209L-185,93L-140,-113Z" fill="#e8f1fa" stroke="#e8f1fa" stroke-width="1.51"/><path d="M-214,875L-203,1111L-161,993Z" fill="#96aed7" stroke="#96aed7" stroke-width="1.51"/><path d="M-187,260L-214,875L-167,404Z" fill="#b5d4eb" stroke="#b5d4eb" stroke-width="1.51"/><path d="M-214,875L-187,260L-185,93Z" fill="#c1dced" stroke="#c1dced" stroke-width="1.51"/><path d="M-214,875L-204,1326L-203,1111Z" fill="#92a5d0" stroke="#92a5d0" stroke-width="1.51"/></svg>