<?xml version="1.0" encoding="utf-8"?>
<!-- Generator: Adobe Illustrator 18.0.0, SVG Export Plug-In . SVG Version: 6.00 Build 0)  -->
<!DOCTYPE svg PUBLIC "-//W3C//DTD SVG 1.1//EN" "http://www.w3.org/Graphics/SVG/1.1/DTD/svg11.dtd">
<svg version="1.1" id="Layer_1" xmlns="http://www.w3.org/2000/svg" xmlns:xlink="http://www.w3.org/1999/xlink" x="0px" y="0px"
	 viewBox="0 51.5 400 98.5" enable-background="new 0 51.5 400 98.5" xml:space="preserve">
<g>
	<g>
		<g>
			<polygon fill="#D9F0F7" points="5.7,107.9 0,119.9 8.1,116.4 			"/>
			<polygon fill="#F3F7F7" points="5.7,107.9 27.4,107.9 18.5,109.3 9.9,117.1 8.1,116.4 			"/>
			<polygon fill="#CCE0F4" points="9.9,117.1 13.5,119.3 14.5,113.8 18.5,109.3 			"/>
			<polygon fill="#D8E9F2" points="13.5,119.3 20.3,114.3 18.5,109.3 14.5,113.8 			"/>
			<polygon fill="#BCD9F1" points="13.5,119.3 11.8,127.4 8.1,128.3 8.1,116.4 			"/>
			<polygon fill="#C6E8F9" points="8.1,128.3 0,119.9 8.1,116.4 			"/>
			<polygon fill="#A8C5E7" points="11.8,127.4 18.5,131.6 13.5,134.1 8.1,128.3 			"/>
			<polygon fill="#B6DAF3" points="10.4,130.8 4.1,137.4 15.6,137.4 13.5,134.1 			"/>
			<polygon fill="#8A9FCA" points="15.6,137.4 23,138.1 20.3,136.1 18.5,131.6 13.5,134.1 			"/>
			<polygon fill="#ADC9E9" points="20.3,136.1 28.9,134.1 16.8,121.1 21.7,117.8 20.3,114.3 13.5,119.3 11.8,127.4 			"/>
			<polygon fill="#C9DEF2" points="18.5,109.3 25,117.3 28.1,127.1 32.1,121.1 28.9,134.1 16.8,121.1 21.7,117.8 20.3,114.3 			"/>
			<polygon fill="#DFEBF3" points="25,117.3 35.2,106.1 27.4,107.9 18.5,109.3 			"/>
			<polygon fill="#D6EDF4" points="27.4,107.9 32.4,104.1 35.2,106.1 			"/>
			<polygon fill="#FFFAF9" points="35.2,106.1 40.9,109.9 39.9,117.6 42.5,120.6 25,117.3 			"/>
			<polygon fill="#E2ECF6" points="25,117.3 28.1,127.1 32.1,121.1 34.8,127.9 42.5,120.6 			"/>
			<polygon fill="#F3F5FA" points="42.5,120.6 40.7,123.8 41.4,130.1 28.9,134.1 32.1,121.1 34.8,127.9 			"/>
			<polygon fill="#D5DCEF" points="28.9,134.1 35.7,135.3 41.4,130.1 			"/>
			<polygon fill="#A7B8DE" points="35.7,135.3 41.1,135.3 45.4,128.8 41.4,130.1 			"/>
			<polygon fill="#FFFFFF" points="45.4,128.8 40.7,123.8 41.4,130.1 			"/>
			<polygon fill="#95A8D6" points="4.1,137.4 4.1,140.4 7.6,140.4 11.2,143.3 15.2,143.3 21.1,144 27.4,144 31.2,142.8 40.1,142.8 
				46.5,143.5 50.6,144.3 69.4,144.3 73,143.3 76.7,142 84,139.8 85.7,141.4 98,140.4 107.9,140.9 118.8,140.9 124.2,140.9 
				128.6,138.8 134.6,139 136.5,140.6 140.5,140.4 140.5,139.3 137.9,139.4 139.5,137.4 135.8,137.4 114.7,137.8 108.9,136.8 
				91.8,136.1 85.3,134.1 73.5,134.1 61.4,134.8 54.3,135.3 41.1,135.3 35.7,135.3 28.9,134.1 20.3,136.1 23,138.1 15.6,137.4 			
				"/>
			<polygon fill="#AAC5E6" points="45.4,128.8 45.4,125.6 49.1,130.1 55.7,134.1 63.3,134.6 64.9,134.6 55.8,135.1 54.5,135.3 
				41.1,135.3 			"/>
			<polygon fill="#E5EBF3" points="32.4,104.1 40.7,107.6 41.4,106.6 44.7,106.9 51.9,103.1 53.6,104.3 59.7,98.3 59.7,106.9 
				50.5,114.4 47.3,107.9 44.2,114.4 40.9,109.9 			"/>
			<polygon fill="#CCD4E5" points="42.5,120.6 44.9,117.6 44.2,114.4 40.9,109.9 39.9,117.6 			"/>
			<polygon fill="#C9D7EA" points="44.2,114.4 47.3,107.9 50.5,114.4 46.6,119.8 44.9,117.6 			"/>
			<polygon fill="#A9AFCC" points="46.6,119.8 45.4,125.6 42.5,120.6 44.9,117.6 			"/>
			<polygon fill="#BDCFEA" points="42.5,120.6 40.7,123.8 45.4,128.8 45.4,125.6 			"/>
			<polygon fill="#B8CCEA" points="46.6,119.8 50.5,114.4 55.7,134.1 49.1,130.1 45.4,125.6 			"/>
			<polygon fill="#E2ECF6" points="55.7,134.1 69.9,120.6 50.5,114.4 			"/>
			<polygon fill="#E9EBF5" points="69.9,120.6 71.5,127.6 63,134.6 55.7,134.1 			"/>
			<polygon fill="#B8C1DC" points="71.5,127.6 73.2,126.9 73.2,130.1 69.6,134.6 64.3,134.8 63,134.6 			"/>
			<polygon fill="#FFFFFF" points="73.2,126.9 82.6,123.3 78.2,126.3 69.6,134.6 73.2,130.1 			"/>
			<polygon fill="#D3E0F1" points="78.2,126.3 81,134.1 69.6,134.6 			"/>
			<polygon fill="#FFFFFB" points="82.6,123.3 91.6,129.8 91.8,136.1 85.3,134.1 81,134.1 78.2,126.3 			"/>
			<polygon fill="#FFFFFF" points="91.6,129.8 100.6,136.4 91.8,136.1 			"/>
			<polygon fill="#FAF8FA" points="59.7,98.3 77.2,101.3 80,110.3 75.3,112.3 73.5,120.6 72.2,113.1 59.7,106.9 			"/>
			<polygon fill="#FFFFFB" points="50.5,114.4 59.7,106.9 72.2,113.1 73.5,120.6 69.9,120.6 			"/>
			<polygon fill="#FFFFFF" points="80,110.3 79.6,116.1 85.7,110.3 			"/>
			<polygon fill="#FFFFFF" points="79.6,116.1 83.8,121.3 78.9,119.8 			"/>
			<polygon fill="#FCF9F3" points="78.9,119.8 78.2,121.8 78.1,125.1 71.5,127.6 69.9,120.6 73.5,120.6 75.3,112.3 80,110.3 
				79.6,116.1 			"/>
			<path fill="#ECF1F8" d="M85.7,110.3c0,0,0.9,12,0.7,12s-2.6-0.9-2.6-0.9l-4.3-5.2L85.7,110.3z"/>
			<polygon fill="#DBDBE6" points="78.9,119.8 78.2,121.8 78.1,125.1 82.6,123.3 86.6,122.3 			"/>
			<polygon fill="#EBF0F3" points="92.5,127.8 99.7,123.9 97,110.8 94,110.3 87.9,107.4 87.3,119.3 			"/>
			<polygon fill="#FFFFFB" points="99.7,123.9 101.3,123.9 101.8,122.3 109.5,116.6 100.6,104.1 87.9,107.4 94,110.3 97,110.8 			
				"/>
			<polygon fill="#C6CBE1" points="87.9,107.4 86.7,111.3 85.7,110.3 86.6,122.3 82.6,123.3 100.6,136.4 92.5,127.8 87.3,119.3 			
				"/>
			<polygon fill="#A6AECD" points="93.8,127.1 96.8,132.4 104.6,127.8 103,121.6 101.8,122.3 101.3,123.9 99.7,123.9 			"/>
			<polygon fill="#A5B2D2" points="93.8,127.1 96.8,132.4 92.5,127.8 			"/>
			<polygon fill="#C6D3EC" points="96.8,132.4 104.6,127.8 106.2,127.6 106.5,125.6 111.2,122.1 110.2,125.6 113.3,126.1 
				113.5,122.9 115.5,122.9 119.5,131.9 128,132.8 122.1,137.6 114.7,137.8 108.9,136.8 100.6,136.4 			"/>
			<polygon fill="#F7F9FC" points="111.2,122.1 109.5,116.6 103.7,108.6 105.5,108.6 111.4,116.6 113.8,115.8 119.2,119.8 
				113.5,122.9 113.3,126.1 110.2,125.6 			"/>
			<polygon fill="#C9D6E8" points="103,121.6 109.5,116.6 111.2,122.1 106.5,125.6 106.2,127.6 104.6,127.8 			"/>
			<polygon fill="#FFFFFF" points="107.9,111.9 113.8,115.8 111.4,116.6 			"/>
			<polygon fill="#C6D3EC" points="119.5,131.9 123.7,128.9 118.1,128.6 			"/>
			<polygon fill="#F4FAFA" points="128,132.8 131.5,130.3 127.3,122.6 119.2,119.8 113.5,122.9 115.5,122.9 118.1,128.6 
				123.7,128.9 119.5,131.9 			"/>
			<polygon fill="#FFFFFF" points="113.8,115.8 117.1,114.4 123.7,119.1 127.3,122.6 119.2,119.8 			"/>
			<polygon fill="#FFFFFC" points="131.5,130.3 139.5,137.4 133.4,137.4 			"/>
			<polygon fill="#EBF4FB" points="131.5,130.3 122.1,137.6 133.4,137.4 			"/>
			<polygon fill="#F4F8F9" points="129.9,127.6 132.4,126.1 140.2,129.3 139.5,137.4 131.5,130.3 			"/>
			<polygon fill="#DFEFFA" points="140.5,139.3 139.5,137.4 137.9,139.4 			"/>
			<polygon fill="#E0F2F8" points="123.7,119.1 125.4,119.1 127.3,120.8 133.4,119.1 134.8,120.4 138.3,120.8 140.2,129.3 
				132.4,126.1 129.9,127.6 			"/>
		</g>
	</g>
	<g>
		<g>
			<polygon fill="#BDE6FA" points="166.8,140.5 166.8,136.1 169.1,136 172.4,138.9 169.8,141.5 			"/>
			<polygon fill="#ABD8F2" points="169.8,141.5 169.8,143.1 171.7,143.3 172.4,138.9 			"/>
			<polygon fill="#B4E2F8" points="169.8,143.1 166.8,140.5 169.8,141.5 			"/>
			<polygon fill="#AFD1EE" points="171.7,143.3 173.3,144.1 172.4,138.9 			"/>
			<polygon fill="#B8D6F0" points="173.3,144.1 175.9,144 175.3,139.8 172.4,136.8 172.4,138.9 			"/>
			<polygon fill="#E2F2F6" points="172.4,136.8 169.1,136 172.4,138.9 			"/>
			<polygon fill="#EEF7F9" points="169.1,136 169.6,134.9 173.3,136.1 172.4,136.8 			"/>
			<polygon fill="#E7F5FA" points="173.3,136.1 175.3,139.8 172.4,136.8 			"/>
			<polygon fill="#E7F5FA" points="173.3,136.1 177.4,137.2 175.3,139.8 			"/>
			<polygon fill="#AADFF2" points="177.4,137.2 179.3,140.8 175.9,144 175.3,139.8 			"/>
			<polygon fill="#ADCBE4" points="175.9,144 178.6,144 179.3,140.8 			"/>
			<polygon fill="#ACE0F4" points="177.4,137.2 180.2,138.1 180.7,140.8 180.7,144.7 178.6,144 179.3,140.8 			"/>
			<polygon fill="#A4C5E7" points="173.3,144.1 171.7,143.3 169.8,143.1 167.7,144.8 166.8,145.5 169.8,148.1 174.1,147.6 
				177.6,147.8 182.3,147.6 185.2,148 189,147.6 192.5,148.1 195.5,147.6 201,148.1 205.5,148.1 210.6,148.6 214.6,148.1 218.2,149 
				223.4,148.6 238.5,148 246.7,148.5 256.4,149 258.8,147.4 261.9,145.2 247.7,143.3 242.8,145.9 239.5,145.9 235.4,145.2 
				235.4,143.1 233.1,142.2 226.9,144.7 220.6,144.1 211.4,144.7 208,145.2 197,144.7 187.7,145.2 180.7,144.7 178.6,144 175.9,144 
							"/>
			<polygon fill="#9CB7DF" points="180.7,140.8 186.6,140.5 190.3,142 			"/>
			<polygon fill="#E9F4F8" points="180.7,144.7 190.3,142 180.7,140.8 			"/>
			<polygon fill="#EBF2FA" points="190.3,142 187.7,145.2 180.7,144.7 			"/>
			<polygon fill="#9CB7DF" points="190.3,142 190.1,145 187.7,145.2 			"/>
			<polygon fill="#9CB7DF" points="190.3,142 189.7,140.8 186.6,140.5 			"/>
			<polygon fill="#BFDEF4" points="189.7,140.8 190.6,136 187.5,133 			"/>
			<polygon fill="#C3E8F9" points="187.5,133 182.3,133.7 180.2,138.1 180.7,140.8 186.6,140.5 189.7,140.8 			"/>
			<polygon fill="#9CB7DF" points="190.6,136 193.9,137.4 194.1,142.6 190.1,145 190.3,142 189.7,140.8 			"/>
			<polygon fill="#AED4F0" points="190.6,136 193.9,136.3 197.4,137.4 201.2,138.9 198.6,140 196.7,143.6 197,144.7 190.1,145 
				194.1,142.6 193.9,137.4 			"/>
			<polygon fill="#E5F4F9" points="190.6,136 192.2,130.1 197.6,127 200.7,127.1 203.8,130.4 203.8,132.3 202.9,133.4 203.1,138.1 
				207.1,140.5 208.1,142 208,145.2 197,144.7 196.7,143.6 198.6,140 201.2,138.9 193.9,136.3 			"/>
			<polygon fill="#EEF3FA" points="203.8,130.4 204.7,128 206.6,128 212.3,130.1 			"/>
			<polygon fill="#C3E1F4" points="212.3,130.1 211.6,134.1 208.1,134.6 208.1,130.1 			"/>
			<polygon fill="#DCE2F0" points="208.1,134.6 202.9,133.4 203.8,132.3 			"/>
			<polygon fill="#E3F4FC" points="208.1,134.6 203.8,130.4 208.1,130.1 			"/>
			<polygon fill="#D0E0F3" points="208.1,134.6 203.8,132.3 203.8,130.4 			"/>
			<polygon fill="#BADEF5" points="208.1,134.6 208.1,142 207.1,140.5 			"/>
			<polygon fill="#C6DEF3" points="208.1,134.6 203.1,138.1 202.9,133.4 			"/>
			<polygon fill="#BED7E9" points="208.1,134.6 207.1,140.5 203.1,138.1 			"/>
			<polygon fill="#B3D5EA" points="208.1,134.6 212,140.8 211.6,134.1 			"/>
			<polygon fill="#B3D2EE" points="212,140.8 208,145.2 208.1,134.6 			"/>
			<polygon fill="#A5C7DF" points="212,140.8 211.4,144.7 208,145.2 			"/>
			<polygon fill="#B4D8F2" points="211.4,144.1 220.6,144.1 211.4,144.7 			"/>
			<polygon fill="#FFFFFF" points="220.6,144.1 228.1,144.1 226.9,144.7 			"/>
			<polygon fill="#D0E9F2" points="212.3,130.1 213.3,127 219.1,129.9 221.3,131.5 220.6,144.1 211.6,134.1 			"/>
			<polygon fill="#C0E2F7" points="220.6,144.1 211.8,136.7 211.6,134.1 			"/>
			<polygon fill="#BFDCF3" points="220.6,144.1 211.4,144.1 212,140.8 211.8,136.7 			"/>
			<polygon fill="#FCF5F4" points="213.3,127 225.7,126.1 221.3,131.5 219.1,129.9 			"/>
			<polygon fill="#F6F7F9" points="225.7,126.1 226.5,129.6 225.7,131.8 221.3,131.5 			"/>
			<polygon fill="#F7F9FC" points="225.7,131.8 228.1,138.1 225.8,140.5 225.7,142.7 228.1,144.1 220.6,144.1 221.3,131.5 			"/>
			<polygon fill="#EAF5F6" points="225.7,126.1 228.8,128.7 235.6,126.1 232.8,130.1 226.5,129.6 			"/>
			<polygon fill="#F4F3F9" points="235.6,126.1 239.5,131.8 243,132.2 246.3,134.1 247.7,143.3 239.9,141.9 238.5,137.2 235.9,140 
				233.1,135.1 232.8,130.1 			"/>
			<polygon fill="#D8EAF8" points="226.5,129.6 225.7,131.8 232.8,130.1 			"/>
			<polygon fill="#D5E6F3" points="228.1,138.1 232.8,130.1 225.7,131.8 			"/>
			<polygon fill="#CEE9F9" points="228.1,138.1 233.1,135.1 232.8,130.1 			"/>
			<polygon fill="#D3DBEB" points="228.1,138.1 228.1,144.1 225.7,142.7 			"/>
			<polygon fill="#C7D5EC" points="228.1,138.1 225.8,140.5 225.7,142.7 			"/>
			<polygon fill="#C2DEF4" points="228.1,138.1 235.9,140 233.1,135.1 			"/>
			<polygon fill="#BBD6F0" points="235.9,140 233.1,142.2 228.1,138.1 			"/>
			<polygon fill="#D2DFF2" points="233.1,142.2 228.1,144.1 228.1,138.1 			"/>
			<polygon fill="#C7E1F5" points="233.1,142.2 239.9,141.9 238.5,137.2 			"/>
			<polygon fill="#E4EAF6" points="233.1,142.2 239.9,141.9 235.4,143.1 			"/>
			<polygon fill="#D7E9F7" points="239.9,141.9 242.8,145.9 239.5,145.9 			"/>
			<polygon fill="#DEE5F4" points="239.9,141.9 235.4,145.2 235.4,143.1 			"/>
			<path fill="#C6E0F5" d="M239.9,141.9c0,0.3-0.3,4-0.3,4l-4.2-0.7L239.9,141.9z"/>
			<polygon fill="#EEF5FB" points="239.9,141.9 242.8,145.9 247.7,143.3 			"/>
			<polygon fill="#F8F6FA" points="246.3,134.1 253.4,134.4 254.8,136.8 253.9,141.7 250.3,136.3 			"/>
			<polygon fill="#F0F8F4" points="247.7,143.3 253.9,141.7 250.3,136.3 246.3,134.1 			"/>
			<polygon fill="#BEDAEC" points="247.7,143.3 261.9,145.2 262.5,140.8 259.5,136.8 254.8,136.8 253.9,141.7 			"/>
			<polygon fill="#F7FBFF" points="259.5,136.8 261.2,135.6 266.8,139.6 262.5,140.8 			"/>
			<polygon fill="#DFEBF7" points="266.8,139.6 268,144.5 261.9,145.2 262.5,140.8 			"/>
			<polygon fill="#D4EEF6" points="268,144.5 274.8,141.9 266.8,139.6 			"/>
			<polygon fill="#EBF7FD" points="268,144.5 271.5,147.1 278.4,146.7 274.8,141.9 			"/>
			<polygon fill="#A4C5E7" points="256.4,149 271.5,147.1 261.9,145.2 			"/>
			<polygon fill="#A4C5E7" points="271.5,147.1 268,144.5 261.9,145.2 			"/>
			<polygon fill="#A4C5E7" points="166.8,140.5 166.8,145.5 167.7,144.8 169.8,143.1 			"/>
		</g>
	</g>
	<g>
		<g>
			<polygon fill="#BDE0F5" points="107.5,97.1 107.5,92.8 109.6,89.3 122.6,96.3 			"/>
			<polygon fill="#C7E2F5" points="122.6,96.3 118.8,83.6 109.6,89.3 			"/>
			<polygon fill="#D4EEF8" points="109.6,89.3 113.7,82.9 115.5,77.8 118.8,83.6 			"/>
			<polygon fill="#E6F4F5" points="115.5,77.8 128.3,77.8 129.7,80.8 122.6,96.3 118.8,83.6 			"/>
			<polygon fill="#F3F7FA" points="129.7,80.8 131.6,80.8 136.5,80.3 141.1,83.6 137.5,91.3 			"/>
			<polygon fill="#F5F9F5" points="129.7,80.8 135.4,92.3 135.4,97.1 130.4,97.1 			"/>
			<polygon fill="#F4F8FB" points="130.4,97.1 130.2,92.6 124.5,92.6 122.6,96.3 129.7,80.8 			"/>
			<polygon fill="#FAFDFF" points="135.4,92.3 137.5,91.3 129.7,80.8 			"/>
			<polygon fill="#C4DCE8" points="137.5,91.3 139.6,97.1 135.4,97.1 135.4,92.3 			"/>
			<polygon fill="#D5ECF8" points="139.6,97.1 144.1,97.1 155.2,97.3 144.6,90.8 137.5,91.3 			"/>
			<polygon fill="#F9FCF8" points="141.1,83.6 144.6,90.8 137.5,91.3 			"/>
			<polygon fill="#F3FAFD" points="141.1,83.6 146.3,85.8 155.2,97.3 144.6,90.8 			"/>
			<polygon fill="#F5FAF8" points="146.3,85.8 158,86.6 161.1,86.6 162,93.3 155.2,97.3 			"/>
			<polygon fill="#9FC6E9" points="107.5,97.1 112,101.1 116.1,101.9 118.4,103.9 126.6,104.6 141.1,105.1 147.4,104.8 150.2,103.3 
				158.7,104.1 160.6,106.3 166.5,106.3 171.7,106.3 181.6,106.3 186.4,106.3 191.1,106.9 194.4,106.1 204.7,105.8 214.2,106.9 
				219.6,105.8 223.6,104.1 230.2,103.8 234.8,101.9 225,101.3 217.3,101.9 207.6,102.8 203.3,103.1 198.2,101.9 197.9,100.6 
				195.5,101.9 191.8,102.3 189.4,101.8 186.4,101.8 181.9,101.9 172.2,101.3 164.2,101.3 158.3,101.3 134.2,99.9 123.6,99.4 
				114.9,99.6 			"/>
			<polygon fill="#B9DAF2" points="114.9,99.6 122.6,96.3 107.5,97.1 			"/>
			<polygon fill="#E2F3FB" points="122.6,96.3 130.2,92.6 124.5,92.6 			"/>
			<polygon fill="#E1F1FA" points="122.6,96.3 130.4,97.1 130.2,92.6 			"/>
			<polygon fill="#B2D7F2" points="130.4,97.1 114.9,99.6 122.6,96.3 			"/>
			<polygon fill="#B4D9F3" points="114.9,99.6 123.6,99.4 130.4,97.1 			"/>
			<polygon fill="#DEE8F6" points="123.6,99.4 155.2,97.3 144.6,97.1 139.6,97.1 135.4,97.1 130.4,97.1 			"/>
			<polygon fill="#BDD3ED" points="123.6,99.4 155,101.3 155.2,97.3 			"/>
			<polygon fill="#BDDAEF" points="157.8,95.6 159,96.1 159.2,98.4 155,101.3 155.2,97.3 			"/>
			<polygon fill="#BAD7F0" points="159.2,98.4 160.4,99.3 160.4,100.6 160.1,101.3 155,101.3 			"/>
			<polygon fill="#C3E2F7" points="162,93.3 162,92.6 169.6,92.6 169.9,95.6 171,97.6 171,101.3 160.1,101.3 160.4,100.6 
				160.4,99.3 159.2,98.4 159,96.1 157.8,95.6 			"/>
			<polygon fill="#F5FAF8" points="146.3,85.8 160.2,84.1 161.1,86.6 158,86.6 			"/>
			<polygon fill="#DCF0F4" points="160.2,84.1 172.2,83.6 168.6,87.1 166.6,87.1 166.3,90.1 169.4,92.6 162,92.6 161.1,86.6 			"/>
			<polygon fill="#F2F9FC" points="171,97.6 172.5,96.1 173.6,92.8 171,92.8 171,86.9 168.6,87.1 166.6,87.1 166.3,90.1 169.4,92.6 
				169.9,95.6 			"/>
			<polygon fill="#F2F9F8" points="189.4,101.8 187.8,97.9 188.5,94.8 182.6,97.1 178.8,92.6 176.5,94.4 177.8,97.1 179.8,98.3 
				171,97.6 171,101.3 181.9,101.9 			"/>
			<polygon fill="#CBE9EE" points="177.8,97.1 173.6,92.8 172.5,96.1 			"/>
			<polygon fill="#D1EDFB" points="179.8,98.3 171,97.6 172.5,96.1 177.8,97.1 			"/>
			<polygon fill="#F2F9FC" points="173.6,92.8 171,86.9 171,92.8 			"/>
			<polygon fill="#D1EDFB" points="171,86.9 178.8,92.6 176.5,94.4 177.8,97.1 173.6,92.8 			"/>
			<polygon fill="#E8F4EF" points="172.2,83.6 177.9,83.6 180.7,80.3 189,80.9 193.4,85.8 189.6,92.6 178.8,92.6 171,86.9 
				168.6,87.1 			"/>
			<polygon fill="#F3FAFC" points="189.6,92.6 189.4,93.8 197.9,100.6 198.2,101.9 203.3,103.1 207.6,102.8 207.6,97.8 210.4,97.3 
				212.1,93.1 213.2,91.4 211.6,85.3 208.6,83.6 202,82.8 197,84.1 193.4,85.8 			"/>
			<polygon fill="#CCE2EF" points="188.5,94.8 189.4,93.8 189.6,92.6 182.6,97.1 			"/>
			<polygon fill="#D2EDF5" points="189.6,92.6 178.8,92.6 182.6,97.1 			"/>
			<polygon fill="#C7E2F5" points="189.4,93.8 188.5,94.8 187.6,98.3 189.4,101.8 191.8,102.3 195.5,101.9 197.9,100.6 			"/>
			<polygon fill="#A4CEED" points="213.2,91.4 218.4,94.8 225,101.3 217.3,101.9 207.6,102.8 207.6,97.8 210.4,97.3 212.1,93.1 			
				"/>
			<polygon fill="#D9F0F7" points="211.6,85.3 215.9,84.8 218.4,83.8 222.9,86.4 226.7,89.3 230.3,93.3 230.5,94.4 234.8,95.4 
				236.4,98.3 234.8,101.9 225,101.3 218.4,94.8 213.2,91.4 			"/>
		</g>
	</g>
	<g>
		<g>
			<polygon fill="#BDE0F5" points="271,127.9 271,123.6 273.3,120.1 286.3,127.3 			"/>
			<polygon fill="#C7E2F5" points="286.3,127.3 282.5,114.4 273.3,120.1 			"/>
			<polygon fill="#D4EEF8" points="273.3,120.1 277.3,113.8 279.2,108.6 282.5,114.4 			"/>
			<polygon fill="#E6F4F5" points="279.2,108.6 292,108.6 293.2,111.6 286.3,127.3 282.5,114.4 			"/>
			<polygon fill="#F3F7FA" points="293.2,111.6 295.3,111.6 300.2,111.1 304.9,114.4 301.2,122.3 			"/>
			<polygon fill="#F5F9F5" points="293.2,111.6 299,123.3 299,127.9 294.1,127.9 			"/>
			<polygon fill="#F4F8FB" points="294.1,127.9 293.9,123.4 288,123.4 286.3,127.3 293.2,111.6 			"/>
			<polygon fill="#FAFDFF" points="299,123.3 301.2,122.3 293.2,111.6 			"/>
			<polygon fill="#C4DCE8" points="301.2,122.3 303.3,127.9 299,127.9 299,123.3 			"/>
			<polygon fill="#D5ECF8" points="303.3,127.9 307.6,127.9 318.9,128.3 308.3,121.8 301.2,122.3 			"/>
			<polygon fill="#F9FCF8" points="304.9,114.4 308.3,121.8 301.2,122.3 			"/>
			<polygon fill="#F3FAFD" points="304.9,114.4 310.1,116.6 318.9,128.3 308.3,121.8 			"/>
			<polygon fill="#F5FAF8" points="310.1,116.6 321.7,117.6 324.8,117.6 325.7,124.1 318.9,128.3 			"/>
			<polygon fill="#9FC6E9" points="271,127.9 275.5,131.9 279.9,132.8 282,134.8 290.3,135.6 304.9,136.3 311.1,135.9 313.9,134.1 
				322.4,135.1 324.3,137.1 330,137.1 335.4,137.1 345.3,137.1 350,137.1 354.8,137.8 358,136.9 368.4,136.8 377.8,137.8 
				383.3,136.8 387.3,135.1 393.9,134.8 398.4,132.8 388.7,132.4 381.1,132.8 371.2,133.6 367,134.1 361.8,132.8 361.4,131.4 
				359.2,132.8 355.4,133.1 352.9,132.6 350,132.8 345.5,132.8 335.8,132.3 327.9,132.3 322,132.4 297.8,130.9 287.2,130.3 
				278.7,130.6 			"/>
			<polygon fill="#B9DAF2" points="278.7,130.6 286.3,127.3 271,127.9 			"/>
			<polygon fill="#E2F3FB" points="286.3,127.3 293.9,123.4 288,123.4 			"/>
			<polygon fill="#E1F1FA" points="286.3,127.3 294.1,127.9 293.9,123.4 			"/>
			<polygon fill="#B2D7F2" points="294.1,127.9 278.7,130.6 286.3,127.3 			"/>
			<polygon fill="#B4D9F3" points="278.7,130.6 287.2,130.3 294.1,127.9 			"/>
			<polygon fill="#DEE8F6" points="287.2,130.3 318.9,128.3 308.3,127.9 303.3,127.9 299,127.9 294.1,127.9 			"/>
			<polygon fill="#BDD3ED" points="287.2,130.3 318.6,132.3 318.9,128.3 			"/>
			<polygon fill="#BDDAEF" points="321.5,126.6 322.6,127.1 322.9,129.6 318.6,132.3 318.9,128.3 			"/>
			<polygon fill="#BAD7F0" points="322.9,129.6 324.1,130.3 324.1,131.6 323.6,132.4 318.6,132.3 			"/>
			<polygon fill="#C3E2F7" points="325.7,124.1 325.5,123.4 333.3,123.4 333.7,126.6 334.7,128.4 334.7,132.3 323.6,132.4 
				324.1,131.6 324.1,130.3 322.9,129.6 322.6,127.1 321.5,126.6 			"/>
			<polygon fill="#F5FAF8" points="310.1,116.6 323.8,114.9 324.8,117.6 321.7,117.6 			"/>
			<polygon fill="#DCF0F4" points="323.8,114.9 335.9,114.4 332.3,118.1 330.4,118.1 329.9,121.1 333.2,123.4 325.5,123.4 
				324.8,117.6 			"/>
			<polygon fill="#F2F9FC" points="334.7,128.4 336.3,127.1 337.3,123.6 334.7,123.6 334.7,117.8 332.3,118.1 330.4,118.1 
				329.9,121.1 333.2,123.4 333.7,126.6 			"/>
			<polygon fill="#F2F9F8" points="352.9,132.6 351.4,128.9 352.2,125.6 346.2,127.9 342.4,123.4 340.1,125.3 341.3,127.9 
				343.4,129.3 334.7,128.4 334.7,132.3 345.5,132.8 			"/>
			<polygon fill="#CBE9EE" points="341.3,127.9 337.3,123.6 336.3,127.1 			"/>
			<polygon fill="#D1EDFB" points="343.4,129.3 334.7,128.4 336.3,127.1 341.3,127.9 			"/>
			<polygon fill="#F2F9FC" points="337.3,123.6 334.7,117.8 334.7,123.6 			"/>
			<polygon fill="#D1EDFB" points="334.7,117.8 342.4,123.4 340.1,125.3 341.3,127.9 337.3,123.6 			"/>
			<polygon fill="#E8F4EF" points="335.9,114.4 341.7,114.4 344.4,111.4 352.8,111.8 357.1,116.6 353.1,123.4 342.4,123.4 
				334.7,117.8 332.3,118.1 			"/>
			<polygon fill="#F3FAFC" points="353.1,123.4 352.9,124.6 361.4,131.4 361.8,132.8 367,134.1 371.2,133.6 371.2,128.8 
				373.9,128.1 375.7,123.9 376.9,122.3 375.3,116.1 372.4,114.4 365.8,113.8 360.6,114.9 357.1,116.6 			"/>
			<polygon fill="#CCE2EF" points="352.2,125.6 352.9,124.6 353.1,123.4 346.2,127.9 			"/>
			<polygon fill="#D2EDF5" points="353.1,123.4 342.4,123.4 346.2,127.9 			"/>
			<polygon fill="#C7E2F5" points="352.9,124.6 352.2,125.6 351.4,129.3 352.9,132.6 355.4,133.1 359.2,132.8 361.4,131.4 			"/>
			<polygon fill="#A4CEED" points="376.9,122.3 382.1,125.6 388.7,132.4 381.1,132.8 371.2,133.6 371.2,128.8 373.9,128.1 
				375.7,123.9 			"/>
			<polygon fill="#D9F0F7" points="375.3,116.1 379.5,115.8 381.9,114.8 386.6,117.3 390.4,120.1 393.9,124.1 394.2,125.3 
				398.4,126.3 400,129.1 398.4,132.8 388.7,132.4 382.1,125.6 376.9,122.3 			"/>
		</g>
	</g>
</g>
</svg>
