<?xml version="1.0" encoding="utf-8"?>
<!-- Generator: Adobe Illustrator 18.0.0, SVG Export Plug-In . SVG Version: 6.00 Build 0)  -->
<!DOCTYPE svg PUBLIC "-//W3C//DTD SVG 1.1//EN" "http://www.w3.org/Graphics/SVG/1.1/DTD/svg11.dtd">
<svg version="1.1" id="Layer_1" xmlns="http://www.w3.org/2000/svg" xmlns:xlink="http://www.w3.org/1999/xlink" x="0px" y="0px"
	 viewBox="0 74.3 400 75.5" enable-background="new 0 74.3 400 75.5" xml:space="preserve">
<g>
	<polygon fill="#8E5948" points="63,136.6 62.8,136.4 69.6,123.2 69.9,123.3 69.9,136.4 69.7,136.6 	"/>
	<polygon fill="#8E5948" points="69.7,123.3 69.7,136.4 63,136.4 	"/>
	<polygon fill="#9A674E" points="69.7,136.6 69.5,136.4 69.5,123.3 69.9,123.2 75.5,136.4 75.4,136.6 	"/>
	<polygon fill="#9A674E" points="69.7,123.3 75.4,136.4 69.7,136.4 	"/>
	<polygon fill="#D2A688" points="75.2,136.5 69.6,123.3 69.9,123.1 81.9,131.6 81.9,131.9 75.5,136.6 	"/>
	<polygon fill="#D2A688" points="69.7,123.3 81.8,131.7 75.4,136.4 	"/>
	<polygon fill="#5E5F60" points="75.4,136.6 75.2,136.3 81.7,131.6 81.9,131.6 88.3,136.3 88.2,136.6 	"/>
	<polygon fill="#5E5F60" points="81.8,131.7 88.2,136.4 75.4,136.4 	"/>
	<polygon fill="#7F7C77" points="81.7,131.9 81.6,131.7 84.7,124.9 85,124.9 88.4,136.4 88.1,136.6 	"/>
	<polygon fill="#7F7C77" points="81.8,131.7 84.8,124.9 88.2,136.4 	"/>
	<polygon fill="#9A674E" points="69.6,123.4 69.8,123.1 84.9,124.7 85,125 82,131.8 81.7,131.9 	"/>
	<polygon fill="#9A674E" points="84.8,124.9 69.7,123.3 81.8,131.7 	"/>
	<polygon fill="#9F704C" points="69.7,123.5 69.6,123.1 80.9,116.2 81.2,116.3 85,124.9 84.8,125.1 	"/>
	<polygon fill="#9F704C" points="69.7,123.3 81,116.4 84.8,124.9 	"/>
	<polygon fill="#808077" points="88,136.5 84.7,125 85,124.8 94,130.5 94,130.8 88.4,136.6 	"/>
	<polygon fill="#808077" points="84.8,124.9 93.9,130.7 88.2,136.4 	"/>
	<polygon fill="#7D7B7A" points="88.2,136.6 88.1,136.3 93.7,130.6 94,130.5 101.3,136.3 101.2,136.6 	"/>
	<polygon fill="#7D7B7A" points="93.9,130.7 101.2,136.4 88.2,136.4 	"/>
	<polygon fill="#545D63" points="93.7,130.9 93.7,130.5 101.1,125.8 101.4,125.9 101.4,136.4 101,136.6 	"/>
	<polygon fill="#545D63" points="93.9,130.7 101.2,125.9 101.2,136.4 	"/>
	<polygon fill="#63686B" points="84.7,125.1 84.9,124.7 101.2,125.7 101.3,126.1 94,130.9 93.7,130.9 	"/>
	<polygon fill="#63686B" points="101.2,125.9 84.8,124.9 93.9,130.7 	"/>
	<polygon fill="#70839D" points="84.8,125.1 84.7,124.8 93.4,116.3 93.7,116.3 101.3,125.8 101.2,126.1 	"/>
	<polygon fill="#70839D" points="101.2,125.9 93.5,116.4 84.8,124.9 	"/>
	<polygon fill="#636465" points="101.2,136.6 101,136.4 101,125.9 101.3,125.8 110,136.3 109.8,136.6 	"/>
	<polygon fill="#636465" points="101.2,125.9 109.8,136.4 101.2,136.4 	"/>
	<polygon fill="#737175" points="101,126.1 101.1,125.8 107.3,121.6 107.7,121.7 110,136.4 109.7,136.6 	"/>
	<polygon fill="#737175" points="101.2,125.9 107.5,121.7 109.8,136.4 	"/>
	<polygon fill="#747577" points="109.8,136.6 109.6,136.5 107.3,121.7 107.6,121.6 119.2,136.3 119,136.6 	"/>
	<polygon fill="#747577" points="107.5,121.7 119,136.4 109.8,136.4 	"/>
	<polygon fill="#71849F" points="101,126.1 93.4,116.5 93.6,116.2 107.5,121.5 107.6,121.9 101.3,126.1 	"/>
	<polygon fill="#71849F" points="107.5,121.7 93.5,116.4 101.2,125.9 	"/>
	<polygon fill="#6B8096" points="84.7,125 80.8,116.5 81,116.2 93.5,116.2 93.7,116.5 85,125.1 	"/>
	<polygon fill="#6B8096" points="93.5,116.4 81,116.4 84.8,124.9 	"/>
	<polygon fill="#7D879C" points="81,116.6 80.9,116.3 88.5,108.6 88.9,108.6 93.7,116.3 93.5,116.6 	"/>
	<polygon fill="#7D879C" points="81,116.4 88.7,108.7 93.5,116.4 	"/>
	<polygon fill="#7A86A0" points="93.4,116.6 93.3,116.5 88.5,108.8 88.8,108.6 107.6,121.6 107.4,121.9 	"/>
	<polygon fill="#7A86A0" points="88.7,108.7 107.5,121.7 93.5,116.4 	"/>
	<polygon fill="#71849D" points="107.3,121.8 107.5,121.5 120.8,122.6 121,122.9 119.2,136.5 118.9,136.6 	"/>
	<polygon fill="#71849D" points="107.5,121.7 120.8,122.8 119,136.4 	"/>
	<polygon fill="#7489A0" points="119,136.6 118.8,136.4 120.6,122.8 121,122.8 123.9,136.4 123.7,136.6 	"/>
	<polygon fill="#7489A0" points="120.8,122.8 123.7,136.4 119,136.4 	"/>
	<polygon fill="#77889D" points="107.4,121.9 107.3,121.6 114,112.4 114.3,112.5 120.9,122.7 120.8,123 	"/>
	<polygon fill="#77889D" points="120.8,122.8 114.1,112.6 107.5,121.7 	"/>
	<polygon fill="#7E8C9D" points="88.6,108.9 88.7,108.5 114.1,112.4 114.3,112.7 107.6,121.8 107.3,121.9 	"/>
	<polygon fill="#7E8C9D" points="114.1,112.6 88.7,108.7 107.5,121.7 	"/>
	<polygon fill="#79899D" points="123.7,136.6 123.5,136.5 120.6,122.9 120.9,122.7 136.1,136.3 135.9,136.6 	"/>
	<polygon fill="#79899D" points="120.8,122.8 135.9,136.4 123.7,136.4 	"/>
	<polygon fill="#7A899F" points="120.6,123 120.8,122.6 137.6,123.5 137.8,123.8 136.1,136.5 135.8,136.6 	"/>
	<polygon fill="#7A899F" points="120.8,122.8 137.6,123.7 135.9,136.4 	"/>
	<polygon fill="#7489A0" points="120.8,123 120.6,123 113.9,112.7 114.2,112.4 137.7,123.5 137.6,123.9 	"/>
	<polygon fill="#7489A0" points="114.1,112.6 137.6,123.7 120.8,122.8 	"/>
	<polygon fill="#7B8AA0" points="114,112.7 114.1,112.4 127.9,109.3 128.1,109.4 137.8,123.6 137.5,123.9 	"/>
	<polygon fill="#7B8AA0" points="114.1,112.6 127.9,109.5 137.6,123.7 	"/>
	<polygon fill="#A39879" points="135.9,136.6 135.7,136.4 137.4,123.7 137.7,123.6 149.7,136.3 149.5,136.6 	"/>
	<polygon fill="#A39879" points="137.6,123.7 149.5,136.4 135.9,136.4 	"/>
	<polygon fill="#9C897E" points="149.4,136.6 137.5,123.9 137.6,123.5 159.2,127.3 159.3,127.6 149.7,136.6 	"/>
	<polygon fill="#9C897E" points="137.6,123.7 159.1,127.5 149.5,136.4 	"/>
	<polygon fill="#8190A5" points="127.7,109.6 127.9,109.3 141.9,108.5 142.1,108.8 137.8,123.8 137.4,123.8 	"/>
	<polygon fill="#8190A5" points="127.9,109.5 141.9,108.7 137.6,123.7 	"/>
	<polygon fill="#8291A6" points="137.4,123.7 141.7,108.7 142,108.5 156.3,115 156.3,115.4 137.7,123.9 	"/>
	<polygon fill="#8291A6" points="141.9,108.7 156.2,115.2 137.6,123.7 	"/>
	<polygon fill="#8591A1" points="137.6,123.9 137.5,123.5 156.1,115 156.3,115.1 166.9,123.1 166.9,123.4 159.2,127.7 159.1,127.7 	
		"/>
	<polygon fill="#8591A1" points="156.2,115.2 166.8,123.3 159.1,127.5 137.6,123.7 	"/>
	<polygon fill="#6A6C66" points="159.1,127.7 159,127.3 166.7,123.1 166.9,123.1 172.9,127.7 172.8,128 	"/>
	<polygon fill="#6A6C66" points="166.8,123.3 172.8,127.8 159.1,127.5 	"/>
	<polygon fill="#A39C85" points="149.4,136.3 159,127.4 159.1,127.3 172.8,127.6 172.9,128 149.6,136.6 	"/>
	<polygon fill="#A39C85" points="172.8,127.8 149.5,136.4 159.1,127.5 	"/>
	<polygon fill="#A29176" points="149.5,136.6 149.5,136.3 172.8,127.6 173,127.7 182.9,136.3 182.8,136.6 	"/>
	<polygon fill="#A29176" points="172.8,127.8 182.8,136.4 149.5,136.4 	"/>
	<polygon fill="#7B7962" points="172.7,128 172.8,127.6 189.9,128.7 190,129 183,136.6 182.7,136.6 	"/>
	<polygon fill="#7B7962" points="172.8,127.8 189.9,128.9 182.8,136.4 	"/>
	<polygon fill="#9E9076" points="182.8,136.6 182.7,136.3 189.7,128.8 189.9,128.7 204.6,136.3 204.5,136.6 	"/>
	<polygon fill="#9E9076" points="189.9,128.9 204.5,136.4 182.8,136.4 	"/>
	<polygon fill="#7E7F6D" points="172.8,128 172.7,128 166.6,123.4 166.8,123.1 189.9,128.7 189.8,129.1 	"/>
	<polygon fill="#7E7F6D" points="189.9,128.9 166.8,123.3 172.8,127.8 	"/>
	<polygon fill="#746059" points="13.4,150 13.3,149.6 18.8,143.6 19.1,143.5 27,149.6 26.8,150 	"/>
	<polygon fill="#746059" points="19,143.7 13.4,149.8 26.8,149.8 	"/>
	<polygon fill="#91695C" points="18.9,143.8 19,143.5 29,144 29.2,144.3 27,149.8 26.7,149.9 	"/>
	<polygon fill="#91695C" points="29,144.2 26.8,149.8 19,143.7 	"/>
	<polygon fill="#AE7659" points="26.8,150 26.6,149.7 28.8,144.1 29.2,144 35.6,149.6 35.5,150 	"/>
	<polygon fill="#AE7659" points="29,144.2 35.5,149.8 26.8,149.8 	"/>
	<polygon fill="#966D59" points="28.9,144.3 29,144 35.5,144 35.7,144.2 35.7,149.8 35.3,149.9 	"/>
	<polygon fill="#966D59" points="35.5,144.2 35.5,149.8 29,144.2 	"/>
	<polygon fill="#644334" points="13.2,149.7 14.4,136.4 14.7,136.3 19.2,143.6 19.1,143.8 13.6,149.9 	"/>
	<polygon fill="#644334" points="14.6,136.4 13.4,149.8 19,143.7 	"/>
	<polygon fill="#7B5F52" points="7.5,142.9 7.5,142.6 14.4,136.3 14.8,136.5 13.6,149.8 13.3,149.9 	"/>
	<polygon fill="#7B5F52" points="14.6,136.4 7.7,142.8 13.4,149.8 	"/>
	<polygon fill="#A57867" points="0.5,150 0.4,149.6 7.5,142.6 7.8,142.6 13.6,149.6 13.4,150 	"/>
	<polygon fill="#A57867" points="7.7,142.8 0.5,149.8 13.4,149.8 	"/>
	<polygon fill="#AB8A7B" points="35.5,150 35.3,149.8 35.3,144.2 35.6,144 44.6,149.6 44.4,150 	"/>
	<polygon fill="#AB8A7B" points="44.4,149.8 35.5,149.8 35.5,144.2 	"/>
	<polygon fill="#B48463" points="44.4,150 44.3,149.6 50.7,143 51,143 55.9,149.6 55.7,150 	"/>
	<polygon fill="#B48463" points="50.8,143.1 55.7,149.8 44.4,149.8 	"/>
	<polygon fill="#80563C" points="50.6,143.2 50.8,142.9 59.8,144 59.9,144.3 55.9,149.9 55.5,149.9 	"/>
	<polygon fill="#80563C" points="55.7,149.8 59.8,144.2 50.8,143.1 	"/>
	<polygon fill="#935733" points="50.8,143.3 50.7,143 58.3,136.3 58.6,136.4 60,144.1 59.8,144.4 	"/>
	<polygon fill="#935733" points="59.8,144.2 58.4,136.4 50.8,143.1 	"/>
	<polygon fill="#9E6B53" points="55.7,150 55.5,149.6 59.6,144.1 59.9,144 66,149.6 65.8,150 	"/>
	<polygon fill="#9E6B53" points="59.8,144.2 65.8,149.8 55.7,149.8 	"/>
	<polygon fill="#85513E" points="59.6,144.2 58.2,136.5 58.4,136.2 63,136.2 63.2,136.5 60,144.3 	"/>
	<polygon fill="#85513E" points="59.8,144.2 63,136.4 58.4,136.4 	"/>
	<polygon fill="#9E6B53" points="59.6,144.3 59.8,144 66.7,144 66.9,144.2 66,149.8 65.7,149.9 	"/>
	<polygon fill="#9E6B53" points="59.8,144.2 66.7,144.2 65.8,149.8 	"/>
	<polygon fill="#AB7E68" points="65.8,150 65.6,149.7 66.5,144.1 66.8,144 74.5,149.6 74.4,150 	"/>
	<polygon fill="#AB7E68" points="66.7,144.2 74.4,149.8 65.8,149.8 	"/>
	<polygon fill="#A87A62" points="59.8,144.4 59.6,144.1 62.8,136.4 63.2,136.4 66.9,144.1 66.7,144.4 	"/>
	<polygon fill="#A87A62" points="66.7,144.2 63,136.4 59.8,144.2 	"/>
	<polygon fill="#95613A" points="66.5,144.3 62.8,136.5 63,136.2 71.3,136.2 71.4,136.5 66.9,144.3 	"/>
	<polygon fill="#95613A" points="66.7,144.2 71.3,136.4 63,136.4 	"/>
	<polygon fill="#935733" points="66.7,144.4 66.6,144 75.2,136.3 75.6,136.4 76,144.2 75.8,144.4 	"/>
	<polygon fill="#935733" points="75.4,136.4 75.8,144.2 66.7,144.2 	"/>
	<polygon fill="#8B5B39" points="66.5,144.1 71.1,136.3 71.3,136.2 75.4,136.2 75.5,136.6 66.8,144.3 	"/>
	<polygon fill="#8B5B39" points="75.4,136.4 71.3,136.4 66.7,144.2 	"/>
	<polygon fill="#95613A" points="66.6,144.3 66.7,144 75.8,144 76,144.2 74.6,149.8 74.3,149.9 	"/>
	<polygon fill="#95613A" points="75.8,144.2 74.4,149.8 66.7,144.2 	"/>
	<polygon fill="#6C6D6B" points="75.6,144.2 75.2,136.5 75.4,136.2 82.5,136.2 82.7,136.6 75.9,144.3 	"/>
	<polygon fill="#6C6D6B" points="75.8,144.2 82.5,136.4 75.4,136.4 	"/>
	<polygon fill="#494E4E" points="74.4,150 74.2,149.7 75.6,144.1 75.9,144.1 79.7,149.6 79.5,150 	"/>
	<polygon fill="#494E4E" points="75.8,144.2 79.5,149.8 74.4,149.8 	"/>
	<polygon fill="#6D6968" points="75.6,144.3 75.6,144 82.4,136.3 82.7,136.5 79.7,150 79.4,150.1 	"/>
	<polygon fill="#6D6968" points="79.5,150 82.5,136.4 75.8,144.2 	"/>
	<polygon fill="#75726D" points="79.3,150 81.1,141.9 81.4,141.8 85.7,145.4 85.7,145.7 79.6,150.2 	"/>
	<polygon fill="#75726D" points="79.5,150 85.5,145.5 81.3,141.9 	"/>
	<polygon fill="#6E6C67" points="81.2,142.1 81.2,141.8 88.1,136.3 88.4,136.5 85.7,145.6 85.4,145.7 	"/>
	<polygon fill="#6E6C67" points="85.5,145.5 88.2,136.4 81.3,141.9 	"/>
	<polygon fill="#3F4A51" points="81.1,141.9 82.3,136.4 82.5,136.2 88.2,136.2 88.4,136.6 81.4,142.1 	"/>
	<polygon fill="#3F4A51" points="81.3,141.9 88.2,136.4 82.5,136.4 	"/>
	<polygon fill="#746F69" points="79.9,150 79.7,149.6 85.4,145.4 85.7,145.4 90.1,149.6 90,150 	"/>
	<polygon fill="#746F69" points="85.5,145.5 90,149.8 79.9,149.8 	"/>
	<polygon fill="#5D605D" points="85.4,145.5 88,136.4 88.4,136.4 90.5,141.8 90.4,142.1 85.7,145.7 	"/>
	<polygon fill="#5D605D" points="85.5,145.5 90.3,141.9 88.2,136.4 	"/>
	<polygon fill="#6B6A69" points="85.5,145.7 85.4,145.4 90.2,141.8 90.5,141.8 93.5,147.6 93.2,147.8 	"/>
	<polygon fill="#6B6A69" points="90.3,141.9 93.3,147.7 85.5,145.5 	"/>
	<polygon fill="#79766D" points="89.9,149.9 85.4,145.7 85.6,145.4 93.3,147.5 93.4,147.8 90.1,149.9 	"/>
	<polygon fill="#79766D" points="93.3,147.7 90,149.8 85.5,145.5 	"/>
	<polygon fill="#565960" points="90.1,142 88,136.5 88.2,136.2 96.4,136.2 96.5,136.6 90.4,142.1 	"/>
	<polygon fill="#565960" points="90.3,141.9 96.4,136.4 88.2,136.4 	"/>
	<polygon fill="#646366" points="90.1,142 90.2,141.8 96.3,136.3 96.6,136.5 93.5,147.7 93.1,147.7 	"/>
	<polygon fill="#646366" points="96.4,136.4 93.3,147.7 90.3,141.9 	"/>
	<polygon fill="#928C7D" points="90,150 89.9,149.6 93.2,147.5 93.4,147.5 97.6,149.6 97.5,150 	"/>
	<polygon fill="#928C7D" points="93.3,147.7 97.5,149.8 90,149.8 	"/>
	<polygon fill="#7F7C69" points="93.2,147.8 93.1,147.6 95.4,139.1 95.8,139.1 97.7,149.7 97.4,149.9 	"/>
	<polygon fill="#7F7C69" points="97.5,149.8 95.6,139.2 93.3,147.7 	"/>
	<polygon fill="#686A69" points="95.6,139.4 95.4,139.1 96.2,136.4 96.5,136.3 101.3,139.4 101.2,139.8 	"/>
	<polygon fill="#686A69" points="96.4,136.4 101.2,139.6 95.6,139.2 	"/>
	<polygon fill="#626562" points="96.6,146 95.4,139.2 95.7,139 101.2,139.4 101.3,139.7 97,146.1 	"/>
	<polygon fill="#626562" points="101.2,139.6 96.8,146 95.6,139.2 	"/>
	<polygon fill="#817C6E" points="97.3,149.8 96.6,146 96.7,145.8 101,139.5 101.4,139.6 97.7,149.8 	"/>
	<polygon fill="#817C6E" points="101.2,139.6 97.5,149.8 96.8,146 	"/>
	<polygon fill="#3B444D" points="96.3,136.6 96.4,136.2 101.2,136.2 101.4,136.4 101.4,139.6 101.1,139.7 	"/>
	<polygon fill="#3B444D" points="101.2,139.6 101.2,136.4 96.4,136.4 	"/>
	<polygon fill="#7F7B72" points="97.3,149.7 101,139.5 101.4,139.5 103.7,146.9 103.6,147.1 97.6,149.9 	"/>
	<polygon fill="#7F7B72" points="101.2,139.6 103.5,147 97.5,149.8 	"/>
	<polygon fill="#6F716B" points="101,139.6 101,136.4 101.2,136.2 109.8,136.2 109.9,136.6 101.2,139.8 	"/>
	<polygon fill="#6F716B" points="101.2,139.6 109.8,136.4 101.2,136.4 	"/>
	<polygon fill="#988B79" points="97.5,150 97.4,149.6 103.5,146.8 103.6,146.8 108.7,149.6 108.6,150 	"/>
	<polygon fill="#988B79" points="103.5,147 108.6,149.8 97.5,149.8 	"/>
	<polygon fill="#7C7A6B" points="103.5,147.1 103.4,147 101,139.6 101.3,139.5 108.8,149.6 108.5,149.9 	"/>
	<polygon fill="#7C7A6B" points="108.6,149.8 101.2,139.6 103.5,147 	"/>
	<polygon fill="#7B766A" points="101,139.7 101.1,139.4 109.8,136.3 110,136.5 108.8,149.8 108.5,149.9 	"/>
	<polygon fill="#7B766A" points="108.6,149.8 109.8,136.4 101.2,139.6 	"/>
	<polygon fill="#7D7768" points="108.4,149.7 109.6,136.4 110,136.3 117.3,144.3 117.2,144.6 108.7,149.9 	"/>
	<polygon fill="#7D7768" points="108.6,149.8 117.1,144.5 109.8,136.4 	"/>
	<polygon fill="#958C72" points="108.6,150 108.5,149.6 117,144.3 117.3,144.3 121.5,149.6 121.4,150 	"/>
	<polygon fill="#958C72" points="117.1,144.5 121.4,149.8 108.6,149.8 	"/>
	<polygon fill="#AA9B7D" points="109.7,136.6 109.8,136.2 119,136.2 119.2,136.5 117.3,144.5 117,144.6 	"/>
	<polygon fill="#AA9B7D" points="117.1,144.5 119,136.4 109.8,136.4 	"/>
	<polygon fill="#ACA079" points="117,144.6 117.1,144.3 124.6,144.3 124.8,144.6 121.5,149.9 121.2,149.9 	"/>
	<polygon fill="#ACA079" points="117.1,144.5 124.6,144.5 121.4,149.8 	"/>
	<polygon fill="#A09872" points="117.1,144.7 116.9,144.4 118.8,136.4 119.2,136.3 124.8,144.4 124.6,144.7 	"/>
	<polygon fill="#A09872" points="124.6,144.5 119,136.4 117.1,144.5 	"/>
	<polygon fill="#9D9571" points="118.8,136.6 119,136.2 123.7,136.2 123.9,136.4 124.8,144.4 124.5,144.6 	"/>
	<polygon fill="#9D9571" points="124.6,144.5 123.7,136.4 119,136.4 	"/>
	<polygon fill="#A8977B" points="121.4,150 121.2,149.6 124.4,144.4 124.8,144.4 128.5,149.6 128.4,150 	"/>
	<polygon fill="#A8977B" points="124.6,144.5 128.4,149.8 121.4,149.8 	"/>
	<polygon fill="#877C65" points="124.5,144.6 124.6,144.3 132,143.4 132.2,143.7 128.5,149.9 128.2,149.9 	"/>
	<polygon fill="#877C65" points="128.4,149.8 132.1,143.6 124.6,144.5 	"/>
	<polygon fill="#A69F79" points="124.4,144.5 123.5,136.5 123.8,136.3 132.2,143.5 132.1,143.8 124.6,144.7 	"/>
	<polygon fill="#A69F79" points="132.1,143.6 123.7,136.4 124.6,144.5 	"/>
	<polygon fill="#A29279" points="123.6,136.6 123.7,136.2 135.9,136.2 136.1,136.5 132.2,143.7 131.9,143.8 	"/>
	<polygon fill="#A29279" points="132.1,143.6 135.9,136.4 123.7,136.4 	"/>
	<polygon fill="#7D7768" points="128.4,150 128.2,149.7 131.9,143.5 132.2,143.5 137.8,149.6 137.6,150 	"/>
	<polygon fill="#7D7768" points="132.1,143.6 137.6,149.8 128.4,149.8 	"/>
	<polygon fill="#A09372" points="131.9,143.5 135.8,136.4 136.1,136.3 139.8,142.3 139.7,142.6 132.1,143.8 	"/>
	<polygon fill="#A09372" points="135.9,136.4 139.7,142.4 132.1,143.6 	"/>
	<polygon fill="#7B7764" points="131.9,143.8 132,143.4 139.6,142.2 139.8,142.5 137.8,149.8 137.5,149.9 	"/>
	<polygon fill="#7B7764" points="139.7,142.4 137.6,149.8 132.1,143.6 	"/>
	<polygon fill="#A49B7D" points="139.5,142.5 135.8,136.6 135.9,136.2 146.9,136.2 147,136.6 139.8,142.6 	"/>
	<polygon fill="#A49B7D" points="139.7,142.4 146.9,136.4 135.9,136.4 	"/>
	<polygon fill="#918E6E" points="139.6,142.6 139.5,142.3 146.8,136.3 147.1,136.4 148.8,143.6 148.6,143.8 	"/>
	<polygon fill="#918E6E" points="146.9,136.4 148.6,143.6 139.7,142.4 	"/>
	<polygon fill="#6C6C60" points="137.4,149.7 139.5,142.4 139.7,142.2 148.7,143.4 148.7,143.8 137.7,149.9 	"/>
	<polygon fill="#6C6C60" points="148.6,143.6 137.6,149.8 139.7,142.4 	"/>
	<polygon fill="#9E9175" points="148.4,143.7 146.7,136.5 146.9,136.2 155.5,136.2 155.7,136.6 148.8,143.8 	"/>
	<polygon fill="#9E9175" points="148.6,143.6 155.5,136.4 146.9,136.4 	"/>
	<polygon fill="#6D6960" points="137.6,150 137.5,149.6 148.5,143.4 148.8,143.6 149.4,149.7 149.2,150 	"/>
	<polygon fill="#6D6960" points="148.6,143.6 149.2,149.8 137.6,149.8 	"/>
	<polygon fill="#737163" points="149.2,150 149,149.8 148.4,143.6 148.7,143.4 159.6,149.6 159.5,150 	"/>
	<polygon fill="#737163" points="148.6,143.6 159.5,149.8 149.2,149.8 	"/>
	<polygon fill="#747162" points="148.5,143.8 148.5,143.5 155.4,136.3 155.7,136.4 159.7,149.7 159.4,149.9 	"/>
	<polygon fill="#747162" points="159.5,149.8 155.5,136.4 148.6,143.6 	"/>
	<polygon fill="#716F62" points="159.3,149.8 155.4,136.5 155.6,136.3 165,141.4 165.1,141.6 159.7,149.9 	"/>
	<polygon fill="#716F62" points="159.5,149.8 164.9,141.5 155.5,136.4 	"/>
	<polygon fill="#737366" points="159.5,150 159.4,149.6 164.8,141.4 165.1,141.4 171.3,149.6 171.1,150 	"/>
	<polygon fill="#737366" points="164.9,141.5 171.1,149.8 159.5,149.8 	"/>
	<polygon fill="#8E886F" points="155.4,136.6 155.5,136.2 170.3,136.2 170.4,136.6 165.1,141.7 164.8,141.7 	"/>
	<polygon fill="#8E886F" points="164.9,141.5 170.3,136.4 155.5,136.4 	"/>
	<polygon fill="#A29974" points="164.8,141.7 164.8,141.4 170.1,136.3 170.5,136.4 171.3,149.7 171,149.9 	"/>
	<polygon fill="#A29974" points="170.3,136.4 171.1,149.8 164.9,141.5 	"/>
	<polygon fill="#AA9B77" points="170.9,149.8 170.1,136.5 170.4,136.3 179.7,142.9 179.7,143.3 171.3,149.9 	"/>
	<polygon fill="#AA9B77" points="170.3,136.4 179.6,143.1 171.1,149.8 	"/>
	<polygon fill="#A5917A" points="170.2,136.6 170.3,136.2 182.8,136.2 183,136.5 179.8,143.2 179.5,143.3 	"/>
	<polygon fill="#A5917A" points="179.6,143.1 182.8,136.4 170.3,136.4 	"/>
	<polygon fill="#999574" points="171.1,150 171,149.6 179.5,142.9 179.8,143 185.1,149.6 184.9,150 	"/>
	<polygon fill="#999574" points="179.6,143.1 184.9,149.8 171.1,149.8 	"/>
	<polygon fill="#948B6F" points="179.5,143.2 179.6,142.9 188.6,142.9 188.8,143.2 185.1,149.9 184.7,149.9 	"/>
	<polygon fill="#948B6F" points="179.6,143.1 188.6,143.1 184.9,149.8 	"/>
	<polygon fill="#98936D" points="179.6,143.3 179.4,143 182.6,136.4 183,136.3 188.8,143 188.6,143.3 	"/>
	<polygon fill="#98936D" points="182.8,136.4 188.6,143.1 179.6,143.1 	"/>
	<polygon fill="#A89A80" points="182.7,136.6 182.8,136.2 193,136.2 193.2,136.6 188.8,143.2 188.5,143.2 	"/>
	<polygon fill="#A89A80" points="188.6,143.1 193,136.4 182.8,136.4 	"/>
	<polygon fill="#928C6B" points="184.9,150 184.7,149.7 188.4,143 188.8,143 194.1,149.6 194,150 	"/>
	<polygon fill="#928C6B" points="188.6,143.1 194,149.8 184.9,149.8 	"/>
	<polygon fill="#777A60" points="193.8,149.9 188.5,143.2 188.6,142.9 198.8,144.3 198.9,144.6 194.1,149.9 	"/>
	<polygon fill="#777A60" points="188.6,143.1 198.8,144.5 194,149.8 	"/>
	<polygon fill="#A5A17E" points="188.6,143.3 188.4,143 192.8,136.3 193.1,136.3 199,144.4 198.8,144.7 	"/>
	<polygon fill="#A5A17E" points="198.8,144.5 193,136.4 188.6,143.1 	"/>
	<polygon fill="#948571" points="192.8,136.6 193,136.2 204.5,136.2 204.7,136.6 199,144.6 198.6,144.6 	"/>
	<polygon fill="#948571" points="198.8,144.5 204.5,136.4 193,136.4 	"/>
	<polygon fill="#71755F" points="194,150 193.8,149.6 198.6,144.3 198.9,144.3 205.2,149.6 205.1,150 	"/>
	<polygon fill="#71755F" points="198.8,144.5 205.1,149.8 194,149.8 	"/>
	<polygon fill="#747165" points="198.6,144.4 204.4,136.3 204.7,136.4 206,143.1 205.9,143.3 198.8,144.7 	"/>
	<polygon fill="#747165" points="198.8,144.5 205.8,143.1 204.5,136.4 	"/>
	<polygon fill="#8B8F6D" points="198.7,144.6 198.8,144.3 205.8,142.9 206,143.1 205.3,149.8 205,149.9 	"/>
	<polygon fill="#8B8F6D" points="205.8,143.1 205.1,149.8 198.8,144.5 	"/>
	<polygon fill="#87866B" points="205.1,150 204.9,149.7 205.6,143.1 206,143 211.9,149.6 211.8,150 	"/>
	<polygon fill="#87866B" points="205.8,143.1 211.8,149.8 205.1,149.8 	"/>
	<polygon fill="#847A66" points="205.6,143.1 204.3,136.5 204.5,136.2 210.5,136.2 210.7,136.6 206,143.2 	"/>
	<polygon fill="#847A66" points="205.8,143.1 210.5,136.4 204.5,136.4 	"/>
	<polygon fill="#888367" points="205.4,143 210.4,136.3 210.7,136.3 214,141.4 213.8,141.7 205.6,143.4 	"/>
	<polygon fill="#888367" points="210.5,136.4 213.8,141.5 205.5,143.2 	"/>
	<polygon fill="#8F8B71" points="211.6,149.9 205.7,143.2 205.8,142.9 213.8,141.3 214,141.4 216.8,146 216.7,146.2 211.9,149.9 	
		"/>
	<polygon fill="#8F8B71" points="213.8,141.5 216.6,146.1 211.8,149.8 205.8,143.1 	"/>
	<polygon fill="#98906C" points="213.6,141.6 210.4,136.6 210.6,136.2 218.1,137 218.2,137.4 213.9,141.7 	"/>
	<polygon fill="#98906C" points="213.8,141.5 218.1,137.2 210.5,136.4 	"/>
	<polygon fill="#656559" points="204.5,136.6 204.3,136.4 206,130.6 206.3,130.5 210.7,136.3 210.5,136.6 	"/>
	<polygon fill="#656559" points="204.5,136.4 206.2,130.6 210.5,136.4 	"/>
	<polygon fill="#6F6C67" points="189.8,129.1 189.9,128.7 206.2,130.4 206.4,130.7 204.7,136.5 204.4,136.6 	"/>
	<polygon fill="#6F6C67" points="206.2,130.6 189.9,128.9 204.5,136.4 	"/>
	<polygon fill="#5B605C" points="210.5,136.6 210.4,136.6 206,130.8 206.3,130.5 218.2,137.1 218.1,137.4 	"/>
	<polygon fill="#5B605C" points="206.2,130.6 218.1,137.2 210.5,136.4 	"/>
	<polygon fill="#9D9970" points="213.8,141.7 213.7,141.4 218,137.1 218.3,137.1 221.7,142.2 221.5,142.5 	"/>
	<polygon fill="#9D9970" points="218.1,137.2 221.6,142.3 213.8,141.5 	"/>
	<polygon fill="#8D8869" points="216.4,146.2 213.6,141.6 213.8,141.3 221.6,142.1 221.7,142.5 216.7,146.2 	"/>
	<polygon fill="#8D8869" points="221.6,142.3 216.6,146.1 213.8,141.5 	"/>
	<polygon fill="#807F70" points="216.6,146.3 216.5,145.9 221.4,142.2 221.8,142.3 222.7,147.6 222.4,147.9 	"/>
	<polygon fill="#807F70" points="221.6,142.3 222.5,147.7 216.6,146.1 	"/>
	<polygon fill="#86846E" points="211.7,149.6 216.5,145.9 216.7,145.9 222.5,147.5 222.5,147.9 211.8,150 	"/>
	<polygon fill="#86846E" points="222.5,147.7 211.8,149.8 216.6,146.1 	"/>
	<polygon fill="#81816A" points="211.8,150 211.7,149.6 222.4,147.5 222.5,147.5 228.5,149.6 228.4,150 	"/>
	<polygon fill="#81816A" points="222.5,147.7 228.4,149.8 211.8,149.8 	"/>
	<polygon fill="#8D8772" points="222.3,147.7 221.4,142.4 221.5,142.1 228,140.3 228.2,140.6 222.6,147.8 	"/>
	<polygon fill="#8D8772" points="221.6,142.3 228.1,140.5 222.5,147.7 	"/>
	<polygon fill="#7E7D68" points="222.4,147.9 222.3,147.5 227.9,140.3 228.3,140.5 228.6,149.7 228.3,149.9 	"/>
	<polygon fill="#7E7D68" points="228.1,140.5 228.4,149.8 222.5,147.7 	"/>
	<polygon fill="#8B8975" points="221.4,142.4 217.9,137.3 218.2,137 228.1,140.3 228.1,140.7 221.6,142.5 	"/>
	<polygon fill="#8B8975" points="228.1,140.5 218.1,137.2 221.6,142.3 	"/>
	<polygon fill="#97936F" points="218,137.4 218,137.1 221.4,133.8 221.7,133.8 228.2,140.3 228,140.6 	"/>
	<polygon fill="#97936F" points="218.1,137.2 221.6,133.9 228.1,140.5 	"/>
	<polygon fill="#707267" points="206.1,130.8 206.2,130.4 221.6,133.7 221.7,134.1 218.2,137.4 218,137.4 	"/>
	<polygon fill="#707267" points="221.6,133.9 206.2,130.6 218.1,137.2 	"/>
	<polygon fill="#808065" points="228.4,150 228.2,149.8 227.9,140.5 228.3,140.4 234.2,149.6 234,150 	"/>
	<polygon fill="#808065" points="228.1,140.5 234,149.8 228.4,149.8 	"/>
	<polygon fill="#56301B" points="0.3,149.8 0.3,138.6 0.6,138.4 7.8,142.6 7.8,142.9 0.7,149.9 	"/>
	<polygon fill="#56301B" points="7.7,142.8 0.5,138.6 0.5,149.8 	"/>
	<polygon fill="#56301B" points="0.4,138.8 0.5,138.4 14.5,136.3 14.7,136.6 7.8,142.9 7.6,142.9 	"/>
	<polygon fill="#56301B" points="7.7,142.8 14.6,136.4 0.5,138.6 	"/>
	<polygon fill="#6F503C" points="0.3,138.6 0.3,130.3 0.7,130.2 7.8,137.4 7.7,137.7 0.6,138.8 	"/>
	<polygon fill="#6F503C" points="0.5,138.6 0.5,130.3 7.7,137.5 	"/>
	<polygon fill="#87826D" points="227.9,140.6 228.2,140.3 236.4,143.6 236.5,143.9 234.2,149.8 233.9,149.9 	"/>
	<polygon fill="#87826D" points="228.1,140.5 236.3,143.8 234,149.8 	"/>
	<polygon fill="#75755C" points="221.4,134.1 221.6,133.7 228.1,133.5 228.3,133.7 228.3,140.5 227.9,140.6 	"/>
	<polygon fill="#75755C" points="228.1,140.5 228.1,133.7 221.6,133.9 	"/>
	<polygon fill="#817C66" points="227.9,140.5 227.9,133.7 228.2,133.5 233.5,138 233.5,138.3 228.2,140.6 	"/>
	<polygon fill="#817C66" points="228.1,133.7 233.4,138.1 228.1,140.5 	"/>
	<polygon fill="#ACA480" points="228,140.6 228,140.3 233.3,137.9 233.6,138 236.5,143.7 236.2,144 	"/>
	<polygon fill="#ACA480" points="233.4,138.1 236.3,143.8 228.1,140.5 	"/>
	<polygon fill="#9E9879" points="236.1,143.9 233.2,138.2 233.4,137.9 241.8,140.8 241.8,141.1 236.4,144 	"/>
	<polygon fill="#9E9879" points="233.4,138.1 241.7,141 236.3,143.8 	"/>
	<polygon fill="#818069" points="234,150 233.8,149.7 236.1,143.7 236.5,143.7 240.9,149.6 240.7,150 	"/>
	<polygon fill="#818069" points="236.3,143.8 240.7,149.8 234,149.8 	"/>
	<polygon fill="#787667" points="236.3,144 236.2,143.6 241.6,140.8 241.9,141 241.9,144.1 241.7,144.3 	"/>
	<polygon fill="#787667" points="241.7,141 241.7,144.1 236.3,143.8 	"/>
	<polygon fill="#7D7865" points="236.3,144 236.3,143.6 241.7,143.9 241.9,143.9 243.8,146.4 243.6,146.7 	"/>
	<polygon fill="#7D7865" points="241.7,144.1 243.7,146.5 236.3,143.8 	"/>
	<polygon fill="#787763" points="240.6,149.9 236.2,143.9 236.4,143.6 243.7,146.3 243.8,146.6 240.9,149.9 	"/>
	<polygon fill="#787763" points="243.7,146.5 240.7,149.8 236.3,143.8 	"/>
	<polygon fill="#757561" points="240.6,149.6 243.5,146.4 243.8,146.3 247.8,148.4 247.7,148.8 240.8,150 	"/>
	<polygon fill="#757561" points="243.7,146.5 247.7,148.6 240.7,149.8 	"/>
	<polygon fill="#7B7A68" points="243.5,146.6 241.5,144.2 241.7,143.9 248.8,144.3 248.9,144.7 243.8,146.7 	"/>
	<polygon fill="#7B7A68" points="243.7,146.5 248.8,144.5 241.7,144.1 	"/>
	<polygon fill="#7E7E65" points="241.7,144.3 241.5,144.1 241.5,141 241.6,140.8 244.1,140.1 244.3,140.1 248.9,144.4 248.8,144.7 	
		"/>
	<polygon fill="#7E7E65" points="241.7,141 244.2,140.3 248.8,144.5 241.7,144.1 	"/>
	<polygon fill="#96936E" points="241.5,141 242,135.3 242.3,135.2 244.4,140.2 244.3,140.5 241.8,141.2 	"/>
	<polygon fill="#96936E" points="244.2,140.3 242.2,135.3 241.7,141 	"/>
	<polygon fill="#BBAE8C" points="233.3,138.3 233.3,137.9 242.1,135.1 242.4,135.3 241.9,141 241.6,141.2 	"/>
	<polygon fill="#BBAE8C" points="233.4,138.1 242.2,135.3 241.7,141 	"/>
	<polygon fill="#757864" points="243.6,146.7 243.6,146.3 248.7,144.3 249,144.6 247.9,148.6 247.6,148.7 	"/>
	<polygon fill="#757864" points="248.8,144.5 247.7,148.6 243.7,146.5 	"/>
	<polygon fill="#86816C" points="247.5,148.5 248.6,144.4 248.9,144.4 251.6,148 251.4,148.3 247.7,148.8 	"/>
	<polygon fill="#86816C" points="248.8,144.5 251.4,148.1 247.7,148.6 	"/>
	<polygon fill="#777464" points="244.1,140.4 244.2,140.1 248.5,140.1 248.7,140.2 249,144.5 248.6,144.6 	"/>
	<polygon fill="#777464" points="248.8,144.5 248.5,140.3 244.2,140.3 	"/>
	<polygon fill="#808068" points="240.7,150 240.7,149.6 247.6,148.4 247.9,148.6 247.9,149.8 247.7,150 	"/>
	<polygon fill="#808068" points="247.7,148.6 247.7,149.8 240.7,149.8 	"/>
	<polygon fill="#838067" points="247.5,149.8 247.5,148.6 247.6,148.4 251.4,147.9 251.5,148.3 247.7,149.9 	"/>
	<polygon fill="#838067" points="247.7,149.8 251.4,148.1 247.7,148.6 	"/>
	<polygon fill="#6E6C5B" points="247.7,150 247.6,149.6 251.3,147.9 251.6,148.1 251.6,149.8 251.4,150 	"/>
	<polygon fill="#6E6C5B" points="247.7,149.8 251.4,149.8 251.4,148.1 	"/>
	<polygon fill="#8B877D" points="248.6,144.6 248.8,144.3 251.9,144.3 252.1,144.5 251.6,148.2 251.3,148.2 	"/>
	<polygon fill="#8B877D" points="248.8,144.5 251.9,144.5 251.4,148.1 	"/>
	<polygon fill="#6D6F5A" points="251.4,150 251.2,149.8 251.2,148.1 251.7,144.5 252,144.4 255.1,149.7 255,150 	"/>
	<polygon fill="#6D6F5A" points="251.4,149.8 255,149.8 251.9,144.5 251.4,148.1 	"/>
	<polygon fill="#737163" points="248.6,144.5 248.3,140.3 248.5,140.1 251.9,140.1 252,140.4 248.9,144.6 	"/>
	<polygon fill="#737163" points="248.5,140.3 251.9,140.3 248.8,144.5 	"/>
	<polygon fill="#7A7965" points="248.8,144.7 248.6,144.4 251.7,140.1 252.1,140.3 252.1,144.5 251.9,144.7 	"/>
	<polygon fill="#7A7965" points="251.9,140.3 251.9,144.5 248.8,144.5 	"/>
	<polygon fill="#747361" points="251.9,144.7 251.7,144.5 251.7,140.3 252,140.1 255.1,144.4 255,144.7 	"/>
	<polygon fill="#747361" points="251.9,140.3 255,144.5 251.9,144.5 	"/>
	<polygon fill="#837E69" points="251.7,144.6 251.9,144.3 255,144.3 255.2,144.5 255.2,149.8 254.8,149.9 	"/>
	<polygon fill="#837E69" points="255,144.5 255,149.8 251.9,144.5 	"/>
	<polygon fill="#88805C" points="244.2,140.5 244,140.3 242,135.4 242.3,135.1 248.6,140.1 248.5,140.5 	"/>
	<polygon fill="#88805C" points="242.2,135.3 248.5,140.3 244.2,140.3 	"/>
	<polygon fill="#81806B" points="248.5,140.5 248.3,140.1 250.2,137.7 250.5,137.7 252,140.2 251.9,140.5 	"/>
	<polygon fill="#81806B" points="248.5,140.3 250.3,137.8 251.9,140.3 	"/>
	<polygon fill="#797460" points="251.9,140.5 251.7,140.4 250.1,137.9 250.4,137.6 255.8,140.1 255.7,140.5 	"/>
	<polygon fill="#797460" points="250.3,137.8 255.7,140.3 251.9,140.3 	"/>
	<polygon fill="#767462" points="251.7,140.4 251.9,140.1 255.7,140.1 255.9,140.3 255.2,144.5 254.8,144.6 	"/>
	<polygon fill="#767462" points="255.7,140.3 255,144.5 251.9,140.3 	"/>
	<polygon fill="#6A675D" points="255,144.7 254.8,144.5 255.5,140.2 255.8,140.1 259.9,144.4 259.7,144.7 	"/>
	<polygon fill="#6A675D" points="255.7,140.3 259.7,144.5 255,144.5 	"/>
	<polygon fill="#75715F" points="254.8,149.8 254.8,144.5 255,144.3 259.7,144.3 259.9,144.6 255.1,149.9 	"/>
	<polygon fill="#75715F" points="259.7,144.5 255,149.8 255,144.5 	"/>
	<polygon fill="#716F60" points="254.8,149.6 259.6,144.4 259.9,144.4 260.8,147.4 260.7,147.7 255,149.9 	"/>
	<polygon fill="#716F60" points="259.7,144.5 260.6,147.5 255,149.8 	"/>
	<polygon fill="#87826D" points="255,150 254.9,149.6 260.5,147.3 260.8,147.5 260.8,149.8 260.6,150 	"/>
	<polygon fill="#87826D" points="255,149.8 260.6,149.8 260.6,147.5 	"/>
	<polygon fill="#7B7567" points="260.4,147.5 259.5,144.6 259.7,144.3 262.8,144.7 262.9,145.1 260.8,147.6 	"/>
	<polygon fill="#7B7567" points="259.7,144.5 262.8,144.9 260.6,147.5 	"/>
	<polygon fill="#6F705F" points="260.6,147.7 260.5,147.3 262.6,144.8 262.9,144.8 265.9,148.5 265.7,148.8 	"/>
	<polygon fill="#6F705F" points="262.8,144.9 265.7,148.6 260.6,147.5 	"/>
	<polygon fill="#70725F" points="255.5,140.4 255.5,140.2 256.8,137.2 257.1,137.1 260.7,139.6 260.8,139.8 259.9,144.5 
		259.6,144.6 	"/>
	<polygon fill="#70725F" points="255.7,140.3 257,137.2 260.6,139.8 259.7,144.5 	"/>
	<polygon fill="#6C6E60" points="259.5,144.5 260.4,139.7 260.6,139.6 264.3,138.8 264.5,139 265,141.8 264.9,142.1 259.8,144.7 	
		"/>
	<polygon fill="#6C6E60" points="260.6,139.8 264.3,139 264.9,141.9 259.7,144.5 	"/>
	<polygon fill="#7D7865" points="259.7,144.7 259.6,144.3 264.8,141.7 264.9,141.7 267.9,142.3 268.1,142.6 266.8,144.6 
		266.6,144.7 	"/>
	<polygon fill="#7D7865" points="264.9,141.9 267.9,142.5 266.6,144.5 259.7,144.5 	"/>
	<polygon fill="#717158" points="262.7,145.1 259.7,144.7 259.7,144.3 266.6,144.3 266.7,144.7 262.8,145.1 	"/>
	<polygon fill="#717158" points="266.6,144.5 262.8,144.9 259.7,144.5 	"/>
	<polygon fill="#6A6B59" points="265.6,148.7 262.6,145.1 262.7,144.7 266.6,144.3 266.8,144.4 269.3,146.6 269.3,147 265.8,148.8 	
		"/>
	<polygon fill="#6A6B59" points="266.6,144.5 269.2,146.8 265.7,148.6 262.8,144.9 	"/>
	<polygon fill="#8F8B70" points="260.4,149.8 260.4,147.5 260.7,147.3 265.8,148.4 265.8,148.8 260.7,150 	"/>
	<polygon fill="#8F8B70" points="265.7,148.6 260.6,149.8 260.6,147.5 	"/>
	<polygon fill="#837D64" points="260.6,150 260.6,149.6 265.7,148.4 270.5,149.6 270.4,150 	"/>
	<polygon fill="#837D64" points="260.6,149.8 270.4,149.8 265.7,148.6 	"/>
	<polygon fill="#898066" points="265.7,148.8 265.6,148.4 269.1,146.6 269.4,146.7 270.6,149.7 270.4,149.9 	"/>
	<polygon fill="#898066" points="269.2,146.8 270.4,149.8 265.7,148.6 	"/>
	<polygon fill="#64655F" points="266.5,144.7 266.5,144.4 267.7,142.4 268.1,142.5 269.4,146.7 269.1,146.9 	"/>
	<polygon fill="#64655F" points="269.2,146.8 267.9,142.5 266.6,144.5 	"/>
	<polygon fill="#5F6256" points="264.8,142.1 264.7,141.9 264.1,139.1 264.4,138.9 268,142.4 267.9,142.7 	"/>
	<polygon fill="#5F6256" points="264.3,139 267.9,142.5 264.9,141.9 	"/>
	<polygon fill="#AB9E79" points="260.5,139.9 256.9,137.4 257,137 264.3,138.8 264.3,139.2 260.7,140 	"/>
	<polygon fill="#AB9E79" points="264.3,139 257,137.2 260.6,139.8 	"/>
	<polygon fill="#A49A78" points="250.2,138 250.3,137.6 257,137 257.2,137.3 255.9,140.3 255.6,140.4 	"/>
	<polygon fill="#A49A78" points="250.3,137.8 257,137.2 255.7,140.3 	"/>
	<polygon fill="#A39B7F" points="242,135.4 242.2,135.1 250.4,137.6 250.5,137.9 248.6,140.4 248.3,140.4 	"/>
	<polygon fill="#A39B7F" points="250.3,137.8 242.2,135.3 248.5,140.3 	"/>
	<polygon fill="#6E6B5F" points="267.7,142.6 267.8,142.3 270.4,141.6 270.6,141.8 269.4,146.8 269,146.8 	"/>
	<polygon fill="#6E6B5F" points="267.9,142.5 270.4,141.8 269.2,146.8 	"/>
	<polygon fill="#6F695C" points="270.3,149.8 269,146.9 269,146.7 270.2,141.7 270.6,141.7 273.5,147 273.4,147.3 270.6,149.9 	"/>
	<polygon fill="#6F695C" points="270.4,141.8 273.3,147.1 270.4,149.8 269.2,146.8 	"/>
	<polygon fill="#929374" points="267.8,142.7 264.2,139.2 264.4,138.8 270.5,141.6 270.5,142 268,142.7 	"/>
	<polygon fill="#929374" points="270.4,141.8 264.3,139 267.9,142.5 	"/>
	<polygon fill="#787860" points="270.3,141.9 270.3,141.6 273.3,140.1 273.6,140.3 273.5,147.1 273.1,147.2 	"/>
	<polygon fill="#787860" points="270.4,141.8 273.4,140.3 273.3,147.1 	"/>
	<polygon fill="#7D745B" points="270.4,150 270.3,149.6 273.1,147 273.4,147 276.1,149.6 276,150 	"/>
	<polygon fill="#7D745B" points="273.3,147.1 276,149.8 270.4,149.8 	"/>
	<polygon fill="#5F6352" points="273.1,147.1 273.2,140.3 273.5,140.1 278.1,142.2 278.2,142.5 273.4,147.3 	"/>
	<polygon fill="#5F6352" points="273.3,147.1 278,142.4 273.4,140.3 	"/>
	<polygon fill="#958F70" points="273.3,147.3 273.1,147 277.9,142.2 278.2,142.4 278.4,147.1 278.2,147.3 	"/>
	<polygon fill="#958F70" points="273.3,147.1 278.2,147.1 278,142.4 	"/>
	<polygon fill="#898460" points="275.8,149.6 278.1,147 278.3,147 280.3,148.5 280.2,148.8 276,149.9 	"/>
	<polygon fill="#898460" points="278.2,147.1 280.1,148.6 276,149.8 	"/>
	<polygon fill="#8D8964" points="273.1,147.3 273.3,146.9 278.2,146.9 278.4,147.3 276.1,149.9 275.8,149.9 	"/>
	<polygon fill="#8D8964" points="278.2,147.1 273.3,147.1 276,149.8 	"/>
	<polygon fill="#9A8D6B" points="256.9,137.4 256.9,137.1 261.4,134 261.6,134 264.5,138.9 264.2,139.2 	"/>
	<polygon fill="#9A8D6B" points="257,137.2 261.5,134.1 264.3,139 	"/>
	<polygon fill="#ADA07B" points="264.3,139.2 264.1,139.1 261.3,134.2 261.6,133.9 273.5,140.1 273.4,140.5 	"/>
	<polygon fill="#ADA07B" points="261.5,134.1 273.4,140.3 264.3,139 	"/>
	<polygon fill="#9E9875" points="264.2,139.2 264.3,138.8 273.4,140.1 273.5,140.4 270.5,141.9 270.4,141.9 	"/>
	<polygon fill="#9E9875" points="264.3,139 273.4,140.3 270.4,141.8 	"/>
	<polygon fill="#807966" points="278,147.1 277.8,142.4 277.9,142.2 281.3,140.1 281.6,140.3 278.4,147.2 	"/>
	<polygon fill="#807966" points="278,142.4 281.5,140.3 278.2,147.1 	"/>
	<polygon fill="#888064" points="278.1,147.3 278,147 281.3,140.2 281.7,140.3 280.3,148.6 280,148.8 	"/>
	<polygon fill="#888064" points="281.5,140.3 280.1,148.6 278.2,147.1 	"/>
	<polygon fill="#898460" points="276,150 275.9,149.6 280.1,148.4 280.2,148.4 284.6,149.6 284.5,150 	"/>
	<polygon fill="#898460" points="280.1,148.6 284.5,149.8 276,149.8 	"/>
	<polygon fill="#857C61" points="280,148.6 281.3,140.2 281.6,140.1 286.2,145.6 286.2,145.9 280.2,148.8 	"/>
	<polygon fill="#857C61" points="281.5,140.3 286.1,145.8 280.1,148.6 	"/>
	<polygon fill="#84795F" points="280.1,148.8 280.1,148.4 286,145.6 286.3,145.8 284.7,149.8 284.5,149.9 	"/>
	<polygon fill="#84795F" points="286.1,145.8 284.5,149.8 280.1,148.6 	"/>
	<polygon fill="#898467" points="273.4,140.5 273.3,140.1 276.3,136.2 276.6,136.1 281.6,140.1 281.5,140.5 	"/>
	<polygon fill="#898467" points="273.4,140.3 276.4,136.3 281.5,140.3 	"/>
	<polygon fill="#515242" points="273.3,140.4 273.4,140.1 281.5,140.1 281.6,140.4 278.2,142.5 278,142.5 	"/>
	<polygon fill="#515242" points="273.4,140.3 278,142.4 281.5,140.3 	"/>
	<polygon fill="#A99B7A" points="261.4,134.3 261.5,133.9 276.5,136.1 276.6,136.4 273.6,140.4 273.3,140.4 	"/>
	<polygon fill="#A99B7A" points="276.4,136.3 261.5,134.1 273.4,140.3 	"/>
	<polygon fill="#79735A" points="284.5,150 284.4,149.7 285.9,145.7 286.2,145.6 290.5,149.6 290.4,150 	"/>
	<polygon fill="#79735A" points="286.1,145.8 290.4,149.8 284.5,149.8 	"/>
	<polygon fill="#949471" points="281.3,140.4 281.5,140.1 287.8,140.2 287.9,140.4 286.3,145.8 285.9,145.9 	"/>
	<polygon fill="#949471" points="286.1,145.8 287.7,140.4 281.5,140.3 	"/>
	<polygon fill="#2A323F" points="285.9,145.9 285.9,145.7 287.6,140.3 287.9,140.3 290.6,149.7 290.3,149.9 	"/>
	<polygon fill="#2A323F" points="287.7,140.4 290.4,149.8 286.1,145.8 	"/>
	<polygon fill="#525447" points="281.4,140.5 281.3,140.2 282.9,134.9 283.3,134.8 287.9,140.3 287.7,140.6 	"/>
	<polygon fill="#525447" points="287.7,140.4 283.1,134.9 281.5,140.3 	"/>
	<polygon fill="#898467" points="276.3,136.5 276.4,136.1 283.1,134.7 283.3,135 281.6,140.3 281.3,140.4 	"/>
	<polygon fill="#898467" points="283.1,134.9 276.4,136.3 281.5,140.3 	"/>
	<polygon fill="#2F3447" points="287.6,140.5 283,135.1 283.1,134.7 296.8,133.9 296.9,134.3 287.9,140.6 	"/>
	<polygon fill="#2F3447" points="283.1,134.9 296.8,134.1 287.7,140.4 	"/>
	<polygon fill="#3C3D4C" points="290.2,149.8 287.6,140.4 287.6,140.2 296.7,134 297,134.2 290.6,149.8 	"/>
	<polygon fill="#3C3D4C" points="296.8,134.1 290.4,149.8 287.7,140.4 	"/>
	<polygon fill="#484553" points="290.2,149.7 296.6,134 296.9,133.9 309.9,141.6 309.8,141.9 290.5,149.9 	"/>
	<polygon fill="#484553" points="296.8,134.1 309.8,141.8 290.4,149.8 	"/>
	<polygon fill="#3A3B4D" points="290.4,150 290.3,149.6 309.7,141.6 310,141.8 309.4,149.8 309.2,150 	"/>
	<polygon fill="#3A3B4D" points="309.8,141.8 309.2,149.8 290.4,149.8 	"/>
	<polygon fill="#343B4E" points="296.7,134.3 296.7,133.9 307.4,128.4 307.7,128.6 310,141.7 309.7,141.9 	"/>
	<polygon fill="#343B4E" points="296.8,134.1 307.5,128.6 309.8,141.8 	"/>
	<polygon fill="#484A59" points="309.6,141.8 307.3,128.6 307.3,128.5 314.9,119.3 315.2,119.5 310,141.8 	"/>
	<polygon fill="#484A59" points="307.5,128.6 315,119.4 309.8,141.8 	"/>
	<polygon fill="#504D59" points="309.6,141.7 314.8,119.4 314.9,119.3 321.9,113.5 322.2,113.6 325.9,129.9 325.8,130.1 
		309.9,141.9 	"/>
	<polygon fill="#504D59" points="315,119.4 322,113.7 325.7,129.9 309.8,141.8 	"/>
	<polygon fill="#6F6C73" points="325.5,129.9 321.8,113.7 321.9,113.5 331.8,109 332.1,109.2 325.9,130 	"/>
	<polygon fill="#6F6C73" points="322,113.7 331.9,109.2 325.7,129.9 	"/>
	<polygon fill="#69656F" points="331.9,109.4 331.7,109.1 336.4,99.9 336.7,99.8 345.9,109.9 345.8,110.2 	"/>
	<polygon fill="#69656F" points="331.9,109.2 336.6,100 345.8,110 	"/>
	<polygon fill="#91868A" points="336.4,100.1 336.5,99.8 348.8,93.8 349.1,94.1 346,110 345.6,110.1 	"/>
	<polygon fill="#91868A" points="336.6,100 348.9,94 345.8,110 	"/>
	<polygon fill="#A39998" points="345.6,110 348.7,94 355.1,84.3 355.4,84.5 346,110.1 	"/>
	<polygon fill="#A39998" points="348.9,94 355.3,84.4 345.8,110 	"/>
	<polygon fill="#938D8F" points="345.8,110.2 345.6,109.9 355.1,84.3 355.4,84.3 367.6,109.9 367.4,110.2 	"/>
	<polygon fill="#938D8F" points="355.3,84.4 367.4,110 345.8,110 	"/>
	<polygon fill="#878185" points="367.3,110.1 359.9,94.6 360.1,94.3 375.5,101.8 375.6,102.2 367.6,110.1 	"/>
	<polygon fill="#878185" points="360,94.5 375.4,102 367.4,110 	"/>
	<polygon fill="#6E6872" points="367.3,110.1 367.3,109.9 375.3,101.9 375.6,102 375.6,118.5 375.3,118.7 	"/>
	<polygon fill="#6E6872" points="375.4,102 375.4,118.5 367.4,110 	"/>
	<polygon fill="#3A4154" points="375.4,118.7 375.2,118.5 375.2,102 375.6,101.9 389.7,119.4 389.5,119.7 	"/>
	<polygon fill="#3A4154" points="375.4,102 389.5,119.5 375.4,118.5 	"/>
	<polygon fill="#3F4253" points="375.3,118.7 375.4,118.3 389.5,119.3 389.7,119.4 396.8,128.5 396.6,128.8 	"/>
	<polygon fill="#3F4253" points="389.5,119.5 396.7,128.6 375.4,118.5 	"/>
	<polygon fill="#827B81" points="325.5,129.8 331.7,109.1 331.9,109 345.8,109.8 345.9,110.1 325.8,130 	"/>
	<polygon fill="#827B81" points="325.7,129.9 345.8,110 331.9,109.2 	"/>
	<polygon fill="#3E404D" points="309.8,142 309.6,141.6 325.6,129.7 325.9,129.9 323.9,142.4 323.7,142.6 	"/>
	<polygon fill="#3E404D" points="325.7,129.9 323.7,142.4 309.8,141.8 	"/>
	<polygon fill="#464451" points="309,149.7 309.6,141.7 309.8,141.6 323.7,142.2 323.8,142.5 309.3,149.9 	"/>
	<polygon fill="#464451" points="323.7,142.4 309.2,149.8 309.8,141.8 	"/>
	<polygon fill="#3C3D4F" points="309.2,150 309.1,149.6 323.6,142.2 323.9,142.4 323.9,149.8 323.7,150 	"/>
	<polygon fill="#3C3D4F" points="323.7,142.4 323.7,149.8 309.2,149.8 	"/>
	<polygon fill="#3D4356" points="375.3,118.7 375.5,118.4 396.8,128.4 396.9,128.5 400.4,140.7 400.1,140.9 	"/>
	<polygon fill="#3D4356" points="396.7,128.6 400.2,140.8 375.4,118.5 	"/>
	<polygon fill="#79747B" points="354,123.7 345.6,110.1 345.8,109.8 367.4,109.8 367.6,110.1 354.3,123.7 	"/>
	<polygon fill="#79747B" points="345.8,110 354.2,123.6 367.4,110 	"/>
	<polygon fill="#696875" points="354,123.4 367.3,109.9 367.6,109.9 375.6,118.4 375.5,118.7 354.2,123.8 	"/>
	<polygon fill="#696875" points="354.2,123.6 375.4,118.5 367.4,110 	"/>
	<polygon fill="#79757B" points="325.5,129.8 345.6,109.9 345.9,109.9 354.3,123.5 354.2,123.8 325.7,130.1 	"/>
	<polygon fill="#79757B" points="354.2,123.6 325.7,129.9 345.8,110 	"/>
	<polygon fill="#3C4354" points="325.6,130.1 325.6,129.7 354.1,123.4 354.3,123.7 342.9,138.4 342.6,138.5 	"/>
	<polygon fill="#3C4354" points="354.2,123.6 342.7,138.3 325.7,129.9 	"/>
	<polygon fill="#404458" points="354.1,123.7 354.1,123.4 375.4,118.3 375.6,118.6 368.7,130.7 368.4,130.8 	"/>
	<polygon fill="#404458" points="354.2,123.6 368.5,130.6 375.4,118.5 	"/>
	<polygon fill="#34394D" points="368.5,130.8 368.3,130.5 375.3,118.4 375.6,118.4 394.1,135 393.9,135.4 	"/>
	<polygon fill="#34394D" points="368.5,130.6 394,135.2 375.4,118.5 	"/>
	<polygon fill="#30374A" points="342.6,138.2 354,123.4 354.3,123.4 368.6,130.4 368.6,130.8 342.8,138.5 	"/>
	<polygon fill="#30374A" points="368.5,130.6 342.7,138.3 354.2,123.6 	"/>
	<polygon fill="#404150" points="323.5,142.3 325.5,129.9 325.8,129.7 342.8,138.1 342.8,138.5 323.8,142.6 	"/>
	<polygon fill="#404150" points="342.7,138.3 323.7,142.4 325.7,129.9 	"/>
	<polygon fill="#404150" points="323.5,149.8 323.5,142.4 323.7,142.2 342.7,138.1 342.8,138.5 323.8,149.9 	"/>
	<polygon fill="#404150" points="342.7,138.3 323.7,149.8 323.7,142.4 	"/>
	<polygon fill="#323143" points="342.7,138.5 342.7,138.1 368.5,130.4 368.7,130.7 359.2,143.8 359,143.9 	"/>
	<polygon fill="#323143" points="342.7,138.3 359,143.7 368.5,130.6 	"/>
	<polygon fill="#363845" points="358.9,143.6 368.4,130.5 368.6,130.4 394,135 394,135.4 359.1,143.9 	"/>
	<polygon fill="#363845" points="359,143.7 394,135.2 368.5,130.6 	"/>
	<polygon fill="#373948" points="359,143.5 393.9,135 394.1,135 400.3,140.6 400.2,141 359.1,143.9 	"/>
	<polygon fill="#373948" points="359,143.7 400.2,140.8 394,135.2 	"/>
	<polygon fill="#272D3D" points="323.6,149.6 342.6,138.1 342.8,138.1 359.1,143.5 359.1,143.9 323.7,150 	"/>
	<polygon fill="#272D3D" points="359,143.7 323.7,149.8 342.7,138.3 	"/>
	<polygon fill="#383A49" points="323.7,150 323.7,149.6 359,143.5 359.2,143.7 359.2,149.8 359,150 	"/>
	<polygon fill="#383A49" points="359,143.7 359,149.8 323.7,149.8 	"/>
	<polygon fill="#44485A" points="359,150 359,149.6 400.2,140.6 400.4,140.9 393.7,149.9 393.5,150 	"/>
	<polygon fill="#44485A" points="400.2,140.8 393.5,149.8 359,149.8 	"/>
	<polygon fill="#383A49" points="358.8,149.8 358.8,143.7 359,143.5 400.2,140.6 400.2,141 359.1,150 	"/>
	<polygon fill="#383A49" points="400.2,140.8 359,149.8 359,143.7 	"/>
	<polygon fill="#373F56" points="393.5,150 393.3,149.6 400,140.6 400.4,140.8 400.4,149.8 400.2,150 	"/>
	<polygon fill="#373F56" points="400.2,140.8 400.2,149.8 393.5,149.8 	"/>
	<polygon fill="#B6ABA9" points="360,94.7 359.9,94.6 355.1,84.5 355.4,84.3 375.6,101.9 375.3,102.2 	"/>
	<polygon fill="#B6ABA9" points="355.3,84.4 375.4,102 360,94.5 	"/>
	<polygon fill="#6A676E" points="375.3,102.1 375.4,101.8 384.9,100.3 385.1,100.5 389.7,119.5 389.4,119.7 	"/>
	<polygon fill="#6A676E" points="375.4,102 384.9,100.5 389.5,119.5 	"/>
	<polygon fill="#3F4253" points="389.4,119.7 384.7,100.6 385.1,100.4 396.9,128.5 396.5,128.7 	"/>
	<polygon fill="#3F4253" points="384.9,100.5 396.7,128.6 389.5,119.5 	"/>
	<polygon fill="#383B4E" points="391.5,116.9 391.7,116.6 398.9,116.6 399,116.8 396.9,128.6 396.5,128.7 	"/>
	<polygon fill="#383B4E" points="391.7,116.8 398.9,116.8 396.7,128.6 	"/>
	<polygon fill="#2D3548" points="396.5,128.6 398.7,116.7 399,116.8 400.4,140.8 400,140.8 	"/>
	<polygon fill="#2D3548" points="398.9,116.8 400.2,140.8 396.7,128.6 	"/>
	<polygon fill="#3A4055" points="391.7,117 391.5,116.9 388.3,109.2 388.6,109 399,116.6 398.9,117 	"/>
	<polygon fill="#3A4055" points="398.9,116.8 388.5,109.1 391.7,116.8 	"/>
	<polygon fill="#3D4356" points="398.7,116.8 398.9,116.6 400.2,116.6 400.4,116.8 400.4,140.8 400,140.8 	"/>
	<polygon fill="#3D4356" points="398.9,116.8 400.2,116.8 400.2,140.8 	"/>
</g>
<g>
	<polygon fill="#DCD2CD" points="281,85.6 281,85.5 281.8,84.7 281.9,84.7 283,87.9 282.9,87.9 	"/>
	<polygon fill="#504D59" points="282.9,87.9 281.8,84.7 281.9,84.7 284.5,85.3 284.5,85.3 283,87.9 	"/>
	<polygon fill="#4D4D52" points="282.9,87.9 282.9,87.9 283.7,86.6 283.7,86.6 284.5,90.7 284.5,90.7 	"/>
	<polygon fill="#4D4D52" points="285.2,91 284.5,90.7 284.5,90.7 284.1,88.6 284.1,88.6 286.2,92 286.2,92 	"/>
	<polygon fill="#79747B" points="283.7,86.6 284.5,85.3 284.5,85.3 288.8,85.4 288.8,85.5 283.7,86.6 	"/>
	<polygon fill="#878185" points="284.1,88.6 283.7,86.6 283.7,86.6 288.8,85.4 288.8,85.5 284.1,88.6 	"/>
	<polygon fill="#484A59" points="286.2,92 284.1,88.6 284.1,88.6 287.7,90.3 287.7,90.3 286.2,92 	"/>
	<polygon fill="#6F6C73" points="284.1,88.7 284.1,88.6 288.8,85.4 288.8,85.5 287.7,90.3 287.7,90.3 	"/>
	<polygon fill="#827B81" points="287.7,90.3 289.4,93.7 286.2,92 	"/>
	<polygon fill="#69656F" points="289.4,93.7 289.4,93.7 287.7,90.3 287.7,90.3 291.2,94.4 291.1,94.4 	"/>
	<polygon fill="#69656F" points="287.7,90.3 290.9,85.6 288.8,85.5 	"/>
	<polygon fill="#A39998" points="287.7,90.3 290.9,85.6 290.9,85.6 293.7,85.6 293.7,85.6 287.7,90.3 	"/>
	<polygon fill="#938D8F" points="291.1,94.4 287.7,90.3 287.7,90.3 292.2,93.1 292.3,93.2 291.2,94.4 	"/>
	<polygon fill="#B6ABA9" points="287.7,90.3 287.6,90.3 290.1,88.4 290.1,88.4 292.2,93.1 292.2,93.2 	"/>
	<polygon fill="#878185" points="290.1,88.4 290.1,88.4 293.7,85.6 293.7,85.6 292.3,93.2 292.2,93.2 	"/>
	<polygon fill="#827B81" points="292.2,93.2 293.7,85.6 293.7,85.6 299.1,86 299.1,86.1 292.3,93.2 	"/>
	<polygon fill="#69656F" points="292.2,93.2 292.2,93.1 301.6,94.1 301.6,94.2 298.5,96.4 298.4,96.4 	"/>
	<polygon fill="#79757B" points="292.2,93.1 299.1,86 299.1,86 299.3,91.3 299.3,91.3 292.2,93.2 	"/>
	<polygon fill="#91868A" points="292.2,93.2 292.2,93.1 299.3,91.2 299.3,91.2 301.6,94.1 301.6,94.2 	"/>
	<polygon fill="#696875" points="301.6,94.2 299.2,91.3 299.3,91.2 305.5,91.5 305.5,91.5 301.6,94.2 	"/>
	<polygon fill="#878185" points="299.3,91.3 299.3,91.2 307.2,89.1 307.2,89.1 305.5,91.5 305.5,91.5 	"/>
	<polygon fill="#827B81" points="299.2,91.2 305.5,85.7 305.5,85.7 308.7,87.5 308.7,87.5 307.2,89.1 307.2,89.2 299.3,91.3 	"/>
	<polygon fill="#504D59" points="299.2,91.3 299.1,86 299.1,86 301.6,86 305.5,85.6 305.5,85.7 299.3,91.3 	"/>
	<polygon fill="#79757B" points="305.5,85.7 305.5,85.6 310.8,84.8 310.8,84.8 308.7,87.5 308.7,87.5 	"/>
	<polygon fill="#6F6C73" points="283.2,85.6 281,84.2 281,84.2 288.7,85.8 288.7,85.8 	"/>
	<polygon fill="#DCD2CD" points="288.7,85.8 281,84.2 281,84.2 295.6,85.8 295.6,85.8 	"/>
	<polygon fill="#DCD2CD" points="300,86.2 295.6,85.8 295.6,85.8 295.6,85.8 295.6,85.7 304.5,85.7 304.5,85.8 304.5,85.8 
		304.5,85.8 300,86.2 	"/>
	<polygon fill="#DCD2CD" points="304,85.4 311.9,83.9 311.9,83.9 309.9,85.1 304,85.4 	"/>
	<polygon fill="#DCD2CD" points="308.3,84.6 311.9,82.8 311.9,82.8 311.9,83.9 311.9,83.9 308.3,84.6 	"/>
	<polygon fill="#F6EEEC" points="308.2,84.6 310.3,82.2 310.4,82.2 311.9,82.8 311.9,82.9 308.3,84.6 	"/>
	<polygon fill="#F6EEEC" points="308.2,84.6 309.7,81.2 309.7,81.2 310.4,82.2 310.4,82.2 308.3,84.6 	"/>
	<polygon fill="#F6EEEC" points="308.2,84.6 307.4,80.8 307.4,80.8 309.7,81.2 309.7,81.2 308.3,84.6 	"/>
	<polygon fill="#F6EEEC" points="303.8,80.3 303.8,80.3 307.4,80.8 307.4,80.8 308.3,84.6 308.2,84.6 	"/>
	<polygon fill="#F6EEEC" points="299.3,80.1 299.3,80.1 303.8,80.3 305.5,81.9 305.5,81.9 	"/>
	<polygon fill="#F6EEEC" points="295.2,80 295.2,80 299.3,80.1 301.3,81.7 301.3,81.7 	"/>
	<polygon fill="#F6EEEC" points="290.9,79.8 290.9,79.8 295.2,80 295.2,80 295.2,81 295.2,81 	"/>
	<polygon fill="#F6EEEC" points="288,80.8 288,80.8 290.9,79.8 290.9,79.8 291.7,81.2 291.7,81.2 	"/>
	<polygon fill="#F6EEEC" points="283.1,81.7 283.1,81.7 285.5,81.2 288.1,80.8 288.1,80.8 286.5,82.5 286.5,82.5 	"/>
	<polygon fill="#F6EEEC" points="281,84.2 281,84.2 281.2,82.8 281.3,82.8 284.8,84.6 284.8,84.6 	"/>
	<polygon fill="#F6EEEC" points="281.4,82.9 281.4,82.9 283,81.7 283.1,81.7 285,84.7 284.9,84.7 	"/>
	<polygon fill="#F6EEEC" points="284.9,84.7 283,81.7 283.1,81.7 286.5,82.4 286.5,82.5 285,84.7 	"/>
	<polygon fill="#F6EEEC" points="286.4,82.4 288.1,80.8 291.7,81.2 291.7,81.2 286.4,82.5 	"/>
	<polygon fill="#F6EEEC" points="285,84.8 284.9,84.7 286.5,82.4 286.5,82.4 288.9,85.1 288.9,85.1 	"/>
	<polygon fill="#F6EEEC" points="286.4,82.5 286.4,82.4 291.7,81.2 291.7,81.2 288.8,85.1 288.8,85.1 	"/>
	<polygon fill="#F6EEEC" points="291.7,81.2 290.9,79.8 290.9,79.8 295.2,81 295.2,81 291.7,81.2 	"/>
	<polygon fill="#F6EEEC" points="295.2,81 295.2,81 295.2,80 295.2,80 301.3,81.7 301.3,81.7 	"/>
	<polygon fill="#F6EEEC" points="301.3,81.7 299.2,80.1 299.3,80.1 305.5,81.9 305.5,81.9 	"/>
	<polygon fill="#F6EEEC" points="301.3,81.7 301.3,81.7 305.5,81.9 308.3,84.6 308.3,84.6 	"/>
	<polygon fill="#DCD2CD" points="304,85.4 301.3,81.7 301.3,81.7 308.3,84.6 308.3,84.6 304,85.4 	"/>
	<polygon fill="#F6EEEC" points="299.2,85.7 299.2,85.7 301.2,81.7 301.3,81.7 304.1,85.4 304.1,85.4 304,85.5 304,85.5 299.3,85.7 
			"/>
	<polygon fill="#F6EEEC" points="295.6,85.9 301.3,81.7 301.3,81.7 299.3,85.7 299.3,85.7 295.6,85.9 	"/>
	<polygon fill="#F6EEEC" points="295.6,85.9 295.2,81 295.2,81 301.3,81.7 301.3,81.7 295.7,85.9 	"/>
	<polygon fill="#F6EEEC" points="291.7,81.2 291.7,81.2 295.2,81 295.2,81 295.7,85.9 295.6,85.9 	"/>
	<polygon fill="#F6EEEC" points="288.8,85.1 288.8,85.1 291.7,81.2 291.7,81.2 295.7,85.9 295.6,85.9 	"/>
	<polygon fill="#DCD2CD" points="310.8,84.8 311.9,83.9 310.4,84.8 	"/>
	<polygon fill="#DCD2CD" points="295.6,85.9 295.6,85.9 309.9,85.1 309.9,85.1 304.3,85.9 	"/>
</g>
<g>
	<polygon fill="#545D63" points="4.6,81.8 3.9,86.3 4.6,86.6 	"/>
	<polygon fill="#8B664D" points="7.9,89.4 7.9,89.3 9.7,87.5 9.8,87.6 12.1,94.2 12,94.2 	"/>
	<polygon fill="#795541" points="12,94.2 9.7,87.6 9.8,87.5 15.3,88.8 15.3,88.8 12.1,94.2 	"/>
	<polygon fill="#61463D" points="12,94.2 12,94.2 13.6,91.5 13.7,91.5 15.3,100 15.2,100.1 	"/>
	<polygon fill="#61463D" points="16.7,100.8 15.2,100.1 15.2,100 14.4,95.8 14.5,95.8 18.8,102.7 18.8,102.8 	"/>
	<polygon fill="#8B664D" points="13.6,91.5 15.3,88.8 15.3,88.8 24.3,89.1 24.3,89.2 13.7,91.6 	"/>
	<polygon fill="#8B664D" points="14.4,95.8 13.6,91.5 13.7,91.5 24.3,89.1 24.3,89.2 14.5,95.8 	"/>
	<polygon fill="#61463D" points="18.8,102.8 14.4,95.8 14.5,95.7 22,99.2 22,99.3 18.8,102.8 	"/>
	<polygon fill="#795541" points="14.4,95.8 14.4,95.7 24.3,89.1 24.3,89.1 22,99.3 22,99.3 	"/>
	<polygon fill="#795541" points="22,99.3 25.6,106.4 18.8,102.8 	"/>
	<polygon fill="#61463D" points="26.4,112 25.5,106.4 25.6,106.4 29.2,107.8 29.2,107.8 26.5,112.1 	"/>
	<polygon fill="#795541" points="25.6,106.5 25.5,106.4 21.9,99.3 22,99.2 29.2,107.8 29.1,107.9 	"/>
	<polygon fill="#966D59" points="22,99.3 28.7,89.5 24.3,89.1 	"/>
	<polygon fill="#8B664D" points="21.9,99.2 28.7,89.5 28.7,89.5 34.5,89.5 34.5,89.5 22,99.3 	"/>
	<polygon fill="#795541" points="29.1,107.9 21.9,99.3 22,99.2 31.5,105.2 31.5,105.3 29.2,107.9 	"/>
	<polygon fill="#8B664D" points="26.4,112.1 26.4,112 29.1,107.8 31.4,105.2 31.5,105.3 30.4,117.7 30.3,117.7 	"/>
	<polygon fill="#61463D" points="30.4,117.8 30.3,117.7 30.8,112 30.9,112 31.7,117.7 31.6,117.8 	"/>
	<polygon fill="#795541" points="31.6,117.7 30.8,112 30.9,112 33.2,120.7 33.1,120.8 	"/>
	<polygon fill="#795541" points="33.1,120.8 30.8,112 30.9,112 37.1,120 37.1,120.1 35.2,123.8 35.1,123.8 	"/>
	<polygon fill="#644334" points="30.8,112.1 30.9,112 39,113.9 39,113.9 37.1,120.1 37,120.1 	"/>
	<polygon fill="#80563C" points="30.9,112.1 30.8,112 31.4,105.2 31.5,105.2 39,113.9 39,113.9 	"/>
	<polygon fill="#91695C" points="39,113.9 31.4,105.3 31.5,105.2 44.5,112 44.5,112.1 40.7,114.9 40.7,114.9 	"/>
	<polygon fill="#795541" points="21.9,99.3 21.9,99.2 26.9,95.3 27,95.3 31.4,105.2 31.4,105.3 	"/>
	<polygon fill="#9E6B53" points="27,95.3 27,95.3 34.5,89.5 34.5,89.5 31.5,105.3 31.4,105.3 	"/>
	<polygon fill="#9F704C" points="31.4,105.2 34.5,89.5 34.5,89.5 45.9,90.3 45.9,90.4 31.5,105.3 	"/>
	<polygon fill="#746059" points="31.4,105.3 31.5,105.2 51.1,107.3 51.1,107.4 44.5,112.1 44.4,112.1 	"/>
	<polygon fill="#9A674E" points="31.4,105.2 45.8,90.3 45.9,90.4 46.2,101.3 46.2,101.3 31.5,105.3 	"/>
	<polygon fill="#644334" points="31.5,105.3 31.4,105.2 46.1,101.2 46.2,101.3 51.1,107.3 51.1,107.4 	"/>
	<polygon fill="#56301B" points="51.1,107.4 46.1,101.3 46.1,101.2 59.2,101.7 59.3,101.8 51.1,107.4 	"/>
	<polygon fill="#6F503C" points="46.1,101.3 46.1,101.2 62.7,96.8 62.7,96.9 59.3,101.8 59.2,101.8 	"/>
	<polygon fill="#935733" points="46.1,101.2 59.2,89.6 59.2,89.6 65.9,93.4 66,93.4 62.7,96.9 62.7,96.9 46.2,101.3 	"/>
	<polygon fill="#8E5948" points="46.1,101.3 45.8,90.4 45.9,90.3 51.1,90.3 59.2,89.6 59.3,89.6 46.2,101.3 	"/>
	<polygon fill="#8E5948" points="59.2,89.6 59.2,89.6 70.3,87.7 70.3,87.7 66,93.4 65.9,93.5 	"/>
	<polygon fill="#8B8F6D" points="5.2,86.8 4.6,86.6 4.6,82.3 4.7,82.3 8.2,86.8 8.2,86.8 	"/>
	<polygon fill="#63686B" points="4.5,86.6 4.4,86.5 8,86.5 12.6,89.4 12.6,89.5 	"/>
	<polygon fill="#3F4A51" points="12.6,89.5 8,86.6 8,86.5 24,89.8 24,89.9 	"/>
	<polygon fill="#3F4A51" points="24,89.9 8,86.6 8,86.5 38.6,89.8 38.6,89.9 	"/>
	<polygon fill="#545D63" points="47.8,90.8 38.6,89.9 38.6,89.9 38.6,89.8 38.6,89.8 57.1,89.8 57.1,89.8 57.2,89.9 57.1,89.9 
		47.8,90.8 	"/>
	<polygon fill="#3F4A51" points="56.1,89.1 72.5,85.8 72.6,85.9 68.4,88.5 56.1,89.1 	"/>
	<polygon fill="#3F4A51" points="65,87.3 72.5,83.7 72.6,83.7 72.6,85.9 72.5,85.9 65,87.4 	"/>
	<polygon fill="#5D605D" points="64.9,87.3 69.3,82.3 69.4,82.3 72.6,83.7 72.6,83.7 65,87.4 	"/>
	<polygon fill="#71755F" points="64.9,87.3 67.9,80.2 68,80.2 69.4,82.3 69.4,82.3 65,87.4 	"/>
	<polygon fill="#71755F" points="64.9,87.4 63.1,79.5 63.1,79.5 68,80.2 68,80.2 65,87.4 	"/>
	<polygon fill="#8D8869" points="55.7,78.4 55.7,78.4 63.1,79.5 63.1,79.5 65,87.4 64.9,87.4 	"/>
	<polygon fill="#7B7962" points="46.1,78 46.1,78 55.7,78.4 59.2,81.7 59.2,81.8 	"/>
	<polygon fill="#8F8B71" points="37.6,77.7 37.7,77.7 46.1,78 50.4,81.2 50.3,81.3 	"/>
	<polygon fill="#777A60" points="28.7,77.3 28.7,77.3 37.7,77.7 37.7,77.7 37.7,79.9 37.6,79.9 	"/>
	<polygon fill="#737366" points="22.5,79.5 22.5,79.5 28.7,77.3 28.7,77.3 30.4,80.2 30.4,80.2 	"/>
	<polygon fill="#8B8F6D" points="12.3,81.3 12.3,81.2 17.3,80.2 22.8,79.5 22.8,79.5 19.5,82.9 19.5,82.9 	"/>
	<polygon fill="#8B8F6D" points="4.6,82.3 4.6,81.8 4.6,81.7 8.7,83.7 8.7,83.8 8.2,86.6 7.9,86.5 	"/>
	<polygon fill="#8B8F6D" points="8,86.6 8,86.6 8.5,83.5 8.5,83.5 16,87.4 16,87.4 	"/>
	<polygon fill="#8B8F6D" points="8.7,83.8 8.7,83.7 12.3,81.2 12.3,81.3 16.3,87.6 16.2,87.7 	"/>
	<polygon fill="#737366" points="16.2,87.7 12.2,81.3 12.3,81.2 19.5,82.8 19.5,82.9 16.3,87.7 	"/>
	<polygon fill="#888367" points="19.3,82.9 22.9,79.3 30.4,80.2 30.4,80.2 19.3,82.9 	"/>
	<polygon fill="#6F6C67" points="16.2,87.7 16.2,87.6 19.5,82.9 19.5,82.9 24.6,88.4 24.6,88.5 	"/>
	<polygon fill="#8B8F6D" points="19.3,82.9 19.3,82.8 30.4,80.2 30.4,80.2 24.4,88.4 24.3,88.4 	"/>
	<polygon fill="#7B7962" points="30.4,80.2 28.7,77.3 28.7,77.3 37.7,79.9 37.7,79.9 30.4,80.2 	"/>
	<polygon fill="#A29176" points="37.7,79.9 37.6,79.9 37.6,77.7 37.7,77.7 50.4,81.2 50.3,81.3 	"/>
	<polygon fill="#A5A17E" points="50.3,81.3 46.1,78 46.1,78 59.2,81.7 59.2,81.8 	"/>
	<polygon fill="#988B79" points="50.3,81.3 50.3,81.2 59.2,81.7 65,87.3 65,87.4 	"/>
	<polygon fill="#7D7768" points="56.1,89.1 50.3,81.3 50.4,81.2 65,87.3 65,87.4 56.1,89.1 	"/>
	<polygon fill="#737366" points="46.1,89.7 46.1,89.7 50.3,81.2 50.4,81.2 56.2,89.1 56.2,89.1 56.1,89.2 56.1,89.2 46.1,89.7 	"/>
	<polygon fill="#747162" points="38.6,90 50.3,81.2 50.4,81.3 46.2,89.7 46.1,89.7 38.6,90.1 	"/>
	<polygon fill="#888367" points="38.6,90.1 37.6,79.9 37.7,79.9 50.4,81.2 50.4,81.3 38.6,90.1 	"/>
	<polygon fill="#8F8B71" points="30.4,80.2 30.4,80.2 37.7,79.9 37.7,79.9 38.6,90.1 38.6,90.1 	"/>
	<polygon fill="#7B7962" points="24.3,88.5 24.3,88.4 30.4,80.2 30.4,80.2 38.6,90.1 38.6,90.1 	"/>
	<polygon fill="#545D63" points="7.9,89.4 7.9,89.4 6.1,87.2 3.9,86.4 3.9,86.3 3.9,86.3 4,86.3 9.8,87.5 9.8,87.5 9.8,87.6 
		9.8,87.6 8,89.4 8,89.4 	"/>
	<polygon fill="#A5A17E" points="4.6,81.8 4.6,81.7 12.3,81.2 12.3,81.3 8.7,83.8 8.7,83.8 	"/>
	<polygon fill="#273B38" points="70.3,87.7 72.5,85.9 69.5,87.8 	"/>
	<polygon fill="#3B444D" points="38.6,90.1 38.6,90 68.4,88.4 68.4,88.5 56.7,90.1 	"/>
	<rect x="37.1" y="83.9" fill="#795541" width="1" height="2.2"/>
	<polygon fill="#37716B" points="37.1,84.8 35.5,84.8 37.6,78.5 39.4,84.8 	"/>
	<polygon fill="#61463D" points="38.1,86.1 38.5,85.6 38.5,84.8 38.1,84.8 	"/>
	<polygon fill="#273B38" points="39.4,84.8 40.4,83.8 37.6,78.5 	"/>
	<rect x="47.4" y="78.1" fill="#795541" width="0.7" height="1.6"/>
	<polygon fill="#37716B" points="47.4,78.7 46.3,78.7 47.8,74.3 49.1,78.7 	"/>
	<polygon fill="#61463D" points="48.1,79.7 48.4,79.3 48.4,78.7 48.1,78.7 	"/>
	<polygon fill="#273B38" points="49.1,78.7 49.8,78 47.8,74.3 	"/>
	<rect x="44.1" y="81.3" fill="#795541" width="0.6" height="1.3"/>
	<polygon fill="#37716B" points="44.1,81.8 43.1,81.8 44.4,78.1 45.5,81.8 	"/>
	<polygon fill="#61463D" points="44.7,82.6 45,82.3 45,81.8 44.7,81.8 	"/>
	<polygon fill="#273B38" points="45.5,81.8 46.1,81.2 44.4,78.1 	"/>
	<rect x="52.1" y="78.8" fill="#795541" width="0.7" height="1.6"/>
	<polygon fill="#37716B" points="52.1,79.4 50.9,79.4 52.5,75 53.8,79.4 	"/>
	<polygon fill="#61463D" points="52.8,80.3 53.1,80 53.1,79.4 52.8,79.4 	"/>
	<polygon fill="#273B38" points="53.8,79.4 54.4,78.7 52.5,75 	"/>
	<rect x="56.6" y="79.7" fill="#795541" width="0.7" height="1.6"/>
	<polygon fill="#37716B" points="56.6,80.3 55.4,80.3 56.9,75.9 58.2,80.3 	"/>
	<polygon fill="#61463D" points="57.2,81.2 57.6,80.9 57.6,80.3 57.2,80.3 	"/>
	<polygon fill="#273B38" points="58.2,80.3 58.9,79.6 56.9,75.9 	"/>
	<rect x="39.7" y="79.5" fill="#795541" width="0.7" height="1.6"/>
	<polygon fill="#37716B" points="39.7,80.1 38.6,80.1 40.1,75.7 41.4,80.1 	"/>
	<polygon fill="#61463D" points="40.4,81 40.7,80.7 40.7,80.1 40.4,80.1 	"/>
	<polygon fill="#273B38" points="41.4,80.1 42.1,79.4 40.1,75.7 	"/>
	<rect x="28.6" y="78.4" fill="#795541" width="0.7" height="1.6"/>
	<polygon fill="#37716B" points="28.6,79 27.5,79 29,74.6 30.3,79 	"/>
	<polygon fill="#61463D" points="29.3,80 29.6,79.6 29.6,79 29.3,79 	"/>
	<polygon fill="#273B38" points="30.3,79 31,78.3 29,74.6 	"/>
	<rect x="24.3" y="80.6" fill="#795541" width="0.7" height="1.6"/>
	<polygon fill="#37716B" points="24.3,81.2 23.1,81.2 24.6,76.8 25.9,81.2 	"/>
	<polygon fill="#61463D" points="24.9,82.1 25.3,81.8 25.3,81.2 24.9,81.2 	"/>
	<polygon fill="#273B38" points="25.9,81.2 26.6,80.5 24.6,76.8 	"/>
	<rect x="19.8" y="78.8" fill="#795541" width="0.7" height="1.6"/>
	<polygon fill="#37716B" points="19.8,79.4 18.7,79.4 20.2,75 21.5,79.4 	"/>
	<polygon fill="#61463D" points="20.5,80.3 20.8,80 20.8,79.4 20.5,79.4 	"/>
	<polygon fill="#273B38" points="21.5,79.4 22.2,78.7 20.2,75 	"/>
	<rect x="32.3" y="77.7" fill="#795541" width="0.5" height="1.1"/>
	<polygon fill="#37716B" points="32,78.4 31.4,78.4 32.2,76 32.9,78.4 	"/>
	<polygon fill="#61463D" points="32.4,78.9 32.6,78.7 32.6,78.4 32.4,78.4 	"/>
	<polygon fill="#273B38" points="32.9,78.4 33.3,78 32.2,76 	"/>
	<rect x="36.7" y="77.7" fill="#795541" width="0.5" height="1.1"/>
	<polygon fill="#37716B" points="36.7,78.2 35.9,78.2 37,75 37.9,78.2 	"/>
	<polygon fill="#61463D" points="37.2,78.9 37.4,78.6 37.4,78.2 37.2,78.2 	"/>
	<polygon fill="#273B38" points="37.9,78.2 38.4,77.7 37,75 	"/>
	<rect x="60.6" y="79" fill="#795541" width="0.4" height="1"/>
	<polygon fill="#37716B" points="60.6,79.4 59.9,79.4 60.9,76.6 61.7,79.4 	"/>
	<polygon fill="#61463D" points="61.1,80 61.3,79.8 61.3,79.4 61.1,79.4 	"/>
	<polygon fill="#273B38" points="61.7,79.4 62.1,79 60.9,76.6 	"/>
	<rect x="42.5" y="77.9" fill="#795541" width="0.3" height="0.6"/>
	<polygon fill="#37716B" points="42.5,78.1 42.1,78.1 42.6,76.5 43.1,78.1 	"/>
	<polygon fill="#61463D" points="42.8,78.5 42.9,78.4 42.9,78.1 42.8,78.1 	"/>
	<polygon fill="#273B38" points="43.1,78.1 43.4,77.9 42.6,76.5 	"/>
	<rect x="33.9" y="80.5" fill="#795541" width="0.8" height="1.8"/>
	<polygon fill="#37716B" points="33.9,81.2 32.5,81.2 34.3,76 35.8,81.2 	"/>
	<polygon fill="#61463D" points="34.7,82.3 35.1,81.9 35.1,81.2 34.7,81.2 	"/>
	<polygon fill="#273B38" points="35.8,81.2 36.6,80.4 34.3,76 	"/>
</g>
</svg>
