<?xml version="1.0" encoding="utf-8"?>
<!-- Generator: Adobe Illustrator 18.0.0, SVG Export Plug-In . SVG Version: 6.00 Build 0)  -->
<!DOCTYPE svg PUBLIC "-//W3C//DTD SVG 1.1//EN" "http://www.w3.org/Graphics/SVG/1.1/DTD/svg11.dtd">
<svg version="1.1" id="Layer_3" xmlns="http://www.w3.org/2000/svg" xmlns:xlink="http://www.w3.org/1999/xlink" x="0px" y="0px"
	 viewBox="3.6 247.7 1465.8 249.3" enable-background="new 3.6 247.7 1465.8 249.3" xml:space="preserve">
<polygon fill="#293033" points="3.6,453.8 163.6,374.9 163.7,375 163.7,417.9 163.6,417.9 3.6,453.8 "/>
<polygon fill="#293033" points="3.6,453.8 163.6,417.9 163.6,375 "/>
<polygon fill="#323335" points="163.6,417.9 163.6,375 196.6,352 196.6,352 221,374.9 221,375 163.6,417.9 "/>
<polygon fill="#323335" points="163.6,375 196.6,352 221,375 163.6,417.9 "/>
<polygon fill="#181D20" points="163.6,417.9 163.6,417.8 221,374.9 238.5,363.9 238.6,364 249.6,417.9 249.6,417.9 "/>
<polygon fill="#181D20" points="221,375 238.6,364 249.6,417.9 163.6,417.9 "/>
<polygon fill="#262425" points="238.5,364 238.5,352 238.6,352 263.5,346 263.6,346 249.6,417.9 249.5,417.9 "/>
<polygon fill="#262425" points="238.6,364 238.6,352 263.5,346 249.6,417.9 "/>
<polygon fill="#16171B" points="494.4,391 494.4,390.9 552.3,332 552.4,332 582.3,402.9 582.3,402.9 "/>
<polygon fill="#16171B" points="494.4,390.9 582.3,402.9 552.3,332 "/>
<polygon fill="none" points="893,322.1 885.6,264.3 885.6,264.2 944,267.2 944.1,267.2 893.1,322.1 "/>
<polygon fill="none" points="885.6,264.2 944,267.2 893.1,322.1 "/>
<polygon fill="#121314" points="893.1,322 944,267.2 944.1,267.2 967,286.1 967,286.1 893.1,322.1 "/>
<polygon fill="#121314" points="944,267.2 967,286.1 893.1,322.1 "/>
<polygon fill="#121314" points="893.1,322 967,286.1 989,286.1 989,286.2 893.1,322.1 "/>
<polygon fill="#121314" points="967,286.1 989,286.1 893.1,322.1 "/>
<polygon fill="#1D1E20" points="893.1,322 989,286.1 989,286.1 1003,315 1003,315.1 893.1,322.1 "/>
<polygon fill="#1D1E20" points="989,286.1 1003,315.1 893.1,322.1 "/>
<polygon fill="#171C1B" points="893.1,322.1 893.1,322 1003,315 1021,337.7 1021,337.8 "/>
<polygon fill="#171C1B" points="1003,315.1 1021,337.8 893.1,322.1 "/>
<polygon fill="#1D1C1A" points="893.1,322.1 893.1,322 1021,337.7 1042,374.9 1042,375 "/>
<polygon fill="#1D1C1A" points="1021,337.8 1042,375 893.1,322.1 "/>
<polygon fill="#2D2D2D" points="957,417.9 893,322.1 893.1,322 1042,374.9 1042,375 957,417.9 "/>
<polygon fill="#2D2D2D" points="893.1,322.1 957,417.9 1042,375 "/>
<polygon fill="#302E2F" points="957,417.9 957,417.8 1042,374.9 1042,375 1042,425.9 1042,425.9 "/>
<polygon fill="#302E2F" points="957,417.9 1042,425.9 1042,375 "/>
<polygon fill="#C94527" points="1031.6,466.8 1041.9,425.8 1042,425.8 1093.6,430.2 1093.6,430.3 1031.7,466.8 "/>
<polygon fill="#C94527" points="1042,425.9 1093.6,430.2 1031.7,466.8 "/>
<polygon fill="#D24B27" points="1031.7,466.9 1031.7,466.8 1107.6,446.3 1107.6,446.3 1105,466.8 1104.9,466.9 "/>
<polygon fill="#D24B27" points="1031.7,466.8 1104.9,466.8 1107.6,446.3 "/>
<polygon fill="#C84327" points="1031.6,466.8 1093.6,430.2 1093.6,430.2 1107.6,446.3 1107.6,446.4 1031.7,466.9 "/>
<polygon fill="#C84327" points="1031.7,466.8 1107.6,446.3 1093.6,430.2 "/>
<polygon fill="#E15A26" points="1104.9,466.8 1107.6,446.3 1107.6,446.3 1130.9,446.3 1130.9,446.4 1105,466.8 "/>
<polygon fill="#E15A26" points="1107.6,446.3 1130.9,446.3 1104.9,466.8 "/>
<polygon fill="#373938" points="957,417.9 957,417.8 1042,425.8 1042,425.9 1031.7,466.8 1031.6,466.8 "/>
<polygon fill="#373938" points="1031.7,466.8 957,417.9 1042,425.9 "/>
<polygon fill="#D14A27" points="1042,425.9 1041.9,425.9 1041.9,375 1042,374.9 1093.6,430.2 1093.6,430.3 "/>
<polygon fill="#D14A27" points="1093.6,430.2 1042,425.9 1042,375 "/>
<polygon fill="#FCBA4C" points="111.7,352 93.4,330.1 93.4,330 137.7,353 137.6,353 "/>
<polygon fill="#FCBA4C" points="93.4,330.1 137.6,353 111.7,352 "/>
<polygon fill="#FCBA4C" points="93.4,330.1 93.4,330 160.3,330 160.3,330.1 137.7,353 137.6,353 "/>
<polygon fill="#FCBA4C" points="93.4,330.1 160.3,330.1 137.6,353 "/>
<polygon fill="#E15427" points="163.6,330.1 163.6,330 209.3,332 209.3,332.1 196.6,352 196.6,352 "/>
<polygon fill="#E15427" points="163.6,330.1 209.3,332 196.6,352 "/>
<polygon fill="#E85D27" points="209.2,332.1 209.3,332 263.5,330 263.6,330.1 263.6,346 263.5,346 "/>
<polygon fill="#E85D27" points="209.3,332 263.5,330.1 263.5,346 "/>
<polygon fill="#F3763D" points="221,375 209.2,332 209.3,332 238.6,363.9 238.6,364 221,375 "/>
<polygon fill="#F3763D" points="209.3,332 221,375 238.6,364 "/>
<polygon fill="#F47F32" points="238.5,352 209.2,332.1 209.3,332 263.6,346 263.6,346 238.6,352 "/>
<polygon fill="#F47F32" points="209.3,332 263.5,346 238.6,352 "/>
<polygon fill="#FBBC51" points="209.2,332.1 209.3,332 238.6,352 238.6,364 238.5,364 "/>
<polygon fill="#FBBC51" points="209.3,332 238.6,352 238.6,364 "/>
<polygon fill="#E25B28" points="196.6,352 196.6,352 209.2,332 209.3,332 221.1,374.9 221,375 "/>
<polygon fill="#E25B28" points="209.3,332 196.6,352 221,375 "/>
<polygon fill="#ED5E2C" points="163.6,375 160.3,330.1 160.3,330 163.6,330 196.6,352 196.6,352 163.6,375 "/>
<polygon fill="#ED5E2C" points="160.3,330.1 163.6,330.1 196.6,352 163.6,375 "/>
<polygon fill="#D14D27" points="137.6,353 137.6,353 160.3,330 160.3,330.1 163.7,374.9 163.6,375 "/>
<polygon fill="#D14D27" points="160.3,330.1 137.6,353 163.6,375 "/>
<polygon fill="#F27237" points="1107.6,446.4 1107.6,446.3 1135.5,356.4 1135.6,356.4 1131,446.3 1130.9,446.4 "/>
<polygon fill="#F27237" points="1135.6,356.4 1130.9,446.3 1107.6,446.3 "/>
<polygon fill="#D64F27" points="1041.9,375 1042,374.9 1135.6,356.3 1135.6,356.4 1107.6,446.3 1107.6,446.4 "/>
<polygon fill="#D64F27" points="1135.6,356.4 1042,375 1107.6,446.3 "/>
<polygon fill="#D95227" points="1130.9,446.4 1135.5,356.4 1135.6,356.4 1157.9,472.8 1157.9,472.9 "/>
<polygon fill="#D95227" points="1135.6,356.4 1157.9,472.8 1130.9,446.3 "/>
<polygon fill="#D34E27" points="1157.9,472.8 1135.5,356.4 1135.6,356.3 1194,326.4 1194.1,326.4 1157.9,472.8 "/>
<polygon fill="#D34E27" points="1194,326.4 1157.9,472.8 1135.6,356.4 "/>
<polygon fill="#F8DB64" points="1157.9,472.8 1194,326.4 1194.1,326.4 1234.9,408.3 1234.8,408.3 1165.6,466.8 1157.9,472.9 "/>
<polygon fill="#F8DB64" points="1194,326.4 1234.8,408.3 1165.6,466.8 1157.9,472.8 "/>
<polygon fill="#F26D34" points="1194,326.4 1194,326.4 1248.3,326.4 1248.4,326.4 1234.9,408.3 1234.8,408.3 "/>
<polygon fill="#F26D34" points="1234.8,408.3 1248.3,326.4 1194,326.4 "/>
<polygon fill="#F37832" points="1344.2,322.1 1309.2,276.2 1309.3,276.2 1415.2,288.7 1415.2,288.7 1344.2,322.1 "/>
<polygon fill="#F37832" points="1415.2,288.7 1344.2,322.1 1309.3,276.2 "/>
<polygon fill="#F48134" points="1248.1,326.4 1309.2,276.2 1309.2,276.2 1344.3,322 1344.2,322.1 1248.1,326.5 "/>
<polygon fill="#F48134" points="1344.2,322.1 1248.1,326.4 1309.2,276.2 "/>
<polygon fill="#F1682D" points="1234.8,408.3 1248.3,326.4 1248.3,326.4 1344.2,322 1344.3,322.1 1234.8,408.3 "/>
<polygon fill="#F1682D" points="1234.8,408.3 1344.2,322.1 1248.3,326.4 "/>
<polygon fill="#F9A943" points="1234.8,408.3 1234.8,408.2 1344.2,322 1344.3,322.1 1339.8,417.4 1339.7,417.5 "/>
<polygon fill="#F9A943" points="1234.8,408.3 1339.7,417.4 1344.2,322.1 "/>
<polygon fill="#F9C95C" points="1339.7,417.4 1344.2,322 1344.2,322 1427,322 1427.1,322.1 1339.8,417.5 "/>
<polygon fill="#F9C95C" points="1339.7,417.4 1427,322.1 1344.2,322.1 "/>
<polygon fill="#F16934" points="1344.2,322.1 1344.2,322 1415.2,288.7 1415.2,288.7 1427.1,322 1427,322.1 "/>
<polygon fill="#F16934" points="1427,322.1 1415.2,288.7 1344.2,322.1 "/>
<polygon fill="#DA532A" points="1427,322.1 1415.1,288.7 1415.2,288.7 1469.3,255.7 1469.4,255.8 1427.1,322.1 "/>
<polygon fill="#DA532A" points="1427,322.1 1469.4,255.8 1415.2,288.7 "/>
<polygon fill="#DE552A" points="1427,322.1 1427,322 1469.3,255.7 1469.4,255.8 1469.4,330.6 1469.3,330.6 "/>
<polygon fill="#DE552A" points="1469.4,255.8 1469.4,330.6 1427,322.1 "/>
<polygon fill="#F48132" points="1427,322.1 1427,322 1469.4,330.6 1469.4,330.6 1469.4,387.5 1469.3,387.5 "/>
<polygon fill="#F48132" points="1469.4,330.6 1469.4,387.5 1427,322.1 "/>
<polygon fill="#F2703A" points="1339.7,417.4 1427,322 1427.1,322 1469.4,387.5 1469.4,387.5 1339.7,417.5 "/>
<polygon fill="#F2703A" points="1469.4,387.5 1339.7,417.4 1427,322.1 "/>
<polygon fill="#D34C28" points="1339.7,417.5 1339.7,417.4 1469.3,387.5 1469.4,387.5 1440.2,468.8 1440.1,468.9 "/>
<polygon fill="#D34C28" points="1339.7,417.4 1469.4,387.5 1440.1,468.8 "/>
<polygon fill="#C94427" points="1440.1,468.8 1469.3,387.5 1469.4,387.5 1469.4,459.9 1469.4,459.9 1440.2,468.9 "/>
<polygon fill="#C94427" points="1440.1,468.8 1469.4,459.9 1469.4,387.5 "/>
<polygon fill="#F5852D" points="1175.8,492.8 1171.1,481.9 1165.5,466.8 1165.5,466.8 1234.8,408.2 1234.9,408.3 1188.9,488.8 
	1175.9,492.8 "/>
<polygon fill="#F5852D" points="1234.8,408.3 1188.9,488.8 1175.9,492.8 1171.1,481.9 1165.6,466.8 "/>
<polygon fill="#21201F" points="660.3,402.9 660.2,402.9 893.1,322 893.1,322 957.1,417.9 957,417.9 "/>
<polygon fill="#21201F" points="660.3,402.9 957,417.9 893.1,322.1 "/>
<polygon fill="#161618" points="538.3,468.9 494.3,390.9 494.4,390.9 582.3,402.9 582.3,402.9 538.4,468.9 "/>
<polygon fill="#161618" points="494.4,390.9 538.3,468.8 582.3,402.9 "/>
<polygon fill="#161618" points="538.3,468.8 582.3,402.9 660.3,402.9 660.3,402.9 538.4,468.9 "/>
<polygon fill="#161618" points="538.3,468.8 660.3,402.9 582.3,402.9 "/>
<polygon fill="#212221" points="424.8,468.9 424.8,468.8 494.3,390.9 494.4,390.9 538.4,468.8 538.3,468.9 "/>
<polygon fill="#212221" points="494.4,390.9 424.8,468.8 538.3,468.8 "/>
<polygon fill="#202427" points="375.7,327.3 375.7,327.3 411.3,318.9 411.4,318.9 397.6,342 397.5,342 "/>
<polygon fill="#202427" points="411.3,318.9 397.5,342 375.7,327.3 "/>
<polygon fill="#141918" points="397.5,342 411.3,318.9 411.3,318.9 452.6,327.3 452.6,327.3 397.5,342 "/>
<polygon fill="#141918" points="452.6,327.3 397.5,342 411.3,318.9 "/>
<polygon fill="#1D2225" points="366.1,344.4 375.7,327.3 375.7,327.3 397.6,342 397.5,342 366.1,344.4 "/>
<polygon fill="#1D2225" points="397.5,342 366.1,344.4 375.7,327.3 "/>
<polygon fill="#1B1D1F" points="345.1,324.5 345.1,324.4 375.7,327.3 375.8,327.3 366.1,344.4 366.1,344.4 "/>
<polygon fill="#1B1D1F" points="366.1,344.4 345.1,324.4 375.7,327.3 "/>
<polygon fill="#161A1C" points="324.5,347 345.1,324.4 345.2,324.4 366.1,344.4 366.1,344.4 324.5,347.1 "/>
<polygon fill="#161A1C" points="366.1,344.4 324.5,347.1 345.1,324.4 "/>
<polygon fill="#1B1B1C" points="294.3,330.1 294.3,330 345.1,324.4 345.2,324.5 324.5,347.1 324.5,347.1 "/>
<polygon fill="#1B1B1C" points="324.5,347.1 294.3,330.1 345.1,324.4 "/>
<polygon fill="#13171A" points="291.4,352 294.3,330.1 294.3,330 324.5,347 324.5,347.1 291.4,352 "/>
<polygon fill="#13171A" points="324.5,347.1 291.4,352 294.3,330.1 "/>
<polygon fill="#E15A27" points="263.5,330.1 263.5,330 294.3,330 294.3,330.1 291.4,352 291.4,352 "/>
<polygon fill="#E15A27" points="291.4,352 263.5,330.1 294.3,330.1 "/>
<polygon fill="#F9A94B" points="263.5,346 263.5,346 263.5,330.1 263.6,330 291.4,352 291.4,352 "/>
<polygon fill="#F9A94B" points="291.4,352 263.5,346 263.5,330.1 "/>
<polygon fill="#161B1F" points="249.5,417.9 263.5,346 263.6,346 291.4,352 291.4,352 249.6,417.9 "/>
<polygon fill="#161B1F" points="291.4,352 249.6,417.9 263.5,346 "/>
<polygon fill="#121518" points="291.4,352 291.4,352 324.5,347 324.5,347.1 309.6,370.9 309.6,370.9 "/>
<polygon fill="#121518" points="291.4,352 309.6,370.8 324.5,347.1 "/>
<polygon fill="#1D1E20" points="249.5,417.9 291.4,352 291.4,352 309.6,370.8 309.6,370.9 249.6,417.9 "/>
<polygon fill="#1D1E20" points="309.6,370.8 249.6,417.9 291.4,352 "/>
<polygon fill="#181A1C" points="309.6,370.9 309.6,370.8 324.5,347 324.5,347 337.2,374.9 337.2,375 "/>
<polygon fill="#181A1C" points="309.6,370.8 337.2,375 324.5,347.1 "/>
<polygon fill="#19191B" points="337.2,375 324.5,347.1 324.5,347 366.1,344.4 366.1,344.4 337.2,375 "/>
<polygon fill="#19191B" points="337.2,375 366.1,344.4 324.5,347.1 "/>
<polygon fill="#19191B" points="337.2,374.9 366.1,344.4 366.1,344.4 376.6,367.5 376.6,367.5 337.2,375 "/>
<polygon fill="#19191B" points="337.2,375 376.5,367.5 366.1,344.4 "/>
<polygon fill="#2C2C2E" points="376.5,367.5 366.1,344.4 366.1,344.4 397.5,342 397.6,342 376.6,367.5 "/>
<polygon fill="#2C2C2E" points="376.5,367.5 397.5,342 366.1,344.4 "/>
<polygon fill="#11181A" points="376.5,367.4 397.5,342 397.6,342 421.6,361 421.6,361 376.5,367.5 "/>
<polygon fill="#11181A" points="376.5,367.5 421.6,361 397.5,342 "/>
<polygon fill="#1B1B1D" points="397.5,342 397.5,342 452.6,327.3 452.6,327.3 421.6,361 421.5,361 "/>
<polygon fill="#1B1B1D" points="421.6,361 452.6,327.3 397.5,342 "/>
<polygon fill="#111819" points="421.5,361 452.6,327.3 452.6,327.3 469.4,346 469.4,346 421.6,361 "/>
<polygon fill="#111819" points="421.6,361 469.4,346 452.6,327.3 "/>
<polygon fill="#2C2C2C" points="249.6,417.9 249.5,417.8 337.2,374.9 337.2,375 315,420.9 314.9,421 "/>
<polygon fill="#2C2C2C" points="337.2,375 314.9,420.9 249.6,417.9 "/>
<polygon fill="#19191B" points="249.5,417.8 309.6,370.8 337.2,374.9 337.2,375 249.6,417.9 "/>
<polygon fill="#19191B" points="337.2,375 249.6,417.9 309.6,370.8 "/>
<polygon fill="#2A2A2A" points="314.9,420.9 337.2,374.9 376.5,367.4 376.6,367.5 315,421 "/>
<polygon fill="#2A2A2A" points="314.9,420.9 376.5,367.5 337.2,375 "/>
<polygon fill="#464843" points="314.9,420.9 376.5,367.4 376.6,367.5 376.6,402.9 376.6,402.9 315,421 "/>
<polygon fill="#464843" points="314.9,420.9 376.5,402.9 376.5,367.5 "/>
<polygon fill="#212327" points="376.5,402.9 376.5,367.5 376.5,367.4 421.6,361 421.6,361 376.6,402.9 "/>
<polygon fill="#212327" points="376.5,402.9 421.6,361 376.5,367.5 "/>
<polygon fill="#37383A" points="376.5,402.9 421.5,361 421.6,361 437.6,384.9 437.6,385 376.6,402.9 "/>
<polygon fill="#37383A" points="376.5,402.9 437.6,384.9 421.6,361 "/>
<polygon fill="#202528" points="437.6,385 421.5,361 421.6,361 469.4,346 469.4,346 437.6,385 "/>
<polygon fill="#202528" points="437.6,384.9 469.4,346 421.6,361 "/>
<polygon fill="#262626" points="437.6,385 437.6,384.9 469.4,346 469.4,346 494.4,390.9 494.4,391 "/>
<polygon fill="#262626" points="437.6,384.9 494.4,390.9 469.4,346 "/>
<polygon fill="#212221" points="469.4,346 469.4,346 497.5,352.5 497.5,352.5 494.4,390.9 494.3,390.9 "/>
<polygon fill="#212221" points="469.4,346 497.5,352.5 494.4,390.9 "/>
<polygon fill="#1B1B1D" points="469.4,346 469.4,346 479.3,332 479.3,332 497.5,352.5 497.5,352.5 "/>
<polygon fill="#1B1B1D" points="497.5,352.5 479.3,332 469.4,346 "/>
<polygon fill="#1F1F1F" points="469.4,346 472.4,322 472.4,322 479.3,332 479.3,332.1 469.4,346 "/>
<polygon fill="#1F1F1F" points="479.3,332 472.4,322.1 469.4,346 "/>
<polygon fill="#121619" points="452.6,327.3 452.6,327.3 472.4,322 472.4,322.1 469.4,346 469.4,346 "/>
<polygon fill="#121619" points="472.4,322.1 452.6,327.3 469.4,346 "/>
<polygon fill="#DA5328" points="479.3,332.1 472.4,322.1 472.4,322 487.4,332 487.4,332.1 "/>
<polygon fill="#DA5328" points="472.4,322.1 479.3,332 487.4,332 "/>
<polygon fill="#111517" points="487.3,332 487.4,332 502.1,338.5 502.2,338.5 497.5,352.5 497.5,352.5 "/>
<polygon fill="#111517" points="487.4,332 502.1,338.5 497.5,352.5 "/>
<polygon fill="#111517" points="479.3,332.1 479.3,332 487.4,332 487.4,332 497.5,352.5 497.5,352.5 "/>
<polygon fill="#111517" points="487.4,332 479.3,332 497.5,352.5 "/>
<polygon fill="#13171A" points="502.1,338.5 487.4,332.1 487.4,332 552.3,332 552.3,332.1 502.1,338.5 "/>
<polygon fill="#13171A" points="552.3,332 502.1,338.5 487.4,332 "/>
<polygon fill="#121517" points="497.5,352.5 502.1,338.5 502.1,338.5 552.3,332 552.3,332.1 497.5,352.5 "/>
<polygon fill="#121517" points="552.3,332 497.5,352.5 502.1,338.5 "/>
<polygon fill="#202022" points="494.3,390.9 497.5,352.5 497.5,352.5 516.5,359.7 516.5,359.7 494.4,390.9 "/>
<polygon fill="#202022" points="497.5,352.5 516.4,359.7 494.4,390.9 "/>
<polygon fill="#121517" points="497.5,352.5 497.5,352.5 552.3,332 552.4,332.1 516.5,359.7 516.4,359.7 "/>
<polygon fill="#121517" points="516.4,359.7 552.3,332 497.5,352.5 "/>
<polygon fill="#181A1C" points="494.3,390.9 516.4,359.7 552.3,332 552.4,332.1 494.4,390.9 "/>
<polygon fill="#181A1C" points="516.4,359.7 494.4,390.9 552.3,332 "/>
<polygon fill="#E85C29" points="472.4,322.1 472.4,322 479.3,320.4 479.3,320.4 487.4,332 487.4,332.1 "/>
<polygon fill="#E85C29" points="479.3,320.4 487.4,332 472.4,322.1 "/>
<polygon fill="#F05826" points="487.4,332.1 479.3,320.4 479.3,320.4 503.4,318.9 503.5,318.9 487.4,332.1 "/>
<polygon fill="#F05826" points="487.4,332 503.4,318.9 479.3,320.4 "/>
<polygon fill="#F0B545" points="487.4,332.1 487.4,332 503.4,318.9 552.3,332 552.3,332.1 "/>
<polygon fill="#F0B545" points="503.4,318.9 552.3,332 487.4,332 "/>
<polygon fill="#FFD95C" points="479.3,320.4 512.9,297.6 513,297.7 503.5,318.9 503.5,318.9 479.3,320.4 "/>
<polygon fill="#FFD95C" points="503.4,318.9 512.9,297.7 479.3,320.4 "/>
<polygon fill="#F58A38" points="503.4,318.9 503.4,318.9 512.9,297.6 513,297.6 552.4,332 552.3,332.1 "/>
<polygon fill="#F58A38" points="512.9,297.7 552.3,332 503.4,318.9 "/>
<polygon fill="#F79743" points="512.9,297.7 512.9,297.6 548.4,299.8 548.4,299.8 552.4,332 552.3,332.1 "/>
<polygon fill="#F79743" points="512.9,297.7 548.4,299.8 552.3,332 "/>
<polygon fill="#F69141" points="548.4,299.8 548.4,299.8 561.7,293.6 561.8,293.6 565.3,306 565.2,306.1 "/>
<polygon fill="#F69141" points="561.7,293.7 565.2,306 548.4,299.8 "/>
<polygon fill="#E65329" points="552.3,332 548.4,299.8 548.4,299.8 565.2,306 565.3,306 552.4,332 "/>
<polygon fill="#E65329" points="565.2,306 552.3,332 548.4,299.8 "/>
<polygon fill="#F58B3A" points="552.3,332 565.2,306 565.3,306 579.9,317.1 579.9,317.1 552.3,332.1 "/>
<polygon fill="#F58B3A" points="565.2,306 579.9,317.1 552.3,332 "/>
<polygon fill="#F9A646" points="565.2,306.1 565.2,306 582.3,296.1 582.3,296.2 579.9,317.1 579.9,317.1 "/>
<polygon fill="#F9A646" points="579.9,317.1 582.3,296.2 565.2,306 "/>
<polygon fill="#F6913E" points="565.2,306 561.7,293.7 561.7,293.6 582.3,296.1 582.3,296.2 565.2,306.1 "/>
<polygon fill="#F6913E" points="582.3,296.2 561.7,293.7 565.2,306 "/>
<polygon fill="#DA522A" points="579.8,317.1 582.3,296.2 582.3,296.1 623.5,282.8 623.5,282.9 579.9,317.1 "/>
<polygon fill="#DA522A" points="623.5,282.8 579.9,317.1 582.3,296.2 "/>
<polygon fill="#16171B" points="552.3,332 552.3,332 579.9,317.1 579.9,317.1 582.3,402.9 582.3,402.9 "/>
<polygon fill="#16171B" points="579.9,317.1 582.3,402.9 552.3,332 "/>
<polygon fill="#F16A32" points="623.5,282.9 623.5,282.8 652.6,270.5 652.7,270.5 648.8,290 648.8,290 "/>
<polygon fill="#F16A32" points="623.5,282.8 648.8,290 652.7,270.5 "/>
<polygon fill="#D64C28" points="601.7,317.1 623.5,282.8 623.5,282.8 648.8,290 648.8,290 601.7,317.1 "/>
<polygon fill="#D64C28" points="648.8,290 601.7,317.1 623.5,282.8 "/>
<polygon fill="#D75127" points="579.9,317.1 579.9,317.1 623.5,282.8 623.5,282.9 601.7,317.1 601.7,317.1 "/>
<polygon fill="#D75127" points="601.7,317.1 579.9,317.1 623.5,282.8 "/>
<polygon fill="#2A3030" points="601.7,317.1 601.7,317.1 648.7,290 648.8,290 656,320.3 656,320.3 "/>
<polygon fill="#2A3030" points="601.7,317.1 656,320.3 648.8,290 "/>
<polygon fill="#15191C" points="656,320.3 648.7,290 648.7,290 680.2,272.6 680.3,272.7 656,320.3 "/>
<polygon fill="#15191C" points="656,320.3 680.2,272.6 648.8,290 "/>
<polygon fill="#EF712F" points="648.7,290 652.6,270.5 652.7,270.5 680.2,272.6 680.3,272.7 648.8,290 "/>
<polygon fill="#EF712F" points="648.8,290 652.7,270.5 680.2,272.6 "/>
<polygon fill="#161616" points="582.3,402.9 579.8,317.1 579.9,317.1 631.7,374 631.7,374 582.3,402.9 "/>
<polygon fill="#161616" points="582.3,402.9 631.7,374 579.9,317.1 "/>
<polygon fill="#2A3030" points="601.7,317.1 601.7,317.1 656,320.2 656,320.3 631.7,374 631.6,374 "/>
<polygon fill="#2A3030" points="631.7,374 656,320.3 601.7,317.1 "/>
<polygon fill="#0C0D0D" points="579.9,317.1 579.9,317.1 601.7,317.1 601.7,317.1 631.7,374 631.6,374 "/>
<polygon fill="#0C0D0D" points="631.7,374 579.9,317.1 601.7,317.1 "/>
<polygon fill="#4E4C4D" points="664.5,326.2 680.2,272.6 680.3,272.6 695.9,315.1 695.8,315.1 664.5,326.3 "/>
<polygon fill="#4E4C4D" points="680.2,272.6 695.8,315.1 664.5,326.2 "/>
<polygon fill="#101313" points="631.6,374 656,320.3 656,320.2 664.5,326.2 664.5,326.2 631.7,374 "/>
<polygon fill="#101313" points="664.5,326.2 631.7,374 656,320.3 "/>
<polygon fill="#4E4C4D" points="656,320.3 656,320.3 680.2,272.6 680.3,272.7 664.5,326.2 664.5,326.2 "/>
<polygon fill="#4E4C4D" points="664.5,326.2 680.2,272.6 656,320.3 "/>
<polygon fill="#14181B" points="695.8,315.1 680.2,272.7 680.2,272.6 765.2,267.2 765.2,267.2 695.8,315.1 "/>
<polygon fill="#14181B" points="695.8,315.1 765.2,267.2 680.2,272.6 "/>
<polygon fill="#121517" points="660.2,402.9 695.8,315.1 765.2,267.2 765.3,267.2 660.3,402.9 "/>
<polygon fill="#121517" points="765.2,267.2 660.3,402.9 695.8,315.1 "/>
<polygon fill="#141615" points="660.2,402.9 664.5,326.2 664.5,326.2 695.8,315 695.9,315.1 660.3,402.9 "/>
<polygon fill="#141615" points="660.3,402.9 664.5,326.2 695.8,315.1 "/>
<polygon fill="#333D3E" points="631.6,374 631.6,374 664.5,326.2 664.5,326.2 660.3,402.9 660.2,402.9 "/>
<polygon fill="#333D3E" points="660.3,402.9 631.7,374 664.5,326.2 "/>
<polygon fill="#141918" points="582.3,402.9 582.3,402.9 631.7,374 631.7,374 660.3,402.9 660.3,402.9 "/>
<polygon fill="#141918" points="582.3,402.9 660.3,402.9 631.7,374 "/>
<polygon fill="#1F2120" points="844.5,283.6 844.5,283.6 869.6,247.8 869.7,247.8 893.1,322 893.1,322.1 "/>
<polygon fill="#1F2120" points="844.5,283.6 893.1,322.1 869.7,247.8 "/>
<polygon fill="#13171A" points="660.2,402.9 765.2,267.2 765.3,267.2 757.2,337.8 660.3,402.9 "/>
<polygon fill="#13171A" points="660.3,402.9 757.2,337.8 765.2,267.2 "/>
<polygon fill="#3C3C3E" points="757.1,337.8 765.2,267.2 765.2,267.2 844.5,283.6 844.5,283.6 757.2,337.8 "/>
<polygon fill="#3C3C3E" points="757.2,337.8 844.5,283.6 765.2,267.2 "/>
<polygon fill="#2B2B2D" points="757.2,337.7 844.5,283.6 844.5,283.6 893.1,322 893.1,322.1 757.2,337.8 "/>
<polygon fill="#2B2B2D" points="757.2,337.8 893.1,322.1 844.5,283.6 "/>
<polygon fill="#252525" points="869.6,247.8 869.7,247.8 885.7,264.2 893.1,322 893,322.1 "/>
<polygon fill="#252525" points="885.6,264.2 869.7,247.8 893.1,322.1 "/>
<polygon fill="#252628" points="893,322.1 885.6,264.3 885.6,264.2 944,267.2 944.1,267.2 893.1,322.1 "/>
<polygon fill="#252628" points="885.6,264.2 893.1,322.1 944,267.2 "/>
<polygon fill="#1A1A1A" points="660.2,402.9 757.2,337.7 757.2,337.8 770.7,364.5 770.7,364.6 660.3,402.9 "/>
<polygon fill="#1A1A1A" points="757.2,337.8 770.7,364.6 660.3,402.9 "/>
<polygon fill="#2A2E31" points="770.6,364.6 757.1,337.8 757.2,337.7 893.1,322 893.1,322.1 770.7,364.6 "/>
<polygon fill="#2A2E31" points="757.2,337.8 893.1,322.1 770.7,364.6 "/>
<polygon fill="#414342" points="314.9,421 314.9,420.9 376.5,402.9 376.6,402.9 367.9,432.2 367.9,432.3 "/>
<polygon fill="#414342" points="314.9,420.9 367.9,432.2 376.5,402.9 "/>
<polygon fill="#43484B" points="367.9,432.2 376.5,402.9 376.6,402.9 421.6,417.5 421.6,417.6 367.9,432.3 "/>
<polygon fill="#43484B" points="367.9,432.2 421.6,417.6 376.5,402.9 "/>
<polygon fill="#2A2C2B" points="367.9,432.2 367.9,432.2 421.6,417.5 421.6,417.6 424.9,468.8 424.8,468.9 "/>
<polygon fill="#2A2C2B" points="367.9,432.2 424.8,468.8 421.6,417.6 "/>
<polygon fill="#181C1D" points="376.5,402.9 376.5,402.9 437.6,384.9 437.6,384.9 421.6,417.6 421.6,417.6 "/>
<polygon fill="#181C1D" points="421.6,417.6 437.6,384.9 376.5,402.9 "/>
<polygon fill="#151C1E" points="421.5,417.5 437.6,384.9 437.6,384.9 494.4,390.9 494.4,391 421.6,417.6 "/>
<polygon fill="#151C1E" points="421.6,417.6 494.4,390.9 437.6,384.9 "/>
<polygon fill="#242422" points="424.8,468.8 421.5,417.6 421.6,417.5 494.4,390.9 494.4,390.9 424.9,468.9 "/>
<polygon fill="#242422" points="421.6,417.6 424.8,468.8 494.4,390.9 "/>
<polygon fill="#313536" points="350.6,447.3 350.6,447.2 367.9,432.2 367.9,432.2 424.9,468.8 424.8,468.9 "/>
<polygon fill="#313536" points="367.9,432.2 424.8,468.8 350.6,447.2 "/>
<polygon fill="#4B4B4D" points="314.9,421 315,420.9 367.9,432.2 367.9,432.2 350.6,447.3 350.6,447.3 "/>
<polygon fill="#4B4B4D" points="367.9,432.2 314.9,420.9 350.6,447.2 "/>
<polygon fill="#2C2C2C" points="249.5,417.9 249.6,417.8 314.9,420.9 350.6,447.2 350.6,447.3 "/>
<polygon fill="#2C2C2C" points="314.9,420.9 249.6,417.9 350.6,447.2 "/>
<polygon fill="#293033" points="3.6,453.8 3.6,453.8 163.6,417.8 163.6,417.9 117.5,463.3 117.4,463.3 "/>
<polygon fill="#293033" points="117.4,463.3 163.6,417.9 3.6,453.8 "/>
<polygon fill="#3C4745" points="111.6,378 111.6,352 111.7,352 137.6,353 137.7,353 111.7,378 "/>
<polygon fill="#3C4745" points="111.7,352 111.7,378 137.6,353 "/>
<polygon fill="#495053" points="111.6,378 137.6,353 137.7,353 163.6,374.9 163.6,375 111.7,378.1 "/>
<polygon fill="#495053" points="111.7,378 163.6,375 137.6,353 "/>
<polygon fill="#303938" points="3.6,453.8 70.6,384.9 111.7,378 111.7,378 3.6,453.8 "/>
<polygon fill="#303938" points="111.7,378 70.6,384.9 3.6,453.8 "/>
<polygon fill="#21292B" points="3.6,453.8 111.6,378 163.6,374.9 163.6,375 3.6,453.8 "/>
<polygon fill="#21292B" points="3.6,453.8 111.7,378 163.6,375 "/>
<polygon fill="#494E4E" points="70.6,384.9 93.4,330.1 93.4,330 111.7,352 111.7,352 70.7,385 "/>
<polygon fill="#494E4E" points="70.6,384.9 93.4,330.1 111.7,352 "/>
<polygon fill="#313A39" points="70.6,384.9 111.6,352 111.7,352 111.7,378 111.7,378.1 70.6,385 "/>
<polygon fill="#313A39" points="70.6,384.9 111.7,378 111.7,352 "/>
<polygon fill="#323838" points="65.7,326.8 65.7,326.8 65.1,296.1 65.2,296.1 93.4,330 93.4,330.1 "/>
<polygon fill="#323838" points="93.4,330.1 65.1,296.1 65.7,326.8 "/>
<polygon fill="#3A3B3F" points="60.8,357.5 65.7,326.8 65.7,326.7 93.4,330 93.4,330.1 60.8,357.5 "/>
<polygon fill="#3A3B3F" points="65.7,326.8 60.8,357.5 93.4,330.1 "/>
<polygon fill="#343631" points="30.5,320.3 30.5,320.2 65.1,296.1 65.2,296.1 65.7,326.8 65.7,326.8 "/>
<polygon fill="#343631" points="65.7,326.8 30.5,320.3 65.1,296.1 "/>
<polygon fill="#181D20" points="30.5,320.3 3.6,296.1 3.6,296.1 65.1,296.1 65.2,296.1 30.5,320.3 "/>
<polygon fill="#181D20" points="30.5,320.3 3.6,296.1 65.1,296.1 "/>
<polygon fill="#101317" points="3.6,347.1 3.6,296.1 3.6,296.1 30.5,320.2 30.5,320.3 3.6,347.1 "/>
<polygon fill="#101317" points="30.5,320.3 3.6,347.1 3.6,296.1 "/>
<polygon fill="#232728" points="3.6,347 30.5,320.2 65.7,326.7 65.7,326.8 3.6,347.1 "/>
<polygon fill="#232728" points="3.6,347.1 65.7,326.8 30.5,320.3 "/>
<polygon fill="#1B2325" points="3.6,347.1 3.6,347 65.7,326.7 65.7,326.8 60.9,357.5 60.8,357.5 "/>
<polygon fill="#1B2325" points="3.6,347.1 60.8,357.5 65.7,326.8 "/>
<polygon fill="#414841" points="70.6,384.9 60.8,357.5 60.8,357.5 93.4,330 93.4,330.1 70.7,384.9 "/>
<polygon fill="#414841" points="60.8,357.5 70.6,384.9 93.4,330.1 "/>
<polygon fill="#343837" points="36.8,375 36.8,374.9 60.8,357.5 60.9,357.5 70.7,384.9 70.6,385 "/>
<polygon fill="#343837" points="60.8,357.5 36.8,375 70.6,384.9 "/>
<polygon fill="#212C30" points="36.8,375 3.6,347.1 3.6,347 60.8,357.5 60.8,357.5 36.9,375 "/>
<polygon fill="#212C30" points="36.8,375 3.6,347.1 60.8,357.5 "/>
<polygon fill="#383637" points="25.2,399.3 36.8,374.9 36.9,374.9 70.6,384.9 70.6,385 25.2,399.3 "/>
<polygon fill="#383637" points="36.8,375 25.2,399.3 70.6,384.9 "/>
<polygon fill="#353535" points="3.6,370.9 3.6,370.8 3.6,347.1 3.6,347 36.9,374.9 36.8,375 "/>
<polygon fill="#353535" points="36.8,375 3.6,370.8 3.6,347.1 "/>
<polygon fill="#212727" points="3.6,370.9 3.6,370.8 36.9,374.9 36.9,375 25.2,399.3 25.2,399.3 "/>
<polygon fill="#212727" points="36.8,375 25.2,399.3 3.6,370.8 "/>
<polygon fill="#202427" points="3.6,453.8 25.2,399.3 70.6,384.9 70.7,385 3.6,453.8 "/>
<polygon fill="#202427" points="25.2,399.3 3.6,453.8 70.6,384.9 "/>
<polygon fill="#1B2020" points="3.6,453.8 3.6,370.8 3.6,370.8 25.2,399.3 3.7,453.8 "/>
<polygon fill="#1B2020" points="25.2,399.3 3.6,370.8 3.6,453.8 "/>
<polygon fill="#333436" points="765.2,267.2 765.2,267.2 869.7,247.7 869.7,247.8 844.5,283.6 844.5,283.6 "/>
<polygon fill="#333436" points="765.2,267.2 844.5,283.6 869.7,247.8 "/>
<polygon fill="#0C0F10" points="1031.7,466.9 1031.7,466.8 1104.9,466.8 1105,466.8 1121.6,497.1 1121.6,497.1 "/>
<polygon fill="#0C0F10" points="1031.7,466.8 1121.6,497.1 1104.9,466.8 "/>
<polygon fill="#0B0C0C" points="1121.6,497.1 1130.9,446.3 1131,446.3 1157.9,472.8 1157.9,472.9 1121.6,497.1 "/>
<polygon fill="#0B0C0C" points="1121.6,497.1 1157.9,472.8 1130.9,446.3 "/>
<polygon fill="#0B0C0D" points="1104.9,466.8 1104.9,466.8 1130.9,446.3 1131,446.3 1121.6,497.1 1121.6,497.1 "/>
<polygon fill="#0B0C0D" points="1121.6,497.1 1104.9,466.8 1130.9,446.3 "/>
<polygon fill="#0D0E0F" points="1121.6,497.1 1121.6,497 1165.5,466.8 1165.6,466.8 1175.9,492.8 1177.3,497.1 1177.3,497.1 "/>
<polygon fill="#0D0E0F" points="1121.6,497.1 1177.3,497.1 1175.9,492.8 1165.6,466.8 "/>
<polygon fill="#0D0E0F" points="1177.2,497.1 1175.8,492.8 1175.9,492.7 1188.9,488.7 1188.9,488.8 1177.3,497.1 "/>
<polygon fill="#0D0E0F" points="1177.3,497.1 1188.9,488.8 1175.9,492.8 "/>
<polygon fill="#0D0E0F" points="1177.3,497.1 1177.2,497 1188.8,488.7 1214.6,497 1214.6,497.1 "/>
<polygon fill="#0D0E0F" points="1177.3,497.1 1214.6,497.1 1188.9,488.8 "/>
<polygon fill="#0F1110" points="1188.9,488.8 1188.9,488.7 1262.8,462.2 1262.9,462.2 1214.6,497.1 1214.6,497.1 "/>
<polygon fill="#0F1110" points="1214.6,497.1 1262.8,462.2 1188.9,488.8 "/>
<polygon fill="#EE642C" points="1188.8,488.8 1234.8,408.2 1234.9,408.3 1262.9,462.2 1262.9,462.3 1188.9,488.8 "/>
<polygon fill="#EE642C" points="1262.8,462.2 1234.8,408.3 1188.9,488.8 "/>
<polygon fill="#D54F27" points="1262.8,462.2 1234.8,408.3 1234.8,408.2 1339.7,417.4 1339.8,417.5 1262.9,462.2 "/>
<polygon fill="#D54F27" points="1262.8,462.2 1339.7,417.4 1234.8,408.3 "/>
<polygon fill="#CD4727" points="1262.8,462.3 1262.8,462.2 1339.7,417.4 1339.8,417.4 1342.2,462.2 1342.2,462.3 "/>
<polygon fill="#CD4727" points="1262.8,462.2 1342.2,462.2 1339.7,417.4 "/>
<polygon fill="#C54127" points="1342.2,462.3 1342.1,462.2 1339.7,417.4 1339.8,417.4 1440.2,468.8 1440.1,468.9 "/>
<polygon fill="#C54127" points="1342.2,462.2 1440.1,468.8 1339.7,417.4 "/>
<polygon fill="#0C0D0E" points="1339.7,497.1 1342.1,462.2 1342.2,462.2 1440.2,468.8 1440.2,468.9 1339.7,497.1 "/>
<polygon fill="#0C0D0E" points="1342.2,462.2 1339.7,497.1 1440.1,468.8 "/>
<polygon fill="#101111" points="1262.8,462.2 1262.8,462.2 1342.2,462.2 1342.2,462.2 1339.8,497.1 1339.7,497.1 "/>
<polygon fill="#101111" points="1339.7,497.1 1262.8,462.2 1342.2,462.2 "/>
<polygon fill="#0C0F10" points="1214.6,497.1 1214.6,497 1262.8,462.2 1262.9,462.2 1339.8,497 1339.7,497.1 "/>
<polygon fill="#0C0F10" points="1339.7,497.1 1214.6,497.1 1262.8,462.2 "/>
<polygon fill="#0A0A0A" points="1339.7,497.1 1339.7,497 1440.1,468.8 1440.2,468.8 1436.5,497.1 1436.5,497.1 "/>
<polygon fill="#0A0A0A" points="1339.7,497.1 1436.5,497.1 1440.1,468.8 "/>
<polygon fill="#0C0D0E" points="1436.5,497.1 1436.5,497.1 1469.3,459.8 1469.4,459.9 1469.4,497.1 1469.4,497.1 "/>
<polygon fill="#0C0D0E" points="1436.5,497.1 1469.4,497.1 1469.4,459.9 "/>
<polygon fill="#0B0C0D" points="1436.5,497.1 1440.1,468.8 1440.1,468.8 1469.3,459.8 1469.4,459.9 1436.5,497.1 "/>
<polygon fill="#0B0C0D" points="1436.5,497.1 1440.1,468.8 1469.4,459.9 "/>
<polygon fill="#101314" points="1025.2,497.1 1025.2,497.1 1031.6,466.8 1031.7,466.8 1121.6,497 1121.6,497.1 "/>
<polygon fill="#101314" points="1121.6,497.1 1025.2,497.1 1031.7,466.8 "/>
<polygon fill="#101010" points="944.4,497.1 944.4,497.1 957,417.9 957.1,417.8 1025.2,497.1 1025.2,497.1 "/>
<polygon fill="#101010" points="1025.2,497.1 944.4,497.1 957,417.9 "/>
<polygon fill="#15191A" points="957,417.9 957,417.8 1031.7,466.8 1031.7,466.8 1025.2,497.1 1025.2,497.1 "/>
<polygon fill="#15191A" points="1025.2,497.1 1031.7,466.8 957,417.9 "/>
<polygon fill="#0E1212" points="881.2,448.5 881.2,448.5 957,417.8 957.1,417.9 944.5,497.1 944.4,497.1 "/>
<polygon fill="#0E1212" points="957,417.9 881.2,448.5 944.4,497.1 "/>
<polygon fill="#121415" points="660.2,402.9 660.3,402.9 957,417.8 957,417.9 881.2,448.6 881.2,448.6 "/>
<polygon fill="#121415" points="881.2,448.5 660.3,402.9 957,417.9 "/>
<polygon fill="#141615" points="881.2,497.1 881.1,497.1 881.1,448.5 881.2,448.5 944.5,497 944.4,497.1 "/>
<polygon fill="#141615" points="881.2,448.5 881.2,497.1 944.4,497.1 "/>
<polygon fill="#101414" points="762.4,497.1 762.4,497 881.2,448.5 881.2,448.5 881.2,497.1 881.2,497.1 "/>
<polygon fill="#101414" points="881.2,497.1 762.4,497.1 881.2,448.5 "/>
<polygon fill="#1D1E20" points="762.4,497.1 725.4,446.4 725.4,446.3 881.2,448.5 881.2,448.6 762.4,497.1 "/>
<polygon fill="#1D1E20" points="881.2,448.5 762.4,497.1 725.4,446.3 "/>
<polygon fill="#171916" points="725.4,446.4 660.2,402.9 660.3,402.9 881.2,448.5 881.2,448.6 "/>
<polygon fill="#171916" points="881.2,448.5 660.3,402.9 725.4,446.3 "/>
<polygon fill="#222625" points="675.6,497.1 675.5,497 725.4,446.3 725.4,446.3 762.4,497.1 762.4,497.1 "/>
<polygon fill="#222625" points="762.4,497.1 675.6,497.1 725.4,446.3 "/>
<polygon fill="#3F4040" points="675.5,497.1 660.2,402.9 660.3,402.9 725.4,446.3 725.4,446.4 675.6,497.1 "/>
<polygon fill="#3F4040" points="725.4,446.3 660.3,402.9 675.6,497.1 "/>
<polygon fill="#494947" points="561.7,497.1 561.7,497 660.2,402.9 660.3,402.9 675.6,497.1 675.6,497.1 "/>
<polygon fill="#494947" points="675.6,497.1 561.7,497.1 660.3,402.9 "/>
<polygon fill="#5A585D" points="561.7,497.1 538.3,468.9 538.3,468.8 660.2,402.9 660.3,402.9 561.8,497.1 "/>
<polygon fill="#5A585D" points="561.7,497.1 538.3,468.8 660.3,402.9 "/>
<polygon fill="#4E5554" points="466,497.1 466,497 516.4,477.2 561.7,497 561.7,497.1 "/>
<polygon fill="#4E5554" points="561.7,497.1 466,497.1 516.4,477.2 "/>
<polygon fill="#424848" points="516.4,477.3 516.4,477.2 538.3,468.8 538.4,468.8 561.8,497.1 561.7,497.1 "/>
<polygon fill="#424848" points="561.7,497.1 538.3,468.8 516.4,477.2 "/>
<polygon fill="#20282B" points="466,497.1 424.8,468.9 424.8,468.8 538.3,468.8 538.4,468.9 466,497.1 "/>
<polygon fill="#20282B" points="538.3,468.8 424.8,468.8 466,497.1 "/>
<polygon fill="#4E544F" points="390.9,497.1 390.9,497 424.8,468.8 424.9,468.8 466,497 466,497.1 "/>
<polygon fill="#4E544F" points="466,497.1 390.9,497.1 424.8,468.8 "/>
<polygon fill="#4D5850" points="390.9,497.1 350.6,447.3 350.6,447.2 424.9,468.8 424.9,468.9 391,497.1 "/>
<polygon fill="#4D5850" points="424.8,468.8 350.6,447.2 390.9,497.1 "/>
<polygon fill="#3B3C3E" points="307.9,484.4 249.5,417.9 249.6,417.8 350.6,447.2 350.6,447.3 308,484.4 "/>
<polygon fill="#3B3C3E" points="249.6,417.9 307.9,484.4 350.6,447.2 "/>
<polygon fill="#121516" points="117.4,463.3 163.6,417.8 249.6,417.8 249.6,417.9 117.5,463.3 "/>
<polygon fill="#121516" points="249.6,417.9 117.4,463.3 163.6,417.9 "/>
<polygon fill="#1C1E1C" points="117.4,463.3 117.4,463.3 249.5,417.8 249.6,417.9 223.9,468.8 223.9,468.9 "/>
<polygon fill="#1C1E1C" points="117.4,463.3 223.9,468.8 249.6,417.9 "/>
<polygon fill="#2C2D32" points="223.9,468.9 223.9,468.8 249.5,417.9 249.6,417.8 308,484.3 307.9,484.4 "/>
<polygon fill="#2C2D32" points="223.9,468.8 307.9,484.4 249.6,417.9 "/>
<polygon fill="#24282B" points="307.9,484.4 307.9,484.3 350.6,447.2 350.6,447.2 391,497.1 390.9,497.1 "/>
<polygon fill="#24282B" points="307.9,484.4 390.9,497.1 350.6,447.2 "/>
<polygon fill="#474145" points="307.9,497.1 307.9,497.1 307.9,484.4 308,484.3 390.9,497 390.9,497.1 "/>
<polygon fill="#474145" points="390.9,497.1 307.9,497.1 307.9,484.4 "/>
<polygon fill="#13171A" points="223.9,497.1 223.9,497.1 223.9,468.8 223.9,468.8 308,497 307.9,497.1 "/>
<polygon fill="#13171A" points="307.9,497.1 223.9,497.1 223.9,468.8 "/>
<polygon fill="#161B1D" points="223.9,468.9 223.9,468.8 308,484.3 308,484.4 308,497.1 307.9,497.1 "/>
<polygon fill="#161B1D" points="307.9,497.1 307.9,484.4 223.9,468.8 "/>
<polygon fill="#12171A" points="117.4,463.3 117.4,463.3 223.9,468.8 223.9,468.8 223.9,497.1 223.9,497.1 "/>
<polygon fill="#12171A" points="117.4,463.3 223.9,497.1 223.9,468.8 "/>
<polygon fill="#0C0F10" points="117.4,497.1 117.4,497.1 117.4,463.3 117.5,463.3 223.9,497 223.9,497.1 "/>
<polygon fill="#0C0F10" points="117.4,463.3 117.4,497.1 223.9,497.1 "/>
<polygon fill="#101418" points="3.6,497.1 3.6,453.8 3.6,453.8 117.4,463.3 117.5,463.3 3.6,497.1 "/>
<polygon fill="#101418" points="3.6,453.8 3.6,497.1 117.4,463.3 "/>
<polygon fill="#131416" points="3.6,497.1 3.6,497 117.4,463.3 117.5,463.3 117.5,497.1 117.4,497.1 "/>
<polygon fill="#131416" points="3.6,497.1 117.4,497.1 117.4,463.3 "/>
</svg>
