<?xml version="1.0" encoding="utf-8"?>
<!-- Generator: Adobe Illustrator 18.0.0, SVG Export Plug-In . SVG Version: 6.00 Build 0)  -->
<!DOCTYPE svg PUBLIC "-//W3C//DTD SVG 1.1//EN" "http://www.w3.org/Graphics/SVG/1.1/DTD/svg11.dtd">
<svg version="1.1" id="Layer_3" xmlns="http://www.w3.org/2000/svg" xmlns:xlink="http://www.w3.org/1999/xlink" x="0px" y="0px"
	 viewBox="-180.2 577.7 881.6 214.3" enable-background="new -180.2 577.7 881.6 214.3" xml:space="preserve">
<polygon fill="#293033" points="-180.2,701.5 -84,654.1 -83.8,654.2 -83.8,680 -83.9,680.1 -180.2,701.7 "/>
<polygon fill="#293033" points="-180.2,701.6 -83.9,680 -83.9,654.2 "/>
<polygon fill="#323335" points="-84,680 -84,654.2 -64.2,640.3 -64,640.3 -49.4,654.1 -49.4,654.2 -83.9,680.1 "/>
<polygon fill="#323335" points="-83.9,654.2 -64.1,640.4 -49.4,654.2 -83.9,680 "/>
<polygon fill="#181D20" points="-83.9,680.1 -84,679.9 -49.5,654.1 -38.9,647.5 -38.8,647.5 -32.2,680 -32.3,680.1 "/>
<polygon fill="#181D20" points="-49.4,654.2 -38.9,647.6 -32.3,680 -83.9,680 "/>
<polygon fill="#262425" points="-39,647.6 -39,640.4 -38.9,640.3 -23.9,636.7 -23.7,636.8 -32.2,680 -32.4,680 "/>
<polygon fill="#262425" points="-38.9,647.6 -38.9,640.4 -23.8,636.7 -32.3,680 "/>
<polygon fill="#16171B" points="115,663.9 114.9,663.7 149.8,628.3 149.9,628.3 168,670.9 167.9,671.1 "/>
<polygon fill="#16171B" points="115,663.8 167.9,671 149.9,628.3 "/>
<polygon fill="#212221" points="277.8,589.3 292.3,579.3 340.7,577.6 340.7,577.8 277.9,589.5 "/>
<polygon fill="#212221" points="277.9,589.4 292.3,579.4 340.7,577.7 "/>
<polygon fill="none" points="354.7,622.4 350.2,587.6 350.3,587.5 385.5,589.3 385.5,589.4 354.9,622.4 "/>
<polygon fill="none" points="350.3,587.6 385.5,589.4 354.8,622.3 "/>
<polygon fill="#121314" points="354.7,622.3 385.4,589.3 385.5,589.3 399.3,600.7 399.3,600.8 354.8,622.4 "/>
<polygon fill="#121314" points="385.5,589.4 399.3,600.7 354.8,622.3 "/>
<polygon fill="#121314" points="354.8,622.3 399.2,600.6 412.5,600.6 412.5,600.8 354.8,622.4 "/>
<polygon fill="#121314" points="399.3,600.7 412.5,600.7 354.8,622.3 "/>
<polygon fill="#1D1E20" points="354.8,622.2 412.5,600.6 412.6,600.7 421,618.1 420.9,618.2 354.8,622.4 "/>
<polygon fill="#1D1E20" points="412.5,600.7 420.9,618.1 354.8,622.3 "/>
<polygon fill="#171C1B" points="354.8,622.4 354.8,622.2 420.9,618 431.8,631.7 431.7,631.9 "/>
<polygon fill="#171C1B" points="420.9,618.1 431.7,631.8 354.8,622.3 "/>
<polygon fill="#1D1C1A" points="354.8,622.4 354.8,622.2 431.7,631.7 444.4,654.1 444.3,654.3 "/>
<polygon fill="#1D1C1A" points="431.7,631.8 444.4,654.2 354.8,622.3 "/>
<polygon fill="#2D2D2D" points="393.2,680 354.7,622.4 354.8,622.2 444.4,654.1 444.4,654.2 393.3,680.1 "/>
<polygon fill="#2D2D2D" points="354.8,622.3 393.3,680 444.4,654.2 "/>
<polygon fill="#302E2F" points="393.3,680.1 393.2,679.9 444.3,654.1 444.5,654.2 444.5,684.8 444.3,684.9 "/>
<polygon fill="#302E2F" points="393.3,680 444.4,684.8 444.4,654.2 "/>
<polygon fill="#0D0E10" points="438.1,709.4 444.3,684.8 444.4,684.7 475.4,687.3 475.5,687.5 438.2,709.5 "/>
<polygon fill="#0D0E10" points="444.4,684.8 475.4,687.4 438.2,709.4 "/>
<polygon fill="#101113" points="438.2,709.5 438.1,709.3 483.8,697 483.9,697.1 482.3,709.4 482.2,709.5 "/>
<polygon fill="#101113" points="438.2,709.4 482.2,709.4 483.8,697.1 "/>
<polygon fill="#0D0E10" points="438.1,709.3 475.4,687.3 475.5,687.3 483.9,697 483.9,697.2 438.2,709.5 "/>
<polygon fill="#0D0E10" points="438.2,709.4 483.8,697.1 475.4,687.4 "/>
<polygon fill="#181A19" points="472.5,721.5 472.6,721.3 482.3,724.9 482.3,725 483.9,744.2 483.7,744.3 "/>
<polygon fill="#181A19" points="472.6,721.4 482.2,725 483.8,744.2 "/>
<polygon fill="#191E21" points="438.1,709.5 438.2,709.3 472.6,721.3 483.9,744.2 483.8,744.3 "/>
<polygon fill="#191E21" points="483.8,744.2 438.2,709.4 472.6,721.4 "/>
<polygon fill="#212224" points="454.1,771.1 438.1,709.4 438.2,709.3 483.9,744.2 483.9,744.3 454.3,771.1 "/>
<polygon fill="#212224" points="483.8,744.2 454.2,771 438.2,709.4 "/>
<polygon fill="#101113" points="482.1,709.4 483.7,697.1 483.8,697 497.9,697 497.9,697.2 482.3,709.5 "/>
<polygon fill="#101113" points="483.8,697.1 497.9,697.1 482.2,709.4 "/>
<polygon fill="#131617" points="472.6,721.5 472.5,721.4 482.1,709.4 482.3,709.4 482.3,725 482.2,725.1 "/>
<polygon fill="#131617" points="482.2,709.4 482.2,725 472.6,721.4 "/>
<polygon fill="#111415" points="472.5,721.4 470.1,709.4 470.2,709.3 482.2,709.3 482.3,709.5 472.7,721.5 "/>
<polygon fill="#111415" points="482.2,709.4 470.2,709.4 472.6,721.4 "/>
<polygon fill="#161719" points="483.7,744.2 497.8,697.1 497.9,697 514.2,713 514.2,713.1 483.9,744.3 "/>
<polygon fill="#161719" points="483.8,744.2 514.1,713 497.9,697.1 "/>
<polygon fill="#121818" points="483.7,744.2 482.1,725 482.1,709.4 497.8,697 498,697.1 483.9,744.3 "/>
<polygon fill="#121818" points="483.8,744.2 482.2,725 482.2,709.4 497.9,697.1 "/>
<polygon fill="#161719" points="483.8,744.2 514,713 518.6,709.3 518.8,709.4 521.6,717.2 521.5,717.3 483.9,744.3 "/>
<polygon fill="#161719" points="514.1,713 518.7,709.4 521.5,717.2 483.8,744.2 "/>
<polygon fill="#101111" points="483.8,744.1 521.4,717.1 521.6,717.2 525,725 524.9,725.1 483.9,744.3 "/>
<polygon fill="#101111" points="521.5,717.2 524.9,725 483.8,744.2 "/>
<polygon fill="#111111" points="524.8,725.1 524.9,724.9 532.7,722.5 532.8,722.6 532.8,730.7 532.6,730.8 "/>
<polygon fill="#111111" points="524.9,725 532.7,722.6 532.7,730.7 "/>
<polygon fill="#131516" points="524.8,725.1 525,724.9 532.8,730.6 532.8,740.2 532.6,740.3 "/>
<polygon fill="#131516" points="532.7,730.7 532.7,740.2 524.9,725 "/>
<polygon fill="#131414" points="483.8,744.1 524.9,724.9 525,725 532.8,740.2 532.7,740.3 483.8,744.3 "/>
<polygon fill="#131414" points="532.7,740.2 483.8,744.2 524.9,725 "/>
<polygon fill="#111111" points="532.6,740.2 532.6,722.6 532.8,722.6 536.4,730.7 532.8,740.3 "/>
<polygon fill="#111111" points="532.7,722.6 536.3,730.7 532.7,740.2 "/>
<polygon fill="#121110" points="532.6,740.2 536.2,730.7 546.8,728.5 546.9,728.7 532.8,740.3 "/>
<polygon fill="#121110" points="536.3,730.7 546.8,728.6 532.7,740.2 "/>
<polygon fill="#121314" points="532.6,740.2 546.8,728.6 546.9,728.6 550.2,736.4 550.2,736.5 532.7,740.3 "/>
<polygon fill="#121314" points="546.8,728.6 550.1,736.4 532.7,740.2 "/>
<polygon fill="#161618" points="523.6,771 550.1,736.4 656.5,734.5 656.5,734.7 523.7,771.1 "/>
<polygon fill="#161618" points="550.1,736.4 656.5,734.6 523.7,771 "/>
<polygon fill="#151716" points="523.6,771.1 521.4,746.3 521.4,746.3 532.7,740.1 550.1,736.3 550.2,736.5 523.8,771.1 "/>
<polygon fill="#151716" points="550.1,736.4 532.7,740.2 521.5,746.3 523.7,771 "/>
<polygon fill="#161618" points="523.7,770.9 656.5,734.5 656.6,734.6 650.6,768.2 650.5,768.3 523.7,771.1 "/>
<polygon fill="#161618" points="656.5,734.6 650.5,768.2 523.7,771 "/>
<polygon fill="#202123" points="650.4,768.2 683.8,710.6 701.4,705.1 701.5,705.3 650.6,768.3 "/>
<polygon fill="#202123" points="650.5,768.2 701.4,705.2 683.8,710.6 "/>
<polygon fill="#202123" points="650.4,768.2 656.4,734.6 683.8,710.5 683.9,710.7 650.6,768.3 "/>
<polygon fill="#202123" points="650.5,768.2 683.8,710.6 656.5,734.6 "/>
<polygon fill="#373938" points="393.2,680.1 393.3,679.9 444.4,684.7 444.4,684.8 438.3,709.4 438.1,709.5 "/>
<polygon fill="#373938" points="438.2,709.4 393.3,680 444.4,684.8 "/>
<polygon fill="#21201F" points="454.1,771 483.8,744.2 521.5,746.2 521.5,746.4 454.2,771.1 "/>
<polygon fill="#21201F" points="454.2,771 521.5,746.3 483.8,744.2 "/>
<polygon fill="#151716" points="483.8,744.3 483.8,744.1 532.7,740.1 532.8,740.3 521.5,746.4 521.5,746.4 "/>
<polygon fill="#151716" points="521.5,746.3 532.7,740.2 483.8,744.2 "/>
<polygon fill="#D14A27" points="444.3,684.9 444.3,684.8 444.3,654.2 444.4,654.1 475.5,687.3 475.4,687.5 "/>
<polygon fill="#D14A27" points="475.4,687.4 444.4,684.8 444.4,654.2 "/>
<polygon fill="#FCBA4C" points="-115.2,640.5 -126.2,627.2 -126.1,627.1 -99.5,640.9 -99.6,641.1 "/>
<polygon fill="#FCBA4C" points="-126.2,627.2 -99.6,641 -115.2,640.4 "/>
<polygon fill="#FCBA4C" points="-126.2,627.3 -126.2,627.1 -85.9,627.1 -85.9,627.2 -99.5,641 -99.6,641 "/>
<polygon fill="#FCBA4C" points="-126.2,627.2 -85.9,627.2 -99.6,641 "/>
<polygon fill="#E15427" points="-84,627.2 -83.9,627.1 -56.5,628.2 -56.4,628.4 -64,640.4 -64.2,640.4 "/>
<polygon fill="#E15427" points="-83.9,627.2 -56.5,628.3 -64.1,640.4 "/>
<polygon fill="#E85D27" points="-56.5,628.4 -56.5,628.2 -23.8,627.1 -23.7,627.2 -23.7,636.7 -23.9,636.8 "/>
<polygon fill="#E85D27" points="-56.5,628.3 -23.8,627.2 -23.8,636.7 "/>
<polygon fill="#F3763D" points="-49.5,654.2 -56.6,628.4 -56.4,628.3 -38.8,647.5 -38.8,647.6 -49.4,654.2 "/>
<polygon fill="#F3763D" points="-56.5,628.3 -49.4,654.2 -38.9,647.6 "/>
<polygon fill="#F47F32" points="-38.9,640.4 -56.6,628.4 -56.5,628.2 -23.8,636.7 -23.8,636.8 -38.8,640.4 "/>
<polygon fill="#F47F32" points="-56.5,628.3 -23.8,636.7 -38.9,640.4 "/>
<polygon fill="#FBBC51" points="-56.6,628.4 -56.4,628.3 -38.8,640.3 -38.8,647.6 -38.9,647.6 "/>
<polygon fill="#FBBC51" points="-56.5,628.3 -38.9,640.4 -38.9,647.6 "/>
<polygon fill="#E25B28" points="-64.2,640.4 -64.2,640.3 -56.6,628.3 -56.4,628.3 -49.3,654.1 -49.5,654.2 "/>
<polygon fill="#E25B28" points="-56.5,628.3 -64.1,640.4 -49.4,654.2 "/>
<polygon fill="#ED5E2C" points="-84,654.2 -86,627.2 -85.9,627.1 -83.9,627.1 -64.1,640.3 -64.1,640.4 -83.9,654.2 "/>
<polygon fill="#ED5E2C" points="-85.9,627.2 -83.9,627.2 -64.1,640.4 -83.9,654.2 "/>
<polygon fill="#D14D27" points="-99.6,641 -99.6,640.9 -86,627.1 -85.8,627.2 -83.8,654.2 -84,654.2 "/>
<polygon fill="#D14D27" points="-85.9,627.2 -99.6,641 -83.9,654.2 "/>
<polygon fill="#1B1B1C" points="508.3,792.4 508.2,792.2 523.6,771 523.8,771 534.6,792.2 534.5,792.4 "/>
<polygon fill="#1B1B1C" points="523.7,771 508.3,792.3 534.5,792.3 "/>
<polygon fill="#171718" points="534.4,792.3 523.6,771.1 523.7,770.9 560.3,770.1 560.4,770.3 534.6,792.4 "/>
<polygon fill="#171718" points="534.5,792.3 560.3,770.2 523.7,771 "/>
<polygon fill="#1E201F" points="454.1,771.1 454.2,770.9 523.7,770.9 523.8,771.1 508.3,792.3 508.2,792.4 "/>
<polygon fill="#1E201F" points="508.3,792.3 454.2,771 523.7,771 "/>
<polygon fill="#2D2928" points="443,792.4 442.9,792.2 454.1,771 454.2,770.9 508.3,792.2 508.3,792.4 "/>
<polygon fill="#2D2928" points="454.2,771 443,792.3 508.3,792.3 "/>
<polygon fill="#181818" points="407.7,767.4 407.6,767.3 438.1,709.4 438.3,709.4 454.3,771 454.2,771.1 "/>
<polygon fill="#181818" points="438.2,709.4 407.7,767.3 454.2,771 "/>
<polygon fill="#3F4344" points="407.6,767.4 393.2,680 393.3,679.9 438.2,709.3 438.2,709.5 407.8,767.4 "/>
<polygon fill="#3F4344" points="393.3,680 407.7,767.3 438.2,709.4 "/>
<polygon fill="#41403C" points="374.5,723.7 374.5,723.6 393.2,679.9 393.4,680 407.8,767.3 407.6,767.4 "/>
<polygon fill="#41403C" points="393.3,680 374.6,723.7 407.7,767.3 "/>
<polygon fill="#F27237" points="483.8,697.2 483.7,697.1 500.6,643 500.8,643 498,697.1 497.9,697.2 "/>
<polygon fill="#F27237" points="500.7,643 497.9,697.1 483.8,697.1 "/>
<polygon fill="#D64F27" points="444.3,654.2 444.3,654.1 500.6,642.9 500.8,643 483.9,697.1 483.8,697.2 "/>
<polygon fill="#D64F27" points="500.7,643 444.4,654.2 483.8,697.1 "/>
<polygon fill="#D95227" points="497.8,697.2 500.6,643 500.8,643 514.2,713 514,713.1 "/>
<polygon fill="#D95227" points="500.7,643 514.1,713 497.9,697.1 "/>
<polygon fill="#D34E27" points="514,713 500.6,643 500.6,642.9 535.8,624.9 535.9,625 514.2,713.1 "/>
<polygon fill="#D34E27" points="535.8,625 514.1,713 500.7,643 "/>
<polygon fill="#F8DB64" points="514,713 535.7,624.9 535.9,624.9 560.4,674.2 560.4,674.3 518.7,709.5 514.1,713.1 "/>
<polygon fill="#F8DB64" points="535.8,625 560.3,674.2 518.7,709.4 514.1,713 "/>
<polygon fill="#F26D34" points="535.7,625 535.8,624.9 568.5,624.9 568.6,625 560.4,674.2 560.3,674.2 "/>
<polygon fill="#F26D34" points="560.3,674.2 568.5,625 535.8,625 "/>
<polygon fill="#F37832" points="626.1,622.4 605,594.8 605.1,594.7 668.8,602.2 668.9,602.4 626.2,622.4 "/>
<polygon fill="#F37832" points="668.8,602.3 626.2,622.3 605.1,594.8 "/>
<polygon fill="#F48134" points="568.3,624.9 605,594.7 605.2,594.7 626.2,622.3 626.2,622.4 568.3,625.1 "/>
<polygon fill="#F48134" points="626.2,622.3 568.3,625 605.1,594.8 "/>
<polygon fill="#F1682D" points="560.2,674.2 568.4,625 568.5,624.9 626.1,622.2 626.2,622.4 560.4,674.3 "/>
<polygon fill="#F1682D" points="560.3,674.2 626.2,622.3 568.5,625 "/>
<polygon fill="#F9A943" points="560.3,674.3 560.3,674.1 626.1,622.3 626.3,622.3 623.5,679.7 623.4,679.8 "/>
<polygon fill="#F9A943" points="560.3,674.2 623.5,679.7 626.2,622.3 "/>
<polygon fill="#F9C95C" points="623.4,679.7 626.1,622.3 626.2,622.2 676,622.2 676,622.4 623.5,679.8 "/>
<polygon fill="#F9C95C" points="623.5,679.7 676,622.3 626.2,622.3 "/>
<polygon fill="#F16934" points="626.2,622.4 626.1,622.3 668.8,602.2 668.9,602.2 676,622.3 676,622.4 "/>
<polygon fill="#F16934" points="676,622.3 668.8,602.3 626.2,622.3 "/>
<polygon fill="#DA532A" points="675.9,622.4 668.7,602.3 668.8,602.2 701.4,582.4 701.5,582.5 676,622.4 "/>
<polygon fill="#DA532A" points="676,622.3 701.4,582.5 668.8,602.3 "/>
<polygon fill="#151716" points="675.9,622.4 675.9,622.3 701.3,582.4 701.5,582.5 701.5,627.5 701.4,627.6 "/>
<polygon fill="#151716" points="701.4,582.5 701.4,627.5 676,622.3 "/>
<polygon fill="#181818" points="675.9,622.4 676,622.2 701.4,627.4 701.5,627.5 701.5,661.7 701.3,661.8 "/>
<polygon fill="#181818" points="701.4,627.5 701.4,661.7 676,622.3 "/>
<polygon fill="#F2703A" points="623.4,679.6 675.9,622.3 676,622.3 701.5,661.7 701.4,661.8 623.5,679.8 "/>
<polygon fill="#F2703A" points="701.4,661.7 623.5,679.7 676,622.3 "/>
<polygon fill="#D04927" points="656.4,734.7 623.4,679.8 623.5,679.6 683.9,710.5 683.9,710.7 656.6,734.7 "/>
<polygon fill="#D04927" points="623.5,679.7 656.5,734.6 683.8,710.6 "/>
<polygon fill="#D34C28" points="623.4,679.8 623.4,679.6 701.4,661.6 701.5,661.7 683.9,710.7 683.8,710.7 "/>
<polygon fill="#D34C28" points="623.5,679.7 701.4,661.7 683.8,710.6 "/>
<polygon fill="#131313" points="683.8,710.6 701.3,661.7 701.5,661.7 701.5,705.2 701.4,705.3 683.9,710.7 "/>
<polygon fill="#131313" points="683.8,710.6 701.4,705.2 701.4,661.7 "/>
<polygon fill="#D14A27" points="536.2,730.8 532.6,722.7 560.3,674.1 560.4,674.2 546.9,728.7 546.9,728.7 536.3,730.8 "/>
<polygon fill="#D14A27" points="560.3,674.2 546.8,728.6 536.3,730.7 532.7,722.6 "/>
<polygon fill="#F5852D" points="524.8,725.1 522,718.5 518.6,709.4 518.6,709.3 560.3,674.1 560.4,674.2 532.8,722.7 524.9,725.1 
	"/>
<polygon fill="#F5852D" points="560.3,674.2 532.7,722.6 524.9,725 522,718.5 518.7,709.4 "/>
<polygon fill="#D64F27" points="560.3,674.3 560.4,674.1 623.5,679.6 656.6,734.6 656.4,734.7 "/>
<polygon fill="#D64F27" points="560.3,674.2 656.5,734.6 623.5,679.7 "/>
<polygon fill="#F1612D" points="550,736.5 546.7,728.7 560.3,674.2 560.4,674.1 656.6,734.5 656.5,734.7 550.1,736.5 "/>
<polygon fill="#F1612D" points="560.3,674.2 546.8,728.6 550.1,736.4 656.5,734.6 "/>
<polygon fill="#232323" points="650.5,768.3 650.4,768.2 701.3,705.2 701.5,705.2 701.5,768.2 701.4,768.3 "/>
<polygon fill="#232323" points="650.5,768.2 701.4,768.2 701.4,705.2 "/>
<polygon fill="#20201F" points="357.2,764.4 357.1,764.3 374.5,723.6 374.7,723.6 407.8,767.3 407.7,767.4 "/>
<polygon fill="#20201F" points="374.6,723.7 357.2,764.3 407.7,767.3 "/>
<polygon fill="#161616" points="407.7,767.4 407.7,767.3 454.2,770.9 454.3,771.1 443.1,792.3 442.9,792.3 "/>
<polygon fill="#161616" points="407.7,767.3 443,792.3 454.2,771 "/>
<polygon fill="#15191C" points="357.2,764.4 357.2,764.2 407.7,767.3 443,792.2 442.9,792.3 "/>
<polygon fill="#15191C" points="407.7,767.3 357.2,764.3 443,792.3 "/>
<polygon fill="#21201F" points="214.8,671.1 214.7,670.9 354.8,622.2 354.9,622.3 393.3,679.9 393.3,680.1 "/>
<polygon fill="#21201F" points="214.8,671 393.3,680 354.8,622.3 "/>
<polygon fill="#252628" points="273,728.7 214.7,671 214.8,670.9 393.3,679.9 393.3,680.1 273.1,728.7 "/>
<polygon fill="#252628" points="214.8,671 273.1,728.6 393.3,680 "/>
<polygon fill="#0D1010" points="273,728.7 273,728.5 393.2,679.9 393.4,680 357.3,764.4 357.2,764.4 "/>
<polygon fill="#0D1010" points="273.1,728.6 393.3,680 357.2,764.3 "/>
<polygon fill="#161618" points="141.4,710.7 114.9,663.8 115,663.7 167.9,670.9 168,671 141.5,710.7 "/>
<polygon fill="#161618" points="115,663.8 141.4,710.6 167.9,671 "/>
<polygon fill="#161618" points="141.4,710.6 167.8,670.9 214.8,670.9 214.8,671.1 141.5,710.7 "/>
<polygon fill="#161618" points="141.4,710.6 214.8,671 167.9,671 "/>
<polygon fill="#181A1C" points="141.4,710.7 141.4,710.5 214.7,670.9 214.8,670.9 273.1,728.6 273,728.7 "/>
<polygon fill="#181A1C" points="141.4,710.6 273.1,728.6 214.8,671 "/>
<polygon fill="#212221" points="73.2,710.7 73.1,710.6 114.9,663.7 115.1,663.7 141.5,710.6 141.4,710.7 "/>
<polygon fill="#212221" points="115,663.8 73.2,710.6 141.4,710.6 "/>
<polygon fill="#313536" points="-10.1,734.7 -32.3,680 -32.2,679.9 73.2,710.5 73.2,710.7 -10,734.7 "/>
<polygon fill="#313536" points="73.2,710.6 -10,734.6 -32.3,680 "/>
<polygon fill="#384346" points="-84,680.1 -83.9,679.9 -32.3,679.9 -32.2,679.9 -9.9,734.6 -10.1,734.7 "/>
<polygon fill="#384346" points="-10,734.6 -83.9,680 -32.3,680 "/>
<polygon fill="#3D4546" points="-99.7,758.7 -84,680 -83.9,679.9 -10,734.5 -10,734.7 -99.5,758.8 "/>
<polygon fill="#3D4546" points="-10,734.6 -99.6,758.7 -83.9,680 "/>
<polygon fill="#202427" points="43.6,625.6 43.6,625.4 65,620.3 65.1,620.5 56.8,634.4 56.7,634.4 "/>
<polygon fill="#202427" points="65,620.4 56.7,634.3 43.6,625.5 "/>
<polygon fill="#141918" points="56.7,634.3 65,620.4 65.1,620.3 89.9,625.4 89.9,625.6 56.8,634.4 "/>
<polygon fill="#141918" points="89.9,625.5 56.7,634.3 65,620.4 "/>
<polygon fill="#1D2225" points="37.8,635.7 43.5,625.5 43.7,625.4 56.8,634.3 56.8,634.4 37.9,635.9 "/>
<polygon fill="#1D2225" points="56.7,634.3 37.8,635.8 43.6,625.5 "/>
<polygon fill="#1B1D1F" points="25.2,623.8 25.2,623.7 43.6,625.4 43.7,625.6 37.9,635.8 37.8,635.9 "/>
<polygon fill="#1B1D1F" points="37.8,635.8 25.2,623.8 43.6,625.5 "/>
<polygon fill="#161A1C" points="12.7,637.3 25.2,623.7 25.3,623.7 37.9,635.7 37.9,635.9 12.8,637.5 "/>
<polygon fill="#161A1C" points="37.8,635.8 12.8,637.4 25.2,623.8 "/>
<polygon fill="#1B1B1C" points="-5.4,627.3 -5.4,627.1 25.2,623.7 25.3,623.8 12.9,637.4 12.8,637.5 "/>
<polygon fill="#1B1B1C" points="12.8,637.4 -5.3,627.2 25.2,623.8 "/>
<polygon fill="#13171A" points="-7.2,640.3 -5.4,627.2 -5.3,627.1 12.9,637.3 12.8,637.5 -7.1,640.4 "/>
<polygon fill="#13171A" points="12.8,637.4 -7.1,640.4 -5.3,627.2 "/>
<polygon fill="#E15A27" points="-23.9,627.2 -23.8,627.1 -5.3,627.1 -5.3,627.2 -7,640.4 -7.1,640.4 "/>
<polygon fill="#E15A27" points="-7.1,640.4 -23.8,627.2 -5.3,627.2 "/>
<polygon fill="#F9A94B" points="-23.9,636.8 -23.9,636.7 -23.9,627.2 -23.8,627.1 -7,640.3 -7.1,640.4 "/>
<polygon fill="#F9A94B" points="-7.1,640.4 -23.8,636.7 -23.8,627.2 "/>
<polygon fill="#161B1F" points="-32.4,680 -23.9,636.7 -23.8,636.7 -7.1,640.3 -7,640.4 -32.2,680 "/>
<polygon fill="#161B1F" points="-7.1,640.4 -32.3,680 -23.8,636.7 "/>
<polygon fill="#121518" points="-7.2,640.4 -7.1,640.3 12.8,637.3 12.9,637.4 4,651.7 3.8,651.8 "/>
<polygon fill="#121518" points="-7.1,640.4 3.9,651.7 12.8,637.4 "/>
<polygon fill="#1D1E20" points="-32.3,679.9 -7.2,640.3 -7,640.3 3.9,651.6 3.9,651.8 -32.2,680.1 "/>
<polygon fill="#1D1E20" points="3.9,651.7 -32.3,680 -7.1,640.4 "/>
<polygon fill="#181A1C" points="3.9,651.8 3.8,651.6 12.7,637.3 12.9,637.3 20.6,654.1 20.4,654.3 "/>
<polygon fill="#181A1C" points="3.9,651.7 20.5,654.2 12.8,637.4 "/>
<polygon fill="#19191B" points="20.4,654.2 12.7,637.4 12.8,637.3 37.8,635.7 37.9,635.8 20.5,654.2 "/>
<polygon fill="#19191B" points="20.5,654.2 37.8,635.8 12.8,637.4 "/>
<polygon fill="#19191B" points="20.4,654.1 37.8,635.7 37.9,635.7 44.2,649.6 44.1,649.8 20.5,654.3 "/>
<polygon fill="#19191B" points="20.5,654.2 44.1,649.7 37.8,635.8 "/>
<polygon fill="#2C2C2E" points="44,649.7 37.8,635.8 37.8,635.7 56.7,634.2 56.8,634.4 44.2,649.7 "/>
<polygon fill="#2C2C2E" points="44.1,649.7 56.7,634.3 37.8,635.8 "/>
<polygon fill="#11181A" points="44,649.6 56.7,634.3 56.8,634.3 71.3,645.7 71.2,645.9 44.1,649.8 "/>
<polygon fill="#11181A" points="44.1,649.7 71.2,645.8 56.7,634.3 "/>
<polygon fill="#1B1B1D" points="56.7,634.4 56.7,634.3 89.8,625.4 89.9,625.6 71.3,645.8 71.1,645.8 "/>
<polygon fill="#1B1B1D" points="71.2,645.8 89.9,625.5 56.7,634.3 "/>
<polygon fill="#111819" points="71.1,645.7 89.8,625.4 89.9,625.4 100,636.7 100,636.8 71.2,645.9 "/>
<polygon fill="#111819" points="71.2,645.8 100,636.7 89.9,625.5 "/>
<polygon fill="#2C2C2C" points="-32.3,680.1 -32.3,679.9 20.4,654.1 20.6,654.2 7.2,681.9 7.1,681.9 "/>
<polygon fill="#2C2C2C" points="20.5,654.2 7.1,681.8 -32.3,680 "/>
<polygon fill="#19191B" points="-32.3,679.9 3.8,651.6 20.5,654.1 20.5,654.2 -32.2,680.1 "/>
<polygon fill="#19191B" points="20.5,654.2 -32.3,680 3.9,651.7 "/>
<polygon fill="#2A2A2A" points="7,681.8 20.4,654.1 44.1,649.6 44.2,649.7 7.1,681.9 "/>
<polygon fill="#2A2A2A" points="7.1,681.8 44.1,649.7 20.5,654.2 "/>
<polygon fill="#464843" points="7,681.7 44.1,649.6 44.2,649.7 44.2,671 44.1,671.1 7.1,681.9 "/>
<polygon fill="#464843" points="7.1,681.8 44.1,671 44.1,649.7 "/>
<polygon fill="#212327" points="44,671 44,649.7 44.1,649.6 71.2,645.7 71.3,645.8 44.2,671 "/>
<polygon fill="#212327" points="44.1,671 71.2,645.8 44.1,649.7 "/>
<polygon fill="#37383A" points="44.1,670.9 71.1,645.7 71.3,645.7 80.9,660.1 80.9,660.3 44.1,671.1 "/>
<polygon fill="#37383A" points="44.1,671 80.9,660.2 71.2,645.8 "/>
<polygon fill="#202528" points="80.8,660.2 71.1,645.8 71.2,645.7 99.9,636.7 100,636.8 80.9,660.2 "/>
<polygon fill="#202528" points="80.9,660.2 100,636.7 71.2,645.8 "/>
<polygon fill="#262626" points="80.8,660.3 80.8,660.1 99.9,636.7 100.1,636.7 115.1,663.7 115,663.9 "/>
<polygon fill="#262626" points="80.9,660.2 115,663.8 100,636.7 "/>
<polygon fill="#212221" points="99.9,636.8 100,636.7 116.9,640.6 117,640.7 115.1,663.8 114.9,663.8 "/>
<polygon fill="#212221" points="100,636.7 116.9,640.7 115,663.8 "/>
<polygon fill="#1B1B1D" points="99.9,636.8 99.9,636.7 105.8,628.3 106,628.3 116.9,640.6 116.8,640.8 "/>
<polygon fill="#1B1B1D" points="116.9,640.7 105.9,628.3 100,636.7 "/>
<polygon fill="#1F1F1F" points="99.9,636.7 101.7,622.3 101.9,622.3 106,628.3 106,628.4 100.1,636.8 "/>
<polygon fill="#1F1F1F" points="105.9,628.3 101.8,622.3 100,636.7 "/>
<polygon fill="#121619" points="89.8,625.6 89.8,625.4 101.7,622.2 101.9,622.4 100.1,636.8 99.9,636.8 "/>
<polygon fill="#121619" points="101.8,622.3 89.9,625.5 100,636.7 "/>
<polygon fill="#DA5328" points="105.9,628.4 101.7,622.4 101.8,622.3 110.8,628.3 110.8,628.4 "/>
<polygon fill="#DA5328" points="101.8,622.3 105.9,628.3 110.8,628.3 "/>
<polygon fill="#111517" points="110.7,628.4 110.8,628.3 119.7,632.1 119.7,632.3 117,640.7 116.8,640.7 "/>
<polygon fill="#111517" points="110.8,628.3 119.6,632.2 116.9,640.7 "/>
<polygon fill="#111517" points="105.9,628.4 105.9,628.2 110.8,628.2 110.9,628.3 117,640.6 116.8,640.7 "/>
<polygon fill="#111517" points="110.8,628.3 105.9,628.3 116.9,640.7 "/>
<polygon fill="#13171A" points="119.6,632.3 110.7,628.4 110.8,628.2 149.9,628.2 149.9,628.4 119.7,632.3 "/>
<polygon fill="#13171A" points="149.9,628.3 119.6,632.2 110.8,628.3 "/>
<polygon fill="#121517" points="116.8,640.6 119.6,632.2 119.6,632.1 149.8,628.2 149.9,628.4 116.9,640.8 "/>
<polygon fill="#121517" points="149.9,628.3 116.9,640.7 119.6,632.2 "/>
<polygon fill="#202022" points="114.9,663.8 116.8,640.7 116.9,640.6 128.3,644.9 128.3,645 115.1,663.8 "/>
<polygon fill="#202022" points="116.9,640.7 128.3,645 115,663.8 "/>
<polygon fill="#121517" points="116.8,640.8 116.8,640.6 149.8,628.3 149.9,628.4 128.3,645.1 128.2,645.1 "/>
<polygon fill="#121517" points="128.3,645 149.9,628.3 116.9,640.7 "/>
<polygon fill="#181A1C" points="114.9,663.7 128.2,644.9 149.8,628.3 149.9,628.4 115.1,663.8 "/>
<polygon fill="#181A1C" points="128.3,645 115,663.8 149.9,628.3 "/>
<polygon fill="#E85C29" points="101.7,622.4 101.7,622.2 105.9,621.3 106,621.3 110.9,628.3 110.7,628.4 "/>
<polygon fill="#E85C29" points="105.9,621.4 110.8,628.3 101.8,622.3 "/>
<polygon fill="#F05826" points="110.7,628.4 105.8,621.4 105.9,621.3 120.4,620.3 120.5,620.5 110.9,628.4 "/>
<polygon fill="#F05826" points="110.8,628.3 120.5,620.4 105.9,621.4 "/>
<polygon fill="#F0B545" points="110.8,628.4 110.7,628.3 120.4,620.4 149.9,628.2 149.9,628.4 "/>
<polygon fill="#F0B545" points="120.5,620.4 149.9,628.3 110.8,628.3 "/>
<polygon fill="#FFD95C" points="105.9,621.3 126.1,607.6 126.3,607.7 120.5,620.5 120.5,620.5 105.9,621.5 "/>
<polygon fill="#FFD95C" points="120.5,620.4 126.2,607.7 105.9,621.4 "/>
<polygon fill="#F58A38" points="120.4,620.5 120.4,620.4 126.1,607.6 126.2,607.6 149.9,628.3 149.8,628.4 "/>
<polygon fill="#F58A38" points="126.2,607.7 149.9,628.3 120.5,620.4 "/>
<polygon fill="#F79743" points="126.1,607.7 126.2,607.6 147.5,608.9 147.6,609 150,628.3 149.8,628.4 "/>
<polygon fill="#F79743" points="126.2,607.7 147.5,609 149.9,628.3 "/>
<polygon fill="#F69141" points="147.5,609.1 147.5,608.9 155.5,605.2 155.6,605.2 157.7,612.7 157.6,612.8 "/>
<polygon fill="#F69141" points="155.5,605.3 157.6,612.7 147.5,609 "/>
<polygon fill="#E65329" points="149.8,628.4 147.4,609 147.5,608.9 157.6,612.6 157.7,612.7 149.9,628.4 "/>
<polygon fill="#E65329" points="157.6,612.7 149.9,628.3 147.5,609 "/>
<polygon fill="#F58B3A" points="149.8,628.3 157.5,612.7 157.7,612.6 166.5,619.3 166.5,619.5 149.9,628.4 "/>
<polygon fill="#F58B3A" points="157.6,612.7 166.4,619.4 149.9,628.3 "/>
<polygon fill="#F9A646" points="157.5,612.8 157.6,612.6 167.8,606.7 168,606.8 166.5,619.4 166.4,619.5 "/>
<polygon fill="#F9A646" points="166.4,619.4 167.9,606.8 157.6,612.7 "/>
<polygon fill="#F6913E" points="157.5,612.7 155.4,605.3 155.5,605.2 167.9,606.7 167.9,606.9 157.7,612.8 "/>
<polygon fill="#F6913E" points="167.9,606.8 155.5,605.3 157.6,612.7 "/>
<polygon fill="#DA522A" points="166.3,619.4 167.8,606.8 167.9,606.7 192.6,598.7 192.7,598.8 166.5,619.5 "/>
<polygon fill="#DA522A" points="192.7,598.8 166.4,619.4 167.9,606.8 "/>
<polygon fill="#16171B" points="149.8,628.4 149.8,628.3 166.4,619.3 166.5,619.4 168,671 167.8,671 "/>
<polygon fill="#16171B" points="166.4,619.4 167.9,671 149.9,628.3 "/>
<polygon fill="#F16A32" points="192.6,598.9 192.6,598.7 210.2,591.3 210.3,591.4 207.9,603.1 207.8,603.2 "/>
<polygon fill="#F16A32" points="192.7,598.8 207.9,603.1 210.2,591.4 "/>
<polygon fill="#D64C28" points="179.5,619.3 192.6,598.7 192.7,598.7 207.9,603 207.9,603.2 179.6,619.5 "/>
<polygon fill="#D64C28" points="207.9,603.1 179.5,619.4 192.7,598.8 "/>
<polygon fill="#D75127" points="166.4,619.5 166.4,619.3 192.6,598.7 192.8,598.8 179.6,619.4 179.5,619.5 "/>
<polygon fill="#D75127" points="179.5,619.4 166.4,619.4 192.7,598.8 "/>
<polygon fill="#2A3030" points="179.5,619.5 179.5,619.3 207.8,603 207.9,603 212.3,621.2 212.2,621.4 "/>
<polygon fill="#2A3030" points="179.5,619.4 212.2,621.3 207.9,603.1 "/>
<polygon fill="#15191C" points="212.1,621.3 207.8,603.1 207.8,603 226.7,592.5 226.9,592.7 212.3,621.3 "/>
<polygon fill="#15191C" points="212.2,621.3 226.8,592.6 207.9,603.1 "/>
<polygon fill="#EF712F" points="207.8,603 210.1,591.3 210.2,591.3 226.8,592.5 226.8,592.7 207.9,603.2 "/>
<polygon fill="#EF712F" points="207.9,603.1 210.2,591.4 226.8,592.6 "/>
<polygon fill="#161616" points="167.8,671 166.3,619.4 166.5,619.3 197.6,653.5 197.6,653.7 167.9,671.1 "/>
<polygon fill="#161616" points="167.9,671 197.6,653.6 166.4,619.4 "/>
<polygon fill="#2A3030" points="179.5,619.4 179.6,619.3 212.2,621.2 212.3,621.3 197.7,653.6 197.5,653.6 "/>
<polygon fill="#2A3030" points="197.6,653.6 212.2,621.3 179.5,619.4 "/>
<polygon fill="#0C0D0D" points="166.4,619.4 166.4,619.3 179.5,619.3 179.6,619.3 197.7,653.5 197.5,653.7 "/>
<polygon fill="#0C0D0D" points="197.6,653.6 166.4,619.4 179.5,619.4 "/>
<polygon fill="#4E4C4D" points="217.2,624.8 226.7,592.6 226.9,592.6 236.2,618.1 236.2,618.2 217.4,624.9 "/>
<polygon fill="#4E4C4D" points="226.8,592.6 236.2,618.1 217.3,624.8 "/>
<polygon fill="#101313" points="197.5,653.5 212.1,621.2 212.3,621.2 217.4,624.8 217.4,624.9 197.7,653.6 "/>
<polygon fill="#101313" points="217.3,624.8 197.6,653.6 212.2,621.3 "/>
<polygon fill="#4E4C4D" points="212.1,621.4 212.1,621.2 226.7,592.6 226.9,592.7 217.4,624.9 217.3,624.9 "/>
<polygon fill="#4E4C4D" points="217.3,624.8 226.8,592.6 212.2,621.3 "/>
<polygon fill="#14181B" points="236.1,618.2 226.7,592.7 226.8,592.5 277.9,589.3 278,589.4 236.2,618.2 "/>
<polygon fill="#14181B" points="236.2,618.1 277.9,589.4 226.8,592.6 "/>
<polygon fill="#1D1E20" points="277.8,589.3 292.3,579.3 340.7,577.6 340.7,577.8 277.9,589.5 "/>
<polygon fill="#1D1E20" points="277.9,589.4 340.7,577.7 292.3,579.4 "/>
<polygon fill="#121517" points="214.7,670.9 236.1,618.1 277.8,589.3 278,589.4 214.8,671 "/>
<polygon fill="#121517" points="277.9,589.4 214.8,671 236.2,618.1 "/>
<polygon fill="#141615" points="214.7,671 217.2,624.8 217.3,624.8 236.1,618 236.2,618.2 214.9,671 "/>
<polygon fill="#141615" points="214.8,671 217.3,624.8 236.2,618.1 "/>
<polygon fill="#333D3E" points="197.5,653.7 197.5,653.5 217.2,624.8 217.4,624.9 214.9,671 214.7,671 "/>
<polygon fill="#333D3E" points="214.8,671 197.6,653.6 217.3,624.8 "/>
<polygon fill="#141918" points="167.9,671.1 167.8,670.9 197.5,653.5 197.6,653.5 214.8,670.9 214.8,671.1 "/>
<polygon fill="#141918" points="167.9,671 214.8,671 197.6,653.6 "/>
<polygon fill="#1F2120" points="325.5,599.3 325.5,599.2 340.6,577.6 340.8,577.6 354.9,622.3 354.7,622.4 "/>
<polygon fill="#1F2120" points="325.6,599.2 354.8,622.3 340.7,577.7 "/>
<polygon fill="#13171A" points="214.7,670.9 277.8,589.3 278,589.4 273.2,631.8 214.8,671.1 "/>
<polygon fill="#13171A" points="214.8,671 273.1,631.8 277.9,589.4 "/>
<polygon fill="#3C3C3E" points="273,631.8 277.8,589.3 277.9,589.3 325.6,599.1 325.6,599.3 273.1,631.9 "/>
<polygon fill="#3C3C3E" points="273.1,631.8 325.6,599.2 277.9,589.4 "/>
<polygon fill="#2B2B2D" points="273,631.7 325.5,599.1 325.6,599.1 354.9,622.3 354.8,622.4 273.1,631.9 "/>
<polygon fill="#2B2B2D" points="273.1,631.8 354.8,622.3 325.6,599.2 "/>
<polygon fill="#252525" points="340.6,577.7 340.8,577.6 350.4,587.5 354.9,622.3 354.7,622.4 "/>
<polygon fill="#252525" points="350.3,587.6 340.7,577.7 354.8,622.3 "/>
<polygon fill="#252628" points="354.7,622.4 350.2,587.6 350.3,587.5 385.5,589.3 385.5,589.4 354.9,622.4 "/>
<polygon fill="#252628" points="350.3,587.6 354.8,622.3 385.5,589.4 "/>
<polygon fill="#1A1A1A" points="214.7,670.9 273,631.7 273.2,631.8 281.3,647.9 281.2,648 214.8,671.1 "/>
<polygon fill="#1A1A1A" points="273.1,631.8 281.2,647.9 214.8,671 "/>
<polygon fill="#2A2E31" points="281.1,648 273,631.8 273,631.7 354.8,622.2 354.8,622.4 281.2,648 "/>
<polygon fill="#2A2E31" points="273.1,631.8 354.8,622.3 281.2,647.9 "/>
<polygon fill="#414342" points="7,681.9 7,681.7 44.1,670.9 44.2,671 39,688.6 38.9,688.7 "/>
<polygon fill="#414342" points="7.1,681.8 38.9,688.6 44.1,671 "/>
<polygon fill="#43484B" points="38.8,688.6 44,670.9 44.2,670.9 71.2,679.7 71.2,679.9 38.9,688.7 "/>
<polygon fill="#43484B" points="38.9,688.6 71.2,679.8 44.1,671 "/>
<polygon fill="#2A2C2B" points="38.9,688.7 38.9,688.5 71.2,679.7 71.3,679.8 73.3,710.6 73.1,710.7 "/>
<polygon fill="#2A2C2B" points="38.9,688.6 73.2,710.6 71.2,679.8 "/>
<polygon fill="#181C1D" points="44.1,671.1 44.1,670.9 80.8,660.1 80.9,660.2 71.3,679.8 71.2,679.9 "/>
<polygon fill="#181C1D" points="71.2,679.8 80.9,660.2 44.1,671 "/>
<polygon fill="#151C1E" points="71.1,679.7 80.8,660.1 80.9,660.1 115,663.7 115,663.9 71.2,679.9 "/>
<polygon fill="#151C1E" points="71.2,679.8 115,663.8 80.9,660.2 "/>
<polygon fill="#242422" points="73.1,710.6 71.1,679.8 71.2,679.7 115,663.7 115.1,663.8 73.3,710.7 "/>
<polygon fill="#242422" points="71.2,679.8 73.2,710.6 115,663.8 "/>
<polygon fill="#313536" points="28.5,697.7 28.5,697.6 38.9,688.5 39,688.5 73.2,710.5 73.1,710.7 "/>
<polygon fill="#313536" points="38.9,688.6 73.2,710.6 28.5,697.6 "/>
<polygon fill="#4B4B4D" points="7,681.9 7.1,681.7 38.9,688.5 39,688.7 28.6,697.7 28.5,697.7 "/>
<polygon fill="#4B4B4D" points="38.9,688.6 7.1,681.8 28.5,697.6 "/>
<polygon fill="#2C2C2C" points="-32.3,680.1 -32.3,679.9 7.1,681.7 28.6,697.6 28.5,697.7 "/>
<polygon fill="#2C2C2C" points="7.1,681.8 -32.3,680 28.5,697.6 "/>
<polygon fill="#364041" points="-180.2,701.7 -180.2,701.5 -111.7,707.2 -111.6,707.3 -99.5,758.7 -99.6,758.8 "/>
<polygon fill="#364041" points="-180.2,701.6 -111.7,707.3 -99.6,758.7 "/>
<polygon fill="#293033" points="-180.2,701.7 -180.2,701.5 -84,679.9 -83.9,680 -111.6,707.4 -111.7,707.4 "/>
<polygon fill="#293033" points="-111.7,707.3 -83.9,680 -180.2,701.6 "/>
<polygon fill="#525C5C" points="-111.8,707.3 -84,679.9 -83.8,680 -99.5,758.7 -99.7,758.7 "/>
<polygon fill="#525C5C" points="-111.7,707.3 -83.9,680 -99.6,758.7 "/>
<polygon fill="#3C4745" points="-115.3,656 -115.3,640.4 -115.2,640.3 -99.6,640.9 -99.5,641 -115.1,656.1 "/>
<polygon fill="#3C4745" points="-115.2,640.4 -115.2,656 -99.6,641 "/>
<polygon fill="#495053" points="-115.3,655.9 -99.6,640.9 -99.5,640.9 -83.9,654.1 -83.9,654.3 -115.2,656.1 "/>
<polygon fill="#495053" points="-115.2,656 -83.9,654.2 -99.6,641 "/>
<polygon fill="#303938" points="-180.3,701.5 -139.9,660.1 -115.2,655.9 -115.1,656.1 -180.1,701.7 "/>
<polygon fill="#303938" points="-115.2,656 -139.9,660.2 -180.2,701.6 "/>
<polygon fill="#21292B" points="-180.2,701.5 -115.3,655.9 -83.9,654.1 -83.9,654.2 -180.1,701.7 "/>
<polygon fill="#21292B" points="-180.2,701.6 -115.2,656 -83.9,654.2 "/>
<polygon fill="#494E4E" points="-140,660.1 -126.3,627.1 -126.1,627.1 -115.1,640.3 -115.1,640.4 -139.8,660.2 "/>
<polygon fill="#494E4E" points="-139.9,660.2 -126.2,627.2 -115.2,640.4 "/>
<polygon fill="#313A39" points="-139.9,660.1 -115.3,640.3 -115.1,640.4 -115.1,656 -115.2,656.1 -139.9,660.3 "/>
<polygon fill="#313A39" points="-139.9,660.2 -115.2,656 -115.2,640.4 "/>
<polygon fill="#323838" points="-142.9,625.3 -142.9,625.2 -143.3,606.7 -143.1,606.7 -126.1,627.1 -126.2,627.3 "/>
<polygon fill="#323838" points="-126.2,627.2 -143.2,606.7 -142.8,625.2 "/>
<polygon fill="#3A3B3F" points="-145.9,643.6 -142.9,625.2 -142.8,625.1 -126.2,627.1 -126.1,627.2 -145.7,643.7 "/>
<polygon fill="#3A3B3F" points="-142.8,625.2 -145.8,643.7 -126.2,627.2 "/>
<polygon fill="#343631" points="-164,621.4 -164.1,621.2 -143.2,606.6 -143.1,606.7 -142.7,625.2 -142.9,625.3 "/>
<polygon fill="#343631" points="-142.8,625.2 -164,621.3 -143.2,606.7 "/>
<polygon fill="#181D20" points="-164.1,621.3 -180.2,606.8 -180.2,606.6 -143.2,606.6 -143.1,606.8 -163.9,621.3 "/>
<polygon fill="#181D20" points="-164,621.3 -180.2,606.7 -143.2,606.7 "/>
<polygon fill="#101317" points="-180.3,637.4 -180.3,606.7 -180.1,606.7 -163.9,621.2 -163.9,621.3 -180.1,637.5 "/>
<polygon fill="#101317" points="-164,621.3 -180.2,637.4 -180.2,606.7 "/>
<polygon fill="#232728" points="-180.3,637.3 -164.1,621.2 -142.8,625.1 -142.8,625.3 -180.1,637.5 "/>
<polygon fill="#232728" points="-180.2,637.4 -142.8,625.2 -164,621.3 "/>
<polygon fill="#1B2325" points="-180.2,637.5 -180.2,637.3 -142.9,625.1 -142.7,625.2 -145.7,643.7 -145.8,643.8 "/>
<polygon fill="#1B2325" points="-180.2,637.4 -145.8,643.7 -142.8,625.2 "/>
<polygon fill="#414841" points="-140,660.2 -145.9,643.7 -145.8,643.6 -126.2,627.1 -126.1,627.2 -139.8,660.2 "/>
<polygon fill="#414841" points="-145.8,643.7 -139.9,660.2 -126.2,627.2 "/>
<polygon fill="#343837" points="-160.2,654.3 -160.3,654.1 -145.8,643.6 -145.7,643.6 -139.8,660.1 -139.9,660.3 "/>
<polygon fill="#343837" points="-145.8,643.7 -160.2,654.2 -139.9,660.2 "/>
<polygon fill="#212C30" points="-160.3,654.2 -180.2,637.5 -180.2,637.3 -145.8,643.6 -145.7,643.7 -160.1,654.2 "/>
<polygon fill="#212C30" points="-160.2,654.2 -180.2,637.4 -145.8,643.7 "/>
<polygon fill="#383637" points="-167.3,668.8 -160.3,654.1 -160.2,654.1 -139.8,660.1 -139.8,660.3 -167.2,668.9 "/>
<polygon fill="#383637" points="-160.2,654.2 -167.2,668.8 -139.9,660.2 "/>
<polygon fill="#353535" points="-180.2,651.8 -180.3,651.7 -180.3,637.4 -180.1,637.3 -160.1,654.1 -160.2,654.3 "/>
<polygon fill="#353535" points="-160.2,654.2 -180.2,651.7 -180.2,637.4 "/>
<polygon fill="#212727" points="-180.3,651.7 -180.2,651.6 -160.2,654.1 -160.1,654.2 -167.1,668.8 -167.3,668.9 "/>
<polygon fill="#212727" points="-160.2,654.2 -167.2,668.8 -180.2,651.7 "/>
<polygon fill="#202427" points="-180.3,701.5 -167.3,668.8 -139.9,660.1 -139.8,660.2 -180.1,701.7 "/>
<polygon fill="#202427" points="-167.2,668.8 -180.2,701.6 -139.9,660.2 "/>
<polygon fill="#1B2020" points="-180.3,701.6 -180.3,651.7 -180.1,651.6 -167.1,668.7 -180.1,701.6 "/>
<polygon fill="#1B2020" points="-167.2,668.8 -180.2,651.7 -180.2,701.6 "/>
<polygon fill="#333436" points="277.9,589.5 277.9,589.3 340.7,577.6 340.8,577.7 325.7,599.3 325.6,599.3 "/>
<polygon fill="#333436" points="277.9,589.4 325.6,599.2 340.7,577.7 "/>
<polygon fill="#111111" points="454.2,771.1 454.1,770.9 521.5,746.2 521.6,746.3 523.8,771 523.7,771.1 "/>
<polygon fill="#111111" points="454.2,771 521.5,746.3 523.7,771 "/>
<polygon fill="#121516" points="438.1,709.5 438.2,709.3 470.2,709.3 470.3,709.4 472.7,721.4 472.6,721.5 "/>
<polygon fill="#121516" points="438.2,709.4 470.2,709.4 472.6,721.4 "/>
<polygon fill="#1F292B" points="-180.3,792.3 -180.3,701.6 -180.1,701.5 -99.5,758.6 -99.5,758.8 -180.1,792.3 "/>
<polygon fill="#1F292B" points="-180.2,701.6 -180.2,792.3 -99.6,758.7 "/>
<polygon fill="#2C2C2C" points="-180.2,792.4 -180.2,792.2 -99.6,758.6 -99.5,758.7 -99.5,792.3 -99.6,792.4 "/>
<polygon fill="#2C2C2C" points="-180.2,792.3 -99.6,792.3 -99.6,758.7 "/>
<polygon fill="#141819" points="-99.6,792.4 -99.7,792.3 -99.7,758.7 -99.5,758.6 -58,792.2 -58.1,792.4 "/>
<polygon fill="#141819" points="-99.6,792.3 -58.1,792.3 -99.6,758.7 "/>
<polygon fill="#141718" points="-99.6,758.8 -99.6,758.6 -10,734.5 -9.9,734.7 -58,792.3 -58.2,792.3 "/>
<polygon fill="#141718" points="-58.1,792.3 -10,734.6 -99.6,758.7 "/>
<polygon fill="#0E1111" points="-58.1,792.4 -58.2,792.2 -10.1,734.6 -9.9,734.6 15.9,792.2 15.8,792.4 "/>
<polygon fill="#0E1111" points="-58.1,792.3 15.8,792.3 -10,734.6 "/>
<polygon fill="#171819" points="-10.1,734.7 -10,734.5 73.1,710.5 73.2,710.7 20.2,764.8 20.1,764.8 "/>
<polygon fill="#171819" points="-10,734.6 20.1,764.8 73.2,710.6 "/>
<polygon fill="#13171A" points="-10.1,734.7 -9.9,734.6 20.2,764.7 15.9,792.3 15.7,792.3 "/>
<polygon fill="#13171A" points="20.1,764.8 15.8,792.3 -10,734.6 "/>
<polygon fill="#121517" points="15.7,792.2 20,764.7 20.1,764.7 59.8,764.7 59.8,764.8 15.9,792.3 "/>
<polygon fill="#121517" points="20.1,764.8 59.8,764.8 15.8,792.3 "/>
<polygon fill="#181D20" points="20.1,764.9 20.1,764.7 73.1,710.6 73.3,710.6 59.9,764.8 59.8,764.9 "/>
<polygon fill="#181D20" points="59.8,764.8 73.2,710.6 20.1,764.8 "/>
<polygon fill="#323335" points="59.7,764.7 73.1,710.6 73.2,710.5 141.4,710.5 141.5,710.7 59.8,764.8 "/>
<polygon fill="#323335" points="59.8,764.8 141.4,710.6 73.2,710.6 "/>
<polygon fill="#171819" points="15.8,792.4 15.8,792.2 59.7,764.7 59.9,764.7 71.3,792.2 71.2,792.4 "/>
<polygon fill="#171819" points="15.8,792.3 71.2,792.3 59.8,764.8 "/>
<polygon fill="#1F2427" points="71.1,792.3 59.7,764.8 59.8,764.7 101.9,769.7 101.9,769.8 71.3,792.3 "/>
<polygon fill="#1F2427" points="71.2,792.3 101.8,769.8 59.8,764.8 "/>
<polygon fill="#343434" points="59.8,764.9 59.8,764.7 127.1,750.1 127.1,750.3 101.9,769.8 101.8,769.8 "/>
<polygon fill="#343434" points="101.8,769.8 127.1,750.2 59.8,764.8 "/>
<polygon fill="#393B3A" points="59.7,764.7 141.4,710.5 141.5,710.7 127.2,750.3 59.8,764.8 "/>
<polygon fill="#393B3A" points="127.1,750.2 141.4,710.6 59.8,764.8 "/>
<polygon fill="#4E5559" points="127,750.2 141.3,710.6 141.5,710.5 186.3,743.6 186.3,743.7 127.1,750.3 "/>
<polygon fill="#4E5559" points="127.1,750.2 186.3,743.6 141.4,710.6 "/>
<polygon fill="#5F5E5F" points="127,750.3 127.1,750.1 186.3,743.5 186.4,743.7 160.1,783.2 159.9,783.2 "/>
<polygon fill="#5F5E5F" points="127.1,750.2 160,783.1 186.3,743.6 "/>
<polygon fill="#46494A" points="149.5,792.3 127,750.3 127.2,750.2 160.1,783.1 160.1,783.2 149.7,792.3 "/>
<polygon fill="#46494A" points="160,783.1 149.6,792.3 127.1,750.2 "/>
<polygon fill="#3C3D3F" points="71.2,792.4 71.1,792.2 127,750.2 127.2,750.2 149.7,792.2 149.6,792.4 "/>
<polygon fill="#3C3D3F" points="149.6,792.3 71.2,792.3 127.1,750.2 "/>
<polygon fill="#545E61" points="149.6,792.4 149.6,792.2 159.9,783.1 195.9,792.2 195.9,792.4 "/>
<polygon fill="#545E61" points="149.6,792.3 195.9,792.3 160,783.1 "/>
<polygon fill="#464742" points="160,783.2 159.9,783.1 186.2,743.6 186.4,743.6 196,792.2 195.8,792.3 "/>
<polygon fill="#464742" points="195.9,792.3 186.3,743.6 160,783.1 "/>
<polygon fill="#1A2020" points="186.2,743.7 141.4,710.7 141.5,710.5 273.1,728.5 273.1,728.7 186.3,743.7 "/>
<polygon fill="#1A2020" points="186.3,743.6 273.1,728.6 141.4,710.6 "/>
<polygon fill="#363636" points="195.9,792.4 195.8,792.3 186.2,743.7 186.3,743.6 237.9,792.2 237.8,792.4 "/>
<polygon fill="#363636" points="186.3,743.6 237.8,792.3 195.9,792.3 "/>
<polygon fill="#181C1F" points="186.2,743.7 186.3,743.5 273,728.5 273.1,728.7 237.9,792.3 237.8,792.3 "/>
<polygon fill="#181C1F" points="237.8,792.3 273.1,728.6 186.3,743.6 "/>
<polygon fill="#222625" points="237.8,792.2 273,728.6 273.1,728.5 357.3,764.3 357.3,764.4 237.9,792.4 "/>
<polygon fill="#222625" points="237.8,792.3 357.2,764.3 273.1,728.6 "/>
<polygon fill="#181A1C" points="237.8,792.4 237.8,792.2 357.2,764.3 357.3,764.4 354.9,792.3 354.8,792.4 "/>
<polygon fill="#181A1C" points="237.8,792.3 354.8,792.3 357.2,764.3 "/>
<polygon fill="#0D1111" points="354.8,792.4 354.7,792.2 357.1,764.3 357.3,764.3 443,792.2 443,792.4 "/>
<polygon fill="#0D1111" points="354.8,792.3 443,792.3 357.2,764.3 "/>
<polygon fill="#121314" points="534.5,792.4 534.4,792.2 560.3,770.2 560.4,770.1 593.3,792.2 593.3,792.4 "/>
<polygon fill="#121314" points="534.5,792.3 593.3,792.3 560.3,770.2 "/>
<polygon fill="#121518" points="593.2,792.4 560.3,770.3 560.3,770.1 650.5,768.1 650.5,768.3 593.3,792.4 "/>
<polygon fill="#121518" points="593.3,792.3 650.5,768.2 560.3,770.2 "/>
<polygon fill="#111515" points="593.3,792.4 593.2,792.2 650.5,768.1 650.6,768.2 650.6,792.3 650.5,792.4 "/>
<polygon fill="#111515" points="593.3,792.3 650.5,792.3 650.5,768.2 "/>
<polygon fill="#1B2020" points="650.4,792.3 650.4,768.2 650.5,768.1 701.4,768.1 701.5,768.3 650.5,792.4 "/>
<polygon fill="#1B2020" points="650.5,792.3 701.4,768.2 650.5,768.2 "/>
<polygon fill="#303539" points="650.5,792.4 650.5,792.2 701.4,768.1 701.5,768.2 701.5,792.3 701.4,792.4 "/>
<polygon fill="#303539" points="650.5,792.3 701.4,792.3 701.4,768.2 "/>
</svg>
