<?xml version="1.0" encoding="utf-8"?>
<!-- Generator: Adobe Illustrator 18.0.0, SVG Export Plug-In . SVG Version: 6.00 Build 0)  -->
<!DOCTYPE svg PUBLIC "-//W3C//DTD SVG 1.1//EN" "http://www.w3.org/Graphics/SVG/1.1/DTD/svg11.dtd">
<svg version="1.1" id="Layer_1" xmlns="http://www.w3.org/2000/svg" xmlns:xlink="http://www.w3.org/1999/xlink" x="0px" y="0px"
	 viewBox="-0.1 306.3 612.1 178.7" enable-background="new -0.1 306.3 612.1 178.7" xml:space="preserve">
<polygon fill="#1C272B" points="103.6,306.4 103.6,306.2 154.3,306.2 154.4,306.4 137.6,338.7 137.4,338.7 "/>
<polygon fill="#1C272B" points="103.6,306.3 137.5,338.7 154.3,306.3 "/>
<polygon fill="#232428" points="137.4,338.6 154.2,306.3 154.3,306.2 192.1,306.2 192.1,306.4 137.6,338.7 "/>
<polygon fill="#232428" points="137.5,338.7 192.1,306.3 154.3,306.3 "/>
<polygon fill="#262729" points="137.5,338.8 137.5,338.6 192,306.2 192.2,306.4 164.4,343.3 164.3,343.3 "/>
<polygon fill="#262729" points="137.5,338.7 164.3,343.2 192.1,306.3 "/>
<polygon fill="#2E3639" points="152.4,381.1 163.7,364 164.2,343.2 192,306.3 192.2,306.3 178.6,356.6 152.5,381.2 "/>
<polygon fill="#2E3639" points="178.5,356.6 192.1,306.3 164.3,343.2 163.8,364 152.5,381.2 "/>
<polygon fill="#21282E" points="152.1,392.1 152.4,381.2 178.4,356.5 178.6,356.7 152.3,392.1 "/>
<polygon fill="#21282E" points="152.5,381.2 152.2,392.1 178.5,356.6 "/>
<polygon fill="#2A2F32" points="141.2,402.1 152.1,392 178.4,356.6 178.6,356.6 190.4,376.2 190.4,376.4 141.3,402.3 "/>
<polygon fill="#2A2F32" points="152.2,392.1 141.3,402.2 190.4,376.3 178.5,356.6 "/>
<polygon fill="#232B2E" points="141,408.5 141.2,402.2 141.2,402.1 190.3,376.2 190.4,376.4 141.2,408.6 "/>
<polygon fill="#232B2E" points="141.3,402.2 141.1,408.5 190.4,376.3 "/>
<polygon fill="#1A2129" points="141.1,408.6 141,408.4 190.3,376.2 190.4,376.3 179.2,420.1 179,420.2 "/>
<polygon fill="#1A2129" points="179.1,420.1 190.4,376.3 141.1,408.5 "/>
<polygon fill="#232B2D" points="181.4,411.1 181.3,411 190.3,376.3 190.4,376.3 208,411.6 207.9,411.8 "/>
<polygon fill="#232B2D" points="181.4,411 207.9,411.7 190.4,376.3 "/>
<polygon fill="#1C2022" points="190.3,376.3 190.4,376.2 209.7,400.8 208,411.7 207.8,411.7 "/>
<polygon fill="#1C2022" points="207.9,411.7 209.7,400.8 190.4,376.3 "/>
<polygon fill="#2D2F2E" points="267.4,391.3 267.7,376.9 267.9,376.8 278,378.4 278,378.6 267.6,391.4 "/>
<polygon fill="#2D2F2E" points="267.8,376.9 277.9,378.5 267.5,391.3 "/>
<polygon fill="#2D2F2E" points="267.5,391.4 267.4,391.3 277.9,378.4 278,378.5 277.7,392.7 277.6,392.8 "/>
<polygon fill="#2D2F2E" points="277.9,378.5 277.6,392.7 267.5,391.3 "/>
<polygon fill="#25292A" points="268.5,363.8 268.4,363.7 269.9,335.7 270.1,335.7 287.7,364.1 287.6,364.2 "/>
<polygon fill="#25292A" points="270,335.7 287.7,364.1 268.5,363.7 "/>
<polygon fill="#323335" points="269.9,335.8 270,335.6 289.9,336.1 290,336.2 287.8,364.1 287.6,364.2 "/>
<polygon fill="#323335" points="270,335.7 289.9,336.2 287.7,364.1 "/>
<polygon fill="#161D23" points="270,335.8 270,335.6 301.5,325.8 301.6,325.9 289.9,336.3 289.9,336.3 "/>
<polygon fill="#161D23" points="289.9,336.2 301.6,325.8 270,335.7 "/>
<polygon fill="#1E282A" points="269.9,335.6 297.8,306.3 297.9,306.3 301.7,325.8 301.6,325.9 270,335.8 "/>
<polygon fill="#1E282A" points="301.6,325.8 297.9,306.3 270,335.7 "/>
<polygon fill="#212B2C" points="301.5,325.9 297.8,306.3 297.9,306.2 327.3,306.2 327.3,306.4 301.6,325.9 "/>
<polygon fill="#212B2C" points="301.6,325.8 327.3,306.3 297.9,306.3 "/>
<polygon fill="#2D2E30" points="301.6,325.9 301.5,325.8 327.2,306.2 327.3,306.3 339.5,333.6 339.4,333.7 "/>
<polygon fill="#2D2E30" points="327.3,306.3 339.4,333.6 301.6,325.8 "/>
<polygon fill="#131C21" points="340,317.1 340.2,306.3 340.3,306.2 357.5,306.2 357.6,306.4 340.1,317.2 "/>
<polygon fill="#131C21" points="340.1,317.1 357.5,306.3 340.3,306.3 "/>
<polygon fill="#141F22" points="340,317.1 340,317 357.5,306.2 357.6,306.3 369.9,338.2 369.8,338.3 "/>
<polygon fill="#141F22" points="357.5,306.3 369.8,338.2 340.1,317.1 "/>
<polygon fill="#151F21" points="350.5,335.7 340,317.1 340.1,317 369.9,338.1 369.8,338.3 "/>
<polygon fill="#151F21" points="369.8,338.2 350.5,335.6 340.1,317.1 "/>
<polygon fill="#171F25" points="339.4,333.7 339.3,333.6 340,317.1 340.1,317 350.6,335.5 350.5,335.7 "/>
<polygon fill="#171F25" points="350.5,335.6 339.4,333.6 340.1,317.1 "/>
<polygon fill="#1B2325" points="374.2,355.8 369.7,338.2 400.6,306.2 400.8,306.4 374.4,355.8 "/>
<polygon fill="#1B2325" points="369.8,338.2 374.3,355.8 400.7,306.3 "/>
<polygon fill="#0D1319" points="369.7,338.2 357.4,306.4 357.5,306.2 400.7,306.2 400.8,306.4 369.9,338.3 "/>
<polygon fill="#0D1319" points="369.8,338.2 357.5,306.3 400.7,306.3 "/>
<polygon fill="#292929" points="374.2,355.8 400.6,306.3 400.8,306.3 384,374.4 383.9,374.4 "/>
<polygon fill="#292929" points="374.3,355.8 383.9,374.4 400.7,306.3 "/>
<polygon fill="#252527" points="383.9,374.4 400.6,306.3 400.8,306.3 406.5,356.5 384,374.5 "/>
<polygon fill="#252527" points="383.9,374.4 406.4,356.5 400.7,306.3 "/>
<polygon fill="#1B1F1F" points="383.9,374.5 383.9,374.3 406.3,356.5 406.5,356.5 415.5,375.1 415.4,375.3 "/>
<polygon fill="#1B1F1F" points="383.9,374.4 415.5,375.2 406.4,356.5 "/>
<polygon fill="#282C2D" points="406.3,356.6 400.6,306.3 400.7,306.2 425.9,306.2 426,306.4 406.5,356.6 "/>
<polygon fill="#282C2D" points="406.4,356.5 425.9,306.3 400.7,306.3 "/>
<polygon fill="#1A1E1E" points="406.3,356.6 415.1,334 415.3,334 415.5,375.2 415.4,375.2 "/>
<polygon fill="#1A1E1E" points="415.5,375.2 415.2,334 406.4,356.5 "/>
<polygon fill="#212322" points="415.1,334 425.8,306.3 426,306.3 431.9,329.5 431.8,329.7 415.2,334.1 "/>
<polygon fill="#212322" points="415.2,334 431.8,329.6 425.9,306.3 "/>
<polygon fill="#2A2A2A" points="431.7,329.6 425.8,306.3 425.9,306.2 461.4,306.2 461.5,306.4 431.8,329.6 "/>
<polygon fill="#2A2A2A" points="425.9,306.3 461.4,306.3 431.8,329.6 "/>
<polygon fill="#1B1D1F" points="267.8,377 267.7,376.9 268.4,363.7 268.6,363.6 278,378.4 277.9,378.6 "/>
<polygon fill="#1B1D1F" points="277.9,378.5 268.5,363.7 267.8,376.9 "/>
<polygon fill="#25292A" points="277.9,378.5 268.5,363.7 268.5,363.6 287.7,364 287.7,364.2 278,378.5 "/>
<polygon fill="#25292A" points="287.7,364.1 277.9,378.5 268.5,363.7 "/>
<polygon fill="#242527" points="369,369.8 368.9,369.7 374.2,355.7 374.4,355.7 384,374.3 383.9,374.5 "/>
<polygon fill="#242527" points="374.3,355.8 369,369.7 383.9,374.4 "/>
<polygon fill="#141718" points="396.9,384.5 383.9,374.5 384,374.3 415.5,375.1 415.5,375.3 397,384.5 "/>
<polygon fill="#141718" points="383.9,374.4 397,384.4 415.5,375.2 "/>
<polygon fill="#1B2325" points="350.4,335.6 350.5,335.5 369.8,338.1 369.9,338.2 374.4,355.7 374.2,355.8 "/>
<polygon fill="#1B2325" points="374.3,355.8 350.5,335.6 369.8,338.2 "/>
<polygon fill="#0B1014" points="350.4,335.6 350.6,335.5 374.3,355.7 374.4,355.8 369.1,369.8 368.9,369.8 "/>
<polygon fill="#0B1014" points="369,369.7 350.5,335.6 374.3,355.8 "/>
<polygon fill="#2F3034" points="415.4,375.2 415.1,334 415.2,333.9 431.7,329.5 431.9,329.6 415.5,375.2 "/>
<polygon fill="#2F3034" points="415.5,375.2 431.8,329.6 415.2,334 "/>
<polygon fill="#252A2D" points="164,424.7 141.1,408.5 141.2,408.3 179.1,420.1 179.1,420.3 164.1,424.7 "/>
<polygon fill="#252A2D" points="141.1,408.4 164,424.6 179,420.2 "/>
<polygon fill="#192325" points="179.1,420.2 179,420.1 181.3,411 181.5,411 189.3,420.3 189.3,420.5 "/>
<polygon fill="#192325" points="179.1,420.1 189.3,420.4 181.4,411 "/>
<polygon fill="#131C23" points="189.2,420.4 181.3,411.1 181.4,410.9 207.9,411.6 207.9,411.8 189.3,420.4 "/>
<polygon fill="#131C23" points="189.3,420.4 207.9,411.7 181.4,411 "/>
<polygon fill="#131718" points="415.4,375.3 415.4,375.1 431.7,329.5 431.9,329.5 440.1,388.4 439.9,388.5 "/>
<polygon fill="#131718" points="415.5,375.2 440,388.4 431.8,329.6 "/>
<polygon fill="#1C2022" points="190.3,376.4 190.3,376.2 229.3,366.2 229.4,366.3 209.8,400.9 209.6,400.9 "/>
<polygon fill="#1C2022" points="209.7,400.8 229.3,366.3 190.4,376.3 "/>
<polygon fill="#33383B" points="209.6,400.8 229.2,366.2 229.4,366.2 267.5,391.3 267.5,391.4 209.7,400.9 "/>
<polygon fill="#33383B" points="229.3,366.3 267.5,391.3 209.7,400.8 "/>
<polygon fill="#343537" points="209.7,400.9 209.7,400.7 267.5,391.2 267.6,391.4 258,405.2 257.9,405.2 "/>
<polygon fill="#343537" points="209.7,400.8 257.9,405.1 267.5,391.3 "/>
<polygon fill="#262B2E" points="190.3,376.3 178.4,356.7 178.5,356.5 229.3,366.2 229.4,366.4 190.4,376.4 "/>
<polygon fill="#262B2E" points="229.3,366.3 178.5,356.6 190.4,376.3 "/>
<polygon fill="#393E42" points="178.5,356.7 178.4,356.6 192,306.3 192.2,306.3 229.4,366.2 229.3,366.4 "/>
<polygon fill="#393E42" points="229.3,366.3 192.1,306.3 178.5,356.6 "/>
<polygon fill="#34383B" points="229.2,366.3 192,306.4 192.1,306.2 270,335.6 270.1,335.8 229.4,366.3 "/>
<polygon fill="#34383B" points="229.3,366.3 270,335.7 192.1,306.3 "/>
<polygon fill="#1E2629" points="192,306.4 192.1,306.2 297.9,306.2 297.9,306.4 270.1,335.8 270,335.8 "/>
<polygon fill="#1E2629" points="192.1,306.3 297.9,306.3 270,335.7 "/>
<polygon fill="#1B1E22" points="439.9,388.3 461,365.6 461.2,365.6 466.4,381.3 466.3,381.4 440,388.5 "/>
<polygon fill="#1B1E22" points="440,388.4 466.3,381.3 461.1,365.7 "/>
<polygon fill="#1B1F1F" points="439.9,388.4 450.3,346.4 450.5,346.4 461.2,365.6 461.2,365.7 440.1,388.5 "/>
<polygon fill="#1B1F1F" points="461.1,365.7 450.4,346.4 440,388.4 "/>
<polygon fill="#1A1E1E" points="461,365.7 450.3,346.5 450.4,346.3 483.4,338.8 483.5,338.9 461.2,365.7 "/>
<polygon fill="#1A1E1E" points="450.4,346.4 483.4,338.9 461.1,365.7 "/>
<polygon fill="#1D2122" points="461,365.6 483.3,338.8 483.5,338.9 484.4,357.3 484.4,357.4 461.1,365.8 "/>
<polygon fill="#1D2122" points="483.4,338.9 484.3,357.3 461.1,365.7 "/>
<polygon fill="#1B1B1D" points="466.2,381.2 484.2,357.3 484.4,357.3 486.8,380 486.7,380.1 466.3,381.4 "/>
<polygon fill="#1B1B1D" points="484.3,357.3 486.7,380 466.3,381.3 "/>
<polygon fill="#1C2125" points="466.2,381.3 461,365.7 461.1,365.6 484.3,357.2 484.4,357.4 466.4,381.4 "/>
<polygon fill="#1C2125" points="484.3,357.3 461.1,365.7 466.3,381.3 "/>
<polygon fill="#212226" points="486.6,380 484.2,357.3 484.3,357.2 512.1,356.9 512.2,357.1 486.8,380.1 "/>
<polygon fill="#212226" points="484.3,357.3 512.1,357 486.7,380 "/>
<polygon fill="#111415" points="484.3,357.3 507,339.4 507.2,339.4 512.2,357 512.1,357.1 484.3,357.4 "/>
<polygon fill="#111415" points="512.1,357 507.1,339.5 484.3,357.3 "/>
<polygon fill="#222325" points="483.4,339 483.3,338.8 488,325 488.1,325 507.1,339.4 507.1,339.6 "/>
<polygon fill="#222325" points="507.1,339.5 488.1,325.1 483.4,338.9 "/>
<polygon fill="#222325" points="484.2,357.3 483.3,338.9 483.4,338.8 507.1,339.4 507.1,339.5 484.4,357.4 "/>
<polygon fill="#222325" points="507.1,339.5 484.3,357.3 483.4,338.9 "/>
<polygon fill="#101314" points="512,357 507,339.5 507.1,339.4 530.7,338.3 530.7,338.4 512.2,357.1 "/>
<polygon fill="#101314" points="507.1,339.5 530.7,338.4 512.1,357 "/>
<polygon fill="#15191A" points="507,339.4 519.2,319.8 519.4,319.8 530.7,338.3 530.7,338.5 507.1,339.6 "/>
<polygon fill="#15191A" points="530.7,338.4 519.3,319.9 507.1,339.5 "/>
<polygon fill="#1D1E20" points="488,325.1 488,325 519.3,319.8 519.4,319.9 507.2,339.5 507,339.5 "/>
<polygon fill="#1D1E20" points="519.3,319.9 488.1,325.1 507.1,339.5 "/>
<polygon fill="#252628" points="488,325.1 461.3,306.4 461.4,306.2 535.3,306.2 535.3,306.4 488.1,325.1 "/>
<polygon fill="#252628" points="488.1,325.1 461.4,306.3 535.3,306.3 "/>
<polygon fill="#161B1B" points="488,325 535.2,306.2 535.3,306.4 519.4,320 488.1,325.2 "/>
<polygon fill="#161B1B" points="488.1,325.1 519.3,319.9 535.3,306.3 "/>
<polygon fill="#1F272A" points="431.7,329.5 461.3,306.2 461.5,306.2 488.1,325 488.1,325.2 431.8,329.7 "/>
<polygon fill="#1F272A" points="488.1,325.1 431.8,329.6 461.4,306.3 "/>
<polygon fill="#161A1B" points="450.3,346.4 488,325 488.2,325.1 483.5,338.9 450.4,346.5 "/>
<polygon fill="#161A1B" points="488.1,325.1 450.4,346.4 483.4,338.9 "/>
<polygon fill="#182022" points="450.3,346.5 431.7,329.6 431.8,329.5 488,325 488.1,325.1 450.4,346.5 "/>
<polygon fill="#182022" points="488.1,325.1 450.4,346.4 431.8,329.6 "/>
<polygon fill="#1B1F1F" points="439.9,388.4 431.7,329.6 431.8,329.5 450.5,346.4 450.5,346.5 440.1,388.4 "/>
<polygon fill="#1B1F1F" points="450.4,346.4 431.8,329.6 440,388.4 "/>
<polygon fill="#161B1B" points="515.4,380.8 515.3,380.7 535.3,357 535.4,357 530,381.1 529.9,381.2 "/>
<polygon fill="#161B1B" points="515.4,380.7 529.9,381.1 535.3,357 "/>
<polygon fill="#121419" points="515.3,380.7 530.6,338.3 530.8,338.3 535.5,357 515.5,380.8 "/>
<polygon fill="#121419" points="535.4,357 530.7,338.4 515.4,380.7 "/>
<polygon fill="#0F1214" points="535.3,357.1 531,340.1 531.1,340 557.1,340.6 557.1,340.8 535.4,357.1 "/>
<polygon fill="#0F1214" points="535.4,357 557.1,340.7 531.1,340.1 "/>
<polygon fill="#171C1F" points="531.1,340.2 531,340.1 535.2,306.3 535.3,306.3 557.2,340.7 557.1,340.8 "/>
<polygon fill="#171C1F" points="557.1,340.7 535.3,306.3 531.1,340.1 "/>
<polygon fill="#12161C" points="557,340.8 535.2,306.4 535.3,306.2 588,323.2 588.1,323.4 557.1,340.8 "/>
<polygon fill="#12161C" points="557.1,340.7 588,323.3 535.3,306.3 "/>
<polygon fill="#151A1D" points="535.2,306.4 535.3,306.2 612,306.2 612.1,306.4 588.1,323.3 588,323.4 "/>
<polygon fill="#151A1D" points="588,323.3 612,306.3 535.3,306.3 "/>
<polygon fill="#181A1C" points="557,340.8 557,340.6 588,323.2 588.1,323.3 582.5,349.2 582.3,349.3 "/>
<polygon fill="#181A1C" points="588,323.3 582.4,349.2 557.1,340.7 "/>
<polygon fill="#111415" points="562.6,362.2 557,340.7 557.1,340.6 582.4,349.1 582.4,349.3 562.7,362.2 "/>
<polygon fill="#111415" points="582.4,349.2 562.7,362.2 557.1,340.7 "/>
<polygon fill="#181C1F" points="535.3,357.1 535.3,356.9 557,340.6 557.2,340.7 562.8,362.1 562.7,362.3 "/>
<polygon fill="#181C1F" points="562.7,362.2 535.4,357 557.1,340.7 "/>
<polygon fill="#111518" points="529.6,381.1 535.3,357 535.4,356.9 562.7,362.1 562.7,362.2 529.8,381.2 "/>
<polygon fill="#111518" points="562.7,362.2 529.7,381.1 535.4,357 "/>
<polygon fill="#161B1B" points="510.9,401.4 515.3,380.7 515.4,380.6 529.6,381 529.7,381.2 511.1,401.5 "/>
<polygon fill="#161B1B" points="529.6,381.1 511,401.5 515.4,380.7 "/>
<polygon fill="#14181B" points="496.6,417.3 489.2,400.9 489.3,400.8 511,401.4 511.1,401.5 496.8,417.3 "/>
<polygon fill="#14181B" points="511,401.5 496.7,417.2 489.3,400.9 "/>
<polygon fill="#1F2120" points="489.3,401 489.2,400.8 515.3,380.7 515.5,380.8 511.1,401.5 511,401.6 "/>
<polygon fill="#1F2120" points="489.3,400.9 515.4,380.7 511,401.5 "/>
<polygon fill="#1E1F22" points="489.2,400.9 486.6,380 486.7,379.9 515.4,380.6 515.5,380.8 489.3,401 "/>
<polygon fill="#1E1F22" points="489.3,400.9 486.7,380 515.4,380.7 "/>
<polygon fill="#14181B" points="473.7,417.4 489.2,400.8 489.4,400.9 496.8,417.2 496.7,417.3 473.8,417.6 "/>
<polygon fill="#14181B" points="489.3,400.9 473.8,417.5 496.7,417.2 "/>
<polygon fill="#1B1B1D" points="466.2,381.4 466.3,381.2 486.7,379.9 486.8,380 489.4,400.9 489.2,401 "/>
<polygon fill="#1B1B1D" points="489.3,400.9 466.3,381.3 486.7,380 "/>
<polygon fill="#1A1F23" points="473.7,417.5 469,403.8 469.1,403.7 489.3,400.8 489.4,401 473.9,417.5 "/>
<polygon fill="#1A1F23" points="489.3,400.9 469.1,403.8 473.8,417.5 "/>
<polygon fill="#171B1A" points="469,403.8 466.2,381.3 466.4,381.2 489.3,400.8 489.3,401 469.1,403.9 "/>
<polygon fill="#171B1A" points="469.1,403.8 466.3,381.3 489.3,400.9 "/>
<polygon fill="#161B1F" points="454.8,402.6 454.7,402.4 466.2,381.3 466.4,381.3 469.2,403.8 469.1,403.9 "/>
<polygon fill="#161B1F" points="469.1,403.8 454.8,402.5 466.3,381.3 "/>
<polygon fill="#1B1E22" points="439.9,388.5 440,388.3 466.3,381.2 466.4,381.3 454.9,402.5 454.7,402.5 "/>
<polygon fill="#1B1E22" points="454.8,402.5 440,388.4 466.3,381.3 "/>
<polygon fill="#11161A" points="454.7,402.5 454.8,402.4 469.1,403.7 469.2,403.8 462.6,417.2 462.4,417.2 "/>
<polygon fill="#11161A" points="454.8,402.5 462.5,417.2 469.1,403.8 "/>
<polygon fill="#15191C" points="462.5,417.3 462.4,417.1 469,403.8 469.2,403.8 473.9,417.4 473.8,417.6 "/>
<polygon fill="#15191C" points="462.5,417.2 473.8,417.5 469.1,403.8 "/>
<polygon fill="#191D20" points="496.6,417.2 510.9,401.4 511.1,401.4 513.2,415 513.1,415.2 496.7,417.3 "/>
<polygon fill="#191D20" points="496.7,417.2 513.1,415.1 511,401.5 "/>
<polygon fill="#1B1B1D" points="513,415.1 510.9,401.5 529.5,381 529.7,381.1 513.2,415.1 "/>
<polygon fill="#1B1B1D" points="513.1,415.1 529.6,381.1 511,401.5 "/>
<polygon fill="none" points="496.7,417.3 496.7,417.1 513.1,415 513.2,415.1 510.6,419.3 510.5,419.3 "/>
<polygon fill="none" points="513.1,415.1 510.6,419.2 496.7,417.2 "/>
<polygon fill="#18191D" points="513,415 529.5,381.1 529.7,381.1 533,399.1 533,399.2 513.2,415.1 "/>
<polygon fill="#18191D" points="529.6,381.1 532.9,399.1 513.1,415.1 "/>
<polygon fill="#15191C" points="532.8,399.1 529.5,381.1 529.6,381 549.2,379.4 549.3,379.6 533,399.2 "/>
<polygon fill="#15191C" points="532.9,399.1 549.2,379.5 529.6,381.1 "/>
<polygon fill="#13151A" points="529.5,381 562.6,362.1 562.8,362.2 549.3,379.6 529.6,381.2 "/>
<polygon fill="#13151A" points="549.2,379.5 562.7,362.2 529.6,381.1 "/>
<polygon fill="#212224" points="582.3,349.2 587.9,323.2 588.1,323.2 595.6,341.6 595.5,341.8 582.4,349.3 "/>
<polygon fill="#212224" points="582.4,349.2 595.5,341.7 588,323.3 "/>
<polygon fill="#212120" points="595.4,341.7 587.9,323.3 588,323.2 605.7,324.9 605.8,325.1 595.6,341.7 "/>
<polygon fill="#212120" points="595.5,341.7 605.7,325 588,323.3 "/>
<polygon fill="#13171A" points="588,323.4 588,323.2 611.9,306.2 612.1,306.4 605.8,325 605.7,325.1 "/>
<polygon fill="#13171A" points="605.7,325 612,306.3 588,323.3 "/>
<polygon fill="#30303A" points="-0.1,485 -0.1,454.4 0.1,454.3 13.9,468.3 13.9,468.5 0.1,485.1 "/>
<polygon fill="#30303A" points="13.9,468.4 0,454.4 0,485 "/>
<polygon fill="#12171A" points="13.9,468.5 13.8,468.3 32.4,452.8 32.6,452.9 31.4,468.4 31.3,468.5 "/>
<polygon fill="#12171A" points="13.9,468.4 32.5,452.9 31.3,468.4 "/>
<polygon fill="#383836" points="31.3,468.5 31.2,468.4 32.4,452.8 32.6,452.8 40.7,468.4 40.6,468.5 "/>
<polygon fill="#383836" points="31.3,468.4 40.6,468.4 32.5,452.9 "/>
<polygon fill="#30303A" points="13.8,468.5 -0.1,454.4 0,454.3 32.5,452.8 32.5,452.9 13.9,468.5 "/>
<polygon fill="#30303A" points="32.5,452.9 0,454.4 13.9,468.4 "/>
<polygon fill="#101419" points="32.4,452.9 32.5,452.8 45.3,454.3 45.4,454.4 40.7,468.4 40.5,468.5 "/>
<polygon fill="#101419" points="32.5,452.9 45.3,454.4 40.6,468.4 "/>
<polygon fill="#1E2726" points="45.3,454.5 45.2,454.3 49.1,442.6 49.3,442.6 49.3,454.4 49.2,454.5 "/>
<polygon fill="#1E2726" points="45.3,454.4 49.2,454.4 49.2,442.6 "/>
<polygon fill="#1F2324" points="32.5,453 32.4,452.8 49.1,442.5 49.3,442.6 45.4,454.4 45.3,454.5 "/>
<polygon fill="#1F2324" points="49.2,442.6 32.5,452.9 45.3,454.4 "/>
<polygon fill="#171F21" points="29.8,440.1 29.8,439.9 52.9,438.8 53,439 49.3,442.7 49.2,442.7 "/>
<polygon fill="#171F21" points="49.2,442.6 52.9,438.9 29.8,440 "/>
<polygon fill="#12171A" points="32.4,452.9 29.7,440 29.8,439.9 49.2,442.5 49.2,442.7 32.5,452.9 "/>
<polygon fill="#12171A" points="29.8,440 32.5,452.9 49.2,442.6 "/>
<polygon fill="#30303A" points="0,454.3 29.8,439.9 29.9,440 32.6,452.8 32.5,453 0,454.5 "/>
<polygon fill="#30303A" points="29.8,440 0,454.4 32.5,452.9 "/>
<polygon fill="#182028" points="52.8,439 52.9,438.8 59.6,434.8 59.8,434.8 61.2,445.3 61.1,445.4 "/>
<polygon fill="#182028" points="52.9,438.9 61.1,445.3 59.7,434.8 "/>
<polygon fill="#343235" points="52.8,438.9 52.8,422.9 53,422.9 59.8,434.8 59.7,434.9 53,439 "/>
<polygon fill="#343235" points="59.7,434.8 52.9,422.9 52.9,438.9 "/>
<polygon fill="#152228" points="52.8,423 52.9,422.8 61.1,421 61.2,421.1 59.8,434.9 59.6,434.9 "/>
<polygon fill="#152228" points="59.7,434.8 61.1,421.1 52.9,422.9 "/>
<polygon fill="#131922" points="29.7,439.9 52.8,422.8 53,422.9 53,438.9 52.9,439 29.8,440.1 "/>
<polygon fill="#131922" points="52.9,422.9 29.8,440 52.9,438.9 "/>
<polygon fill="#161F24" points="61,421.1 70.4,407.2 70.6,407.3 69.1,417.9 69.1,418 61.2,421.2 "/>
<polygon fill="#161F24" points="61.1,421.1 69,417.9 70.5,407.2 "/>
<polygon fill="#353341" points="52.8,422.8 70.4,407.2 70.6,407.3 61.2,421.2 52.9,423 "/>
<polygon fill="#353341" points="52.9,422.9 61.1,421.1 70.5,407.2 "/>
<polygon fill="#3D4145" points="59.6,409.3 70.4,396.7 70.6,396.8 70.6,407.2 70.5,407.3 59.7,409.4 "/>
<polygon fill="#3D4145" points="70.5,407.2 70.5,396.8 59.7,409.3 "/>
<polygon fill="#404646" points="52.8,422.9 59.6,409.3 70.5,407.1 70.6,407.3 53,423 "/>
<polygon fill="#404646" points="59.7,409.3 52.9,422.9 70.5,407.2 "/>
<polygon fill="#454748" points="70.5,396.9 70.4,396.7 77.7,386.2 77.8,386.2 83.2,396.7 83.1,396.9 "/>
<polygon fill="#454748" points="70.5,396.8 83.1,396.8 77.8,386.3 "/>
<polygon fill="#1D282C" points="86,417.2 83,396.8 83.1,396.7 90.5,396.7 90.6,396.8 86.2,417.2 "/>
<polygon fill="#1D282C" points="83.1,396.8 86.1,417.2 90.5,396.8 "/>
<polygon fill="#212C32" points="83.1,396.9 83,396.7 89.6,383.2 89.8,383.2 90.6,396.8 90.5,396.9 "/>
<polygon fill="#212C32" points="90.5,396.8 89.7,383.2 83.1,396.8 "/>
<polygon fill="#57585C" points="77.7,386.3 76.7,375 76.8,374.9 89.8,383.1 89.7,383.3 77.8,386.4 "/>
<polygon fill="#57585C" points="89.7,383.2 76.8,375 77.8,386.3 "/>
<polygon fill="#57585C" points="77.7,386.3 77.7,386.2 89.7,383.1 89.8,383.2 83.2,396.8 83,396.8 "/>
<polygon fill="#57585C" points="89.7,383.2 83.1,396.8 77.8,386.3 "/>
<polygon fill="#33363F" points="65.7,375 65.8,374.9 76.8,374.9 76.9,375 77.9,386.3 77.7,386.3 "/>
<polygon fill="#33363F" points="76.8,375 65.8,375 77.8,386.3 "/>
<polygon fill="#2E353D" points="70.4,396.8 65.7,375 65.9,374.9 77.8,386.2 77.8,386.3 70.6,396.8 "/>
<polygon fill="#2E353D" points="65.8,375 70.5,396.8 77.8,386.3 "/>
<polygon fill="#2A353B" points="65.8,375.1 65.7,374.9 70.4,360.4 70.6,360.4 76.9,374.9 76.8,375.1 "/>
<polygon fill="#2A353B" points="65.8,375 70.5,360.4 76.8,375 "/>
<polygon fill="#1E2E2D" points="76.7,375.1 70.4,360.5 70.6,360.4 89.8,383.1 89.6,383.3 "/>
<polygon fill="#1E2E2D" points="70.5,360.4 89.7,383.2 76.8,375 "/>
<polygon fill="#343D3C" points="59.6,409.3 65.7,375 65.9,375 70.6,396.7 59.8,409.4 "/>
<polygon fill="#343D3C" points="65.8,375 59.7,409.3 70.5,396.8 "/>
<polygon fill="#3C3C3E" points="45.9,383.2 45.9,383.1 65.8,374.9 65.9,375 59.8,409.4 59.6,409.4 "/>
<polygon fill="#3C3C3E" points="65.8,375 46,383.2 59.7,409.3 "/>
<polygon fill="#3A3E3F" points="50.7,352.3 50.8,352.1 70.5,360.4 70.6,360.5 65.9,375 65.7,375 "/>
<polygon fill="#3A3E3F" points="70.5,360.4 50.8,352.2 65.8,375 "/>
<polygon fill="#2A2C2B" points="45.9,383.2 50.7,352.2 50.9,352.2 65.9,374.9 65.9,375.1 46,383.3 "/>
<polygon fill="#2A2C2B" points="50.8,352.2 46,383.2 65.8,375 "/>
<polygon fill="#171F21" points="37.2,363.6 37.2,363.5 50.7,352.1 50.9,352.2 46.1,383.2 45.9,383.2 "/>
<polygon fill="#171F21" points="50.8,352.2 37.2,363.6 46,383.2 "/>
<polygon fill="#121D1E" points="37.2,363.6 29.2,346.9 29.4,346.8 50.8,352.1 50.9,352.3 37.3,363.7 "/>
<polygon fill="#121D1E" points="37.2,363.6 29.3,346.9 50.8,352.2 "/>
<polygon fill="#202425" points="29.3,347 29.3,346.8 41.4,339.2 41.5,339.2 50.9,352.2 50.8,352.3 "/>
<polygon fill="#202425" points="29.3,346.9 41.4,339.3 50.8,352.2 "/>
<polygon fill="#181D20" points="50.8,352.3 41.4,339.4 41.5,339.2 70.6,360.4 70.5,360.5 "/>
<polygon fill="#181D20" points="41.4,339.3 70.5,360.4 50.8,352.2 "/>
<polygon fill="#15191A" points="29.2,346.9 27.1,327.2 27.3,327.1 41.5,339.2 41.5,339.4 29.4,347 "/>
<polygon fill="#15191A" points="41.4,339.3 27.2,327.2 29.3,346.9 "/>
<polygon fill="#29272A" points="19.2,366.9 29.3,346.8 29.4,346.8 37.3,363.6 37.3,363.7 19.4,367 "/>
<polygon fill="#29272A" points="29.3,346.9 19.3,366.9 37.2,363.6 "/>
<polygon fill="#1D2527" points="19.3,367 19.3,366.8 37.2,363.5 37.3,363.6 46.1,383.2 45.9,383.3 "/>
<polygon fill="#1D2527" points="19.3,366.9 46,383.2 37.2,363.6 "/>
<polygon fill="#2B2C2E" points="17.4,382.5 17.3,382.4 19.2,366.9 19.4,366.8 46,383.1 46,383.3 "/>
<polygon fill="#2B2C2E" points="19.3,366.9 17.4,382.4 46,383.2 "/>
<polygon fill="#363837" points="31.6,395.3 17.3,382.5 17.4,382.3 46,383.1 46,383.3 31.7,395.3 "/>
<polygon fill="#363837" points="17.4,382.4 31.7,395.2 46,383.2 "/>
<polygon fill="#3E4443" points="31.6,395.3 31.6,395.1 45.9,383.1 46.1,383.2 59.8,409.3 59.6,409.4 "/>
<polygon fill="#3E4443" points="31.7,395.2 59.7,409.3 46,383.2 "/>
<polygon fill="#3E4443" points="31.6,395.3 31.7,395.1 59.7,409.3 59.8,409.4 53,422.9 52.8,423 "/>
<polygon fill="#3E4443" points="31.7,395.2 52.9,422.9 59.7,409.3 "/>
<polygon fill="#3C4242" points="19.3,405.6 19.3,405.4 31.6,395.1 31.8,395.2 35.2,410.6 35.1,410.7 "/>
<polygon fill="#3C4242" points="31.7,395.2 19.3,405.5 35.1,410.6 "/>
<polygon fill="#404646" points="29.7,440 35.1,410.6 35.2,410.6 53,422.8 53,423 29.9,440.1 "/>
<polygon fill="#404646" points="35.1,410.6 29.8,440 52.9,422.9 "/>
<polygon fill="#49494A" points="35.1,410.7 31.6,395.2 31.8,395.1 53,422.8 52.8,423 "/>
<polygon fill="#49494A" points="35.1,410.6 31.7,395.2 52.9,422.9 "/>
<polygon fill="#3C4242" points="19.2,405.5 19.4,405.4 35.2,410.5 35.2,410.7 29.9,440 29.7,440 "/>
<polygon fill="#3C4242" points="19.3,405.5 29.8,440 35.1,410.6 "/>
<polygon fill="#303435" points="5.3,424 5.2,423.8 19.3,405.4 19.4,405.5 20.4,429.2 20.3,429.3 "/>
<polygon fill="#303435" points="19.3,405.5 5.3,423.9 20.3,429.2 "/>
<polygon fill="#1F2B2B" points="20.2,429.3 19.2,405.5 19.4,405.4 29.9,440 29.7,440.1 "/>
<polygon fill="#1F2B2B" points="20.3,429.2 29.8,440 19.3,405.5 "/>
<polygon fill="#2A2A2C" points="-0.1,454.3 20.2,429.1 20.4,429.1 29.9,439.9 29.9,440.1 0,454.5 "/>
<polygon fill="#2A2A2C" points="20.3,429.2 0,454.4 29.8,440 "/>
<polygon fill="#303435" points="-0.1,454.4 5.2,423.9 5.3,423.8 20.3,429.1 20.4,429.3 0.1,454.4 "/>
<polygon fill="#303435" points="20.3,429.2 5.3,423.9 0,454.4 "/>
<polygon fill="#1C2022" points="-0.1,454.4 -0.1,423.9 0,423.8 5.3,423.8 5.4,423.9 0.1,454.4 "/>
<polygon fill="#1C2022" points="5.3,423.9 0,423.9 0,454.4 "/>
<polygon fill="#1E2629" points="0,424 -0.1,423.9 2.5,407.2 2.7,407.2 5.4,423.9 5.3,424 "/>
<polygon fill="#1E2629" points="0,423.9 2.6,407.2 5.3,423.9 "/>
<polygon fill="#3A403E" points="5.2,423.9 2.5,407.3 2.6,407.1 19.3,405.4 19.4,405.5 5.4,423.9 "/>
<polygon fill="#3A403E" points="2.6,407.2 19.3,405.5 5.3,423.9 "/>
<polygon fill="#2F3535" points="2.6,407.2 17.3,382.3 17.5,382.4 19.4,405.5 19.3,405.6 2.7,407.3 "/>
<polygon fill="#2F3535" points="2.6,407.2 17.4,382.4 19.3,405.5 "/>
<polygon fill="#30303A" points="19.2,405.5 17.3,382.4 17.5,382.3 31.7,395.1 31.7,395.3 19.4,405.6 "/>
<polygon fill="#30303A" points="19.3,405.5 31.7,395.2 17.4,382.4 "/>
<polygon fill="#1E2223" points="2.5,407.3 -0.1,389.9 0,389.8 17.4,382.3 17.5,382.4 2.7,407.3 "/>
<polygon fill="#1E2223" points="17.4,382.4 0,389.9 2.6,407.2 "/>
<polygon fill="#171F21" points="-0.1,423.9 -0.1,389.9 0.1,389.9 2.7,407.2 0.1,423.9 "/>
<polygon fill="#171F21" points="0,389.9 0,423.9 2.6,407.2 "/>
<polygon fill="#212127" points="19.2,366.9 17.3,344.6 17.4,344.5 29.4,346.8 29.4,346.9 19.4,366.9 "/>
<polygon fill="#212127" points="19.3,366.9 17.4,344.6 29.3,346.9 "/>
<polygon fill="#28292B" points="5.2,357 5.2,356.8 17.3,344.6 17.5,344.6 19.4,366.9 19.3,367 "/>
<polygon fill="#28292B" points="17.4,344.6 5.3,356.9 19.3,366.9 "/>
<polygon fill="#262A2B" points="5.2,356.9 5.4,356.8 19.4,366.8 19.4,366.9 17.5,382.4 17.3,382.4 "/>
<polygon fill="#262A2B" points="5.3,356.9 17.4,382.4 19.3,366.9 "/>
<polygon fill="#292929" points="-0.1,389.9 5.2,356.9 5.4,356.9 17.5,382.4 17.4,382.5 0,390 "/>
<polygon fill="#292929" points="5.3,356.9 0,389.9 17.4,382.4 "/>
<polygon fill="#162125" points="-0.1,358.2 -0.1,333.7 0.1,333.6 5.4,356.9 5.3,357 0,358.3 "/>
<polygon fill="#162125" points="5.3,356.9 0,333.7 0,358.2 "/>
<polygon fill="#232728" points="-0.1,389.9 -0.1,358.2 0,358.1 5.3,356.8 5.4,356.9 0.1,389.9 "/>
<polygon fill="#232728" points="5.3,356.9 0,389.9 0,358.2 "/>
<polygon fill="#272C28" points="5.2,356.9 -0.1,333.7 0.1,333.6 17.5,344.5 17.5,344.7 5.4,357 "/>
<polygon fill="#272C28" points="0,333.7 17.4,344.6 5.3,356.9 "/>
<polygon fill="#101414" points="-0.1,333.7 0,333.6 27.2,327.1 27.3,327.3 17.5,344.7 17.3,344.7 "/>
<polygon fill="#101414" points="0,333.7 27.2,327.2 17.4,344.6 "/>
<polygon fill="#17181A" points="17.4,344.7 17.3,344.6 27.2,327.2 27.3,327.2 29.4,346.9 29.3,347 "/>
<polygon fill="#17181A" points="27.2,327.2 29.3,346.9 17.4,344.6 "/>
<polygon fill="#151517" points="-0.1,333.7 -0.1,311.2 0.1,311.1 27.3,327.1 27.3,327.3 0,333.8 "/>
<polygon fill="#151517" points="27.2,327.2 0,311.2 0,333.7 "/>
<polygon fill="#14181B" points="27.2,327.3 27.2,327.1 49,308.7 49.1,308.8 50.9,330.6 50.8,330.7 "/>
<polygon fill="#14181B" points="49,308.8 50.8,330.6 27.2,327.2 "/>
<polygon fill="#14181B" points="27.2,327.3 27.3,327.1 50.8,330.5 50.9,330.7 41.5,339.4 41.4,339.4 "/>
<polygon fill="#14181B" points="50.8,330.6 27.2,327.2 41.4,339.3 "/>
<polygon fill="#151517" points="50.7,330.6 48.9,308.8 49.1,308.7 69.2,323.4 69.2,323.6 50.8,330.7 "/>
<polygon fill="#151517" points="49,308.8 69.1,323.5 50.8,330.6 "/>
<polygon fill="#181D20" points="69.1,323.6 69.1,323.4 102.4,306.2 102.5,306.4 84.8,330.7 84.7,330.7 "/>
<polygon fill="#181D20" points="69.1,323.5 84.7,330.6 102.4,306.3 "/>
<polygon fill="#131B1D" points="50.8,330.7 50.8,330.5 69.1,323.4 84.7,330.5 84.7,330.7 "/>
<polygon fill="#131B1D" points="84.7,330.6 50.8,330.6 69.1,323.5 "/>
<polygon fill="#171918" points="48.9,308.8 48.3,306.3 48.4,306.2 102.4,306.2 102.5,306.4 49,308.9 "/>
<polygon fill="#171918" points="102.4,306.3 48.4,306.3 49,308.8 "/>
<polygon fill="#202528" points="69.1,323.6 49,308.9 49,308.7 102.4,306.2 102.5,306.4 69.2,323.6 "/>
<polygon fill="#202528" points="102.4,306.3 69.1,323.5 49,308.8 "/>
<polygon fill="#131414" points="-0.1,311.2 -0.1,306.3 0,306.2 48.4,306.2 48.4,306.4 0,311.3 "/>
<polygon fill="#131414" points="48.4,306.3 0,306.3 0,311.2 "/>
<polygon fill="#161719" points="0,311.1 48.4,306.2 48.5,306.3 49.1,308.8 49,308.9 0,311.3 "/>
<polygon fill="#161719" points="49,308.8 0,311.2 48.4,306.3 "/>
<polygon fill="#131718" points="-0.1,311.3 0,311.1 49,308.7 49.1,308.9 27.3,327.3 27.2,327.3 "/>
<polygon fill="#131718" points="49,308.8 27.2,327.2 0,311.2 "/>
<polygon fill="#222D31" points="70.4,407.3 70.4,407.2 83,396.7 83.2,396.7 86.2,417.2 86.1,417.3 "/>
<polygon fill="#222D31" points="86.1,417.2 70.5,407.2 83.1,396.8 "/>
<polygon fill="#3A3E3F" points="70.4,407.2 70.4,396.8 70.5,396.7 83.1,396.7 83.1,396.8 70.6,407.3 "/>
<polygon fill="#3A3E3F" points="70.5,407.2 70.5,396.8 83.1,396.8 "/>
<polygon fill="#2C3437" points="68.9,417.9 70.4,407.2 70.5,407.2 86.2,417.1 86.2,417.3 69,418 "/>
<polygon fill="#2C3437" points="70.5,407.2 69,417.9 86.1,417.2 "/>
<polygon fill="#49494B" points="68.9,428 68.9,417.9 69,417.8 86.1,417.1 86.2,417.3 69.1,428.1 "/>
<polygon fill="#49494B" points="86.1,417.2 69,428 69,417.9 "/>
<polygon fill="#252F39" points="61,445.3 59.6,434.9 59.6,434.8 69,427.9 69.1,428 61.2,445.4 "/>
<polygon fill="#252F39" points="69,428 61.1,445.3 59.7,434.8 "/>
<polygon fill="#333B3E" points="61.1,421.2 61.1,421 69,417.8 69.1,417.9 69.1,428 69,428.1 "/>
<polygon fill="#333B3E" points="69,428 61.1,421.1 69,417.9 "/>
<polygon fill="#283233" points="59.6,434.8 61,421.1 61.2,421.1 69.1,427.9 69.1,428.1 59.7,434.9 "/>
<polygon fill="#283233" points="69,428 59.7,434.8 61.1,421.1 "/>
<polygon fill="#434446" points="49.1,454.4 49.1,442.6 49.2,442.5 61.2,445.2 61.2,445.4 49.3,454.5 "/>
<polygon fill="#434446" points="61.1,445.3 49.2,454.4 49.2,442.6 "/>
<polygon fill="#313A39" points="49.2,442.7 49.1,442.5 52.8,438.8 53,438.8 61.2,445.3 61.1,445.4 "/>
<polygon fill="#313A39" points="61.1,445.3 49.2,442.6 52.9,438.9 "/>
<g>
	<g>
		<path fill="none" d="M372.9,435.2c-0.3,0-0.5-0.3-0.5-0.5c0-0.1,0-0.3,0.1-0.3c0.1-0.1,0.2-0.2,0.4-0.2c0.3,0,0.5,0.3,0.5,0.5
			c0,0.1,0,0.3-0.1,0.3C373.2,435.2,373.1,435.2,372.9,435.2z"/>
		<path fill="none" d="M372.9,435.1c0.5,0,0.5-0.8,0-0.8C372.4,434.3,372.4,435.1,372.9,435.1L372.9,435.1z"/>
	</g>
</g>
<polygon fill="#141819" points="519.2,319.9 519.3,319.8 535.2,306.2 535.4,306.3 530.8,338.4 530.6,338.4 "/>
<polygon fill="#141819" points="535.3,306.3 519.3,319.9 530.7,338.4 "/>
<polygon fill="#111417" points="530.6,338.4 535.2,306.3 535.4,306.3 531.2,340.1 531,340.1 "/>
<polygon fill="#111417" points="535.3,306.3 530.7,338.4 531.1,340.1 "/>
<polygon fill="#151618" points="486.7,380.1 486.6,379.9 512.1,356.9 512.2,357 515.5,380.7 515.4,380.8 "/>
<polygon fill="#151618" points="486.7,380 515.4,380.7 512.1,357 "/>
<polygon fill="#1E2126" points="515.3,380.8 512,357 530.6,338.3 530.8,338.4 515.5,380.8 "/>
<polygon fill="#1E2126" points="512.1,357 530.7,338.4 515.4,380.7 "/>
<polygon fill="#2C2C2C" points="229.3,366.3 229.4,366.2 267.9,376.8 267.9,376.9 267.6,391.3 267.4,391.4 "/>
<polygon fill="#2C2C2C" points="229.3,366.3 267.8,376.9 267.5,391.3 "/>
<polygon fill="#2F2F2F" points="229.3,366.4 229.3,366.2 268.5,363.6 268.6,363.7 267.9,376.9 267.8,377 "/>
<polygon fill="#2F2F2F" points="229.3,366.3 268.5,363.7 267.8,376.9 "/>
<polygon fill="#343635" points="229.3,366.2 270,335.6 270.1,335.7 268.6,363.7 268.5,363.8 229.3,366.4 "/>
<polygon fill="#343635" points="229.3,366.3 270,335.7 268.5,363.7 "/>
<polygon fill="#141D22" points="327.2,306.4 327.3,306.2 340.3,306.2 340.4,306.3 340.2,317.1 340,317.1 "/>
<polygon fill="#141D22" points="327.3,306.3 340.3,306.3 340.1,317.1 "/>
<polygon fill="#192227" points="327.2,306.4 327.3,306.2 340.1,317 339.5,333.6 339.3,333.6 "/>
<polygon fill="#192227" points="327.3,306.3 339.4,333.6 340.1,317.1 "/>
</svg>
